<svg width="1246" height="772" viewBox="0 0 1246 772" fill="none" xmlns="http://www.w3.org/2000/svg">
<path d="M0 46.316C0 20.7364 19.6688 0 43.9315 0H296.183C320.446 0 340.115 20.7364 340.115 46.316V259.469C340.115 285.049 320.446 305.785 296.183 305.785H43.9315C19.6688 305.785 0 285.049 0 259.469V46.316Z" fill="#F6F2FF"/>
<path d="M147.792 214.994H149.959L153.151 224.612L156.343 214.994H158.511L154.022 228.094H152.281L147.792 214.994ZM146.622 214.994H148.782L149.174 224.369V228.094H146.622V214.994ZM157.521 214.994H159.688V228.094H157.128V224.369L157.521 214.994Z" fill="#FB00E2"/>
<path d="M161.387 223.325V223.136C161.387 222.423 161.483 221.766 161.677 221.166C161.87 220.56 162.152 220.035 162.522 219.591C162.891 219.148 163.347 218.803 163.887 218.557C164.428 218.305 165.048 218.179 165.748 218.179C166.447 218.179 167.07 218.305 167.617 218.557C168.163 218.803 168.621 219.148 168.991 219.591C169.366 220.035 169.651 220.56 169.844 221.166C170.037 221.766 170.134 222.423 170.134 223.136V223.325C170.134 224.033 170.037 224.69 169.844 225.296C169.651 225.896 169.366 226.421 168.991 226.87C168.621 227.314 168.166 227.659 167.625 227.905C167.085 228.151 166.464 228.274 165.765 228.274C165.065 228.274 164.442 228.151 163.896 227.905C163.355 227.659 162.897 227.314 162.522 226.87C162.152 226.421 161.87 225.896 161.677 225.296C161.483 224.69 161.387 224.033 161.387 223.325ZM163.844 223.136V223.325C163.844 223.733 163.879 224.114 163.947 224.468C164.015 224.822 164.123 225.134 164.271 225.404C164.425 225.668 164.624 225.875 164.869 226.025C165.113 226.175 165.412 226.25 165.765 226.25C166.106 226.25 166.399 226.175 166.644 226.025C166.888 225.875 167.085 225.668 167.233 225.404C167.381 225.134 167.489 224.822 167.557 224.468C167.631 224.114 167.668 223.733 167.668 223.325V223.136C167.668 222.741 167.631 222.369 167.557 222.021C167.489 221.667 167.378 221.355 167.224 221.085C167.076 220.809 166.88 220.593 166.635 220.437C166.391 220.281 166.095 220.203 165.748 220.203C165.401 220.203 165.105 220.281 164.86 220.437C164.621 220.593 164.425 220.809 164.271 221.085C164.123 221.355 164.015 221.667 163.947 222.021C163.879 222.369 163.844 222.741 163.844 223.136Z" fill="#FB00E2"/>
<path d="M177.098 225.971V214.274H179.573V228.094H177.346L177.098 225.971ZM171.261 223.343V223.154C171.261 222.411 171.34 221.736 171.5 221.13C171.659 220.518 171.892 219.993 172.199 219.555C172.507 219.118 172.885 218.779 173.335 218.539C173.784 218.299 174.296 218.179 174.871 218.179C175.411 218.179 175.883 218.299 176.287 218.539C176.697 218.779 177.044 219.121 177.329 219.564C177.619 220.002 177.852 220.521 178.028 221.121C178.205 221.715 178.333 222.366 178.412 223.073V223.487C178.333 224.165 178.205 224.795 178.028 225.377C177.852 225.959 177.619 226.469 177.329 226.906C177.044 227.338 176.697 227.674 176.287 227.914C175.878 228.154 175.4 228.274 174.854 228.274C174.279 228.274 173.767 228.151 173.317 227.905C172.874 227.659 172.498 227.314 172.191 226.87C171.889 226.427 171.659 225.905 171.5 225.305C171.34 224.705 171.261 224.051 171.261 223.343ZM173.719 223.154V223.343C173.719 223.745 173.747 224.12 173.804 224.468C173.867 224.816 173.966 225.125 174.103 225.395C174.245 225.659 174.427 225.866 174.649 226.016C174.876 226.16 175.152 226.232 175.477 226.232C175.898 226.232 176.245 226.133 176.518 225.935C176.791 225.731 176.999 225.452 177.141 225.098C177.289 224.744 177.374 224.336 177.397 223.874V222.696C177.38 222.318 177.329 221.979 177.243 221.679C177.164 221.373 177.044 221.112 176.885 220.896C176.731 220.68 176.538 220.512 176.304 220.392C176.077 220.272 175.807 220.212 175.494 220.212C175.175 220.212 174.902 220.29 174.674 220.446C174.447 220.596 174.262 220.803 174.12 221.067C173.983 221.331 173.881 221.643 173.812 222.003C173.75 222.357 173.719 222.741 173.719 223.154Z" fill="#FB00E2"/>
<path d="M185.743 228.274C185.026 228.274 184.384 228.154 183.815 227.914C183.246 227.668 182.762 227.329 182.364 226.897C181.971 226.466 181.67 225.965 181.459 225.395C181.249 224.819 181.143 224.207 181.143 223.559V223.199C181.143 222.462 181.243 221.787 181.442 221.175C181.641 220.563 181.926 220.032 182.295 219.582C182.671 219.133 183.126 218.788 183.661 218.548C184.196 218.302 184.799 218.179 185.47 218.179C186.125 218.179 186.705 218.293 187.211 218.521C187.718 218.749 188.141 219.073 188.483 219.492C188.83 219.912 189.092 220.416 189.268 221.004C189.444 221.586 189.533 222.234 189.533 222.948V224.027H182.193V222.3H187.117V222.102C187.117 221.742 187.055 221.421 186.93 221.139C186.81 220.851 186.628 220.623 186.383 220.455C186.139 220.287 185.826 220.203 185.445 220.203C185.12 220.203 184.842 220.278 184.608 220.428C184.375 220.578 184.184 220.788 184.036 221.058C183.894 221.328 183.786 221.646 183.712 222.012C183.644 222.372 183.61 222.768 183.61 223.199V223.559C183.61 223.949 183.661 224.309 183.763 224.639C183.871 224.969 184.022 225.254 184.216 225.494C184.415 225.734 184.654 225.92 184.933 226.052C185.217 226.184 185.539 226.25 185.897 226.25C186.341 226.25 186.753 226.16 187.134 225.98C187.521 225.794 187.854 225.515 188.133 225.143L189.328 226.511C189.134 226.804 188.87 227.086 188.534 227.356C188.204 227.626 187.806 227.848 187.339 228.022C186.873 228.19 186.341 228.274 185.743 228.274Z" fill="#FB00E2"/>
<path d="M193.527 214.274V228.094H191.06V214.274H193.527Z" fill="#FB00E2"/>
<path d="M30.1885 109.203H32.7402C32.689 110.085 32.4586 110.868 32.049 111.552C31.645 112.235 31.0789 112.769 30.3507 113.153C29.6281 113.537 28.7576 113.729 27.7392 113.729C26.9427 113.729 26.2286 113.585 25.5971 113.297C24.9656 113.003 24.4251 112.583 23.9756 112.037C23.5318 111.492 23.1933 110.832 22.96 110.058C22.7267 109.284 22.6101 108.418 22.6101 107.458V106.549C22.6101 105.589 22.7296 104.723 22.9685 103.949C23.2132 103.169 23.5603 102.506 24.0097 101.96C24.4649 101.414 25.0082 100.995 25.6398 100.701C26.2713 100.407 26.9768 100.26 27.7562 100.26C28.7917 100.26 29.6651 100.458 30.3763 100.854C31.0931 101.25 31.6479 101.795 32.0404 102.491C32.4387 103.187 32.6777 103.979 32.7573 104.867H30.197C30.1686 104.339 30.069 103.892 29.8983 103.526C29.7277 103.154 29.4688 102.875 29.1217 102.689C28.7804 102.497 28.3252 102.401 27.7562 102.401C27.3295 102.401 26.9569 102.485 26.6383 102.653C26.3197 102.821 26.0522 103.076 25.836 103.418C25.6198 103.76 25.4577 104.192 25.3496 104.714C25.2472 105.229 25.196 105.835 25.196 106.531V107.458C25.196 108.136 25.2443 108.732 25.3411 109.248C25.4378 109.758 25.5857 110.19 25.7848 110.544C25.9897 110.892 26.2514 111.156 26.57 111.336C26.8943 111.51 27.284 111.597 27.7392 111.597C28.274 111.597 28.7149 111.507 29.062 111.327C29.409 111.147 29.6736 110.88 29.8557 110.526C30.0434 110.172 30.1544 109.731 30.1885 109.203Z" fill="#18888F"/>
<path d="M33.8753 108.78V108.591C33.8753 107.878 33.972 107.221 34.1655 106.621C34.3589 106.015 34.6405 105.49 35.0103 105.046C35.3802 104.603 35.8353 104.258 36.3758 104.012C36.9163 103.76 37.5365 103.634 38.2363 103.634C38.9361 103.634 39.5591 103.76 40.1053 104.012C40.6515 104.258 41.1095 104.603 41.4793 105.046C41.8548 105.49 42.1393 106.015 42.3327 106.621C42.5262 107.221 42.6229 107.878 42.6229 108.591V108.78C42.6229 109.488 42.5262 110.145 42.3327 110.751C42.1393 111.351 41.8548 111.876 41.4793 112.325C41.1095 112.769 40.6543 113.114 40.1138 113.36C39.5733 113.606 38.9532 113.729 38.2534 113.729C37.5535 113.729 36.9305 113.606 36.3844 113.36C35.8439 113.114 35.3859 112.769 35.0103 112.325C34.6405 111.876 34.3589 111.351 34.1655 110.751C33.972 110.145 33.8753 109.488 33.8753 108.78ZM36.3332 108.591V108.78C36.3332 109.188 36.3673 109.569 36.4356 109.923C36.5038 110.277 36.6119 110.589 36.7599 110.859C36.9135 111.123 37.1126 111.33 37.3573 111.48C37.6019 111.63 37.9006 111.705 38.2534 111.705C38.5947 111.705 38.8877 111.63 39.1324 111.48C39.377 111.33 39.5733 111.123 39.7212 110.859C39.8692 110.589 39.9773 110.277 40.0455 109.923C40.1195 109.569 40.1565 109.188 40.1565 108.78V108.591C40.1565 108.196 40.1195 107.824 40.0455 107.476C39.9773 107.122 39.8663 106.81 39.7127 106.54C39.5648 106.264 39.3685 106.048 39.1238 105.892C38.8792 105.736 38.5833 105.658 38.2363 105.658C37.8892 105.658 37.5934 105.736 37.3487 105.892C37.1098 106.048 36.9135 106.264 36.7599 106.54C36.6119 106.81 36.5038 107.122 36.4356 107.476C36.3673 107.824 36.3332 108.196 36.3332 108.591Z" fill="#18888F"/>
<path d="M46.5401 105.892V113.549H44.0822V103.814H46.3865L46.5401 105.892ZM46.1817 108.34H45.516C45.516 107.62 45.6042 106.972 45.7805 106.396C45.9569 105.814 46.2044 105.319 46.523 104.912C46.8416 104.498 47.22 104.183 47.6581 103.967C48.1019 103.745 48.5968 103.634 49.143 103.634C49.5754 103.634 49.9709 103.7 50.3293 103.832C50.6877 103.964 50.995 104.174 51.251 104.462C51.5127 104.75 51.7118 105.13 51.8484 105.604C51.9906 106.078 52.0617 106.657 52.0617 107.341V113.549H49.5868V107.332C49.5868 106.9 49.5299 106.564 49.4161 106.324C49.3023 106.084 49.1345 105.916 48.9126 105.82C48.6964 105.718 48.429 105.667 48.1104 105.667C47.7804 105.667 47.4931 105.736 47.2484 105.874C47.0095 106.012 46.8103 106.204 46.651 106.45C46.4974 106.69 46.3808 106.972 46.3011 107.296C46.2215 107.62 46.1817 107.968 46.1817 108.34Z" fill="#18888F"/>
<path d="M58.4539 103.814V105.649H53.0773V103.814H58.4539ZM54.4087 101.411H56.8665V110.616C56.8665 110.898 56.9006 111.114 56.9689 111.264C57.0429 111.414 57.151 111.519 57.2932 111.579C57.4355 111.633 57.6147 111.66 57.8309 111.66C57.9845 111.66 58.121 111.654 58.2405 111.642C58.3657 111.624 58.4709 111.606 58.5563 111.588L58.5648 113.495C58.3543 113.567 58.1267 113.624 57.8821 113.666C57.6374 113.708 57.3672 113.729 57.0713 113.729C56.5308 113.729 56.0586 113.636 55.6547 113.45C55.2564 113.258 54.9492 112.952 54.733 112.532C54.5168 112.112 54.4087 111.561 54.4087 110.877V101.411Z" fill="#18888F"/>
<path d="M62.3114 105.937V113.549H59.8535V103.814H62.1663L62.3114 105.937ZM65.0935 103.751L65.0508 106.153C64.9314 106.135 64.7863 106.12 64.6156 106.108C64.4506 106.09 64.2998 106.081 64.1633 106.081C63.8162 106.081 63.5147 106.129 63.2587 106.225C63.0083 106.315 62.7978 106.45 62.6271 106.63C62.4621 106.81 62.337 107.029 62.2516 107.287C62.172 107.545 62.1264 107.839 62.1151 108.169L61.6201 108.007C61.6201 107.377 61.6798 106.798 61.7993 106.27C61.9188 105.736 62.0923 105.271 62.3199 104.876C62.5532 104.48 62.8376 104.174 63.1733 103.958C63.509 103.742 63.893 103.634 64.3254 103.634C64.462 103.634 64.6014 103.646 64.7436 103.67C64.8858 103.688 65.0025 103.715 65.0935 103.751Z" fill="#18888F"/>
<path d="M65.6056 108.78V108.591C65.6056 107.878 65.7023 107.221 65.8957 106.621C66.0892 106.015 66.3708 105.49 66.7406 105.046C67.1104 104.603 67.5656 104.258 68.1061 104.012C68.6466 103.76 69.2667 103.634 69.9666 103.634C70.6664 103.634 71.2894 103.76 71.8356 104.012C72.3817 104.258 72.8397 104.603 73.2096 105.046C73.5851 105.49 73.8695 106.015 74.063 106.621C74.2564 107.221 74.3532 107.878 74.3532 108.591V108.78C74.3532 109.488 74.2564 110.145 74.063 110.751C73.8695 111.351 73.5851 111.876 73.2096 112.325C72.8397 112.769 72.3846 113.114 71.8441 113.36C71.3036 113.606 70.6834 113.729 69.9836 113.729C69.2838 113.729 68.6608 113.606 68.1146 113.36C67.5741 113.114 67.1161 112.769 66.7406 112.325C66.3708 111.876 66.0892 111.351 65.8957 110.751C65.7023 110.145 65.6056 109.488 65.6056 108.78ZM68.0634 108.591V108.78C68.0634 109.188 68.0976 109.569 68.1658 109.923C68.2341 110.277 68.3422 110.589 68.4901 110.859C68.6438 111.123 68.8429 111.33 69.0875 111.48C69.3322 111.63 69.6309 111.705 69.9836 111.705C70.325 111.705 70.618 111.63 70.8627 111.48C71.1073 111.33 71.3036 111.123 71.4515 110.859C71.5994 110.589 71.7075 110.277 71.7758 109.923C71.8498 109.569 71.8868 109.188 71.8868 108.78V108.591C71.8868 108.196 71.8498 107.824 71.7758 107.476C71.7075 107.122 71.5966 106.81 71.443 106.54C71.2951 106.264 71.0988 106.048 70.8541 105.892C70.6095 105.736 70.3136 105.658 69.9666 105.658C69.6195 105.658 69.3236 105.736 69.079 105.892C68.84 106.048 68.6438 106.264 68.4901 106.54C68.3422 106.81 68.2341 107.122 68.1658 107.476C68.0976 107.824 68.0634 108.196 68.0634 108.591Z" fill="#18888F"/>
<path d="M78.4581 99.729V113.549H75.9917V99.729H78.4581Z" fill="#18888F"/>
<path d="M83.0837 99.729V113.549H80.6173V99.729H83.0837Z" fill="#18888F"/>
<path d="M89.3649 113.729C88.648 113.729 88.0051 113.609 87.4361 113.369C86.8672 113.123 86.3836 112.784 85.9853 112.352C85.5927 111.921 85.2912 111.42 85.0807 110.85C84.8702 110.274 84.7649 109.662 84.7649 109.014V108.654C84.7649 107.917 84.8645 107.242 85.0636 106.63C85.2627 106.018 85.5472 105.487 85.917 105.037C86.2925 104.588 86.7477 104.243 87.2825 104.003C87.8173 103.757 88.4204 103.634 89.0918 103.634C89.7461 103.634 90.3264 103.748 90.8328 103.976C91.3391 104.204 91.763 104.528 92.1044 104.947C92.4514 105.367 92.7131 105.871 92.8895 106.459C93.0659 107.041 93.1541 107.689 93.1541 108.403V109.482H85.8146V107.755H90.7389V107.557C90.7389 107.197 90.6763 106.876 90.5511 106.594C90.4316 106.306 90.2496 106.078 90.0049 105.91C89.7603 105.742 89.4474 105.658 89.0662 105.658C88.7419 105.658 88.4631 105.733 88.2298 105.883C87.9965 106.033 87.8059 106.243 87.658 106.513C87.5158 106.783 87.4077 107.101 87.3337 107.467C87.2654 107.827 87.2313 108.223 87.2313 108.654V109.014C87.2313 109.404 87.2825 109.764 87.3849 110.094C87.493 110.424 87.6438 110.709 87.8372 110.949C88.0364 111.189 88.2753 111.375 88.5541 111.507C88.8386 111.639 89.16 111.705 89.5185 111.705C89.9623 111.705 90.3747 111.615 90.7559 111.435C91.1428 111.249 91.4757 110.97 91.7544 110.598L92.9492 111.966C92.7558 112.259 92.4912 112.541 92.1556 112.811C91.8256 113.081 91.4273 113.303 90.9608 113.477C90.4942 113.645 89.9623 113.729 89.3649 113.729Z" fill="#18888F"/>
<path d="M97.0115 105.937V113.549H94.5537V103.814H96.8665L97.0115 105.937ZM99.7937 103.751L99.751 106.153C99.6315 106.135 99.4865 106.12 99.3158 106.108C99.1508 106.09 99 106.081 98.8635 106.081C98.5164 106.081 98.2149 106.129 97.9588 106.225C97.7085 106.315 97.498 106.45 97.3273 106.63C97.1623 106.81 97.0371 107.029 96.9518 107.287C96.8721 107.545 96.8266 107.839 96.8152 108.169L96.3203 108.007C96.3203 107.377 96.38 106.798 96.4995 106.27C96.619 105.736 96.7925 105.271 97.0201 104.876C97.2533 104.48 97.5378 104.174 97.8735 103.958C98.2092 103.742 98.5932 103.634 99.0256 103.634C99.1622 103.634 99.3016 103.646 99.4438 103.67C99.586 103.688 99.7027 103.715 99.7937 103.751Z" fill="#18888F"/>
<path d="M66.751 235.029V225.95H69.3027V235.029C69.3027 235.904 69.1207 236.657 68.7565 237.287C68.3924 237.911 67.8946 238.391 67.2631 238.727C66.6372 239.063 65.9317 239.231 65.1466 239.231C64.333 239.231 63.6132 239.087 62.9874 238.799C62.3616 238.511 61.8694 238.07 61.511 237.476C61.1525 236.876 60.9733 236.117 60.9733 235.2H63.5421C63.5421 235.68 63.6047 236.06 63.7299 236.342C63.8607 236.624 64.0456 236.825 64.2846 236.945C64.5236 237.065 64.8109 237.125 65.1466 237.125C65.4709 237.125 65.7525 237.044 65.9915 236.882C66.2304 236.72 66.4153 236.483 66.5462 236.171C66.6827 235.859 66.751 235.479 66.751 235.029Z" fill="#C900FB"/>
<path d="M70.9413 234.282V234.093C70.9413 233.379 71.038 232.722 71.2315 232.123C71.4249 231.517 71.7065 230.992 72.0764 230.548C72.4462 230.104 72.9013 229.759 73.4418 229.513C73.9823 229.261 74.6025 229.135 75.3023 229.135C76.0021 229.135 76.6251 229.261 77.1713 229.513C77.7175 229.759 78.1755 230.104 78.5453 230.548C78.9208 230.992 79.2053 231.517 79.3987 232.123C79.5922 232.722 79.6889 233.379 79.6889 234.093V234.282C79.6889 234.99 79.5922 235.647 79.3987 236.252C79.2053 236.852 78.9208 237.377 78.5453 237.827C78.1755 238.271 77.7203 238.616 77.1798 238.862C76.6393 239.108 76.0192 239.231 75.3194 239.231C74.6196 239.231 73.9966 239.108 73.4504 238.862C72.9099 238.616 72.4519 238.271 72.0764 237.827C71.7065 237.377 71.4249 236.852 71.2315 236.252C71.038 235.647 70.9413 234.99 70.9413 234.282ZM73.3992 234.093V234.282C73.3992 234.69 73.4333 235.071 73.5016 235.425C73.5698 235.778 73.6779 236.09 73.8259 236.36C73.9795 236.624 74.1786 236.831 74.4233 236.981C74.6679 237.131 74.9666 237.206 75.3194 237.206C75.6607 237.206 75.9537 237.131 76.1984 236.981C76.443 236.831 76.6393 236.624 76.7873 236.36C76.9352 236.09 77.0433 235.778 77.1116 235.425C77.1855 235.071 77.2225 234.69 77.2225 234.282V234.093C77.2225 233.697 77.1855 233.325 77.1116 232.977C77.0433 232.623 76.9323 232.311 76.7787 232.042C76.6308 231.766 76.4345 231.55 76.1899 231.394C75.9452 231.238 75.6494 231.16 75.3023 231.16C74.9552 231.16 74.6594 231.238 74.4147 231.394C74.1758 231.55 73.9795 231.766 73.8259 232.042C73.6779 232.311 73.5698 232.623 73.5016 232.977C73.4333 233.325 73.3992 233.697 73.3992 234.093Z" fill="#C900FB"/>
<path d="M81.1995 225.23H83.6573V236.819L83.4098 239.051H81.1995V225.23ZM89.5033 234.084V234.273C89.5033 234.999 89.4293 235.665 89.2814 236.27C89.1391 236.876 88.9172 237.401 88.6157 237.845C88.3142 238.283 87.9386 238.625 87.4892 238.871C87.0454 239.111 86.522 239.231 85.9189 239.231C85.3556 239.231 84.8663 239.111 84.451 238.871C84.0413 238.631 83.6971 238.292 83.4184 237.854C83.1396 237.416 82.9148 236.903 82.7441 236.315C82.5735 235.727 82.4454 235.086 82.3601 234.39V233.976C82.4454 233.28 82.5735 232.638 82.7441 232.051C82.9148 231.463 83.1396 230.95 83.4184 230.512C83.6971 230.074 84.0413 229.735 84.451 229.495C84.8606 229.255 85.3442 229.135 85.9018 229.135C86.5106 229.135 87.0397 229.258 87.4892 229.504C87.9443 229.744 88.3198 230.086 88.6157 230.53C88.9172 230.968 89.1391 231.49 89.2814 232.096C89.4293 232.695 89.5033 233.358 89.5033 234.084ZM87.0454 234.273V234.084C87.0454 233.688 87.017 233.316 86.9601 232.968C86.9089 232.614 86.8178 232.305 86.687 232.042C86.5561 231.772 86.3769 231.559 86.1493 231.403C85.9274 231.247 85.6401 231.169 85.2873 231.169C84.9517 231.169 84.6672 231.229 84.4339 231.349C84.2007 231.469 84.0072 231.637 83.8536 231.853C83.7057 232.069 83.5947 232.326 83.5208 232.626C83.4468 232.92 83.4013 233.244 83.3842 233.598V234.777C83.4013 235.251 83.4752 235.671 83.6061 236.036C83.7427 236.396 83.9475 236.681 84.2206 236.891C84.4994 237.095 84.8606 237.197 85.3044 237.197C85.6515 237.197 85.9388 237.125 86.1664 236.981C86.394 236.837 86.5703 236.633 86.6955 236.369C86.8264 236.105 86.9174 235.796 86.9686 235.443C87.0198 235.083 87.0454 234.693 87.0454 234.273Z" fill="#C900FB"/>
<path d="M255.703 213.614V204.535H258.255V213.614C258.255 214.49 258.073 215.242 257.709 215.872C257.345 216.496 256.847 216.976 256.216 217.312C255.59 217.648 254.884 217.816 254.099 217.816C253.285 217.816 252.566 217.672 251.94 217.384C251.314 217.096 250.822 216.655 250.463 216.061C250.105 215.461 249.926 214.702 249.926 213.785H252.495C252.495 214.265 252.557 214.645 252.682 214.927C252.813 215.209 252.998 215.41 253.237 215.53C253.476 215.65 253.763 215.71 254.099 215.71C254.423 215.71 254.705 215.629 254.944 215.467C255.183 215.305 255.368 215.068 255.499 214.756C255.635 214.445 255.703 214.064 255.703 213.614Z" fill="#C900FB"/>
<path d="M259.894 212.867V212.678C259.894 211.964 259.991 211.307 260.184 210.708C260.377 210.102 260.659 209.577 261.029 209.133C261.399 208.689 261.854 208.344 262.394 208.098C262.935 207.846 263.555 207.72 264.255 207.72C264.955 207.72 265.578 207.846 266.124 208.098C266.67 208.344 267.128 208.689 267.498 209.133C267.873 209.577 268.158 210.102 268.351 210.708C268.545 211.307 268.641 211.964 268.641 212.678V212.867C268.641 213.575 268.545 214.232 268.351 214.837C268.158 215.437 267.873 215.962 267.498 216.412C267.128 216.856 266.673 217.201 266.132 217.447C265.592 217.693 264.972 217.816 264.272 217.816C263.572 217.816 262.949 217.693 262.403 217.447C261.862 217.201 261.404 216.856 261.029 216.412C260.659 215.962 260.377 215.437 260.184 214.837C259.991 214.232 259.894 213.575 259.894 212.867ZM262.352 212.678V212.867C262.352 213.275 262.386 213.656 262.454 214.01C262.522 214.364 262.63 214.675 262.778 214.945C262.932 215.209 263.131 215.416 263.376 215.566C263.62 215.716 263.919 215.791 264.272 215.791C264.613 215.791 264.906 215.716 265.151 215.566C265.396 215.416 265.592 215.209 265.74 214.945C265.888 214.675 265.996 214.364 266.064 214.01C266.138 213.656 266.175 213.275 266.175 212.867V212.678C266.175 212.282 266.138 211.91 266.064 211.562C265.996 211.208 265.885 210.897 265.731 210.627C265.583 210.351 265.387 210.135 265.142 209.979C264.898 209.823 264.602 209.745 264.255 209.745C263.908 209.745 263.612 209.823 263.367 209.979C263.128 210.135 262.932 210.351 262.778 210.627C262.63 210.897 262.522 211.208 262.454 211.562C262.386 211.91 262.352 212.282 262.352 212.678Z" fill="#C900FB"/>
<path d="M270.152 203.816H272.61V215.404L272.362 217.636H270.152V203.816ZM278.456 212.669V212.858C278.456 213.584 278.382 214.25 278.234 214.855C278.092 215.461 277.87 215.986 277.568 216.43C277.267 216.868 276.891 217.21 276.442 217.456C275.998 217.696 275.474 217.816 274.871 217.816C274.308 217.816 273.819 217.696 273.403 217.456C272.994 217.216 272.65 216.877 272.371 216.439C272.092 216.001 271.867 215.488 271.697 214.9C271.526 214.313 271.398 213.671 271.313 212.975V212.561C271.398 211.865 271.526 211.223 271.697 210.636C271.867 210.048 272.092 209.535 272.371 209.097C272.65 208.659 272.994 208.32 273.403 208.08C273.813 207.84 274.297 207.72 274.854 207.72C275.463 207.72 275.992 207.843 276.442 208.089C276.897 208.329 277.272 208.671 277.568 209.115C277.87 209.553 278.092 210.075 278.234 210.681C278.382 211.28 278.456 211.943 278.456 212.669ZM275.998 212.858V212.669C275.998 212.273 275.969 211.901 275.913 211.553C275.861 211.199 275.77 210.891 275.639 210.627C275.509 210.357 275.329 210.144 275.102 209.988C274.88 209.832 274.593 209.754 274.24 209.754C273.904 209.754 273.62 209.814 273.386 209.934C273.153 210.054 272.96 210.222 272.806 210.438C272.658 210.654 272.547 210.912 272.473 211.211C272.399 211.505 272.354 211.829 272.337 212.183V213.362C272.354 213.836 272.428 214.256 272.559 214.621C272.695 214.981 272.9 215.266 273.173 215.476C273.452 215.68 273.813 215.782 274.257 215.782C274.604 215.782 274.891 215.71 275.119 215.566C275.346 215.422 275.523 215.218 275.648 214.954C275.779 214.69 275.87 214.382 275.921 214.028C275.972 213.668 275.998 213.278 275.998 212.858Z" fill="#C900FB"/>
<path d="M192.335 51.1446H194.503L197.694 60.7629L200.886 51.1446H203.054L198.565 64.2449H196.824L192.335 51.1446ZM191.166 51.1446H193.325L193.718 60.52V64.2449H191.166V51.1446ZM202.064 51.1446H204.232V64.2449H201.671V60.52L202.064 51.1446Z" fill="#5B188F"/>
<path d="M211.307 62.0495V57.7128C211.307 57.4008 211.258 57.1339 211.161 56.912C211.065 56.684 210.914 56.5071 210.709 56.3811C210.51 56.2552 210.251 56.1922 209.933 56.1922C209.659 56.1922 209.423 56.2432 209.224 56.3451C209.025 56.4411 208.871 56.5821 208.763 56.768C208.655 56.948 208.601 57.1609 208.601 57.4068H206.143C206.143 56.993 206.234 56.6001 206.416 56.2282C206.599 55.8563 206.863 55.5294 207.21 55.2474C207.557 54.9595 207.97 54.7346 208.448 54.5726C208.931 54.4107 209.472 54.3297 210.069 54.3297C210.786 54.3297 211.423 54.4557 211.981 54.7076C212.538 54.9595 212.976 55.3374 213.295 55.8413C213.619 56.3451 213.782 56.975 213.782 57.7307V61.8966C213.782 62.4304 213.813 62.8683 213.875 63.2102C213.938 63.5461 214.029 63.84 214.148 64.092V64.2449H211.665C211.546 63.981 211.455 63.6511 211.392 63.2552C211.335 62.8533 211.307 62.4514 211.307 62.0495ZM211.631 58.3156L211.648 59.7822H210.274C209.95 59.7822 209.668 59.8212 209.429 59.8991C209.19 59.9771 208.994 60.0881 208.84 60.232C208.687 60.37 208.573 60.532 208.499 60.7179C208.431 60.9039 208.396 61.1078 208.396 61.3297C208.396 61.5517 208.445 61.7526 208.541 61.9326C208.638 62.1065 208.778 62.2445 208.96 62.3464C209.142 62.4424 209.355 62.4904 209.6 62.4904C209.97 62.4904 210.291 62.4124 210.564 62.2565C210.837 62.1005 211.048 61.9086 211.196 61.6806C211.349 61.4527 211.429 61.2368 211.435 61.0328L212.083 62.1305C211.992 62.3764 211.867 62.6314 211.708 62.8953C211.554 63.1592 211.358 63.4081 211.119 63.6421C210.88 63.87 210.593 64.059 210.257 64.2089C209.921 64.3529 209.523 64.4249 209.062 64.4249C208.476 64.4249 207.944 64.3019 207.466 64.056C206.994 63.804 206.618 63.4591 206.34 63.0213C206.067 62.5774 205.93 62.0735 205.93 61.5097C205.93 60.9998 206.021 60.547 206.203 60.1511C206.385 59.7552 206.653 59.4223 207.005 59.1523C207.364 58.8764 207.81 58.6695 208.345 58.5315C208.88 58.3876 209.5 58.3156 210.206 58.3156H211.631Z" fill="#5B188F"/>
<path d="M218.271 54.5097V64.2449H215.804V54.5097H218.271ZM215.65 51.9724C215.65 51.5945 215.776 51.2826 216.026 51.0366C216.276 50.7907 216.612 50.6677 217.033 50.6677C217.448 50.6677 217.781 50.7907 218.032 51.0366C218.288 51.2826 218.416 51.5945 218.416 51.9724C218.416 52.3503 218.288 52.6622 218.032 52.9081C217.781 53.154 217.448 53.277 217.033 53.277C216.612 53.277 216.276 53.154 216.026 52.9081C215.776 52.6622 215.65 52.3503 215.65 51.9724Z" fill="#5B188F"/>
<path d="M222.896 50.4248V64.2449H220.43V50.4248H222.896Z" fill="#5B188F"/>
<path d="M229.177 64.4249C228.46 64.4249 227.817 64.3049 227.249 64.065C226.68 63.819 226.196 63.4801 225.798 63.0482C225.405 62.6164 225.104 62.1155 224.893 61.5457C224.683 60.9698 224.577 60.358 224.577 59.7102V59.3503C224.577 58.6125 224.677 57.9377 224.876 57.3259C225.075 56.714 225.36 56.1832 225.729 55.7333C226.105 55.2834 226.56 54.9385 227.095 54.6986C227.63 54.4527 228.233 54.3297 228.904 54.3297C229.558 54.3297 230.139 54.4437 230.645 54.6716C231.152 54.8995 231.575 55.2235 231.917 55.6433C232.264 56.0632 232.526 56.5671 232.702 57.1549C232.878 57.7367 232.966 58.3846 232.966 59.0984V60.1781H225.627V58.4505H230.551V58.2526C230.551 57.8927 230.489 57.5718 230.364 57.2899C230.244 57.002 230.062 56.774 229.817 56.6061C229.573 56.4381 229.26 56.3541 228.879 56.3541C228.554 56.3541 228.275 56.4291 228.042 56.5791C227.809 56.729 227.618 56.939 227.47 57.2089C227.328 57.4788 227.22 57.7967 227.146 58.1626C227.078 58.5225 227.044 58.9184 227.044 59.3503V59.7102C227.044 60.1001 227.095 60.46 227.197 60.7899C227.305 61.1198 227.456 61.4047 227.65 61.6446C227.849 61.8846 228.088 62.0705 228.367 62.2025C228.651 62.3344 228.972 62.4004 229.331 62.4004C229.775 62.4004 230.187 62.3105 230.568 62.1305C230.955 61.9446 231.288 61.6656 231.567 61.2937L232.762 62.6614C232.568 62.9553 232.304 63.2372 231.968 63.5071C231.638 63.777 231.24 63.999 230.773 64.1729C230.307 64.3409 229.775 64.4249 229.177 64.4249Z" fill="#5B188F"/>
<path d="M236.824 56.6331V64.2449H234.366V54.5097H236.679L236.824 56.6331ZM239.606 54.4467L239.563 56.849C239.444 56.831 239.299 56.816 239.128 56.804C238.963 56.786 238.812 56.777 238.676 56.777C238.329 56.777 238.027 56.825 237.771 56.921C237.521 57.0109 237.31 57.1459 237.14 57.3259C236.975 57.5058 236.85 57.7247 236.764 57.9827C236.685 58.2406 236.639 58.5345 236.628 58.8644L236.133 58.7025C236.133 58.0726 236.192 57.4938 236.312 56.966C236.431 56.4321 236.605 55.9672 236.832 55.5714C237.066 55.1755 237.35 54.8696 237.686 54.6536C238.022 54.4377 238.406 54.3297 238.838 54.3297C238.975 54.3297 239.114 54.3417 239.256 54.3657C239.398 54.3837 239.515 54.4107 239.606 54.4467Z" fill="#5B188F"/>
<path d="M256.439 115.389H258.607L261.799 125.008L264.991 115.389H267.158L262.669 128.49H260.928L256.439 115.389ZM255.27 115.389H257.429L257.822 124.765V128.49H255.27V115.389ZM266.168 115.389H268.336V128.49H265.776V124.765L266.168 115.389Z" fill="#FB00E2"/>
<path d="M270.034 123.721V123.532C270.034 122.818 270.131 122.162 270.324 121.562C270.518 120.956 270.8 120.431 271.169 119.987C271.539 119.543 271.994 119.198 272.535 118.952C273.075 118.7 273.695 118.575 274.395 118.575C275.095 118.575 275.718 118.7 276.264 118.952C276.81 119.198 277.268 119.543 277.638 119.987C278.014 120.431 278.298 120.956 278.492 121.562C278.685 122.162 278.782 122.818 278.782 123.532V123.721C278.782 124.429 278.685 125.086 278.492 125.692C278.298 126.291 278.014 126.816 277.638 127.266C277.268 127.71 276.813 128.055 276.273 128.301C275.732 128.547 275.112 128.67 274.412 128.67C273.713 128.67 273.09 128.547 272.543 128.301C272.003 128.055 271.545 127.71 271.169 127.266C270.8 126.816 270.518 126.291 270.324 125.692C270.131 125.086 270.034 124.429 270.034 123.721ZM272.492 123.532V123.721C272.492 124.129 272.526 124.51 272.595 124.864C272.663 125.218 272.771 125.53 272.919 125.799C273.072 126.063 273.272 126.27 273.516 126.42C273.761 126.57 274.06 126.645 274.412 126.645C274.754 126.645 275.047 126.57 275.291 126.42C275.536 126.27 275.732 126.063 275.88 125.799C276.028 125.53 276.136 125.218 276.205 124.864C276.279 124.51 276.316 124.129 276.316 123.721V123.532C276.316 123.136 276.279 122.764 276.205 122.416C276.136 122.063 276.025 121.751 275.872 121.481C275.724 121.205 275.528 120.989 275.283 120.833C275.038 120.677 274.742 120.599 274.395 120.599C274.048 120.599 273.752 120.677 273.508 120.833C273.269 120.989 273.072 121.205 272.919 121.481C272.771 121.751 272.663 122.063 272.595 122.416C272.526 122.764 272.492 123.136 272.492 123.532Z" fill="#FB00E2"/>
<path d="M285.746 126.366V114.67H288.221V128.49H285.993L285.746 126.366ZM279.908 123.739V123.55C279.908 122.806 279.988 122.132 280.147 121.526C280.307 120.914 280.54 120.389 280.847 119.951C281.154 119.513 281.533 119.174 281.982 118.934C282.432 118.694 282.944 118.575 283.518 118.575C284.059 118.575 284.531 118.694 284.935 118.934C285.345 119.174 285.692 119.516 285.976 119.96C286.266 120.398 286.5 120.917 286.676 121.517C286.852 122.111 286.98 122.761 287.06 123.469V123.883C286.98 124.561 286.852 125.191 286.676 125.772C286.5 126.354 286.266 126.864 285.976 127.302C285.692 127.734 285.345 128.07 284.935 128.31C284.525 128.55 284.048 128.67 283.501 128.67C282.927 128.67 282.415 128.547 281.965 128.301C281.521 128.055 281.146 127.71 280.839 127.266C280.537 126.822 280.307 126.3 280.147 125.701C279.988 125.101 279.908 124.447 279.908 123.739ZM282.366 123.55V123.739C282.366 124.141 282.395 124.516 282.452 124.864C282.514 125.212 282.614 125.521 282.75 125.79C282.893 126.054 283.075 126.261 283.297 126.411C283.524 126.555 283.8 126.627 284.124 126.627C284.545 126.627 284.892 126.528 285.166 126.33C285.439 126.126 285.646 125.847 285.789 125.494C285.936 125.14 286.022 124.732 286.045 124.27V123.091C286.027 122.713 285.976 122.374 285.891 122.075C285.811 121.769 285.692 121.508 285.532 121.292C285.379 121.076 285.185 120.908 284.952 120.788C284.725 120.668 284.454 120.608 284.141 120.608C283.823 120.608 283.55 120.686 283.322 120.842C283.095 120.992 282.91 121.199 282.767 121.463C282.631 121.727 282.528 122.039 282.46 122.398C282.398 122.752 282.366 123.136 282.366 123.55Z" fill="#FB00E2"/>
<path d="M294.391 128.67C293.674 128.67 293.031 128.55 292.462 128.31C291.893 128.064 291.41 127.725 291.011 127.293C290.619 126.861 290.317 126.36 290.107 125.79C289.896 125.215 289.791 124.603 289.791 123.955V123.595C289.791 122.857 289.891 122.182 290.09 121.571C290.289 120.959 290.573 120.428 290.943 119.978C291.319 119.528 291.774 119.183 292.309 118.943C292.843 118.697 293.447 118.575 294.118 118.575C294.772 118.575 295.353 118.688 295.859 118.916C296.365 119.144 296.789 119.468 297.13 119.888C297.478 120.308 297.739 120.812 297.916 121.4C298.092 121.982 298.18 122.629 298.18 123.343V124.423H290.841V122.695H295.765V122.497C295.765 122.138 295.702 121.817 295.577 121.535C295.458 121.247 295.276 121.019 295.031 120.851C294.786 120.683 294.474 120.599 294.092 120.599C293.768 120.599 293.489 120.674 293.256 120.824C293.023 120.974 292.832 121.184 292.684 121.454C292.542 121.724 292.434 122.042 292.36 122.407C292.292 122.767 292.257 123.163 292.257 123.595V123.955C292.257 124.345 292.309 124.705 292.411 125.035C292.519 125.365 292.67 125.65 292.863 125.889C293.063 126.129 293.301 126.315 293.58 126.447C293.865 126.579 294.186 126.645 294.545 126.645C294.988 126.645 295.401 126.555 295.782 126.375C296.169 126.189 296.502 125.91 296.781 125.539L297.975 126.906C297.782 127.2 297.517 127.482 297.182 127.752C296.852 128.022 296.453 128.244 295.987 128.418C295.52 128.586 294.988 128.67 294.391 128.67Z" fill="#FB00E2"/>
<path d="M302.174 114.67V128.49H299.708V114.67H302.174Z" fill="#FB00E2"/>
<path d="M78.6519 136.956L156.595 63.7471L236.663 132.225L164.153 187.007M78.6519 136.956L164.153 187.007M78.6519 136.956L109.12 215.146L239.734 195.723L156.595 65.9882L164.153 187.007" stroke="#8584B3" stroke-width="6"/>
<ellipse cx="78.1793" cy="136.209" rx="7.32191" ry="7.71934" fill="#391B89"/>
<ellipse cx="108.884" cy="214.399" rx="7.32191" ry="7.71934" fill="#391B89"/>
<ellipse cx="163.208" cy="187.007" rx="7.32191" ry="7.71934" fill="#391B89"/>
<ellipse cx="238.789" cy="194.478" rx="7.32191" ry="7.71934" fill="#391B89"/>
<ellipse cx="236.427" cy="131.727" rx="7.32191" ry="7.71934" fill="#391B89"/>
<ellipse cx="155.65" cy="63.9962" rx="7.32191" ry="7.71934" fill="#391B89"/>
<path d="M905 72.316C905 46.7364 924.669 26 948.931 26H1201.18C1225.45 26 1245.11 46.7364 1245.11 72.316V285.469C1245.11 311.049 1225.45 331.785 1201.18 331.785H948.931C924.669 331.785 905 311.049 905 285.469V72.316Z" fill="#F6F2FF"/>
<path d="M1052.79 240.994H1054.96L1058.15 250.612L1061.34 240.994H1063.51L1059.02 254.094H1057.28L1052.79 240.994ZM1051.62 240.994H1053.78L1054.17 250.369V254.094H1051.62V240.994ZM1062.52 240.994H1064.69V254.094H1062.13V250.369L1062.52 240.994Z" fill="#FB00E2"/>
<path d="M1066.39 249.325V249.136C1066.39 248.423 1066.48 247.766 1066.68 247.166C1066.87 246.56 1067.15 246.035 1067.52 245.591C1067.89 245.148 1068.35 244.803 1068.89 244.557C1069.43 244.305 1070.05 244.179 1070.75 244.179C1071.45 244.179 1072.07 244.305 1072.62 244.557C1073.16 244.803 1073.62 245.148 1073.99 245.591C1074.37 246.035 1074.65 246.56 1074.84 247.166C1075.04 247.766 1075.13 248.423 1075.13 249.136V249.325C1075.13 250.033 1075.04 250.69 1074.84 251.296C1074.65 251.896 1074.37 252.421 1073.99 252.87C1073.62 253.314 1073.17 253.659 1072.63 253.905C1072.08 254.151 1071.46 254.274 1070.76 254.274C1070.06 254.274 1069.44 254.151 1068.9 253.905C1068.36 253.659 1067.9 253.314 1067.52 252.87C1067.15 252.421 1066.87 251.896 1066.68 251.296C1066.48 250.69 1066.39 250.033 1066.39 249.325ZM1068.84 249.136V249.325C1068.84 249.733 1068.88 250.114 1068.95 250.468C1069.02 250.822 1069.12 251.134 1069.27 251.404C1069.42 251.668 1069.62 251.875 1069.87 252.025C1070.11 252.175 1070.41 252.25 1070.76 252.25C1071.11 252.25 1071.4 252.175 1071.64 252.025C1071.89 251.875 1072.08 251.668 1072.23 251.404C1072.38 251.134 1072.49 250.822 1072.56 250.468C1072.63 250.114 1072.67 249.733 1072.67 249.325V249.136C1072.67 248.741 1072.63 248.369 1072.56 248.021C1072.49 247.667 1072.38 247.355 1072.22 247.085C1072.08 246.809 1071.88 246.593 1071.64 246.437C1071.39 246.281 1071.09 246.203 1070.75 246.203C1070.4 246.203 1070.1 246.281 1069.86 246.437C1069.62 246.593 1069.42 246.809 1069.27 247.085C1069.12 247.355 1069.02 247.667 1068.95 248.021C1068.88 248.369 1068.84 248.741 1068.84 249.136Z" fill="#FB00E2"/>
<path d="M1082.1 251.971V240.274H1084.57V254.094H1082.35L1082.1 251.971ZM1076.26 249.343V249.154C1076.26 248.411 1076.34 247.736 1076.5 247.13C1076.66 246.518 1076.89 245.993 1077.2 245.555C1077.51 245.118 1077.89 244.779 1078.33 244.539C1078.78 244.299 1079.3 244.179 1079.87 244.179C1080.41 244.179 1080.88 244.299 1081.29 244.539C1081.7 244.779 1082.04 245.121 1082.33 245.564C1082.62 246.002 1082.85 246.521 1083.03 247.121C1083.2 247.715 1083.33 248.366 1083.41 249.073V249.487C1083.33 250.165 1083.2 250.795 1083.03 251.377C1082.85 251.959 1082.62 252.469 1082.33 252.906C1082.04 253.338 1081.7 253.674 1081.29 253.914C1080.88 254.154 1080.4 254.274 1079.85 254.274C1079.28 254.274 1078.77 254.151 1078.32 253.905C1077.87 253.659 1077.5 253.314 1077.19 252.87C1076.89 252.427 1076.66 251.905 1076.5 251.305C1076.34 250.705 1076.26 250.051 1076.26 249.343ZM1078.72 249.154V249.343C1078.72 249.745 1078.75 250.12 1078.8 250.468C1078.87 250.816 1078.97 251.125 1079.1 251.395C1079.24 251.659 1079.43 251.866 1079.65 252.016C1079.88 252.16 1080.15 252.232 1080.48 252.232C1080.9 252.232 1081.24 252.133 1081.52 251.935C1081.79 251.731 1082 251.452 1082.14 251.098C1082.29 250.744 1082.37 250.336 1082.4 249.874V248.696C1082.38 248.318 1082.33 247.979 1082.24 247.679C1082.16 247.373 1082.04 247.112 1081.88 246.896C1081.73 246.68 1081.54 246.512 1081.3 246.392C1081.08 246.272 1080.81 246.212 1080.49 246.212C1080.18 246.212 1079.9 246.29 1079.67 246.446C1079.45 246.596 1079.26 246.803 1079.12 247.067C1078.98 247.331 1078.88 247.643 1078.81 248.003C1078.75 248.357 1078.72 248.741 1078.72 249.154Z" fill="#FB00E2"/>
<path d="M1090.74 254.274C1090.03 254.274 1089.38 254.154 1088.81 253.914C1088.25 253.668 1087.76 253.329 1087.36 252.897C1086.97 252.466 1086.67 251.965 1086.46 251.395C1086.25 250.819 1086.14 250.207 1086.14 249.559V249.199C1086.14 248.462 1086.24 247.787 1086.44 247.175C1086.64 246.563 1086.93 246.032 1087.3 245.582C1087.67 245.133 1088.13 244.788 1088.66 244.548C1089.2 244.302 1089.8 244.179 1090.47 244.179C1091.12 244.179 1091.7 244.293 1092.21 244.521C1092.72 244.749 1093.14 245.073 1093.48 245.492C1093.83 245.912 1094.09 246.416 1094.27 247.004C1094.44 247.586 1094.53 248.234 1094.53 248.948V250.027H1087.19V248.3H1092.12V248.102C1092.12 247.742 1092.05 247.421 1091.93 247.139C1091.81 246.851 1091.63 246.623 1091.38 246.455C1091.14 246.287 1090.83 246.203 1090.44 246.203C1090.12 246.203 1089.84 246.278 1089.61 246.428C1089.38 246.578 1089.18 246.788 1089.04 247.058C1088.89 247.328 1088.79 247.646 1088.71 248.012C1088.64 248.372 1088.61 248.768 1088.61 249.199V249.559C1088.61 249.949 1088.66 250.309 1088.76 250.639C1088.87 250.969 1089.02 251.254 1089.22 251.494C1089.41 251.734 1089.65 251.92 1089.93 252.052C1090.22 252.184 1090.54 252.25 1090.9 252.25C1091.34 252.25 1091.75 252.16 1092.13 251.98C1092.52 251.794 1092.85 251.515 1093.13 251.143L1094.33 252.511C1094.13 252.804 1093.87 253.086 1093.53 253.356C1093.2 253.626 1092.81 253.848 1092.34 254.022C1091.87 254.19 1091.34 254.274 1090.74 254.274Z" fill="#FB00E2"/>
<path d="M1098.53 240.274V254.094H1096.06V240.274H1098.53Z" fill="#FB00E2"/>
<path d="M935.189 135.203H937.74C937.689 136.085 937.459 136.868 937.049 137.552C936.645 138.235 936.079 138.769 935.351 139.153C934.628 139.537 933.758 139.729 932.739 139.729C931.943 139.729 931.229 139.585 930.597 139.297C929.966 139.003 929.425 138.583 928.976 138.037C928.532 137.492 928.193 136.832 927.96 136.058C927.727 135.284 927.61 134.418 927.61 133.458V132.549C927.61 131.589 927.73 130.723 927.969 129.949C928.213 129.169 928.56 128.506 929.01 127.96C929.465 127.414 930.008 126.995 930.64 126.701C931.271 126.407 931.977 126.26 932.756 126.26C933.792 126.26 934.665 126.458 935.376 126.854C936.093 127.25 936.648 127.795 937.04 128.491C937.439 129.187 937.678 129.979 937.757 130.867H935.197C935.169 130.339 935.069 129.892 934.898 129.526C934.728 129.154 934.469 128.875 934.122 128.689C933.78 128.497 933.325 128.401 932.756 128.401C932.33 128.401 931.957 128.485 931.638 128.653C931.32 128.821 931.052 129.076 930.836 129.418C930.62 129.76 930.458 130.192 930.35 130.714C930.247 131.229 930.196 131.835 930.196 132.531V133.458C930.196 134.136 930.244 134.732 930.341 135.248C930.438 135.758 930.586 136.19 930.785 136.544C930.99 136.892 931.251 137.156 931.57 137.336C931.894 137.51 932.284 137.597 932.739 137.597C933.274 137.597 933.715 137.507 934.062 137.327C934.409 137.147 934.674 136.88 934.856 136.526C935.043 136.172 935.154 135.731 935.189 135.203Z" fill="#18888F"/>
<path d="M938.875 134.78V134.591C938.875 133.878 938.972 133.221 939.165 132.621C939.359 132.015 939.641 131.49 940.01 131.046C940.38 130.603 940.835 130.258 941.376 130.012C941.916 129.76 942.536 129.634 943.236 129.634C943.936 129.634 944.559 129.76 945.105 130.012C945.651 130.258 946.109 130.603 946.479 131.046C946.855 131.49 947.139 132.015 947.333 132.621C947.526 133.221 947.623 133.878 947.623 134.591V134.78C947.623 135.488 947.526 136.145 947.333 136.751C947.139 137.351 946.855 137.876 946.479 138.325C946.109 138.769 945.654 139.114 945.114 139.36C944.573 139.606 943.953 139.729 943.253 139.729C942.554 139.729 941.931 139.606 941.384 139.36C940.844 139.114 940.386 138.769 940.01 138.325C939.641 137.876 939.359 137.351 939.165 136.751C938.972 136.145 938.875 135.488 938.875 134.78ZM941.333 134.591V134.78C941.333 135.188 941.367 135.569 941.436 135.923C941.504 136.277 941.612 136.589 941.76 136.859C941.913 137.123 942.113 137.33 942.357 137.48C942.602 137.63 942.901 137.705 943.253 137.705C943.595 137.705 943.888 137.63 944.132 137.48C944.377 137.33 944.573 137.123 944.721 136.859C944.869 136.589 944.977 136.277 945.046 135.923C945.12 135.569 945.156 135.188 945.156 134.78V134.591C945.156 134.196 945.12 133.824 945.046 133.476C944.977 133.122 944.866 132.81 944.713 132.54C944.565 132.264 944.368 132.048 944.124 131.892C943.879 131.736 943.583 131.658 943.236 131.658C942.889 131.658 942.593 131.736 942.349 131.892C942.11 132.048 941.913 132.264 941.76 132.54C941.612 132.81 941.504 133.122 941.436 133.476C941.367 133.824 941.333 134.196 941.333 134.591Z" fill="#18888F"/>
<path d="M951.54 131.892V139.549H949.082V129.814H951.386L951.54 131.892ZM951.182 134.34H950.516C950.516 133.62 950.604 132.972 950.781 132.396C950.957 131.814 951.204 131.319 951.523 130.912C951.842 130.498 952.22 130.183 952.658 129.967C953.102 129.745 953.597 129.634 954.143 129.634C954.575 129.634 954.971 129.7 955.329 129.832C955.688 129.964 955.995 130.174 956.251 130.462C956.513 130.75 956.712 131.13 956.848 131.604C956.991 132.078 957.062 132.657 957.062 133.341V139.549H954.587V133.332C954.587 132.9 954.53 132.564 954.416 132.324C954.302 132.084 954.134 131.916 953.913 131.82C953.696 131.718 953.429 131.667 953.11 131.667C952.78 131.667 952.493 131.736 952.248 131.874C952.009 132.012 951.81 132.204 951.651 132.45C951.497 132.69 951.381 132.972 951.301 133.296C951.221 133.62 951.182 133.968 951.182 134.34Z" fill="#18888F"/>
<path d="M963.454 129.814V131.649H958.077V129.814H963.454ZM959.409 127.411H961.867V136.616C961.867 136.898 961.901 137.114 961.969 137.264C962.043 137.414 962.151 137.519 962.293 137.579C962.435 137.633 962.615 137.66 962.831 137.66C962.984 137.66 963.121 137.654 963.241 137.642C963.366 137.624 963.471 137.606 963.556 137.588L963.565 139.495C963.354 139.567 963.127 139.624 962.882 139.666C962.637 139.708 962.367 139.729 962.071 139.729C961.531 139.729 961.059 139.636 960.655 139.45C960.256 139.258 959.949 138.952 959.733 138.532C959.517 138.112 959.409 137.561 959.409 136.877V127.411Z" fill="#18888F"/>
<path d="M967.311 131.937V139.549H964.853V129.814H967.166L967.311 131.937ZM970.094 129.751L970.051 132.153C969.931 132.135 969.786 132.12 969.616 132.108C969.451 132.09 969.3 132.081 969.163 132.081C968.816 132.081 968.515 132.129 968.259 132.225C968.008 132.315 967.798 132.45 967.627 132.63C967.462 132.81 967.337 133.029 967.252 133.287C967.172 133.545 967.126 133.839 967.115 134.169L966.62 134.007C966.62 133.377 966.68 132.798 966.799 132.27C966.919 131.736 967.092 131.271 967.32 130.876C967.553 130.48 967.838 130.174 968.173 129.958C968.509 129.742 968.893 129.634 969.325 129.634C969.462 129.634 969.601 129.646 969.744 129.67C969.886 129.688 970.002 129.715 970.094 129.751Z" fill="#18888F"/>
<path d="M970.606 134.78V134.591C970.606 133.878 970.702 133.221 970.896 132.621C971.089 132.015 971.371 131.49 971.741 131.046C972.11 130.603 972.566 130.258 973.106 130.012C973.647 129.76 974.267 129.634 974.967 129.634C975.666 129.634 976.289 129.76 976.836 130.012C977.382 130.258 977.84 130.603 978.21 131.046C978.585 131.49 978.87 132.015 979.063 132.621C979.256 133.221 979.353 133.878 979.353 134.591V134.78C979.353 135.488 979.256 136.145 979.063 136.751C978.87 137.351 978.585 137.876 978.21 138.325C977.84 138.769 977.385 139.114 976.844 139.36C976.304 139.606 975.683 139.729 974.984 139.729C974.284 139.729 973.661 139.606 973.115 139.36C972.574 139.114 972.116 138.769 971.741 138.325C971.371 137.876 971.089 137.351 970.896 136.751C970.702 136.145 970.606 135.488 970.606 134.78ZM973.063 134.591V134.78C973.063 135.188 973.098 135.569 973.166 135.923C973.234 136.277 973.342 136.589 973.49 136.859C973.644 137.123 973.843 137.33 974.088 137.48C974.332 137.63 974.631 137.705 974.984 137.705C975.325 137.705 975.618 137.63 975.863 137.48C976.107 137.33 976.304 137.123 976.452 136.859C976.599 136.589 976.708 136.277 976.776 135.923C976.85 135.569 976.887 135.188 976.887 134.78V134.591C976.887 134.196 976.85 133.824 976.776 133.476C976.708 133.122 976.597 132.81 976.443 132.54C976.295 132.264 976.099 132.048 975.854 131.892C975.609 131.736 975.314 131.658 974.967 131.658C974.619 131.658 974.324 131.736 974.079 131.892C973.84 132.048 973.644 132.264 973.49 132.54C973.342 132.81 973.234 133.122 973.166 133.476C973.098 133.824 973.063 134.196 973.063 134.591Z" fill="#18888F"/>
<path d="M983.458 125.729V139.549H980.992V125.729H983.458Z" fill="#18888F"/>
<path d="M988.084 125.729V139.549H985.617V125.729H988.084Z" fill="#18888F"/>
<path d="M994.365 139.729C993.648 139.729 993.005 139.609 992.436 139.369C991.867 139.123 991.384 138.784 990.985 138.352C990.593 137.921 990.291 137.42 990.081 136.85C989.87 136.274 989.765 135.662 989.765 135.014V134.654C989.765 133.917 989.864 133.242 990.064 132.63C990.263 132.018 990.547 131.487 990.917 131.037C991.293 130.588 991.748 130.243 992.283 130.003C992.817 129.757 993.42 129.634 994.092 129.634C994.746 129.634 995.326 129.748 995.833 129.976C996.339 130.204 996.763 130.528 997.104 130.947C997.451 131.367 997.713 131.871 997.89 132.459C998.066 133.041 998.154 133.689 998.154 134.403V135.482H990.815V133.755H995.739V133.557C995.739 133.197 995.676 132.876 995.551 132.594C995.432 132.306 995.25 132.078 995.005 131.91C994.76 131.742 994.447 131.658 994.066 131.658C993.742 131.658 993.463 131.733 993.23 131.883C992.997 132.033 992.806 132.243 992.658 132.513C992.516 132.783 992.408 133.101 992.334 133.467C992.265 133.827 992.231 134.223 992.231 134.654V135.014C992.231 135.404 992.283 135.764 992.385 136.094C992.493 136.424 992.644 136.709 992.837 136.949C993.036 137.189 993.275 137.375 993.554 137.507C993.839 137.639 994.16 137.705 994.518 137.705C994.962 137.705 995.375 137.615 995.756 137.435C996.143 137.249 996.476 136.97 996.754 136.598L997.949 137.966C997.756 138.259 997.491 138.541 997.156 138.811C996.826 139.081 996.427 139.303 995.961 139.477C995.494 139.645 994.962 139.729 994.365 139.729Z" fill="#18888F"/>
<path d="M1002.01 131.937V139.549H999.554V129.814H1001.87L1002.01 131.937ZM1004.79 129.751L1004.75 132.153C1004.63 132.135 1004.49 132.12 1004.32 132.108C1004.15 132.09 1004 132.081 1003.86 132.081C1003.52 132.081 1003.21 132.129 1002.96 132.225C1002.71 132.315 1002.5 132.45 1002.33 132.63C1002.16 132.81 1002.04 133.029 1001.95 133.287C1001.87 133.545 1001.83 133.839 1001.82 134.169L1001.32 134.007C1001.32 133.377 1001.38 132.798 1001.5 132.27C1001.62 131.736 1001.79 131.271 1002.02 130.876C1002.25 130.48 1002.54 130.174 1002.87 129.958C1003.21 129.742 1003.59 129.634 1004.03 129.634C1004.16 129.634 1004.3 129.646 1004.44 129.67C1004.59 129.688 1004.7 129.715 1004.79 129.751Z" fill="#18888F"/>
<path d="M971.751 261.029V251.95H974.303V261.029C974.303 261.904 974.121 262.657 973.757 263.287C973.392 263.911 972.895 264.391 972.263 264.727C971.637 265.063 970.932 265.231 970.147 265.231C969.333 265.231 968.613 265.087 967.987 264.799C967.362 264.511 966.869 264.07 966.511 263.476C966.153 262.876 965.973 262.117 965.973 261.2H968.542C968.542 261.68 968.605 262.06 968.73 262.342C968.861 262.624 969.046 262.825 969.285 262.945C969.524 263.065 969.811 263.125 970.147 263.125C970.471 263.125 970.752 263.044 970.991 262.882C971.23 262.72 971.415 262.483 971.546 262.171C971.683 261.859 971.751 261.479 971.751 261.029Z" fill="#C900FB"/>
<path d="M975.941 260.282V260.093C975.941 259.379 976.038 258.722 976.231 258.123C976.425 257.517 976.707 256.992 977.076 256.548C977.446 256.104 977.901 255.759 978.442 255.513C978.982 255.261 979.602 255.135 980.302 255.135C981.002 255.135 981.625 255.261 982.171 255.513C982.717 255.759 983.175 256.104 983.545 256.548C983.921 256.992 984.205 257.517 984.399 258.123C984.592 258.722 984.689 259.379 984.689 260.093V260.282C984.689 260.99 984.592 261.647 984.399 262.252C984.205 262.852 983.921 263.377 983.545 263.827C983.175 264.271 982.72 264.616 982.18 264.862C981.639 265.108 981.019 265.231 980.319 265.231C979.62 265.231 978.997 265.108 978.45 264.862C977.91 264.616 977.452 264.271 977.076 263.827C976.707 263.377 976.425 262.852 976.231 262.252C976.038 261.647 975.941 260.99 975.941 260.282ZM978.399 260.093V260.282C978.399 260.69 978.433 261.071 978.502 261.425C978.57 261.778 978.678 262.09 978.826 262.36C978.979 262.624 979.179 262.831 979.423 262.981C979.668 263.131 979.967 263.206 980.319 263.206C980.661 263.206 980.954 263.131 981.198 262.981C981.443 262.831 981.639 262.624 981.787 262.36C981.935 262.09 982.043 261.778 982.112 261.425C982.186 261.071 982.222 260.69 982.222 260.282V260.093C982.222 259.697 982.186 259.325 982.112 258.977C982.043 258.623 981.932 258.311 981.779 258.042C981.631 257.766 981.435 257.55 981.19 257.394C980.945 257.238 980.649 257.16 980.302 257.16C979.955 257.16 979.659 257.238 979.415 257.394C979.176 257.55 978.979 257.766 978.826 258.042C978.678 258.311 978.57 258.623 978.502 258.977C978.433 259.325 978.399 259.697 978.399 260.093Z" fill="#C900FB"/>
<path d="M986.199 251.23H988.657V262.819L988.41 265.051H986.199V251.23ZM994.503 260.084V260.273C994.503 260.999 994.429 261.665 994.281 262.27C994.139 262.876 993.917 263.401 993.616 263.845C993.314 264.283 992.939 264.625 992.489 264.871C992.045 265.111 991.522 265.231 990.919 265.231C990.356 265.231 989.866 265.111 989.451 264.871C989.041 264.631 988.697 264.292 988.418 263.854C988.14 263.416 987.915 262.903 987.744 262.315C987.573 261.727 987.445 261.086 987.36 260.39V259.976C987.445 259.28 987.573 258.638 987.744 258.051C987.915 257.463 988.14 256.95 988.418 256.512C988.697 256.074 989.041 255.735 989.451 255.495C989.861 255.255 990.344 255.135 990.902 255.135C991.511 255.135 992.04 255.258 992.489 255.504C992.944 255.744 993.32 256.086 993.616 256.53C993.917 256.968 994.139 257.49 994.281 258.096C994.429 258.695 994.503 259.358 994.503 260.084ZM992.045 260.273V260.084C992.045 259.688 992.017 259.316 991.96 258.968C991.909 258.614 991.818 258.305 991.687 258.042C991.556 257.772 991.377 257.559 991.149 257.403C990.927 257.247 990.64 257.169 990.287 257.169C989.952 257.169 989.667 257.229 989.434 257.349C989.201 257.469 989.007 257.637 988.854 257.853C988.706 258.069 988.595 258.326 988.521 258.626C988.447 258.92 988.401 259.244 988.384 259.598V260.777C988.401 261.251 988.475 261.671 988.606 262.036C988.743 262.396 988.947 262.681 989.221 262.891C989.499 263.095 989.861 263.197 990.304 263.197C990.651 263.197 990.939 263.125 991.166 262.981C991.394 262.837 991.57 262.633 991.695 262.369C991.826 262.105 991.917 261.796 991.969 261.443C992.02 261.083 992.045 260.693 992.045 260.273Z" fill="#C900FB"/>
<path d="M1160.7 239.614V230.535H1163.26V239.614C1163.26 240.49 1163.07 241.242 1162.71 241.872C1162.34 242.496 1161.85 242.976 1161.22 243.312C1160.59 243.648 1159.88 243.816 1159.1 243.816C1158.29 243.816 1157.57 243.672 1156.94 243.384C1156.31 243.096 1155.82 242.655 1155.46 242.061C1155.11 241.461 1154.93 240.702 1154.93 239.785H1157.49C1157.49 240.265 1157.56 240.645 1157.68 240.927C1157.81 241.209 1158 241.41 1158.24 241.53C1158.48 241.65 1158.76 241.71 1159.1 241.71C1159.42 241.71 1159.7 241.629 1159.94 241.467C1160.18 241.305 1160.37 241.068 1160.5 240.756C1160.64 240.445 1160.7 240.064 1160.7 239.614Z" fill="#C900FB"/>
<path d="M1164.89 238.867V238.678C1164.89 237.964 1164.99 237.307 1165.18 236.708C1165.38 236.102 1165.66 235.577 1166.03 235.133C1166.4 234.689 1166.85 234.344 1167.39 234.098C1167.93 233.846 1168.55 233.72 1169.25 233.72C1169.95 233.72 1170.58 233.846 1171.12 234.098C1171.67 234.344 1172.13 234.689 1172.5 235.133C1172.87 235.577 1173.16 236.102 1173.35 236.708C1173.54 237.307 1173.64 237.964 1173.64 238.678V238.867C1173.64 239.575 1173.54 240.232 1173.35 240.837C1173.16 241.437 1172.87 241.962 1172.5 242.412C1172.13 242.856 1171.67 243.201 1171.13 243.447C1170.59 243.693 1169.97 243.816 1169.27 243.816C1168.57 243.816 1167.95 243.693 1167.4 243.447C1166.86 243.201 1166.4 242.856 1166.03 242.412C1165.66 241.962 1165.38 241.437 1165.18 240.837C1164.99 240.232 1164.89 239.575 1164.89 238.867ZM1167.35 238.678V238.867C1167.35 239.275 1167.39 239.656 1167.45 240.01C1167.52 240.364 1167.63 240.675 1167.78 240.945C1167.93 241.209 1168.13 241.416 1168.38 241.566C1168.62 241.716 1168.92 241.791 1169.27 241.791C1169.61 241.791 1169.91 241.716 1170.15 241.566C1170.4 241.416 1170.59 241.209 1170.74 240.945C1170.89 240.675 1171 240.364 1171.06 240.01C1171.14 239.656 1171.17 239.275 1171.17 238.867V238.678C1171.17 238.282 1171.14 237.91 1171.06 237.562C1171 237.208 1170.88 236.897 1170.73 236.627C1170.58 236.351 1170.39 236.135 1170.14 235.979C1169.9 235.823 1169.6 235.745 1169.25 235.745C1168.91 235.745 1168.61 235.823 1168.37 235.979C1168.13 236.135 1167.93 236.351 1167.78 236.627C1167.63 236.897 1167.52 237.208 1167.45 237.562C1167.39 237.91 1167.35 238.282 1167.35 238.678Z" fill="#C900FB"/>
<path d="M1175.15 229.816H1177.61V241.404L1177.36 243.636H1175.15V229.816ZM1183.46 238.669V238.858C1183.46 239.584 1183.38 240.25 1183.23 240.855C1183.09 241.461 1182.87 241.986 1182.57 242.43C1182.27 242.868 1181.89 243.21 1181.44 243.456C1181 243.696 1180.47 243.816 1179.87 243.816C1179.31 243.816 1178.82 243.696 1178.4 243.456C1177.99 243.216 1177.65 242.877 1177.37 242.439C1177.09 242.001 1176.87 241.488 1176.7 240.9C1176.53 240.313 1176.4 239.671 1176.31 238.975V238.561C1176.4 237.865 1176.53 237.223 1176.7 236.636C1176.87 236.048 1177.09 235.535 1177.37 235.097C1177.65 234.659 1177.99 234.32 1178.4 234.08C1178.81 233.84 1179.3 233.72 1179.85 233.72C1180.46 233.72 1180.99 233.843 1181.44 234.089C1181.9 234.329 1182.27 234.671 1182.57 235.115C1182.87 235.553 1183.09 236.075 1183.23 236.681C1183.38 237.28 1183.46 237.943 1183.46 238.669ZM1181 238.858V238.669C1181 238.273 1180.97 237.901 1180.91 237.553C1180.86 237.199 1180.77 236.891 1180.64 236.627C1180.51 236.357 1180.33 236.144 1180.1 235.988C1179.88 235.832 1179.59 235.754 1179.24 235.754C1178.9 235.754 1178.62 235.814 1178.39 235.934C1178.15 236.054 1177.96 236.222 1177.81 236.438C1177.66 236.654 1177.55 236.912 1177.47 237.211C1177.4 237.505 1177.35 237.829 1177.34 238.183V239.362C1177.35 239.836 1177.43 240.256 1177.56 240.621C1177.7 240.981 1177.9 241.266 1178.17 241.476C1178.45 241.68 1178.81 241.782 1179.26 241.782C1179.6 241.782 1179.89 241.71 1180.12 241.566C1180.35 241.422 1180.52 241.218 1180.65 240.954C1180.78 240.69 1180.87 240.382 1180.92 240.028C1180.97 239.668 1181 239.278 1181 238.858Z" fill="#C900FB"/>
<path d="M1097.33 77.1446H1099.5L1102.69 86.7629L1105.89 77.1446H1108.05L1103.56 90.2449H1101.82L1097.33 77.1446ZM1096.17 77.1446H1098.32L1098.72 86.52V90.2449H1096.17V77.1446ZM1107.06 77.1446H1109.23V90.2449H1106.67V86.52L1107.06 77.1446Z" fill="#5B188F"/>
<path d="M1116.31 88.0495V83.7128C1116.31 83.4008 1116.26 83.1339 1116.16 82.912C1116.06 82.684 1115.91 82.5071 1115.71 82.3811C1115.51 82.2552 1115.25 82.1922 1114.93 82.1922C1114.66 82.1922 1114.42 82.2432 1114.22 82.3451C1114.03 82.4411 1113.87 82.5821 1113.76 82.768C1113.66 82.948 1113.6 83.1609 1113.6 83.4068H1111.14C1111.14 82.993 1111.23 82.6001 1111.42 82.2282C1111.6 81.8563 1111.86 81.5294 1112.21 81.2474C1112.56 80.9595 1112.97 80.7346 1113.45 80.5726C1113.93 80.4107 1114.47 80.3297 1115.07 80.3297C1115.79 80.3297 1116.42 80.4557 1116.98 80.7076C1117.54 80.9595 1117.98 81.3374 1118.3 81.8413C1118.62 82.3451 1118.78 82.975 1118.78 83.7307V87.8966C1118.78 88.4304 1118.81 88.8683 1118.88 89.2102C1118.94 89.5461 1119.03 89.84 1119.15 90.092V90.2449H1116.67C1116.55 89.981 1116.45 89.6511 1116.39 89.2552C1116.34 88.8533 1116.31 88.4514 1116.31 88.0495ZM1116.63 84.3156L1116.65 85.7822H1115.27C1114.95 85.7822 1114.67 85.8212 1114.43 85.8991C1114.19 85.9771 1113.99 86.0881 1113.84 86.232C1113.69 86.37 1113.57 86.532 1113.5 86.7179C1113.43 86.9039 1113.4 87.1078 1113.4 87.3297C1113.4 87.5517 1113.44 87.7526 1113.54 87.9326C1113.64 88.1065 1113.78 88.2445 1113.96 88.3464C1114.14 88.4424 1114.36 88.4904 1114.6 88.4904C1114.97 88.4904 1115.29 88.4124 1115.56 88.2565C1115.84 88.1005 1116.05 87.9086 1116.2 87.6806C1116.35 87.4527 1116.43 87.2368 1116.43 87.0328L1117.08 88.1305C1116.99 88.3764 1116.87 88.6314 1116.71 88.8953C1116.55 89.1592 1116.36 89.4081 1116.12 89.6421C1115.88 89.87 1115.59 90.059 1115.26 90.2089C1114.92 90.3529 1114.52 90.4249 1114.06 90.4249C1113.48 90.4249 1112.94 90.3019 1112.47 90.056C1111.99 89.804 1111.62 89.4591 1111.34 89.0213C1111.07 88.5774 1110.93 88.0735 1110.93 87.5097C1110.93 86.9998 1111.02 86.547 1111.2 86.1511C1111.39 85.7552 1111.65 85.4223 1112.01 85.1523C1112.36 84.8764 1112.81 84.6695 1113.35 84.5315C1113.88 84.3876 1114.5 84.3156 1115.21 84.3156H1116.63Z" fill="#5B188F"/>
<path d="M1123.27 80.5097V90.2449H1120.8V80.5097H1123.27ZM1120.65 77.9724C1120.65 77.5945 1120.78 77.2826 1121.03 77.0366C1121.28 76.7907 1121.61 76.6677 1122.03 76.6677C1122.45 76.6677 1122.78 76.7907 1123.03 77.0366C1123.29 77.2826 1123.42 77.5945 1123.42 77.9724C1123.42 78.3503 1123.29 78.6622 1123.03 78.9081C1122.78 79.154 1122.45 79.277 1122.03 79.277C1121.61 79.277 1121.28 79.154 1121.03 78.9081C1120.78 78.6622 1120.65 78.3503 1120.65 77.9724Z" fill="#5B188F"/>
<path d="M1127.9 76.4248V90.2449H1125.43V76.4248H1127.9Z" fill="#5B188F"/>
<path d="M1134.18 90.4249C1133.46 90.4249 1132.82 90.3049 1132.25 90.065C1131.68 89.819 1131.2 89.4801 1130.8 89.0482C1130.41 88.6164 1130.1 88.1155 1129.89 87.5457C1129.68 86.9698 1129.58 86.358 1129.58 85.7102V85.3503C1129.58 84.6125 1129.68 83.9377 1129.88 83.3259C1130.08 82.714 1130.36 82.1832 1130.73 81.7333C1131.1 81.2834 1131.56 80.9385 1132.09 80.6986C1132.63 80.4527 1133.23 80.3297 1133.9 80.3297C1134.56 80.3297 1135.14 80.4437 1135.65 80.6716C1136.15 80.8995 1136.58 81.2235 1136.92 81.6433C1137.26 82.0632 1137.53 82.5671 1137.7 83.1549C1137.88 83.7367 1137.97 84.3846 1137.97 85.0984V86.1781H1130.63V84.4505H1135.55V84.2526C1135.55 83.8927 1135.49 83.5718 1135.36 83.2899C1135.24 83.002 1135.06 82.774 1134.82 82.6061C1134.57 82.4381 1134.26 82.3541 1133.88 82.3541C1133.55 82.3541 1133.28 82.4291 1133.04 82.5791C1132.81 82.729 1132.62 82.939 1132.47 83.2089C1132.33 83.4788 1132.22 83.7967 1132.15 84.1626C1132.08 84.5225 1132.04 84.9184 1132.04 85.3503V85.7102C1132.04 86.1001 1132.09 86.46 1132.2 86.7899C1132.31 87.1198 1132.46 87.4047 1132.65 87.6446C1132.85 87.8846 1133.09 88.0705 1133.37 88.2025C1133.65 88.3344 1133.97 88.4004 1134.33 88.4004C1134.77 88.4004 1135.19 88.3105 1135.57 88.1305C1135.96 87.9446 1136.29 87.6656 1136.57 87.2937L1137.76 88.6614C1137.57 88.9553 1137.3 89.2372 1136.97 89.5071C1136.64 89.777 1136.24 89.999 1135.77 90.1729C1135.31 90.3409 1134.77 90.4249 1134.18 90.4249Z" fill="#5B188F"/>
<path d="M1141.82 82.6331V90.2449H1139.37V80.5097H1141.68L1141.82 82.6331ZM1144.61 80.4467L1144.56 82.849C1144.44 82.831 1144.3 82.816 1144.13 82.804C1143.96 82.786 1143.81 82.777 1143.68 82.777C1143.33 82.777 1143.03 82.825 1142.77 82.921C1142.52 83.0109 1142.31 83.1459 1142.14 83.3259C1141.97 83.5058 1141.85 83.7247 1141.76 83.9827C1141.68 84.2406 1141.64 84.5345 1141.63 84.8644L1141.13 84.7025C1141.13 84.0726 1141.19 83.4938 1141.31 82.966C1141.43 82.4321 1141.6 81.9672 1141.83 81.5714C1142.07 81.1755 1142.35 80.8696 1142.69 80.6536C1143.02 80.4377 1143.41 80.3297 1143.84 80.3297C1143.97 80.3297 1144.11 80.3417 1144.26 80.3657C1144.4 80.3837 1144.52 80.4107 1144.61 80.4467Z" fill="#5B188F"/>
<path d="M1161.44 141.389H1163.61L1166.8 151.008L1169.99 141.389H1172.16L1167.67 154.49H1165.93L1161.44 141.389ZM1160.27 141.389H1162.43L1162.82 150.765V154.49H1160.27V141.389ZM1171.17 141.389H1173.34V154.49H1170.78V150.765L1171.17 141.389Z" fill="#FB00E2"/>
<path d="M1175.03 149.721V149.532C1175.03 148.818 1175.13 148.162 1175.32 147.562C1175.52 146.956 1175.8 146.431 1176.17 145.987C1176.54 145.543 1176.99 145.198 1177.53 144.952C1178.08 144.7 1178.7 144.575 1179.4 144.575C1180.1 144.575 1180.72 144.7 1181.26 144.952C1181.81 145.198 1182.27 145.543 1182.64 145.987C1183.01 146.431 1183.3 146.956 1183.49 147.562C1183.69 148.162 1183.78 148.818 1183.78 149.532V149.721C1183.78 150.429 1183.69 151.086 1183.49 151.692C1183.3 152.291 1183.01 152.816 1182.64 153.266C1182.27 153.71 1181.81 154.055 1181.27 154.301C1180.73 154.547 1180.11 154.67 1179.41 154.67C1178.71 154.67 1178.09 154.547 1177.54 154.301C1177 154.055 1176.54 153.71 1176.17 153.266C1175.8 152.816 1175.52 152.291 1175.32 151.692C1175.13 151.086 1175.03 150.429 1175.03 149.721ZM1177.49 149.532V149.721C1177.49 150.129 1177.53 150.51 1177.59 150.864C1177.66 151.218 1177.77 151.53 1177.92 151.799C1178.07 152.063 1178.27 152.27 1178.52 152.42C1178.76 152.57 1179.06 152.645 1179.41 152.645C1179.75 152.645 1180.05 152.57 1180.29 152.42C1180.54 152.27 1180.73 152.063 1180.88 151.799C1181.03 151.53 1181.14 151.218 1181.2 150.864C1181.28 150.51 1181.32 150.129 1181.32 149.721V149.532C1181.32 149.136 1181.28 148.764 1181.2 148.416C1181.14 148.063 1181.03 147.751 1180.87 147.481C1180.72 147.205 1180.53 146.989 1180.28 146.833C1180.04 146.677 1179.74 146.599 1179.4 146.599C1179.05 146.599 1178.75 146.677 1178.51 146.833C1178.27 146.989 1178.07 147.205 1177.92 147.481C1177.77 147.751 1177.66 148.063 1177.59 148.416C1177.53 148.764 1177.49 149.136 1177.49 149.532Z" fill="#FB00E2"/>
<path d="M1190.75 152.366V140.67H1193.22V154.49H1190.99L1190.75 152.366ZM1184.91 149.739V149.55C1184.91 148.806 1184.99 148.132 1185.15 147.526C1185.31 146.914 1185.54 146.389 1185.85 145.951C1186.15 145.513 1186.53 145.174 1186.98 144.934C1187.43 144.694 1187.94 144.575 1188.52 144.575C1189.06 144.575 1189.53 144.694 1189.94 144.934C1190.34 145.174 1190.69 145.516 1190.98 145.96C1191.27 146.398 1191.5 146.917 1191.68 147.517C1191.85 148.111 1191.98 148.761 1192.06 149.469V149.883C1191.98 150.561 1191.85 151.191 1191.68 151.772C1191.5 152.354 1191.27 152.864 1190.98 153.302C1190.69 153.734 1190.34 154.07 1189.94 154.31C1189.53 154.55 1189.05 154.67 1188.5 154.67C1187.93 154.67 1187.41 154.547 1186.97 154.301C1186.52 154.055 1186.15 153.71 1185.84 153.266C1185.54 152.822 1185.31 152.3 1185.15 151.701C1184.99 151.101 1184.91 150.447 1184.91 149.739ZM1187.37 149.55V149.739C1187.37 150.141 1187.39 150.516 1187.45 150.864C1187.51 151.212 1187.61 151.521 1187.75 151.79C1187.89 152.054 1188.07 152.261 1188.3 152.411C1188.52 152.555 1188.8 152.627 1189.12 152.627C1189.55 152.627 1189.89 152.528 1190.17 152.33C1190.44 152.126 1190.65 151.847 1190.79 151.494C1190.94 151.14 1191.02 150.732 1191.04 150.27V149.091C1191.03 148.713 1190.98 148.374 1190.89 148.075C1190.81 147.769 1190.69 147.508 1190.53 147.292C1190.38 147.076 1190.19 146.908 1189.95 146.788C1189.72 146.668 1189.45 146.608 1189.14 146.608C1188.82 146.608 1188.55 146.686 1188.32 146.842C1188.09 146.992 1187.91 147.199 1187.77 147.463C1187.63 147.727 1187.53 148.039 1187.46 148.398C1187.4 148.752 1187.37 149.136 1187.37 149.55Z" fill="#FB00E2"/>
<path d="M1199.39 154.67C1198.67 154.67 1198.03 154.55 1197.46 154.31C1196.89 154.064 1196.41 153.725 1196.01 153.293C1195.62 152.861 1195.32 152.36 1195.11 151.79C1194.9 151.215 1194.79 150.603 1194.79 149.955V149.595C1194.79 148.857 1194.89 148.182 1195.09 147.571C1195.29 146.959 1195.57 146.428 1195.94 145.978C1196.32 145.528 1196.77 145.183 1197.31 144.943C1197.84 144.697 1198.45 144.575 1199.12 144.575C1199.77 144.575 1200.35 144.688 1200.86 144.916C1201.37 145.144 1201.79 145.468 1202.13 145.888C1202.48 146.308 1202.74 146.812 1202.92 147.4C1203.09 147.982 1203.18 148.629 1203.18 149.343V150.423H1195.84V148.695H1200.77V148.497C1200.77 148.138 1200.7 147.817 1200.58 147.535C1200.46 147.247 1200.28 147.019 1200.03 146.851C1199.79 146.683 1199.47 146.599 1199.09 146.599C1198.77 146.599 1198.49 146.674 1198.26 146.824C1198.02 146.974 1197.83 147.184 1197.68 147.454C1197.54 147.724 1197.43 148.042 1197.36 148.407C1197.29 148.767 1197.26 149.163 1197.26 149.595V149.955C1197.26 150.345 1197.31 150.705 1197.41 151.035C1197.52 151.365 1197.67 151.65 1197.86 151.889C1198.06 152.129 1198.3 152.315 1198.58 152.447C1198.86 152.579 1199.19 152.645 1199.54 152.645C1199.99 152.645 1200.4 152.555 1200.78 152.375C1201.17 152.189 1201.5 151.91 1201.78 151.539L1202.98 152.906C1202.78 153.2 1202.52 153.482 1202.18 153.752C1201.85 154.022 1201.45 154.244 1200.99 154.418C1200.52 154.586 1199.99 154.67 1199.39 154.67Z" fill="#FB00E2"/>
<path d="M1207.17 140.67V154.49H1204.71V140.67H1207.17Z" fill="#FB00E2"/>
<path d="M983.652 162.956L1061.59 89.7471L1141.66 158.225L1069.15 213.007M983.652 162.956L1069.15 213.007M983.652 162.956L1014.12 241.146L1144.73 221.723L1061.59 91.9882L1069.15 213.007" stroke="#8584B3" stroke-width="6"/>
<ellipse cx="983.179" cy="162.209" rx="7.32191" ry="7.71934" fill="#391B89"/>
<ellipse cx="1013.88" cy="240.399" rx="7.32191" ry="7.71934" fill="#391B89"/>
<ellipse cx="1068.21" cy="213.007" rx="7.32191" ry="7.71934" fill="#391B89"/>
<ellipse cx="1143.79" cy="220.478" rx="7.32191" ry="7.71934" fill="#391B89"/>
<ellipse cx="1141.43" cy="157.727" rx="7.32191" ry="7.71934" fill="#391B89"/>
<ellipse cx="1060.65" cy="89.9962" rx="7.32191" ry="7.71934" fill="#391B89"/>
<path d="M464 512.316C464 486.736 483.669 466 507.931 466H760.183C784.446 466 804.115 486.736 804.115 512.316V725.469C804.115 751.049 784.446 771.785 760.183 771.785H507.931C483.669 771.785 464 751.049 464 725.469V512.316Z" fill="#F6F2FF"/>
<path d="M611.792 680.994H613.959L617.151 690.612L620.343 680.994H622.511L618.022 694.094H616.281L611.792 680.994ZM610.622 680.994H612.782L613.174 690.369V694.094H610.622V680.994ZM621.521 680.994H623.688V694.094H621.128V690.369L621.521 680.994Z" fill="#FB00E2"/>
<path d="M625.387 689.325V689.136C625.387 688.423 625.483 687.766 625.677 687.166C625.87 686.56 626.152 686.035 626.522 685.591C626.891 685.148 627.347 684.803 627.887 684.557C628.428 684.305 629.048 684.179 629.748 684.179C630.447 684.179 631.07 684.305 631.617 684.557C632.163 684.803 632.621 685.148 632.991 685.591C633.366 686.035 633.651 686.56 633.844 687.166C634.037 687.766 634.134 688.423 634.134 689.136V689.325C634.134 690.033 634.037 690.69 633.844 691.296C633.651 691.896 633.366 692.421 632.991 692.87C632.621 693.314 632.166 693.659 631.625 693.905C631.085 694.151 630.464 694.274 629.765 694.274C629.065 694.274 628.442 694.151 627.896 693.905C627.355 693.659 626.897 693.314 626.522 692.87C626.152 692.421 625.87 691.896 625.677 691.296C625.483 690.69 625.387 690.033 625.387 689.325ZM627.844 689.136V689.325C627.844 689.733 627.879 690.114 627.947 690.468C628.015 690.822 628.123 691.134 628.271 691.404C628.425 691.668 628.624 691.875 628.869 692.025C629.113 692.175 629.412 692.25 629.765 692.25C630.106 692.25 630.399 692.175 630.644 692.025C630.888 691.875 631.085 691.668 631.233 691.404C631.381 691.134 631.489 690.822 631.557 690.468C631.631 690.114 631.668 689.733 631.668 689.325V689.136C631.668 688.741 631.631 688.369 631.557 688.021C631.489 687.667 631.378 687.355 631.224 687.085C631.076 686.809 630.88 686.593 630.635 686.437C630.391 686.281 630.095 686.203 629.748 686.203C629.401 686.203 629.105 686.281 628.86 686.437C628.621 686.593 628.425 686.809 628.271 687.085C628.123 687.355 628.015 687.667 627.947 688.021C627.879 688.369 627.844 688.741 627.844 689.136Z" fill="#FB00E2"/>
<path d="M641.098 691.971V680.274H643.573V694.094H641.346L641.098 691.971ZM635.261 689.343V689.154C635.261 688.411 635.34 687.736 635.5 687.13C635.659 686.518 635.892 685.993 636.199 685.555C636.507 685.118 636.885 684.779 637.335 684.539C637.784 684.299 638.296 684.179 638.871 684.179C639.411 684.179 639.883 684.299 640.287 684.539C640.697 684.779 641.044 685.121 641.329 685.564C641.619 686.002 641.852 686.521 642.028 687.121C642.205 687.715 642.333 688.366 642.412 689.073V689.487C642.333 690.165 642.205 690.795 642.028 691.377C641.852 691.959 641.619 692.469 641.329 692.906C641.044 693.338 640.697 693.674 640.287 693.914C639.878 694.154 639.4 694.274 638.854 694.274C638.279 694.274 637.767 694.151 637.317 693.905C636.874 693.659 636.498 693.314 636.191 692.87C635.889 692.427 635.659 691.905 635.5 691.305C635.34 690.705 635.261 690.051 635.261 689.343ZM637.719 689.154V689.343C637.719 689.745 637.747 690.12 637.804 690.468C637.867 690.816 637.966 691.125 638.103 691.395C638.245 691.659 638.427 691.866 638.649 692.016C638.876 692.16 639.152 692.232 639.477 692.232C639.898 692.232 640.245 692.133 640.518 691.935C640.791 691.731 640.999 691.452 641.141 691.098C641.289 690.744 641.374 690.336 641.397 689.874V688.696C641.38 688.318 641.329 687.979 641.243 687.679C641.164 687.373 641.044 687.112 640.885 686.896C640.731 686.68 640.538 686.512 640.304 686.392C640.077 686.272 639.807 686.212 639.494 686.212C639.175 686.212 638.902 686.29 638.674 686.446C638.447 686.596 638.262 686.803 638.12 687.067C637.983 687.331 637.881 687.643 637.812 688.003C637.75 688.357 637.719 688.741 637.719 689.154Z" fill="#FB00E2"/>
<path d="M649.743 694.274C649.026 694.274 648.384 694.154 647.815 693.914C647.246 693.668 646.762 693.329 646.364 692.897C645.971 692.466 645.67 691.965 645.459 691.395C645.249 690.819 645.143 690.207 645.143 689.559V689.199C645.143 688.462 645.243 687.787 645.442 687.175C645.641 686.563 645.926 686.032 646.295 685.582C646.671 685.133 647.126 684.788 647.661 684.548C648.196 684.302 648.799 684.179 649.47 684.179C650.125 684.179 650.705 684.293 651.211 684.521C651.718 684.749 652.141 685.073 652.483 685.492C652.83 685.912 653.092 686.416 653.268 687.004C653.444 687.586 653.533 688.234 653.533 688.948V690.027H646.193V688.3H651.117V688.102C651.117 687.742 651.055 687.421 650.93 687.139C650.81 686.851 650.628 686.623 650.383 686.455C650.139 686.287 649.826 686.203 649.445 686.203C649.12 686.203 648.842 686.278 648.608 686.428C648.375 686.578 648.184 686.788 648.036 687.058C647.894 687.328 647.786 687.646 647.712 688.012C647.644 688.372 647.61 688.768 647.61 689.199V689.559C647.61 689.949 647.661 690.309 647.763 690.639C647.871 690.969 648.022 691.254 648.216 691.494C648.415 691.734 648.654 691.92 648.933 692.052C649.217 692.184 649.539 692.25 649.897 692.25C650.341 692.25 650.753 692.16 651.134 691.98C651.521 691.794 651.854 691.515 652.133 691.143L653.328 692.511C653.134 692.804 652.87 693.086 652.534 693.356C652.204 693.626 651.806 693.848 651.339 694.022C650.873 694.19 650.341 694.274 649.743 694.274Z" fill="#FB00E2"/>
<path d="M657.527 680.274V694.094H655.06V680.274H657.527Z" fill="#FB00E2"/>
<path d="M494.189 575.203H496.74C496.689 576.085 496.459 576.868 496.049 577.552C495.645 578.235 495.079 578.769 494.351 579.153C493.628 579.537 492.758 579.729 491.739 579.729C490.943 579.729 490.229 579.585 489.597 579.297C488.966 579.003 488.425 578.583 487.976 578.037C487.532 577.492 487.193 576.832 486.96 576.058C486.727 575.284 486.61 574.418 486.61 573.458V572.549C486.61 571.589 486.73 570.723 486.969 569.949C487.213 569.169 487.56 568.506 488.01 567.96C488.465 567.414 489.008 566.995 489.64 566.701C490.271 566.407 490.977 566.26 491.756 566.26C492.792 566.26 493.665 566.458 494.376 566.854C495.093 567.25 495.648 567.795 496.04 568.491C496.439 569.187 496.678 569.979 496.757 570.867H494.197C494.169 570.339 494.069 569.892 493.898 569.526C493.728 569.154 493.469 568.875 493.122 568.689C492.78 568.497 492.325 568.401 491.756 568.401C491.33 568.401 490.957 568.485 490.638 568.653C490.32 568.821 490.052 569.076 489.836 569.418C489.62 569.76 489.458 570.192 489.35 570.714C489.247 571.229 489.196 571.835 489.196 572.531V573.458C489.196 574.136 489.244 574.732 489.341 575.248C489.438 575.758 489.586 576.19 489.785 576.544C489.99 576.892 490.251 577.156 490.57 577.336C490.894 577.51 491.284 577.597 491.739 577.597C492.274 577.597 492.715 577.507 493.062 577.327C493.409 577.147 493.674 576.88 493.856 576.526C494.043 576.172 494.154 575.731 494.189 575.203Z" fill="#18888F"/>
<path d="M497.875 574.78V574.591C497.875 573.878 497.972 573.221 498.165 572.621C498.359 572.015 498.641 571.49 499.01 571.046C499.38 570.603 499.835 570.258 500.376 570.012C500.916 569.76 501.536 569.634 502.236 569.634C502.936 569.634 503.559 569.76 504.105 570.012C504.651 570.258 505.109 570.603 505.479 571.046C505.855 571.49 506.139 572.015 506.333 572.621C506.526 573.221 506.623 573.878 506.623 574.591V574.78C506.623 575.488 506.526 576.145 506.333 576.751C506.139 577.351 505.855 577.876 505.479 578.325C505.109 578.769 504.654 579.114 504.114 579.36C503.573 579.606 502.953 579.729 502.253 579.729C501.554 579.729 500.931 579.606 500.384 579.36C499.844 579.114 499.386 578.769 499.01 578.325C498.641 577.876 498.359 577.351 498.165 576.751C497.972 576.145 497.875 575.488 497.875 574.78ZM500.333 574.591V574.78C500.333 575.188 500.367 575.569 500.436 575.923C500.504 576.277 500.612 576.589 500.76 576.859C500.913 577.123 501.113 577.33 501.357 577.48C501.602 577.63 501.901 577.705 502.253 577.705C502.595 577.705 502.888 577.63 503.132 577.48C503.377 577.33 503.573 577.123 503.721 576.859C503.869 576.589 503.977 576.277 504.046 575.923C504.12 575.569 504.156 575.188 504.156 574.78V574.591C504.156 574.196 504.12 573.824 504.046 573.476C503.977 573.122 503.866 572.81 503.713 572.54C503.565 572.264 503.368 572.048 503.124 571.892C502.879 571.736 502.583 571.658 502.236 571.658C501.889 571.658 501.593 571.736 501.349 571.892C501.11 572.048 500.913 572.264 500.76 572.54C500.612 572.81 500.504 573.122 500.436 573.476C500.367 573.824 500.333 574.196 500.333 574.591Z" fill="#18888F"/>
<path d="M510.54 571.892V579.549H508.082V569.814H510.386L510.54 571.892ZM510.182 574.34H509.516C509.516 573.62 509.604 572.972 509.781 572.396C509.957 571.814 510.204 571.319 510.523 570.912C510.842 570.498 511.22 570.183 511.658 569.967C512.102 569.745 512.597 569.634 513.143 569.634C513.575 569.634 513.971 569.7 514.329 569.832C514.688 569.964 514.995 570.174 515.251 570.462C515.513 570.75 515.712 571.13 515.848 571.604C515.991 572.078 516.062 572.657 516.062 573.341V579.549H513.587V573.332C513.587 572.9 513.53 572.564 513.416 572.324C513.302 572.084 513.134 571.916 512.913 571.82C512.696 571.718 512.429 571.667 512.11 571.667C511.78 571.667 511.493 571.736 511.248 571.874C511.009 572.012 510.81 572.204 510.651 572.45C510.497 572.69 510.381 572.972 510.301 573.296C510.221 573.62 510.182 573.968 510.182 574.34Z" fill="#18888F"/>
<path d="M522.454 569.814V571.649H517.077V569.814H522.454ZM518.409 567.411H520.867V576.616C520.867 576.898 520.901 577.114 520.969 577.264C521.043 577.414 521.151 577.519 521.293 577.579C521.435 577.633 521.615 577.66 521.831 577.66C521.984 577.66 522.121 577.654 522.241 577.642C522.366 577.624 522.471 577.606 522.556 577.588L522.565 579.495C522.354 579.567 522.127 579.624 521.882 579.666C521.637 579.708 521.367 579.729 521.071 579.729C520.531 579.729 520.059 579.636 519.655 579.45C519.256 579.258 518.949 578.952 518.733 578.532C518.517 578.112 518.409 577.561 518.409 576.877V567.411Z" fill="#18888F"/>
<path d="M526.311 571.937V579.549H523.853V569.814H526.166L526.311 571.937ZM529.094 569.751L529.051 572.153C528.931 572.135 528.786 572.12 528.616 572.108C528.451 572.09 528.3 572.081 528.163 572.081C527.816 572.081 527.515 572.129 527.259 572.225C527.008 572.315 526.798 572.45 526.627 572.63C526.462 572.81 526.337 573.029 526.252 573.287C526.172 573.545 526.126 573.839 526.115 574.169L525.62 574.007C525.62 573.377 525.68 572.798 525.799 572.27C525.919 571.736 526.092 571.271 526.32 570.876C526.553 570.48 526.838 570.174 527.173 569.958C527.509 569.742 527.893 569.634 528.325 569.634C528.462 569.634 528.601 569.646 528.744 569.67C528.886 569.688 529.002 569.715 529.094 569.751Z" fill="#18888F"/>
<path d="M529.606 574.78V574.591C529.606 573.878 529.702 573.221 529.896 572.621C530.089 572.015 530.371 571.49 530.741 571.046C531.11 570.603 531.566 570.258 532.106 570.012C532.647 569.76 533.267 569.634 533.967 569.634C534.666 569.634 535.289 569.76 535.836 570.012C536.382 570.258 536.84 570.603 537.21 571.046C537.585 571.49 537.87 572.015 538.063 572.621C538.256 573.221 538.353 573.878 538.353 574.591V574.78C538.353 575.488 538.256 576.145 538.063 576.751C537.87 577.351 537.585 577.876 537.21 578.325C536.84 578.769 536.385 579.114 535.844 579.36C535.304 579.606 534.683 579.729 533.984 579.729C533.284 579.729 532.661 579.606 532.115 579.36C531.574 579.114 531.116 578.769 530.741 578.325C530.371 577.876 530.089 577.351 529.896 576.751C529.702 576.145 529.606 575.488 529.606 574.78ZM532.063 574.591V574.78C532.063 575.188 532.098 575.569 532.166 575.923C532.234 576.277 532.342 576.589 532.49 576.859C532.644 577.123 532.843 577.33 533.088 577.48C533.332 577.63 533.631 577.705 533.984 577.705C534.325 577.705 534.618 577.63 534.863 577.48C535.107 577.33 535.304 577.123 535.452 576.859C535.599 576.589 535.708 576.277 535.776 575.923C535.85 575.569 535.887 575.188 535.887 574.78V574.591C535.887 574.196 535.85 573.824 535.776 573.476C535.708 573.122 535.597 572.81 535.443 572.54C535.295 572.264 535.099 572.048 534.854 571.892C534.609 571.736 534.314 571.658 533.967 571.658C533.619 571.658 533.324 571.736 533.079 571.892C532.84 572.048 532.644 572.264 532.49 572.54C532.342 572.81 532.234 573.122 532.166 573.476C532.098 573.824 532.063 574.196 532.063 574.591Z" fill="#18888F"/>
<path d="M542.458 565.729V579.549H539.992V565.729H542.458Z" fill="#18888F"/>
<path d="M547.084 565.729V579.549H544.617V565.729H547.084Z" fill="#18888F"/>
<path d="M553.365 579.729C552.648 579.729 552.005 579.609 551.436 579.369C550.867 579.123 550.384 578.784 549.985 578.352C549.593 577.921 549.291 577.42 549.081 576.85C548.87 576.274 548.765 575.662 548.765 575.014V574.654C548.765 573.917 548.864 573.242 549.064 572.63C549.263 572.018 549.547 571.487 549.917 571.037C550.293 570.588 550.748 570.243 551.283 570.003C551.817 569.757 552.42 569.634 553.092 569.634C553.746 569.634 554.326 569.748 554.833 569.976C555.339 570.204 555.763 570.528 556.104 570.947C556.451 571.367 556.713 571.871 556.89 572.459C557.066 573.041 557.154 573.689 557.154 574.403V575.482H549.815V573.755H554.739V573.557C554.739 573.197 554.676 572.876 554.551 572.594C554.432 572.306 554.25 572.078 554.005 571.91C553.76 571.742 553.447 571.658 553.066 571.658C552.742 571.658 552.463 571.733 552.23 571.883C551.997 572.033 551.806 572.243 551.658 572.513C551.516 572.783 551.408 573.101 551.334 573.467C551.265 573.827 551.231 574.223 551.231 574.654V575.014C551.231 575.404 551.283 575.764 551.385 576.094C551.493 576.424 551.644 576.709 551.837 576.949C552.036 577.189 552.275 577.375 552.554 577.507C552.839 577.639 553.16 577.705 553.518 577.705C553.962 577.705 554.375 577.615 554.756 577.435C555.143 577.249 555.476 576.97 555.754 576.598L556.949 577.966C556.756 578.259 556.491 578.541 556.156 578.811C555.826 579.081 555.427 579.303 554.961 579.477C554.494 579.645 553.962 579.729 553.365 579.729Z" fill="#18888F"/>
<path d="M561.012 571.937V579.549H558.554V569.814H560.866L561.012 571.937ZM563.794 569.751L563.751 572.153C563.632 572.135 563.486 572.12 563.316 572.108C563.151 572.09 563 572.081 562.863 572.081C562.516 572.081 562.215 572.129 561.959 572.225C561.708 572.315 561.498 572.45 561.327 572.63C561.162 572.81 561.037 573.029 560.952 573.287C560.872 573.545 560.827 573.839 560.815 574.169L560.32 574.007C560.32 573.377 560.38 572.798 560.499 572.27C560.619 571.736 560.792 571.271 561.02 570.876C561.253 570.48 561.538 570.174 561.873 569.958C562.209 569.742 562.593 569.634 563.026 569.634C563.162 569.634 563.302 569.646 563.444 569.67C563.586 569.688 563.703 569.715 563.794 569.751Z" fill="#18888F"/>
<path d="M530.751 701.029V691.95H533.303V701.029C533.303 701.904 533.121 702.657 532.757 703.287C532.392 703.911 531.895 704.391 531.263 704.727C530.637 705.063 529.932 705.231 529.147 705.231C528.333 705.231 527.613 705.087 526.987 704.799C526.362 704.511 525.869 704.07 525.511 703.476C525.153 702.876 524.973 702.117 524.973 701.2H527.542C527.542 701.68 527.605 702.06 527.73 702.342C527.861 702.624 528.046 702.825 528.285 702.945C528.524 703.065 528.811 703.125 529.147 703.125C529.471 703.125 529.752 703.044 529.991 702.882C530.23 702.72 530.415 702.483 530.546 702.171C530.683 701.859 530.751 701.479 530.751 701.029Z" fill="#C900FB"/>
<path d="M534.941 700.282V700.093C534.941 699.379 535.038 698.722 535.231 698.123C535.425 697.517 535.707 696.992 536.076 696.548C536.446 696.104 536.901 695.759 537.442 695.513C537.982 695.261 538.602 695.135 539.302 695.135C540.002 695.135 540.625 695.261 541.171 695.513C541.717 695.759 542.175 696.104 542.545 696.548C542.921 696.992 543.205 697.517 543.399 698.123C543.592 698.722 543.689 699.379 543.689 700.093V700.282C543.689 700.99 543.592 701.647 543.399 702.252C543.205 702.852 542.921 703.377 542.545 703.827C542.175 704.271 541.72 704.616 541.18 704.862C540.639 705.108 540.019 705.231 539.319 705.231C538.62 705.231 537.997 705.108 537.45 704.862C536.91 704.616 536.452 704.271 536.076 703.827C535.707 703.377 535.425 702.852 535.231 702.252C535.038 701.647 534.941 700.99 534.941 700.282ZM537.399 700.093V700.282C537.399 700.69 537.433 701.071 537.502 701.425C537.57 701.778 537.678 702.09 537.826 702.36C537.979 702.624 538.179 702.831 538.423 702.981C538.668 703.131 538.967 703.206 539.319 703.206C539.661 703.206 539.954 703.131 540.198 702.981C540.443 702.831 540.639 702.624 540.787 702.36C540.935 702.09 541.043 701.778 541.112 701.425C541.186 701.071 541.222 700.69 541.222 700.282V700.093C541.222 699.697 541.186 699.325 541.112 698.977C541.043 698.623 540.932 698.311 540.779 698.042C540.631 697.766 540.435 697.55 540.19 697.394C539.945 697.238 539.649 697.16 539.302 697.16C538.955 697.16 538.659 697.238 538.415 697.394C538.176 697.55 537.979 697.766 537.826 698.042C537.678 698.311 537.57 698.623 537.502 698.977C537.433 699.325 537.399 699.697 537.399 700.093Z" fill="#C900FB"/>
<path d="M545.199 691.23H547.657V702.819L547.41 705.051H545.199V691.23ZM553.503 700.084V700.273C553.503 700.999 553.429 701.665 553.281 702.27C553.139 702.876 552.917 703.401 552.616 703.845C552.314 704.283 551.939 704.625 551.489 704.871C551.045 705.111 550.522 705.231 549.919 705.231C549.356 705.231 548.866 705.111 548.451 704.871C548.041 704.631 547.697 704.292 547.418 703.854C547.14 703.416 546.915 702.903 546.744 702.315C546.573 701.727 546.445 701.086 546.36 700.39V699.976C546.445 699.28 546.573 698.638 546.744 698.051C546.915 697.463 547.14 696.95 547.418 696.512C547.697 696.074 548.041 695.735 548.451 695.495C548.861 695.255 549.344 695.135 549.902 695.135C550.511 695.135 551.04 695.258 551.489 695.504C551.944 695.744 552.32 696.086 552.616 696.53C552.917 696.968 553.139 697.49 553.281 698.096C553.429 698.695 553.503 699.358 553.503 700.084ZM551.045 700.273V700.084C551.045 699.688 551.017 699.316 550.96 698.968C550.909 698.614 550.818 698.305 550.687 698.042C550.556 697.772 550.377 697.559 550.149 697.403C549.927 697.247 549.64 697.169 549.287 697.169C548.952 697.169 548.667 697.229 548.434 697.349C548.201 697.469 548.007 697.637 547.854 697.853C547.706 698.069 547.595 698.326 547.521 698.626C547.447 698.92 547.401 699.244 547.384 699.598V700.777C547.401 701.251 547.475 701.671 547.606 702.036C547.743 702.396 547.947 702.681 548.221 702.891C548.499 703.095 548.861 703.197 549.304 703.197C549.651 703.197 549.939 703.125 550.166 702.981C550.394 702.837 550.57 702.633 550.695 702.369C550.826 702.105 550.917 701.796 550.969 701.443C551.02 701.083 551.045 700.693 551.045 700.273Z" fill="#C900FB"/>
<path d="M719.703 679.614V670.535H722.255V679.614C722.255 680.49 722.073 681.242 721.709 681.872C721.345 682.496 720.847 682.976 720.216 683.312C719.59 683.648 718.884 683.816 718.099 683.816C717.285 683.816 716.566 683.672 715.94 683.384C715.314 683.096 714.822 682.655 714.463 682.061C714.105 681.461 713.926 680.702 713.926 679.785H716.495C716.495 680.265 716.557 680.645 716.682 680.927C716.813 681.209 716.998 681.41 717.237 681.53C717.476 681.65 717.763 681.71 718.099 681.71C718.423 681.71 718.705 681.629 718.944 681.467C719.183 681.305 719.368 681.068 719.499 680.756C719.635 680.445 719.703 680.064 719.703 679.614Z" fill="#C900FB"/>
<path d="M723.894 678.867V678.678C723.894 677.964 723.991 677.307 724.184 676.708C724.377 676.102 724.659 675.577 725.029 675.133C725.399 674.689 725.854 674.344 726.394 674.098C726.935 673.846 727.555 673.72 728.255 673.72C728.955 673.72 729.578 673.846 730.124 674.098C730.67 674.344 731.128 674.689 731.498 675.133C731.873 675.577 732.158 676.102 732.351 676.708C732.545 677.307 732.641 677.964 732.641 678.678V678.867C732.641 679.575 732.545 680.232 732.351 680.837C732.158 681.437 731.873 681.962 731.498 682.412C731.128 682.856 730.673 683.201 730.132 683.447C729.592 683.693 728.972 683.816 728.272 683.816C727.572 683.816 726.949 683.693 726.403 683.447C725.862 683.201 725.404 682.856 725.029 682.412C724.659 681.962 724.377 681.437 724.184 680.837C723.991 680.232 723.894 679.575 723.894 678.867ZM726.352 678.678V678.867C726.352 679.275 726.386 679.656 726.454 680.01C726.522 680.364 726.63 680.675 726.778 680.945C726.932 681.209 727.131 681.416 727.376 681.566C727.62 681.716 727.919 681.791 728.272 681.791C728.613 681.791 728.906 681.716 729.151 681.566C729.396 681.416 729.592 681.209 729.74 680.945C729.888 680.675 729.996 680.364 730.064 680.01C730.138 679.656 730.175 679.275 730.175 678.867V678.678C730.175 678.282 730.138 677.91 730.064 677.562C729.996 677.208 729.885 676.897 729.731 676.627C729.583 676.351 729.387 676.135 729.142 675.979C728.898 675.823 728.602 675.745 728.255 675.745C727.908 675.745 727.612 675.823 727.367 675.979C727.128 676.135 726.932 676.351 726.778 676.627C726.63 676.897 726.522 677.208 726.454 677.562C726.386 677.91 726.352 678.282 726.352 678.678Z" fill="#C900FB"/>
<path d="M734.152 669.816H736.61V681.404L736.362 683.636H734.152V669.816ZM742.456 678.669V678.858C742.456 679.584 742.382 680.25 742.234 680.855C742.092 681.461 741.87 681.986 741.568 682.43C741.267 682.868 740.891 683.21 740.442 683.456C739.998 683.696 739.474 683.816 738.871 683.816C738.308 683.816 737.819 683.696 737.403 683.456C736.994 683.216 736.65 682.877 736.371 682.439C736.092 682.001 735.867 681.488 735.697 680.9C735.526 680.313 735.398 679.671 735.313 678.975V678.561C735.398 677.865 735.526 677.223 735.697 676.636C735.867 676.048 736.092 675.535 736.371 675.097C736.65 674.659 736.994 674.32 737.403 674.08C737.813 673.84 738.297 673.72 738.854 673.72C739.463 673.72 739.992 673.843 740.442 674.089C740.897 674.329 741.272 674.671 741.568 675.115C741.87 675.553 742.092 676.075 742.234 676.681C742.382 677.28 742.456 677.943 742.456 678.669ZM739.998 678.858V678.669C739.998 678.273 739.969 677.901 739.913 677.553C739.861 677.199 739.77 676.891 739.639 676.627C739.509 676.357 739.329 676.144 739.102 675.988C738.88 675.832 738.593 675.754 738.24 675.754C737.904 675.754 737.62 675.814 737.386 675.934C737.153 676.054 736.96 676.222 736.806 676.438C736.658 676.654 736.547 676.912 736.473 677.211C736.399 677.505 736.354 677.829 736.337 678.183V679.362C736.354 679.836 736.428 680.256 736.559 680.621C736.695 680.981 736.9 681.266 737.173 681.476C737.452 681.68 737.813 681.782 738.257 681.782C738.604 681.782 738.891 681.71 739.119 681.566C739.346 681.422 739.523 681.218 739.648 680.954C739.779 680.69 739.87 680.382 739.921 680.028C739.972 679.668 739.998 679.278 739.998 678.858Z" fill="#C900FB"/>
<path d="M656.335 517.145H658.503L661.694 526.763L664.886 517.145H667.054L662.565 530.245H660.824L656.335 517.145ZM655.166 517.145H657.325L657.718 526.52V530.245H655.166V517.145ZM666.064 517.145H668.232V530.245H665.671V526.52L666.064 517.145Z" fill="#5B188F"/>
<path d="M675.307 528.05V523.713C675.307 523.401 675.258 523.134 675.161 522.912C675.065 522.684 674.914 522.507 674.709 522.381C674.51 522.255 674.251 522.192 673.933 522.192C673.659 522.192 673.423 522.243 673.224 522.345C673.025 522.441 672.871 522.582 672.763 522.768C672.655 522.948 672.601 523.161 672.601 523.407H670.143C670.143 522.993 670.234 522.6 670.416 522.228C670.599 521.856 670.863 521.529 671.21 521.247C671.557 520.96 671.97 520.735 672.448 520.573C672.931 520.411 673.472 520.33 674.069 520.33C674.786 520.33 675.423 520.456 675.981 520.708C676.538 520.96 676.976 521.337 677.295 521.841C677.619 522.345 677.782 522.975 677.782 523.731V527.897C677.782 528.43 677.813 528.868 677.875 529.21C677.938 529.546 678.029 529.84 678.148 530.092V530.245H675.665C675.546 529.981 675.455 529.651 675.392 529.255C675.335 528.853 675.307 528.451 675.307 528.05ZM675.631 524.316L675.648 525.782H674.274C673.95 525.782 673.668 525.821 673.429 525.899C673.19 525.977 672.994 526.088 672.84 526.232C672.687 526.37 672.573 526.532 672.499 526.718C672.431 526.904 672.396 527.108 672.396 527.33C672.396 527.552 672.445 527.753 672.541 527.933C672.638 528.107 672.778 528.244 672.96 528.346C673.142 528.442 673.355 528.49 673.6 528.49C673.97 528.49 674.291 528.412 674.564 528.256C674.837 528.101 675.048 527.909 675.196 527.681C675.349 527.453 675.429 527.237 675.435 527.033L676.083 528.131C675.992 528.376 675.867 528.631 675.708 528.895C675.554 529.159 675.358 529.408 675.119 529.642C674.88 529.87 674.593 530.059 674.257 530.209C673.921 530.353 673.523 530.425 673.062 530.425C672.476 530.425 671.944 530.302 671.466 530.056C670.994 529.804 670.618 529.459 670.34 529.021C670.067 528.577 669.93 528.074 669.93 527.51C669.93 527 670.021 526.547 670.203 526.151C670.385 525.755 670.653 525.422 671.005 525.152C671.364 524.876 671.81 524.669 672.345 524.532C672.88 524.388 673.5 524.316 674.206 524.316H675.631Z" fill="#5B188F"/>
<path d="M682.271 520.51V530.245H679.804V520.51H682.271ZM679.65 517.972C679.65 517.594 679.776 517.283 680.026 517.037C680.276 516.791 680.612 516.668 681.033 516.668C681.448 516.668 681.781 516.791 682.032 517.037C682.288 517.283 682.416 517.594 682.416 517.972C682.416 518.35 682.288 518.662 682.032 518.908C681.781 519.154 681.448 519.277 681.033 519.277C680.612 519.277 680.276 519.154 680.026 518.908C679.776 518.662 679.65 518.35 679.65 517.972Z" fill="#5B188F"/>
<path d="M686.896 516.425V530.245H684.43V516.425H686.896Z" fill="#5B188F"/>
<path d="M693.177 530.425C692.46 530.425 691.817 530.305 691.249 530.065C690.68 529.819 690.196 529.48 689.798 529.048C689.405 528.616 689.104 528.116 688.893 527.546C688.683 526.97 688.577 526.358 688.577 525.71V525.35C688.577 524.612 688.677 523.938 688.876 523.326C689.075 522.714 689.36 522.183 689.729 521.733C690.105 521.283 690.56 520.939 691.095 520.699C691.63 520.453 692.233 520.33 692.904 520.33C693.558 520.33 694.139 520.444 694.645 520.672C695.152 520.9 695.575 521.223 695.917 521.643C696.264 522.063 696.526 522.567 696.702 523.155C696.878 523.737 696.966 524.385 696.966 525.098V526.178H689.627V524.451H694.551V524.253C694.551 523.893 694.489 523.572 694.364 523.29C694.244 523.002 694.062 522.774 693.817 522.606C693.573 522.438 693.26 522.354 692.879 522.354C692.554 522.354 692.275 522.429 692.042 522.579C691.809 522.729 691.618 522.939 691.47 523.209C691.328 523.479 691.22 523.797 691.146 524.163C691.078 524.523 691.044 524.918 691.044 525.35V525.71C691.044 526.1 691.095 526.46 691.197 526.79C691.305 527.12 691.456 527.405 691.65 527.645C691.849 527.885 692.088 528.071 692.367 528.202C692.651 528.334 692.972 528.4 693.331 528.4C693.775 528.4 694.187 528.31 694.568 528.131C694.955 527.945 695.288 527.666 695.567 527.294L696.762 528.661C696.568 528.955 696.304 529.237 695.968 529.507C695.638 529.777 695.24 529.999 694.773 530.173C694.307 530.341 693.775 530.425 693.177 530.425Z" fill="#5B188F"/>
<path d="M700.824 522.633V530.245H698.366V520.51H700.679L700.824 522.633ZM703.606 520.447L703.563 522.849C703.444 522.831 703.299 522.816 703.128 522.804C702.963 522.786 702.812 522.777 702.676 522.777C702.329 522.777 702.027 522.825 701.771 522.921C701.521 523.011 701.31 523.146 701.14 523.326C700.975 523.506 700.85 523.725 700.764 523.983C700.685 524.241 700.639 524.535 700.628 524.864L700.133 524.702C700.133 524.073 700.192 523.494 700.312 522.966C700.431 522.432 700.605 521.967 700.832 521.571C701.066 521.175 701.35 520.87 701.686 520.654C702.022 520.438 702.406 520.33 702.838 520.33C702.975 520.33 703.114 520.342 703.256 520.366C703.398 520.384 703.515 520.411 703.606 520.447Z" fill="#5B188F"/>
<path d="M720.439 581.389H722.607L725.799 591.008L728.991 581.389H731.158L726.669 594.49H724.928L720.439 581.389ZM719.27 581.389H721.429L721.822 590.765V594.49H719.27V581.389ZM730.168 581.389H732.336V594.49H729.776V590.765L730.168 581.389Z" fill="#FB00E2"/>
<path d="M734.034 589.721V589.532C734.034 588.818 734.131 588.162 734.324 587.562C734.518 586.956 734.8 586.431 735.169 585.987C735.539 585.543 735.994 585.198 736.535 584.952C737.075 584.7 737.695 584.575 738.395 584.575C739.095 584.575 739.718 584.7 740.264 584.952C740.81 585.198 741.268 585.543 741.638 585.987C742.014 586.431 742.298 586.956 742.492 587.562C742.685 588.162 742.782 588.818 742.782 589.532V589.721C742.782 590.429 742.685 591.086 742.492 591.692C742.298 592.291 742.014 592.816 741.638 593.266C741.268 593.71 740.813 594.055 740.273 594.301C739.732 594.547 739.112 594.67 738.412 594.67C737.713 594.67 737.09 594.547 736.543 594.301C736.003 594.055 735.545 593.71 735.169 593.266C734.8 592.816 734.518 592.291 734.324 591.692C734.131 591.086 734.034 590.429 734.034 589.721ZM736.492 589.532V589.721C736.492 590.129 736.526 590.51 736.595 590.864C736.663 591.218 736.771 591.53 736.919 591.799C737.072 592.063 737.272 592.27 737.516 592.42C737.761 592.57 738.06 592.645 738.412 592.645C738.754 592.645 739.047 592.57 739.291 592.42C739.536 592.27 739.732 592.063 739.88 591.799C740.028 591.53 740.136 591.218 740.205 590.864C740.279 590.51 740.316 590.129 740.316 589.721V589.532C740.316 589.136 740.279 588.764 740.205 588.416C740.136 588.063 740.025 587.751 739.872 587.481C739.724 587.205 739.528 586.989 739.283 586.833C739.038 586.677 738.742 586.599 738.395 586.599C738.048 586.599 737.752 586.677 737.508 586.833C737.269 586.989 737.072 587.205 736.919 587.481C736.771 587.751 736.663 588.063 736.595 588.416C736.526 588.764 736.492 589.136 736.492 589.532Z" fill="#FB00E2"/>
<path d="M749.746 592.366V580.67H752.221V594.49H749.993L749.746 592.366ZM743.908 589.739V589.55C743.908 588.806 743.988 588.132 744.147 587.526C744.307 586.914 744.54 586.389 744.847 585.951C745.154 585.513 745.533 585.174 745.982 584.934C746.432 584.694 746.944 584.575 747.518 584.575C748.059 584.575 748.531 584.694 748.935 584.934C749.345 585.174 749.692 585.516 749.976 585.96C750.266 586.398 750.5 586.917 750.676 587.517C750.852 588.111 750.98 588.761 751.06 589.469V589.883C750.98 590.561 750.852 591.191 750.676 591.772C750.5 592.354 750.266 592.864 749.976 593.302C749.692 593.734 749.345 594.07 748.935 594.31C748.525 594.55 748.048 594.67 747.501 594.67C746.927 594.67 746.415 594.547 745.965 594.301C745.521 594.055 745.146 593.71 744.839 593.266C744.537 592.822 744.307 592.3 744.147 591.701C743.988 591.101 743.908 590.447 743.908 589.739ZM746.366 589.55V589.739C746.366 590.141 746.395 590.516 746.452 590.864C746.514 591.212 746.614 591.521 746.75 591.79C746.893 592.054 747.075 592.261 747.297 592.411C747.524 592.555 747.8 592.627 748.124 592.627C748.545 592.627 748.892 592.528 749.166 592.33C749.439 592.126 749.646 591.847 749.789 591.494C749.936 591.14 750.022 590.732 750.045 590.27V589.091C750.027 588.713 749.976 588.374 749.891 588.075C749.811 587.769 749.692 587.508 749.532 587.292C749.379 587.076 749.185 586.908 748.952 586.788C748.725 586.668 748.454 586.608 748.141 586.608C747.823 586.608 747.55 586.686 747.322 586.842C747.095 586.992 746.91 587.199 746.767 587.463C746.631 587.727 746.528 588.039 746.46 588.398C746.398 588.752 746.366 589.136 746.366 589.55Z" fill="#FB00E2"/>
<path d="M758.391 594.67C757.674 594.67 757.031 594.55 756.462 594.31C755.893 594.064 755.41 593.725 755.011 593.293C754.619 592.861 754.317 592.36 754.107 591.79C753.896 591.215 753.791 590.603 753.791 589.955V589.595C753.791 588.857 753.891 588.182 754.09 587.571C754.289 586.959 754.573 586.428 754.943 585.978C755.319 585.528 755.774 585.183 756.309 584.943C756.843 584.697 757.447 584.575 758.118 584.575C758.772 584.575 759.353 584.688 759.859 584.916C760.365 585.144 760.789 585.468 761.13 585.888C761.478 586.308 761.739 586.812 761.916 587.4C762.092 587.982 762.18 588.629 762.18 589.343V590.423H754.841V588.695H759.765V588.497C759.765 588.138 759.702 587.817 759.577 587.535C759.458 587.247 759.276 587.019 759.031 586.851C758.786 586.683 758.474 586.599 758.092 586.599C757.768 586.599 757.489 586.674 757.256 586.824C757.023 586.974 756.832 587.184 756.684 587.454C756.542 587.724 756.434 588.042 756.36 588.407C756.292 588.767 756.257 589.163 756.257 589.595V589.955C756.257 590.345 756.309 590.705 756.411 591.035C756.519 591.365 756.67 591.65 756.863 591.889C757.063 592.129 757.301 592.315 757.58 592.447C757.865 592.579 758.186 592.645 758.545 592.645C758.988 592.645 759.401 592.555 759.782 592.375C760.169 592.189 760.502 591.91 760.781 591.539L761.975 592.906C761.782 593.2 761.517 593.482 761.182 593.752C760.852 594.022 760.453 594.244 759.987 594.418C759.52 594.586 758.988 594.67 758.391 594.67Z" fill="#FB00E2"/>
<path d="M766.174 580.67V594.49H763.708V580.67H766.174Z" fill="#FB00E2"/>
<path d="M542.652 602.956L620.595 529.747L700.663 598.225L628.153 653.007M542.652 602.956L628.153 653.007M542.652 602.956L573.12 681.146L703.734 661.723L620.595 531.988L628.153 653.007" stroke="#8584B3" stroke-width="6"/>
<ellipse cx="542.179" cy="602.209" rx="7.32191" ry="7.71934" fill="#391B89"/>
<ellipse cx="572.884" cy="680.399" rx="7.32191" ry="7.71934" fill="#391B89"/>
<ellipse cx="627.208" cy="653.007" rx="7.32191" ry="7.71934" fill="#391B89"/>
<ellipse cx="702.789" cy="660.478" rx="7.32191" ry="7.71934" fill="#391B89"/>
<ellipse cx="700.427" cy="597.727" rx="7.32191" ry="7.71934" fill="#391B89"/>
<ellipse cx="619.65" cy="529.996" rx="7.32191" ry="7.71934" fill="#391B89"/>
</svg>
