<svg width="1690" height="359" viewBox="0 0 1690 359" fill="none" xmlns="http://www.w3.org/2000/svg">
<rect y="0.449707" width="1680.7" height="166.47" fill="url(#paint0_linear_104_2)"/>
<path d="M56.6738 257H51.33L51.3652 254.24H56.6738C58.5019 254.24 60.0253 253.859 61.2441 253.098C62.4628 252.324 63.3769 251.246 63.9863 249.863C64.6074 248.469 64.9179 246.84 64.9179 244.977V243.412C64.9179 241.947 64.7421 240.646 64.3906 239.51C64.039 238.361 63.5234 237.395 62.8437 236.609C62.164 235.812 61.332 235.209 60.3476 234.799C59.3749 234.389 58.2558 234.184 56.9902 234.184H51.2245V231.406H56.9902C58.6659 231.406 60.1952 231.688 61.5781 232.25C62.9609 232.801 64.1503 233.604 65.1464 234.658C66.1542 235.701 66.9277 236.967 67.4667 238.455C68.0058 239.932 68.2753 241.596 68.2753 243.447V244.977C68.2753 246.828 68.0058 248.498 67.4667 249.986C66.9277 251.463 66.1484 252.723 65.1288 253.766C64.121 254.809 62.9023 255.611 61.4726 256.174C60.0546 256.725 58.455 257 56.6738 257ZM53.1406 231.406V257H49.748V231.406H53.1406ZM80.7734 257.352C79.4492 257.352 78.248 257.129 77.1699 256.684C76.1034 256.227 75.1835 255.588 74.4101 254.768C73.6484 253.947 73.0624 252.975 72.6523 251.85C72.2421 250.725 72.037 249.494 72.037 248.158V247.42C72.037 245.873 72.2656 244.496 72.7226 243.289C73.1796 242.07 73.8007 241.039 74.5859 240.195C75.371 239.352 76.2617 238.713 77.2577 238.279C78.2538 237.846 79.2851 237.629 80.3515 237.629C81.7109 237.629 82.8827 237.863 83.8671 238.332C84.8632 238.801 85.6777 239.457 86.3105 240.301C86.9433 241.133 87.412 242.117 87.7167 243.254C88.0214 244.379 88.1738 245.609 88.1738 246.945V248.404H73.9706V245.75H84.9218V245.504C84.8749 244.66 84.6992 243.84 84.3945 243.043C84.1015 242.246 83.6327 241.59 82.9882 241.074C82.3437 240.559 81.4648 240.301 80.3515 240.301C79.6132 240.301 78.9335 240.459 78.3124 240.775C77.6913 241.08 77.1581 241.537 76.7128 242.146C76.2675 242.756 75.9218 243.5 75.6757 244.379C75.4296 245.258 75.3066 246.271 75.3066 247.42V248.158C75.3066 249.061 75.4296 249.91 75.6757 250.707C75.9335 251.492 76.3027 252.184 76.7831 252.781C77.2753 253.379 77.8671 253.848 78.5585 254.188C79.2617 254.527 80.0585 254.697 80.9492 254.697C82.0976 254.697 83.0702 254.463 83.8671 253.994C84.664 253.525 85.3613 252.898 85.9589 252.113L87.9277 253.678C87.5175 254.299 86.996 254.891 86.3632 255.453C85.7304 256.016 84.9511 256.473 84.0253 256.824C83.1113 257.176 82.0273 257.352 80.7734 257.352ZM96.8222 257H93.5702V235.977C93.5702 234.605 93.8163 233.451 94.3085 232.514C94.8124 231.564 95.5331 230.85 96.4706 230.369C97.4081 229.877 98.5214 229.631 99.8105 229.631C100.185 229.631 100.56 229.654 100.935 229.701C101.322 229.748 101.697 229.818 102.06 229.912L101.885 232.566C101.639 232.508 101.357 232.467 101.041 232.443C100.736 232.42 100.432 232.408 100.127 232.408C99.4355 232.408 98.8378 232.549 98.3339 232.83C97.8417 233.1 97.4667 233.498 97.2089 234.025C96.9511 234.553 96.8222 235.203 96.8222 235.977V257ZM100.865 237.98V240.477H90.5644V237.98H100.865ZM115.701 253.748V243.957C115.701 243.207 115.549 242.557 115.244 242.006C114.951 241.443 114.506 241.01 113.908 240.705C113.31 240.4 112.572 240.248 111.693 240.248C110.873 240.248 110.152 240.389 109.531 240.67C108.922 240.951 108.441 241.32 108.09 241.777C107.75 242.234 107.58 242.727 107.58 243.254H104.328C104.328 242.574 104.504 241.9 104.855 241.232C105.207 240.564 105.711 239.961 106.367 239.422C107.035 238.871 107.832 238.438 108.758 238.121C109.695 237.793 110.738 237.629 111.887 237.629C113.269 237.629 114.488 237.863 115.543 238.332C116.609 238.801 117.441 239.51 118.039 240.459C118.648 241.396 118.953 242.574 118.953 243.992V252.852C118.953 253.484 119.006 254.158 119.111 254.873C119.228 255.588 119.398 256.203 119.621 256.719V257H116.228C116.064 256.625 115.935 256.127 115.842 255.506C115.748 254.873 115.701 254.287 115.701 253.748ZM116.264 245.469L116.299 247.754H113.012C112.086 247.754 111.26 247.83 110.533 247.982C109.807 248.123 109.197 248.34 108.705 248.633C108.213 248.926 107.838 249.295 107.58 249.74C107.322 250.174 107.193 250.684 107.193 251.27C107.193 251.867 107.328 252.412 107.598 252.904C107.867 253.396 108.271 253.789 108.81 254.082C109.361 254.363 110.035 254.504 110.832 254.504C111.828 254.504 112.707 254.293 113.469 253.871C114.23 253.449 114.834 252.934 115.279 252.324C115.736 251.715 115.982 251.123 116.018 250.549L117.406 252.113C117.324 252.605 117.101 253.15 116.738 253.748C116.375 254.346 115.889 254.92 115.279 255.471C114.682 256.01 113.967 256.461 113.135 256.824C112.314 257.176 111.389 257.352 110.357 257.352C109.068 257.352 107.937 257.1 106.965 256.596C106.004 256.092 105.254 255.418 104.715 254.574C104.187 253.719 103.924 252.764 103.924 251.709C103.924 250.689 104.123 249.793 104.521 249.02C104.92 248.234 105.494 247.584 106.244 247.068C106.994 246.541 107.896 246.143 108.951 245.873C110.006 245.604 111.184 245.469 112.484 245.469H116.264ZM135.705 252.605V237.98H138.975V257H135.863L135.705 252.605ZM136.32 248.598L137.674 248.562C137.674 249.828 137.539 251 137.269 252.078C137.012 253.145 136.59 254.07 136.004 254.855C135.418 255.641 134.65 256.256 133.701 256.701C132.752 257.135 131.598 257.352 130.238 257.352C129.312 257.352 128.463 257.217 127.689 256.947C126.928 256.678 126.271 256.262 125.721 255.699C125.17 255.137 124.742 254.404 124.437 253.502C124.144 252.6 123.998 251.516 123.998 250.25V237.98H127.25V250.285C127.25 251.141 127.344 251.85 127.531 252.412C127.73 252.963 127.994 253.402 128.322 253.73C128.662 254.047 129.037 254.27 129.447 254.398C129.869 254.527 130.303 254.592 130.748 254.592C132.131 254.592 133.226 254.328 134.035 253.801C134.844 253.262 135.424 252.541 135.775 251.639C136.139 250.725 136.32 249.711 136.32 248.598ZM147.465 230V257H144.195V230H147.465ZM160.648 237.98V240.477H150.365V237.98H160.648ZM153.846 233.357H157.098V252.289C157.098 252.934 157.197 253.42 157.396 253.748C157.596 254.076 157.853 254.293 158.17 254.398C158.486 254.504 158.826 254.557 159.189 254.557C159.459 254.557 159.74 254.533 160.033 254.486C160.338 254.428 160.566 254.381 160.719 254.346L160.736 257C160.478 257.082 160.139 257.158 159.717 257.229C159.307 257.311 158.809 257.352 158.223 257.352C157.426 257.352 156.693 257.193 156.025 256.877C155.357 256.561 154.824 256.033 154.426 255.295C154.039 254.545 153.846 253.537 153.846 252.271V233.357ZM72.8808 273.406H81.3534C83.2753 273.406 84.8984 273.699 86.2226 274.285C87.5585 274.871 88.5722 275.738 89.2636 276.887C89.9667 278.023 90.3183 279.424 90.3183 281.088C90.3183 282.26 90.0781 283.332 89.5976 284.305C89.1288 285.266 88.4492 286.086 87.5585 286.766C86.6796 287.434 85.6249 287.932 84.3945 288.26L83.4452 288.629H75.4824L75.4472 285.869H81.4589C82.6777 285.869 83.6913 285.658 84.4999 285.236C85.3085 284.803 85.9179 284.223 86.3281 283.496C86.7382 282.77 86.9433 281.967 86.9433 281.088C86.9433 280.104 86.7499 279.242 86.3632 278.504C85.9765 277.766 85.3671 277.197 84.5351 276.799C83.7148 276.389 82.6542 276.184 81.3534 276.184H76.2734V299H72.8808V273.406ZM87.8398 299L81.6171 287.398L85.1503 287.381L91.4609 298.789V299H87.8398ZM105.787 295.748V285.957C105.787 285.207 105.635 284.557 105.33 284.006C105.037 283.443 104.592 283.01 103.994 282.705C103.396 282.4 102.658 282.248 101.779 282.248C100.959 282.248 100.238 282.389 99.6171 282.67C99.0077 282.951 98.5273 283.32 98.1757 283.777C97.8359 284.234 97.6659 284.727 97.6659 285.254H94.414C94.414 284.574 94.5898 283.9 94.9413 283.232C95.2929 282.564 95.7968 281.961 96.4531 281.422C97.121 280.871 97.9179 280.438 98.8437 280.121C99.7812 279.793 100.824 279.629 101.973 279.629C103.355 279.629 104.574 279.863 105.629 280.332C106.695 280.801 107.527 281.51 108.125 282.459C108.734 283.396 109.039 284.574 109.039 285.992V294.852C109.039 295.484 109.092 296.158 109.197 296.873C109.314 297.588 109.484 298.203 109.707 298.719V299H106.314C106.15 298.625 106.021 298.127 105.928 297.506C105.834 296.873 105.787 296.287 105.787 295.748ZM106.35 287.469L106.385 289.754H103.098C102.172 289.754 101.346 289.83 100.619 289.982C99.8925 290.123 99.2831 290.34 98.7909 290.633C98.2988 290.926 97.9238 291.295 97.6659 291.74C97.4081 292.174 97.2792 292.684 97.2792 293.27C97.2792 293.867 97.414 294.412 97.6835 294.904C97.9531 295.396 98.3574 295.789 98.8964 296.082C99.4472 296.363 100.121 296.504 100.918 296.504C101.914 296.504 102.793 296.293 103.555 295.871C104.316 295.449 104.92 294.934 105.365 294.324C105.822 293.715 106.068 293.123 106.103 292.549L107.492 294.113C107.41 294.605 107.187 295.15 106.824 295.748C106.461 296.346 105.975 296.92 105.365 297.471C104.768 298.01 104.053 298.461 103.221 298.824C102.4 299.176 101.475 299.352 100.443 299.352C99.1542 299.352 98.0234 299.1 97.0507 298.596C96.0898 298.092 95.3398 297.418 94.8007 296.574C94.2734 295.719 94.0097 294.764 94.0097 293.709C94.0097 292.689 94.2089 291.793 94.6074 291.02C95.0058 290.234 95.58 289.584 96.33 289.068C97.08 288.541 97.9824 288.143 99.037 287.873C100.092 287.604 101.269 287.469 102.57 287.469H106.35ZM117.687 279.98V299H114.418V279.98H117.687ZM114.172 274.936C114.172 274.408 114.33 273.963 114.646 273.6C114.975 273.236 115.455 273.055 116.088 273.055C116.709 273.055 117.184 273.236 117.512 273.6C117.851 273.963 118.021 274.408 118.021 274.936C118.021 275.439 117.851 275.873 117.512 276.236C117.184 276.588 116.709 276.764 116.088 276.764C115.455 276.764 114.975 276.588 114.646 276.236C114.33 275.873 114.172 275.439 114.172 274.936ZM126.441 272V299H123.172V272H126.441ZM142.736 293.955C142.736 293.486 142.631 293.053 142.42 292.654C142.221 292.244 141.805 291.875 141.172 291.547C140.551 291.207 139.613 290.914 138.359 290.668C137.305 290.445 136.35 290.182 135.494 289.877C134.65 289.572 133.93 289.203 133.332 288.77C132.746 288.336 132.295 287.826 131.978 287.24C131.662 286.654 131.504 285.969 131.504 285.184C131.504 284.434 131.668 283.725 131.996 283.057C132.336 282.389 132.81 281.797 133.42 281.281C134.041 280.766 134.785 280.361 135.652 280.068C136.519 279.775 137.486 279.629 138.553 279.629C140.076 279.629 141.377 279.898 142.455 280.438C143.533 280.977 144.359 281.697 144.934 282.6C145.508 283.49 145.795 284.48 145.795 285.57H142.543C142.543 285.043 142.385 284.533 142.068 284.041C141.764 283.537 141.312 283.121 140.715 282.793C140.129 282.465 139.408 282.301 138.553 282.301C137.65 282.301 136.918 282.441 136.355 282.723C135.805 282.992 135.4 283.338 135.143 283.76C134.896 284.182 134.773 284.627 134.773 285.096C134.773 285.447 134.832 285.764 134.949 286.045C135.078 286.314 135.301 286.566 135.617 286.801C135.934 287.023 136.379 287.234 136.953 287.434C137.527 287.633 138.26 287.832 139.15 288.031C140.709 288.383 141.992 288.805 143 289.297C144.008 289.789 144.758 290.393 145.25 291.107C145.742 291.822 145.988 292.689 145.988 293.709C145.988 294.541 145.812 295.303 145.461 295.994C145.121 296.686 144.623 297.283 143.967 297.787C143.322 298.279 142.549 298.666 141.646 298.947C140.756 299.217 139.754 299.352 138.641 299.352C136.965 299.352 135.547 299.053 134.387 298.455C133.227 297.857 132.348 297.084 131.75 296.135C131.152 295.186 130.853 294.184 130.853 293.129H134.123C134.17 294.02 134.428 294.729 134.896 295.256C135.365 295.771 135.939 296.141 136.619 296.363C137.299 296.574 137.973 296.68 138.641 296.68C139.531 296.68 140.275 296.562 140.873 296.328C141.482 296.094 141.945 295.771 142.262 295.361C142.578 294.951 142.736 294.482 142.736 293.955ZM26.9667 337.748V327.957C26.9667 327.207 26.8144 326.557 26.5097 326.006C26.2167 325.443 25.7714 325.01 25.1738 324.705C24.5761 324.4 23.8378 324.248 22.9589 324.248C22.1386 324.248 21.4179 324.389 20.7968 324.67C20.1874 324.951 19.707 325.32 19.3554 325.777C19.0156 326.234 18.8456 326.727 18.8456 327.254H15.5937C15.5937 326.574 15.7695 325.9 16.121 325.232C16.4726 324.564 16.9765 323.961 17.6327 323.422C18.3007 322.871 19.0976 322.438 20.0234 322.121C20.9609 321.793 22.0038 321.629 23.1523 321.629C24.5351 321.629 25.7538 321.863 26.8085 322.332C27.8749 322.801 28.707 323.51 29.3046 324.459C29.914 325.396 30.2187 326.574 30.2187 327.992V336.852C30.2187 337.484 30.2714 338.158 30.3769 338.873C30.4941 339.588 30.664 340.203 30.8867 340.719V341H27.4941C27.33 340.625 27.2011 340.127 27.1074 339.506C27.0136 338.873 26.9667 338.287 26.9667 337.748ZM27.5292 329.469L27.5644 331.754H24.2773C23.3515 331.754 22.5253 331.83 21.7988 331.982C21.0722 332.123 20.4628 332.34 19.9706 332.633C19.4784 332.926 19.1034 333.295 18.8456 333.74C18.5878 334.174 18.4589 334.684 18.4589 335.27C18.4589 335.867 18.5937 336.412 18.8632 336.904C19.1327 337.396 19.537 337.789 20.0761 338.082C20.6269 338.363 21.3007 338.504 22.0976 338.504C23.0937 338.504 23.9726 338.293 24.7343 337.871C25.496 337.449 26.0995 336.934 26.5449 336.324C27.0019 335.715 27.248 335.123 27.2831 334.549L28.6718 336.113C28.5898 336.605 28.3671 337.15 28.0038 337.748C27.6406 338.346 27.1542 338.92 26.5449 339.471C25.9472 340.01 25.2324 340.461 24.4003 340.824C23.58 341.176 22.6542 341.352 21.623 341.352C20.3339 341.352 19.2031 341.1 18.2304 340.596C17.2695 340.092 16.5195 339.418 15.9804 338.574C15.4531 337.719 15.1894 336.764 15.1894 335.709C15.1894 334.689 15.3886 333.793 15.787 333.02C16.1855 332.234 16.7597 331.584 17.5097 331.068C18.2597 330.541 19.162 330.143 20.2167 329.873C21.2714 329.604 22.4492 329.469 23.7499 329.469H27.5292ZM38.5859 324.969V341H35.3339V321.98H38.498L38.5859 324.969ZM44.5273 321.875L44.5097 324.898C44.2402 324.84 43.9824 324.805 43.7363 324.793C43.5019 324.77 43.2324 324.758 42.9277 324.758C42.1777 324.758 41.5156 324.875 40.9413 325.109C40.3671 325.344 39.8808 325.672 39.4824 326.094C39.0839 326.516 38.7675 327.02 38.5331 327.605C38.3105 328.18 38.164 328.812 38.0937 329.504L37.1796 330.031C37.1796 328.883 37.2909 327.805 37.5136 326.797C37.748 325.789 38.1054 324.898 38.5859 324.125C39.0663 323.34 39.6757 322.73 40.414 322.297C41.164 321.852 42.0546 321.629 43.0859 321.629C43.3202 321.629 43.5898 321.658 43.8945 321.717C44.1992 321.764 44.4101 321.816 44.5273 321.875ZM54.7929 338.68C55.5663 338.68 56.2812 338.521 56.9374 338.205C57.5937 337.889 58.1327 337.455 58.5546 336.904C58.9765 336.342 59.2167 335.703 59.2753 334.988H62.3691C62.3105 336.113 61.9296 337.162 61.2265 338.135C60.5351 339.096 59.6269 339.875 58.5019 340.473C57.3769 341.059 56.1406 341.352 54.7929 341.352C53.3632 341.352 52.1152 341.1 51.0488 340.596C49.9941 340.092 49.1152 339.4 48.412 338.521C47.7206 337.643 47.1992 336.635 46.8476 335.498C46.5077 334.35 46.3378 333.137 46.3378 331.859V331.121C46.3378 329.844 46.5077 328.637 46.8476 327.5C47.1992 326.352 47.7206 325.338 48.412 324.459C49.1152 323.58 49.9941 322.889 51.0488 322.385C52.1152 321.881 53.3632 321.629 54.7929 321.629C56.2812 321.629 57.582 321.934 58.6952 322.543C59.8085 323.141 60.6816 323.961 61.3144 325.004C61.9589 326.035 62.3105 327.207 62.3691 328.52H59.2753C59.2167 327.734 58.9941 327.025 58.6074 326.393C58.2324 325.76 57.7167 325.256 57.0605 324.881C56.4159 324.494 55.6601 324.301 54.7929 324.301C53.7968 324.301 52.9589 324.5 52.2792 324.898C51.6113 325.285 51.0781 325.812 50.6796 326.48C50.2929 327.137 50.0117 327.869 49.8359 328.678C49.6718 329.475 49.5898 330.289 49.5898 331.121V331.859C49.5898 332.691 49.6718 333.512 49.8359 334.32C49.9999 335.129 50.2753 335.861 50.662 336.518C51.0605 337.174 51.5937 337.701 52.2617 338.1C52.9413 338.486 53.7851 338.68 54.7929 338.68ZM69.2773 314V341H66.0253V314H69.2773ZM68.5038 330.77L67.1503 330.717C67.162 329.416 67.3554 328.215 67.7304 327.113C68.1054 326 68.6327 325.033 69.3124 324.213C69.9921 323.393 70.8007 322.76 71.7382 322.314C72.6874 321.857 73.7363 321.629 74.8847 321.629C75.8222 321.629 76.6659 321.758 77.4159 322.016C78.1659 322.262 78.8046 322.66 79.332 323.211C79.871 323.762 80.2812 324.477 80.5624 325.355C80.8437 326.223 80.9843 327.283 80.9843 328.537V341H77.7148V328.502C77.7148 327.506 77.5683 326.709 77.2753 326.111C76.9824 325.502 76.5546 325.062 75.9921 324.793C75.4296 324.512 74.7382 324.371 73.9179 324.371C73.1093 324.371 72.371 324.541 71.7031 324.881C71.0468 325.221 70.4784 325.689 69.998 326.287C69.5292 326.885 69.1601 327.57 68.8906 328.344C68.6327 329.105 68.5038 329.914 68.5038 330.77ZM89.3867 321.98V341H86.1171V321.98H89.3867ZM85.871 316.936C85.871 316.408 86.0292 315.963 86.3456 315.6C86.6738 315.236 87.1542 315.055 87.787 315.055C88.4081 315.055 88.8827 315.236 89.2109 315.6C89.5507 315.963 89.7206 316.408 89.7206 316.936C89.7206 317.439 89.5507 317.873 89.2109 318.236C88.8827 318.588 88.4081 318.764 87.787 318.764C87.1542 318.764 86.6738 318.588 86.3456 318.236C86.0292 317.873 85.871 317.439 85.871 316.936ZM102.57 321.98V324.477H92.287V321.98H102.57ZM95.7675 317.357H99.0195V336.289C99.0195 336.934 99.1191 337.42 99.3183 337.748C99.5175 338.076 99.7753 338.293 100.092 338.398C100.408 338.504 100.748 338.557 101.111 338.557C101.381 338.557 101.662 338.533 101.955 338.486C102.26 338.428 102.488 338.381 102.641 338.346L102.658 341C102.4 341.082 102.06 341.158 101.639 341.229C101.228 341.311 100.73 341.352 100.144 341.352C99.3476 341.352 98.6152 341.193 97.9472 340.877C97.2792 340.561 96.746 340.033 96.3476 339.295C95.9609 338.545 95.7675 337.537 95.7675 336.271V317.357ZM114.277 341.352C112.953 341.352 111.752 341.129 110.674 340.684C109.607 340.227 108.687 339.588 107.914 338.768C107.152 337.947 106.566 336.975 106.156 335.85C105.746 334.725 105.541 333.494 105.541 332.158V331.42C105.541 329.873 105.769 328.496 106.226 327.289C106.684 326.07 107.305 325.039 108.09 324.195C108.875 323.352 109.766 322.713 110.762 322.279C111.758 321.846 112.789 321.629 113.855 321.629C115.215 321.629 116.387 321.863 117.371 322.332C118.367 322.801 119.182 323.457 119.814 324.301C120.447 325.133 120.916 326.117 121.221 327.254C121.525 328.379 121.678 329.609 121.678 330.945V332.404H107.475V329.75H118.426V329.504C118.379 328.66 118.203 327.84 117.898 327.043C117.605 326.246 117.137 325.59 116.492 325.074C115.848 324.559 114.969 324.301 113.855 324.301C113.117 324.301 112.437 324.459 111.816 324.775C111.195 325.08 110.662 325.537 110.217 326.146C109.771 326.756 109.426 327.5 109.18 328.379C108.934 329.258 108.81 330.271 108.81 331.42V332.158C108.81 333.061 108.934 333.91 109.18 334.707C109.437 335.492 109.807 336.184 110.287 336.781C110.779 337.379 111.371 337.848 112.062 338.188C112.766 338.527 113.562 338.697 114.453 338.697C115.601 338.697 116.574 338.463 117.371 337.994C118.168 337.525 118.865 336.898 119.463 336.113L121.432 337.678C121.021 338.299 120.5 338.891 119.867 339.453C119.234 340.016 118.455 340.473 117.529 340.824C116.615 341.176 115.531 341.352 114.277 341.352ZM133.086 338.68C133.859 338.68 134.574 338.521 135.23 338.205C135.887 337.889 136.426 337.455 136.848 336.904C137.269 336.342 137.51 335.703 137.568 334.988H140.662C140.603 336.113 140.223 337.162 139.519 338.135C138.828 339.096 137.92 339.875 136.795 340.473C135.67 341.059 134.434 341.352 133.086 341.352C131.656 341.352 130.408 341.1 129.342 340.596C128.287 340.092 127.408 339.4 126.705 338.521C126.014 337.643 125.492 336.635 125.141 335.498C124.801 334.35 124.631 333.137 124.631 331.859V331.121C124.631 329.844 124.801 328.637 125.141 327.5C125.492 326.352 126.014 325.338 126.705 324.459C127.408 323.58 128.287 322.889 129.342 322.385C130.408 321.881 131.656 321.629 133.086 321.629C134.574 321.629 135.875 321.934 136.988 322.543C138.101 323.141 138.975 323.961 139.607 325.004C140.252 326.035 140.603 327.207 140.662 328.52H137.568C137.51 327.734 137.287 327.025 136.9 326.393C136.525 325.76 136.01 325.256 135.353 324.881C134.709 324.494 133.953 324.301 133.086 324.301C132.09 324.301 131.252 324.5 130.572 324.898C129.904 325.285 129.371 325.812 128.973 326.48C128.586 327.137 128.305 327.869 128.129 328.678C127.965 329.475 127.883 330.289 127.883 331.121V331.859C127.883 332.691 127.965 333.512 128.129 334.32C128.293 335.129 128.568 335.861 128.955 336.518C129.353 337.174 129.887 337.701 130.555 338.1C131.234 338.486 132.078 338.68 133.086 338.68ZM152.281 321.98V324.477H141.998V321.98H152.281ZM145.478 317.357H148.73V336.289C148.73 336.934 148.83 337.42 149.029 337.748C149.228 338.076 149.486 338.293 149.803 338.398C150.119 338.504 150.459 338.557 150.822 338.557C151.092 338.557 151.373 338.533 151.666 338.486C151.971 338.428 152.199 338.381 152.352 338.346L152.369 341C152.111 341.082 151.771 341.158 151.35 341.229C150.939 341.311 150.441 341.352 149.855 341.352C149.059 341.352 148.326 341.193 147.658 340.877C146.99 340.561 146.457 340.033 146.059 339.295C145.672 338.545 145.478 337.537 145.478 336.271V317.357ZM167.732 336.605V321.98H171.002V341H167.891L167.732 336.605ZM168.348 332.598L169.701 332.562C169.701 333.828 169.566 335 169.297 336.078C169.039 337.145 168.617 338.07 168.031 338.855C167.445 339.641 166.678 340.256 165.728 340.701C164.779 341.135 163.625 341.352 162.266 341.352C161.34 341.352 160.49 341.217 159.717 340.947C158.955 340.678 158.299 340.262 157.748 339.699C157.197 339.137 156.769 338.404 156.465 337.502C156.172 336.6 156.025 335.516 156.025 334.25V321.98H159.277V334.285C159.277 335.141 159.371 335.85 159.559 336.412C159.758 336.963 160.021 337.402 160.35 337.73C160.689 338.047 161.064 338.27 161.475 338.398C161.896 338.527 162.33 338.592 162.775 338.592C164.158 338.592 165.254 338.328 166.062 337.801C166.871 337.262 167.451 336.541 167.803 335.639C168.166 334.725 168.348 333.711 168.348 332.598ZM179.211 324.969V341H175.959V321.98H179.123L179.211 324.969ZM185.152 321.875L185.135 324.898C184.865 324.84 184.607 324.805 184.361 324.793C184.127 324.77 183.857 324.758 183.553 324.758C182.803 324.758 182.141 324.875 181.566 325.109C180.992 325.344 180.506 325.672 180.107 326.094C179.709 326.516 179.393 327.02 179.158 327.605C178.935 328.18 178.789 328.812 178.719 329.504L177.805 330.031C177.805 328.883 177.916 327.805 178.139 326.797C178.373 325.789 178.73 324.898 179.211 324.125C179.691 323.34 180.301 322.73 181.039 322.297C181.789 321.852 182.68 321.629 183.711 321.629C183.945 321.629 184.215 321.658 184.519 321.717C184.824 321.764 185.035 321.816 185.152 321.875ZM195.699 341.352C194.375 341.352 193.174 341.129 192.096 340.684C191.029 340.227 190.109 339.588 189.336 338.768C188.574 337.947 187.988 336.975 187.578 335.85C187.168 334.725 186.963 333.494 186.963 332.158V331.42C186.963 329.873 187.191 328.496 187.648 327.289C188.105 326.07 188.727 325.039 189.512 324.195C190.297 323.352 191.187 322.713 192.184 322.279C193.18 321.846 194.211 321.629 195.277 321.629C196.637 321.629 197.809 321.863 198.793 322.332C199.789 322.801 200.603 323.457 201.236 324.301C201.869 325.133 202.338 326.117 202.643 327.254C202.947 328.379 203.1 329.609 203.1 330.945V332.404H188.896V329.75H199.848V329.504C199.801 328.66 199.625 327.84 199.32 327.043C199.027 326.246 198.559 325.59 197.914 325.074C197.269 324.559 196.391 324.301 195.277 324.301C194.539 324.301 193.859 324.459 193.238 324.775C192.617 325.08 192.084 325.537 191.639 326.146C191.193 326.756 190.848 327.5 190.602 328.379C190.355 329.258 190.232 330.271 190.232 331.42V332.158C190.232 333.061 190.355 333.91 190.602 334.707C190.859 335.492 191.228 336.184 191.709 336.781C192.201 337.379 192.793 337.848 193.484 338.188C194.187 338.527 194.984 338.697 195.875 338.697C197.023 338.697 197.996 338.463 198.793 337.994C199.59 337.525 200.287 336.898 200.885 336.113L202.853 337.678C202.443 338.299 201.922 338.891 201.289 339.453C200.656 340.016 199.877 340.473 198.951 340.824C198.037 341.176 196.953 341.352 195.699 341.352Z" fill="white"/>
<path d="M1460.93 231.406H1464.21L1472.6 252.271L1480.97 231.406H1484.27L1473.86 257H1471.3L1460.93 231.406ZM1459.86 231.406H1462.76L1463.23 247.016V257H1459.86V231.406ZM1482.43 231.406H1485.33V257H1481.95V247.016L1482.43 231.406ZM1494.33 237.98V257H1491.06V237.98H1494.33ZM1490.81 232.936C1490.81 232.408 1490.97 231.963 1491.28 231.6C1491.61 231.236 1492.09 231.055 1492.73 231.055C1493.35 231.055 1493.82 231.236 1494.15 231.6C1494.49 231.963 1494.66 232.408 1494.66 232.936C1494.66 233.439 1494.49 233.873 1494.15 234.236C1493.82 234.588 1493.35 234.764 1492.73 234.764C1492.09 234.764 1491.61 234.588 1491.28 234.236C1490.97 233.873 1490.81 233.439 1490.81 232.936ZM1507.16 254.68C1507.93 254.68 1508.65 254.521 1509.3 254.205C1509.96 253.889 1510.5 253.455 1510.92 252.904C1511.34 252.342 1511.58 251.703 1511.64 250.988H1514.73C1514.68 252.113 1514.29 253.162 1513.59 254.135C1512.9 255.096 1511.99 255.875 1510.87 256.473C1509.74 257.059 1508.51 257.352 1507.16 257.352C1505.73 257.352 1504.48 257.1 1503.41 256.596C1502.36 256.092 1501.48 255.4 1500.78 254.521C1500.09 253.643 1499.56 252.635 1499.21 251.498C1498.87 250.35 1498.7 249.137 1498.7 247.859V247.121C1498.7 245.844 1498.87 244.637 1499.21 243.5C1499.56 242.352 1500.09 241.338 1500.78 240.459C1501.48 239.58 1502.36 238.889 1503.41 238.385C1504.48 237.881 1505.73 237.629 1507.16 237.629C1508.65 237.629 1509.95 237.934 1511.06 238.543C1512.17 239.141 1513.05 239.961 1513.68 241.004C1514.32 242.035 1514.68 243.207 1514.73 244.52H1511.64C1511.58 243.734 1511.36 243.025 1510.97 242.393C1510.6 241.76 1510.08 241.256 1509.43 240.881C1508.78 240.494 1508.02 240.301 1507.16 240.301C1506.16 240.301 1505.32 240.5 1504.64 240.898C1503.98 241.285 1503.44 241.812 1503.04 242.48C1502.66 243.137 1502.38 243.869 1502.2 244.678C1502.04 245.475 1501.95 246.289 1501.95 247.121V247.859C1501.95 248.691 1502.04 249.512 1502.2 250.32C1502.36 251.129 1502.64 251.861 1503.03 252.518C1503.43 253.174 1503.96 253.701 1504.63 254.1C1505.31 254.486 1506.15 254.68 1507.16 254.68ZM1521.64 240.969V257H1518.39V237.98H1521.55L1521.64 240.969ZM1527.58 237.875L1527.57 240.898C1527.3 240.84 1527.04 240.805 1526.79 240.793C1526.56 240.77 1526.29 240.758 1525.98 240.758C1525.23 240.758 1524.57 240.875 1524 241.109C1523.42 241.344 1522.94 241.672 1522.54 242.094C1522.14 242.516 1521.82 243.02 1521.59 243.605C1521.37 244.18 1521.22 244.812 1521.15 245.504L1520.24 246.031C1520.24 244.883 1520.35 243.805 1520.57 242.797C1520.8 241.789 1521.16 240.898 1521.64 240.125C1522.12 239.34 1522.73 238.73 1523.47 238.297C1524.22 237.852 1525.11 237.629 1526.14 237.629C1526.38 237.629 1526.65 237.658 1526.95 237.717C1527.26 237.764 1527.47 237.816 1527.58 237.875ZM1529.38 247.701V247.297C1529.38 245.926 1529.58 244.654 1529.97 243.482C1530.37 242.299 1530.95 241.273 1531.7 240.406C1532.45 239.527 1533.36 238.848 1534.42 238.367C1535.49 237.875 1536.68 237.629 1538.01 237.629C1539.34 237.629 1540.54 237.875 1541.61 238.367C1542.69 238.848 1543.6 239.527 1544.35 240.406C1545.11 241.273 1545.69 242.299 1546.09 243.482C1546.49 244.654 1546.69 245.926 1546.69 247.297V247.701C1546.69 249.072 1546.49 250.344 1546.09 251.516C1545.69 252.688 1545.11 253.713 1544.35 254.592C1543.6 255.459 1542.69 256.139 1541.63 256.631C1540.57 257.111 1539.38 257.352 1538.04 257.352C1536.71 257.352 1535.51 257.111 1534.44 256.631C1533.37 256.139 1532.46 255.459 1531.7 254.592C1530.95 253.713 1530.37 252.688 1529.97 251.516C1529.58 250.344 1529.38 249.072 1529.38 247.701ZM1532.63 247.297V247.701C1532.63 248.65 1532.74 249.547 1532.96 250.391C1533.19 251.223 1533.52 251.961 1533.96 252.605C1534.42 253.25 1534.99 253.76 1535.67 254.135C1536.35 254.498 1537.14 254.68 1538.04 254.68C1538.93 254.68 1539.71 254.498 1540.38 254.135C1541.06 253.76 1541.62 253.25 1542.07 252.605C1542.51 251.961 1542.85 251.223 1543.07 250.391C1543.3 249.547 1543.42 248.65 1543.42 247.701V247.297C1543.42 246.359 1543.3 245.475 1543.07 244.643C1542.85 243.799 1542.51 243.055 1542.05 242.41C1541.61 241.754 1541.04 241.238 1540.36 240.863C1539.69 240.488 1538.91 240.301 1538.01 240.301C1537.12 240.301 1536.33 240.488 1535.65 240.863C1534.98 241.238 1534.42 241.754 1533.96 242.41C1533.52 243.055 1533.19 243.799 1532.96 244.643C1532.74 245.475 1532.63 246.359 1532.63 247.297ZM1561.84 251.955C1561.84 251.486 1561.74 251.053 1561.53 250.654C1561.33 250.244 1560.91 249.875 1560.28 249.547C1559.66 249.207 1558.72 248.914 1557.47 248.668C1556.41 248.445 1555.46 248.182 1554.6 247.877C1553.76 247.572 1553.04 247.203 1552.44 246.77C1551.85 246.336 1551.4 245.826 1551.09 245.24C1550.77 244.654 1550.61 243.969 1550.61 243.184C1550.61 242.434 1550.77 241.725 1551.1 241.057C1551.44 240.389 1551.92 239.797 1552.53 239.281C1553.15 238.766 1553.89 238.361 1554.76 238.068C1555.63 237.775 1556.59 237.629 1557.66 237.629C1559.18 237.629 1560.48 237.898 1561.56 238.438C1562.64 238.977 1563.47 239.697 1564.04 240.6C1564.61 241.49 1564.9 242.48 1564.9 243.57H1561.65C1561.65 243.043 1561.49 242.533 1561.18 242.041C1560.87 241.537 1560.42 241.121 1559.82 240.793C1559.24 240.465 1558.52 240.301 1557.66 240.301C1556.76 240.301 1556.02 240.441 1555.46 240.723C1554.91 240.992 1554.51 241.338 1554.25 241.76C1554 242.182 1553.88 242.627 1553.88 243.096C1553.88 243.447 1553.94 243.764 1554.06 244.045C1554.19 244.314 1554.41 244.566 1554.72 244.801C1555.04 245.023 1555.49 245.234 1556.06 245.434C1556.63 245.633 1557.37 245.832 1558.26 246.031C1559.82 246.383 1561.1 246.805 1562.11 247.297C1563.11 247.789 1563.86 248.393 1564.36 249.107C1564.85 249.822 1565.1 250.689 1565.1 251.709C1565.1 252.541 1564.92 253.303 1564.57 253.994C1564.23 254.686 1563.73 255.283 1563.07 255.787C1562.43 256.279 1561.66 256.666 1560.75 256.947C1559.86 257.217 1558.86 257.352 1557.75 257.352C1556.07 257.352 1554.65 257.053 1553.49 256.455C1552.33 255.857 1551.45 255.084 1550.86 254.135C1550.26 253.186 1549.96 252.184 1549.96 251.129H1553.23C1553.28 252.02 1553.53 252.729 1554 253.256C1554.47 253.771 1555.05 254.141 1555.73 254.363C1556.41 254.574 1557.08 254.68 1557.75 254.68C1558.64 254.68 1559.38 254.562 1559.98 254.328C1560.59 254.094 1561.05 253.771 1561.37 253.361C1561.69 252.951 1561.84 252.482 1561.84 251.955ZM1577.26 257.352C1575.94 257.352 1574.73 257.129 1573.66 256.684C1572.59 256.227 1571.67 255.588 1570.9 254.768C1570.13 253.947 1569.55 252.975 1569.14 251.85C1568.73 250.725 1568.52 249.494 1568.52 248.158V247.42C1568.52 245.873 1568.75 244.496 1569.21 243.289C1569.67 242.07 1570.29 241.039 1571.07 240.195C1571.86 239.352 1572.75 238.713 1573.74 238.279C1574.74 237.846 1575.77 237.629 1576.84 237.629C1578.2 237.629 1579.37 237.863 1580.35 238.332C1581.35 238.801 1582.16 239.457 1582.8 240.301C1583.43 241.133 1583.9 242.117 1584.2 243.254C1584.51 244.379 1584.66 245.609 1584.66 246.945V248.404H1570.46V245.75H1581.41V245.504C1581.36 244.66 1581.19 243.84 1580.88 243.043C1580.59 242.246 1580.12 241.59 1579.47 241.074C1578.83 240.559 1577.95 240.301 1576.84 240.301C1576.1 240.301 1575.42 240.459 1574.8 240.775C1574.18 241.08 1573.64 241.537 1573.2 242.146C1572.75 242.756 1572.41 243.5 1572.16 244.379C1571.92 245.258 1571.79 246.271 1571.79 247.42V248.158C1571.79 249.061 1571.92 249.91 1572.16 250.707C1572.42 251.492 1572.79 252.184 1573.27 252.781C1573.76 253.379 1574.35 253.848 1575.04 254.188C1575.75 254.527 1576.54 254.697 1577.44 254.697C1578.58 254.697 1579.56 254.463 1580.35 253.994C1581.15 253.525 1581.85 252.898 1582.44 252.113L1584.41 253.678C1584 254.299 1583.48 254.891 1582.85 255.453C1582.22 256.016 1581.44 256.473 1580.51 256.824C1579.6 257.176 1578.51 257.352 1577.26 257.352ZM1591.71 240.969V257H1588.46V237.98H1591.62L1591.71 240.969ZM1597.65 237.875L1597.63 240.898C1597.36 240.84 1597.11 240.805 1596.86 240.793C1596.62 240.77 1596.36 240.758 1596.05 240.758C1595.3 240.758 1594.64 240.875 1594.06 241.109C1593.49 241.344 1593 241.672 1592.61 242.094C1592.21 242.516 1591.89 243.02 1591.66 243.605C1591.43 244.18 1591.29 244.812 1591.22 245.504L1590.3 246.031C1590.3 244.883 1590.41 243.805 1590.64 242.797C1590.87 241.789 1591.23 240.898 1591.71 240.125C1592.19 239.34 1592.8 238.73 1593.54 238.297C1594.29 237.852 1595.18 237.629 1596.21 237.629C1596.44 237.629 1596.71 237.658 1597.02 237.717C1597.32 237.764 1597.53 237.816 1597.65 237.875ZM1606.76 254.064L1611.96 237.98H1615.28L1608.44 257H1606.26L1606.76 254.064ZM1602.41 237.98L1607.77 254.152L1608.14 257H1605.96L1599.07 237.98H1602.41ZM1621.94 237.98V257H1618.67V237.98H1621.94ZM1618.43 232.936C1618.43 232.408 1618.59 231.963 1618.9 231.6C1619.23 231.236 1619.71 231.055 1620.34 231.055C1620.96 231.055 1621.44 231.236 1621.77 231.6C1622.11 231.963 1622.28 232.408 1622.28 232.936C1622.28 233.439 1622.11 233.873 1621.77 234.236C1621.44 234.588 1620.96 234.764 1620.34 234.764C1619.71 234.764 1619.23 234.588 1618.9 234.236C1618.59 233.873 1618.43 233.439 1618.43 232.936ZM1634.77 254.68C1635.55 254.68 1636.26 254.521 1636.92 254.205C1637.58 253.889 1638.11 253.455 1638.54 252.904C1638.96 252.342 1639.2 251.703 1639.26 250.988H1642.35C1642.29 252.113 1641.91 253.162 1641.21 254.135C1640.52 255.096 1639.61 255.875 1638.48 256.473C1637.36 257.059 1636.12 257.352 1634.77 257.352C1633.35 257.352 1632.1 257.1 1631.03 256.596C1629.98 256.092 1629.1 255.4 1628.39 254.521C1627.7 253.643 1627.18 252.635 1626.83 251.498C1626.49 250.35 1626.32 249.137 1626.32 247.859V247.121C1626.32 245.844 1626.49 244.637 1626.83 243.5C1627.18 242.352 1627.7 241.338 1628.39 240.459C1629.1 239.58 1629.98 238.889 1631.03 238.385C1632.1 237.881 1633.35 237.629 1634.77 237.629C1636.26 237.629 1637.56 237.934 1638.68 238.543C1639.79 239.141 1640.66 239.961 1641.3 241.004C1641.94 242.035 1642.29 243.207 1642.35 244.52H1639.26C1639.2 243.734 1638.98 243.025 1638.59 242.393C1638.21 241.76 1637.7 241.256 1637.04 240.881C1636.4 240.494 1635.64 240.301 1634.77 240.301C1633.78 240.301 1632.94 240.5 1632.26 240.898C1631.59 241.285 1631.06 241.812 1630.66 242.48C1630.27 243.137 1629.99 243.869 1629.82 244.678C1629.65 245.475 1629.57 246.289 1629.57 247.121V247.859C1629.57 248.691 1629.65 249.512 1629.82 250.32C1629.98 251.129 1630.26 251.861 1630.64 252.518C1631.04 253.174 1631.58 253.701 1632.24 254.1C1632.92 254.486 1633.77 254.68 1634.77 254.68ZM1653.9 257.352C1652.58 257.352 1651.37 257.129 1650.3 256.684C1649.23 256.227 1648.31 255.588 1647.54 254.768C1646.77 253.947 1646.19 252.975 1645.78 251.85C1645.37 250.725 1645.16 249.494 1645.16 248.158V247.42C1645.16 245.873 1645.39 244.496 1645.85 243.289C1646.31 242.07 1646.93 241.039 1647.71 240.195C1648.5 239.352 1649.39 238.713 1650.38 238.279C1651.38 237.846 1652.41 237.629 1653.48 237.629C1654.84 237.629 1656.01 237.863 1656.99 238.332C1657.99 238.801 1658.8 239.457 1659.44 240.301C1660.07 241.133 1660.54 242.117 1660.84 243.254C1661.15 244.379 1661.3 245.609 1661.3 246.945V248.404H1647.1V245.75H1658.05V245.504C1658 244.66 1657.83 243.84 1657.52 243.043C1657.23 242.246 1656.76 241.59 1656.11 241.074C1655.47 240.559 1654.59 240.301 1653.48 240.301C1652.74 240.301 1652.06 240.459 1651.44 240.775C1650.82 241.08 1650.28 241.537 1649.84 242.146C1649.39 242.756 1649.05 243.5 1648.8 244.379C1648.56 245.258 1648.43 246.271 1648.43 247.42V248.158C1648.43 249.061 1648.56 249.91 1648.8 250.707C1649.06 251.492 1649.43 252.184 1649.91 252.781C1650.4 253.379 1650.99 253.848 1651.69 254.188C1652.39 254.527 1653.19 254.697 1654.08 254.697C1655.22 254.697 1656.2 254.463 1656.99 253.994C1657.79 253.525 1658.49 252.898 1659.09 252.113L1661.05 253.678C1660.64 254.299 1660.12 254.891 1659.49 255.453C1658.86 256.016 1658.08 256.473 1657.15 256.824C1656.24 257.176 1655.15 257.352 1653.9 257.352ZM1676.17 251.955C1676.17 251.486 1676.07 251.053 1675.86 250.654C1675.66 250.244 1675.24 249.875 1674.61 249.547C1673.99 249.207 1673.05 248.914 1671.79 248.668C1670.74 248.445 1669.78 248.182 1668.93 247.877C1668.09 247.572 1667.36 247.203 1666.77 246.77C1666.18 246.336 1665.73 245.826 1665.41 245.24C1665.1 244.654 1664.94 243.969 1664.94 243.184C1664.94 242.434 1665.1 241.725 1665.43 241.057C1665.77 240.389 1666.25 239.797 1666.86 239.281C1667.48 238.766 1668.22 238.361 1669.09 238.068C1669.95 237.775 1670.92 237.629 1671.99 237.629C1673.51 237.629 1674.81 237.898 1675.89 238.438C1676.97 238.977 1677.79 239.697 1678.37 240.6C1678.94 241.49 1679.23 242.48 1679.23 243.57H1675.98C1675.98 243.043 1675.82 242.533 1675.5 242.041C1675.2 241.537 1674.75 241.121 1674.15 240.793C1673.56 240.465 1672.84 240.301 1671.99 240.301C1671.09 240.301 1670.35 240.441 1669.79 240.723C1669.24 240.992 1668.84 241.338 1668.58 241.76C1668.33 242.182 1668.21 242.627 1668.21 243.096C1668.21 243.447 1668.27 243.764 1668.38 244.045C1668.51 244.314 1668.74 244.566 1669.05 244.801C1669.37 245.023 1669.81 245.234 1670.39 245.434C1670.96 245.633 1671.69 245.832 1672.59 246.031C1674.14 246.383 1675.43 246.805 1676.44 247.297C1677.44 247.789 1678.19 248.393 1678.69 249.107C1679.18 249.822 1679.42 250.689 1679.42 251.709C1679.42 252.541 1679.25 253.303 1678.9 253.994C1678.56 254.686 1678.06 255.283 1677.4 255.787C1676.76 256.279 1675.98 256.666 1675.08 256.947C1674.19 257.217 1673.19 257.352 1672.08 257.352C1670.4 257.352 1668.98 257.053 1667.82 256.455C1666.66 255.857 1665.78 255.084 1665.19 254.135C1664.59 253.186 1664.29 252.184 1664.29 251.129H1667.56C1667.61 252.02 1667.86 252.729 1668.33 253.256C1668.8 253.771 1669.37 254.141 1670.05 254.363C1670.73 254.574 1671.41 254.68 1672.08 254.68C1672.97 254.68 1673.71 254.562 1674.31 254.328C1674.92 254.094 1675.38 253.771 1675.7 253.361C1676.01 252.951 1676.17 252.482 1676.17 251.955Z" fill="white"/>
<defs>
<linearGradient id="paint0_linear_104_2" x1="9.24931e-07" y1="83.6845" x2="1680.69" y2="94.1129" gradientUnits="userSpaceOnUse">
<stop stop-color="#1BE2EF"/>
<stop offset="1" stop-color="#C900FB"/>
</linearGradient>
</defs>
</svg>
