<svg width="1690" height="392" viewBox="0 0 1690 392" fill="none" xmlns="http://www.w3.org/2000/svg">
<rect y="0.449707" width="1680.7" height="166.47" fill="url(#paint0_linear_104_3)"/>
<path d="M56.6738 257H51.33L51.3652 254.24H56.6738C58.5019 254.24 60.0253 253.859 61.2441 253.098C62.4628 252.324 63.3769 251.246 63.9863 249.863C64.6074 248.469 64.9179 246.84 64.9179 244.977V243.412C64.9179 241.947 64.7421 240.646 64.3906 239.51C64.039 238.361 63.5234 237.395 62.8437 236.609C62.164 235.812 61.332 235.209 60.3476 234.799C59.3749 234.389 58.2558 234.184 56.9902 234.184H51.2245V231.406H56.9902C58.6659 231.406 60.1952 231.688 61.5781 232.25C62.9609 232.801 64.1503 233.604 65.1464 234.658C66.1542 235.701 66.9277 236.967 67.4667 238.455C68.0058 239.932 68.2753 241.596 68.2753 243.447V244.977C68.2753 246.828 68.0058 248.498 67.4667 249.986C66.9277 251.463 66.1484 252.723 65.1288 253.766C64.121 254.809 62.9023 255.611 61.4726 256.174C60.0546 256.725 58.455 257 56.6738 257ZM53.1406 231.406V257H49.748V231.406H53.1406ZM80.7734 257.352C79.4492 257.352 78.248 257.129 77.1699 256.684C76.1034 256.227 75.1835 255.588 74.4101 254.768C73.6484 253.947 73.0624 252.975 72.6523 251.85C72.2421 250.725 72.037 249.494 72.037 248.158V247.42C72.037 245.873 72.2656 244.496 72.7226 243.289C73.1796 242.07 73.8007 241.039 74.5859 240.195C75.371 239.352 76.2617 238.713 77.2577 238.279C78.2538 237.846 79.2851 237.629 80.3515 237.629C81.7109 237.629 82.8827 237.863 83.8671 238.332C84.8632 238.801 85.6777 239.457 86.3105 240.301C86.9433 241.133 87.412 242.117 87.7167 243.254C88.0214 244.379 88.1738 245.609 88.1738 246.945V248.404H73.9706V245.75H84.9218V245.504C84.8749 244.66 84.6992 243.84 84.3945 243.043C84.1015 242.246 83.6327 241.59 82.9882 241.074C82.3437 240.559 81.4648 240.301 80.3515 240.301C79.6132 240.301 78.9335 240.459 78.3124 240.775C77.6913 241.08 77.1581 241.537 76.7128 242.146C76.2675 242.756 75.9218 243.5 75.6757 244.379C75.4296 245.258 75.3066 246.271 75.3066 247.42V248.158C75.3066 249.061 75.4296 249.91 75.6757 250.707C75.9335 251.492 76.3027 252.184 76.7831 252.781C77.2753 253.379 77.8671 253.848 78.5585 254.188C79.2617 254.527 80.0585 254.697 80.9492 254.697C82.0976 254.697 83.0702 254.463 83.8671 253.994C84.664 253.525 85.3613 252.898 85.9589 252.113L87.9277 253.678C87.5175 254.299 86.996 254.891 86.3632 255.453C85.7304 256.016 84.9511 256.473 84.0253 256.824C83.1113 257.176 82.0273 257.352 80.7734 257.352ZM96.8222 257H93.5702V235.977C93.5702 234.605 93.8163 233.451 94.3085 232.514C94.8124 231.564 95.5331 230.85 96.4706 230.369C97.4081 229.877 98.5214 229.631 99.8105 229.631C100.185 229.631 100.56 229.654 100.935 229.701C101.322 229.748 101.697 229.818 102.06 229.912L101.885 232.566C101.639 232.508 101.357 232.467 101.041 232.443C100.736 232.42 100.432 232.408 100.127 232.408C99.4355 232.408 98.8378 232.549 98.3339 232.83C97.8417 233.1 97.4667 233.498 97.2089 234.025C96.9511 234.553 96.8222 235.203 96.8222 235.977V257ZM100.865 237.98V240.477H90.5644V237.98H100.865ZM115.701 253.748V243.957C115.701 243.207 115.549 242.557 115.244 242.006C114.951 241.443 114.506 241.01 113.908 240.705C113.31 240.4 112.572 240.248 111.693 240.248C110.873 240.248 110.152 240.389 109.531 240.67C108.922 240.951 108.441 241.32 108.09 241.777C107.75 242.234 107.58 242.727 107.58 243.254H104.328C104.328 242.574 104.504 241.9 104.855 241.232C105.207 240.564 105.711 239.961 106.367 239.422C107.035 238.871 107.832 238.438 108.758 238.121C109.695 237.793 110.738 237.629 111.887 237.629C113.269 237.629 114.488 237.863 115.543 238.332C116.609 238.801 117.441 239.51 118.039 240.459C118.648 241.396 118.953 242.574 118.953 243.992V252.852C118.953 253.484 119.006 254.158 119.111 254.873C119.228 255.588 119.398 256.203 119.621 256.719V257H116.228C116.064 256.625 115.935 256.127 115.842 255.506C115.748 254.873 115.701 254.287 115.701 253.748ZM116.264 245.469L116.299 247.754H113.012C112.086 247.754 111.26 247.83 110.533 247.982C109.807 248.123 109.197 248.34 108.705 248.633C108.213 248.926 107.838 249.295 107.58 249.74C107.322 250.174 107.193 250.684 107.193 251.27C107.193 251.867 107.328 252.412 107.598 252.904C107.867 253.396 108.271 253.789 108.81 254.082C109.361 254.363 110.035 254.504 110.832 254.504C111.828 254.504 112.707 254.293 113.469 253.871C114.23 253.449 114.834 252.934 115.279 252.324C115.736 251.715 115.982 251.123 116.018 250.549L117.406 252.113C117.324 252.605 117.101 253.15 116.738 253.748C116.375 254.346 115.889 254.92 115.279 255.471C114.682 256.01 113.967 256.461 113.135 256.824C112.314 257.176 111.389 257.352 110.357 257.352C109.068 257.352 107.937 257.1 106.965 256.596C106.004 256.092 105.254 255.418 104.715 254.574C104.187 253.719 103.924 252.764 103.924 251.709C103.924 250.689 104.123 249.793 104.521 249.02C104.92 248.234 105.494 247.584 106.244 247.068C106.994 246.541 107.896 246.143 108.951 245.873C110.006 245.604 111.184 245.469 112.484 245.469H116.264ZM135.705 252.605V237.98H138.975V257H135.863L135.705 252.605ZM136.32 248.598L137.674 248.562C137.674 249.828 137.539 251 137.269 252.078C137.012 253.145 136.59 254.07 136.004 254.855C135.418 255.641 134.65 256.256 133.701 256.701C132.752 257.135 131.598 257.352 130.238 257.352C129.312 257.352 128.463 257.217 127.689 256.947C126.928 256.678 126.271 256.262 125.721 255.699C125.17 255.137 124.742 254.404 124.437 253.502C124.144 252.6 123.998 251.516 123.998 250.25V237.98H127.25V250.285C127.25 251.141 127.344 251.85 127.531 252.412C127.73 252.963 127.994 253.402 128.322 253.73C128.662 254.047 129.037 254.27 129.447 254.398C129.869 254.527 130.303 254.592 130.748 254.592C132.131 254.592 133.226 254.328 134.035 253.801C134.844 253.262 135.424 252.541 135.775 251.639C136.139 250.725 136.32 249.711 136.32 248.598ZM147.465 230V257H144.195V230H147.465ZM160.648 237.98V240.477H150.365V237.98H160.648ZM153.846 233.357H157.098V252.289C157.098 252.934 157.197 253.42 157.396 253.748C157.596 254.076 157.853 254.293 158.17 254.398C158.486 254.504 158.826 254.557 159.189 254.557C159.459 254.557 159.74 254.533 160.033 254.486C160.338 254.428 160.566 254.381 160.719 254.346L160.736 257C160.478 257.082 160.139 257.158 159.717 257.229C159.307 257.311 158.809 257.352 158.223 257.352C157.426 257.352 156.693 257.193 156.025 256.877C155.357 256.561 154.824 256.033 154.426 255.295C154.039 254.545 153.846 253.537 153.846 252.271V233.357ZM72.8808 273.406H81.3534C83.2753 273.406 84.8984 273.699 86.2226 274.285C87.5585 274.871 88.5722 275.738 89.2636 276.887C89.9667 278.023 90.3183 279.424 90.3183 281.088C90.3183 282.26 90.0781 283.332 89.5976 284.305C89.1288 285.266 88.4492 286.086 87.5585 286.766C86.6796 287.434 85.6249 287.932 84.3945 288.26L83.4452 288.629H75.4824L75.4472 285.869H81.4589C82.6777 285.869 83.6913 285.658 84.4999 285.236C85.3085 284.803 85.9179 284.223 86.3281 283.496C86.7382 282.77 86.9433 281.967 86.9433 281.088C86.9433 280.104 86.7499 279.242 86.3632 278.504C85.9765 277.766 85.3671 277.197 84.5351 276.799C83.7148 276.389 82.6542 276.184 81.3534 276.184H76.2734V299H72.8808V273.406ZM87.8398 299L81.6171 287.398L85.1503 287.381L91.4609 298.789V299H87.8398ZM105.787 295.748V285.957C105.787 285.207 105.635 284.557 105.33 284.006C105.037 283.443 104.592 283.01 103.994 282.705C103.396 282.4 102.658 282.248 101.779 282.248C100.959 282.248 100.238 282.389 99.6171 282.67C99.0077 282.951 98.5273 283.32 98.1757 283.777C97.8359 284.234 97.6659 284.727 97.6659 285.254H94.414C94.414 284.574 94.5898 283.9 94.9413 283.232C95.2929 282.564 95.7968 281.961 96.4531 281.422C97.121 280.871 97.9179 280.438 98.8437 280.121C99.7812 279.793 100.824 279.629 101.973 279.629C103.355 279.629 104.574 279.863 105.629 280.332C106.695 280.801 107.527 281.51 108.125 282.459C108.734 283.396 109.039 284.574 109.039 285.992V294.852C109.039 295.484 109.092 296.158 109.197 296.873C109.314 297.588 109.484 298.203 109.707 298.719V299H106.314C106.15 298.625 106.021 298.127 105.928 297.506C105.834 296.873 105.787 296.287 105.787 295.748ZM106.35 287.469L106.385 289.754H103.098C102.172 289.754 101.346 289.83 100.619 289.982C99.8925 290.123 99.2831 290.34 98.7909 290.633C98.2988 290.926 97.9238 291.295 97.6659 291.74C97.4081 292.174 97.2792 292.684 97.2792 293.27C97.2792 293.867 97.414 294.412 97.6835 294.904C97.9531 295.396 98.3574 295.789 98.8964 296.082C99.4472 296.363 100.121 296.504 100.918 296.504C101.914 296.504 102.793 296.293 103.555 295.871C104.316 295.449 104.92 294.934 105.365 294.324C105.822 293.715 106.068 293.123 106.103 292.549L107.492 294.113C107.41 294.605 107.187 295.15 106.824 295.748C106.461 296.346 105.975 296.92 105.365 297.471C104.768 298.01 104.053 298.461 103.221 298.824C102.4 299.176 101.475 299.352 100.443 299.352C99.1542 299.352 98.0234 299.1 97.0507 298.596C96.0898 298.092 95.3398 297.418 94.8007 296.574C94.2734 295.719 94.0097 294.764 94.0097 293.709C94.0097 292.689 94.2089 291.793 94.6074 291.02C95.0058 290.234 95.58 289.584 96.33 289.068C97.08 288.541 97.9824 288.143 99.037 287.873C100.092 287.604 101.269 287.469 102.57 287.469H106.35ZM117.687 279.98V299H114.418V279.98H117.687ZM114.172 274.936C114.172 274.408 114.33 273.963 114.646 273.6C114.975 273.236 115.455 273.055 116.088 273.055C116.709 273.055 117.184 273.236 117.512 273.6C117.851 273.963 118.021 274.408 118.021 274.936C118.021 275.439 117.851 275.873 117.512 276.236C117.184 276.588 116.709 276.764 116.088 276.764C115.455 276.764 114.975 276.588 114.646 276.236C114.33 275.873 114.172 275.439 114.172 274.936ZM126.441 272V299H123.172V272H126.441ZM142.736 293.955C142.736 293.486 142.631 293.053 142.42 292.654C142.221 292.244 141.805 291.875 141.172 291.547C140.551 291.207 139.613 290.914 138.359 290.668C137.305 290.445 136.35 290.182 135.494 289.877C134.65 289.572 133.93 289.203 133.332 288.77C132.746 288.336 132.295 287.826 131.978 287.24C131.662 286.654 131.504 285.969 131.504 285.184C131.504 284.434 131.668 283.725 131.996 283.057C132.336 282.389 132.81 281.797 133.42 281.281C134.041 280.766 134.785 280.361 135.652 280.068C136.519 279.775 137.486 279.629 138.553 279.629C140.076 279.629 141.377 279.898 142.455 280.438C143.533 280.977 144.359 281.697 144.934 282.6C145.508 283.49 145.795 284.48 145.795 285.57H142.543C142.543 285.043 142.385 284.533 142.068 284.041C141.764 283.537 141.312 283.121 140.715 282.793C140.129 282.465 139.408 282.301 138.553 282.301C137.65 282.301 136.918 282.441 136.355 282.723C135.805 282.992 135.4 283.338 135.143 283.76C134.896 284.182 134.773 284.627 134.773 285.096C134.773 285.447 134.832 285.764 134.949 286.045C135.078 286.314 135.301 286.566 135.617 286.801C135.934 287.023 136.379 287.234 136.953 287.434C137.527 287.633 138.26 287.832 139.15 288.031C140.709 288.383 141.992 288.805 143 289.297C144.008 289.789 144.758 290.393 145.25 291.107C145.742 291.822 145.988 292.689 145.988 293.709C145.988 294.541 145.812 295.303 145.461 295.994C145.121 296.686 144.623 297.283 143.967 297.787C143.322 298.279 142.549 298.666 141.646 298.947C140.756 299.217 139.754 299.352 138.641 299.352C136.965 299.352 135.547 299.053 134.387 298.455C133.227 297.857 132.348 297.084 131.75 296.135C131.152 295.186 130.853 294.184 130.853 293.129H134.123C134.17 294.02 134.428 294.729 134.896 295.256C135.365 295.771 135.939 296.141 136.619 296.363C137.299 296.574 137.973 296.68 138.641 296.68C139.531 296.68 140.275 296.562 140.873 296.328C141.482 296.094 141.945 295.771 142.262 295.361C142.578 294.951 142.736 294.482 142.736 293.955ZM26.9667 337.748V327.957C26.9667 327.207 26.8144 326.557 26.5097 326.006C26.2167 325.443 25.7714 325.01 25.1738 324.705C24.5761 324.4 23.8378 324.248 22.9589 324.248C22.1386 324.248 21.4179 324.389 20.7968 324.67C20.1874 324.951 19.707 325.32 19.3554 325.777C19.0156 326.234 18.8456 326.727 18.8456 327.254H15.5937C15.5937 326.574 15.7695 325.9 16.121 325.232C16.4726 324.564 16.9765 323.961 17.6327 323.422C18.3007 322.871 19.0976 322.438 20.0234 322.121C20.9609 321.793 22.0038 321.629 23.1523 321.629C24.5351 321.629 25.7538 321.863 26.8085 322.332C27.8749 322.801 28.707 323.51 29.3046 324.459C29.914 325.396 30.2187 326.574 30.2187 327.992V336.852C30.2187 337.484 30.2714 338.158 30.3769 338.873C30.4941 339.588 30.664 340.203 30.8867 340.719V341H27.4941C27.33 340.625 27.2011 340.127 27.1074 339.506C27.0136 338.873 26.9667 338.287 26.9667 337.748ZM27.5292 329.469L27.5644 331.754H24.2773C23.3515 331.754 22.5253 331.83 21.7988 331.982C21.0722 332.123 20.4628 332.34 19.9706 332.633C19.4784 332.926 19.1034 333.295 18.8456 333.74C18.5878 334.174 18.4589 334.684 18.4589 335.27C18.4589 335.867 18.5937 336.412 18.8632 336.904C19.1327 337.396 19.537 337.789 20.0761 338.082C20.6269 338.363 21.3007 338.504 22.0976 338.504C23.0937 338.504 23.9726 338.293 24.7343 337.871C25.496 337.449 26.0995 336.934 26.5449 336.324C27.0019 335.715 27.248 335.123 27.2831 334.549L28.6718 336.113C28.5898 336.605 28.3671 337.15 28.0038 337.748C27.6406 338.346 27.1542 338.92 26.5449 339.471C25.9472 340.01 25.2324 340.461 24.4003 340.824C23.58 341.176 22.6542 341.352 21.623 341.352C20.3339 341.352 19.2031 341.1 18.2304 340.596C17.2695 340.092 16.5195 339.418 15.9804 338.574C15.4531 337.719 15.1894 336.764 15.1894 335.709C15.1894 334.689 15.3886 333.793 15.787 333.02C16.1855 332.234 16.7597 331.584 17.5097 331.068C18.2597 330.541 19.162 330.143 20.2167 329.873C21.2714 329.604 22.4492 329.469 23.7499 329.469H27.5292ZM38.5859 324.969V341H35.3339V321.98H38.498L38.5859 324.969ZM44.5273 321.875L44.5097 324.898C44.2402 324.84 43.9824 324.805 43.7363 324.793C43.5019 324.77 43.2324 324.758 42.9277 324.758C42.1777 324.758 41.5156 324.875 40.9413 325.109C40.3671 325.344 39.8808 325.672 39.4824 326.094C39.0839 326.516 38.7675 327.02 38.5331 327.605C38.3105 328.18 38.164 328.812 38.0937 329.504L37.1796 330.031C37.1796 328.883 37.2909 327.805 37.5136 326.797C37.748 325.789 38.1054 324.898 38.5859 324.125C39.0663 323.34 39.6757 322.73 40.414 322.297C41.164 321.852 42.0546 321.629 43.0859 321.629C43.3202 321.629 43.5898 321.658 43.8945 321.717C44.1992 321.764 44.4101 321.816 44.5273 321.875ZM54.7929 338.68C55.5663 338.68 56.2812 338.521 56.9374 338.205C57.5937 337.889 58.1327 337.455 58.5546 336.904C58.9765 336.342 59.2167 335.703 59.2753 334.988H62.3691C62.3105 336.113 61.9296 337.162 61.2265 338.135C60.5351 339.096 59.6269 339.875 58.5019 340.473C57.3769 341.059 56.1406 341.352 54.7929 341.352C53.3632 341.352 52.1152 341.1 51.0488 340.596C49.9941 340.092 49.1152 339.4 48.412 338.521C47.7206 337.643 47.1992 336.635 46.8476 335.498C46.5077 334.35 46.3378 333.137 46.3378 331.859V331.121C46.3378 329.844 46.5077 328.637 46.8476 327.5C47.1992 326.352 47.7206 325.338 48.412 324.459C49.1152 323.58 49.9941 322.889 51.0488 322.385C52.1152 321.881 53.3632 321.629 54.7929 321.629C56.2812 321.629 57.582 321.934 58.6952 322.543C59.8085 323.141 60.6816 323.961 61.3144 325.004C61.9589 326.035 62.3105 327.207 62.3691 328.52H59.2753C59.2167 327.734 58.9941 327.025 58.6074 326.393C58.2324 325.76 57.7167 325.256 57.0605 324.881C56.4159 324.494 55.6601 324.301 54.7929 324.301C53.7968 324.301 52.9589 324.5 52.2792 324.898C51.6113 325.285 51.0781 325.812 50.6796 326.48C50.2929 327.137 50.0117 327.869 49.8359 328.678C49.6718 329.475 49.5898 330.289 49.5898 331.121V331.859C49.5898 332.691 49.6718 333.512 49.8359 334.32C49.9999 335.129 50.2753 335.861 50.662 336.518C51.0605 337.174 51.5937 337.701 52.2617 338.1C52.9413 338.486 53.7851 338.68 54.7929 338.68ZM69.2773 314V341H66.0253V314H69.2773ZM68.5038 330.77L67.1503 330.717C67.162 329.416 67.3554 328.215 67.7304 327.113C68.1054 326 68.6327 325.033 69.3124 324.213C69.9921 323.393 70.8007 322.76 71.7382 322.314C72.6874 321.857 73.7363 321.629 74.8847 321.629C75.8222 321.629 76.6659 321.758 77.4159 322.016C78.1659 322.262 78.8046 322.66 79.332 323.211C79.871 323.762 80.2812 324.477 80.5624 325.355C80.8437 326.223 80.9843 327.283 80.9843 328.537V341H77.7148V328.502C77.7148 327.506 77.5683 326.709 77.2753 326.111C76.9824 325.502 76.5546 325.062 75.9921 324.793C75.4296 324.512 74.7382 324.371 73.9179 324.371C73.1093 324.371 72.371 324.541 71.7031 324.881C71.0468 325.221 70.4784 325.689 69.998 326.287C69.5292 326.885 69.1601 327.57 68.8906 328.344C68.6327 329.105 68.5038 329.914 68.5038 330.77ZM89.3867 321.98V341H86.1171V321.98H89.3867ZM85.871 316.936C85.871 316.408 86.0292 315.963 86.3456 315.6C86.6738 315.236 87.1542 315.055 87.787 315.055C88.4081 315.055 88.8827 315.236 89.2109 315.6C89.5507 315.963 89.7206 316.408 89.7206 316.936C89.7206 317.439 89.5507 317.873 89.2109 318.236C88.8827 318.588 88.4081 318.764 87.787 318.764C87.1542 318.764 86.6738 318.588 86.3456 318.236C86.0292 317.873 85.871 317.439 85.871 316.936ZM102.57 321.98V324.477H92.287V321.98H102.57ZM95.7675 317.357H99.0195V336.289C99.0195 336.934 99.1191 337.42 99.3183 337.748C99.5175 338.076 99.7753 338.293 100.092 338.398C100.408 338.504 100.748 338.557 101.111 338.557C101.381 338.557 101.662 338.533 101.955 338.486C102.26 338.428 102.488 338.381 102.641 338.346L102.658 341C102.4 341.082 102.06 341.158 101.639 341.229C101.228 341.311 100.73 341.352 100.144 341.352C99.3476 341.352 98.6152 341.193 97.9472 340.877C97.2792 340.561 96.746 340.033 96.3476 339.295C95.9609 338.545 95.7675 337.537 95.7675 336.271V317.357ZM114.277 341.352C112.953 341.352 111.752 341.129 110.674 340.684C109.607 340.227 108.687 339.588 107.914 338.768C107.152 337.947 106.566 336.975 106.156 335.85C105.746 334.725 105.541 333.494 105.541 332.158V331.42C105.541 329.873 105.769 328.496 106.226 327.289C106.684 326.07 107.305 325.039 108.09 324.195C108.875 323.352 109.766 322.713 110.762 322.279C111.758 321.846 112.789 321.629 113.855 321.629C115.215 321.629 116.387 321.863 117.371 322.332C118.367 322.801 119.182 323.457 119.814 324.301C120.447 325.133 120.916 326.117 121.221 327.254C121.525 328.379 121.678 329.609 121.678 330.945V332.404H107.475V329.75H118.426V329.504C118.379 328.66 118.203 327.84 117.898 327.043C117.605 326.246 117.137 325.59 116.492 325.074C115.848 324.559 114.969 324.301 113.855 324.301C113.117 324.301 112.437 324.459 111.816 324.775C111.195 325.08 110.662 325.537 110.217 326.146C109.771 326.756 109.426 327.5 109.18 328.379C108.934 329.258 108.81 330.271 108.81 331.42V332.158C108.81 333.061 108.934 333.91 109.18 334.707C109.437 335.492 109.807 336.184 110.287 336.781C110.779 337.379 111.371 337.848 112.062 338.188C112.766 338.527 113.562 338.697 114.453 338.697C115.601 338.697 116.574 338.463 117.371 337.994C118.168 337.525 118.865 336.898 119.463 336.113L121.432 337.678C121.021 338.299 120.5 338.891 119.867 339.453C119.234 340.016 118.455 340.473 117.529 340.824C116.615 341.176 115.531 341.352 114.277 341.352ZM133.086 338.68C133.859 338.68 134.574 338.521 135.23 338.205C135.887 337.889 136.426 337.455 136.848 336.904C137.269 336.342 137.51 335.703 137.568 334.988H140.662C140.603 336.113 140.223 337.162 139.519 338.135C138.828 339.096 137.92 339.875 136.795 340.473C135.67 341.059 134.434 341.352 133.086 341.352C131.656 341.352 130.408 341.1 129.342 340.596C128.287 340.092 127.408 339.4 126.705 338.521C126.014 337.643 125.492 336.635 125.141 335.498C124.801 334.35 124.631 333.137 124.631 331.859V331.121C124.631 329.844 124.801 328.637 125.141 327.5C125.492 326.352 126.014 325.338 126.705 324.459C127.408 323.58 128.287 322.889 129.342 322.385C130.408 321.881 131.656 321.629 133.086 321.629C134.574 321.629 135.875 321.934 136.988 322.543C138.101 323.141 138.975 323.961 139.607 325.004C140.252 326.035 140.603 327.207 140.662 328.52H137.568C137.51 327.734 137.287 327.025 136.9 326.393C136.525 325.76 136.01 325.256 135.353 324.881C134.709 324.494 133.953 324.301 133.086 324.301C132.09 324.301 131.252 324.5 130.572 324.898C129.904 325.285 129.371 325.812 128.973 326.48C128.586 327.137 128.305 327.869 128.129 328.678C127.965 329.475 127.883 330.289 127.883 331.121V331.859C127.883 332.691 127.965 333.512 128.129 334.32C128.293 335.129 128.568 335.861 128.955 336.518C129.353 337.174 129.887 337.701 130.555 338.1C131.234 338.486 132.078 338.68 133.086 338.68ZM152.281 321.98V324.477H141.998V321.98H152.281ZM145.478 317.357H148.73V336.289C148.73 336.934 148.83 337.42 149.029 337.748C149.228 338.076 149.486 338.293 149.803 338.398C150.119 338.504 150.459 338.557 150.822 338.557C151.092 338.557 151.373 338.533 151.666 338.486C151.971 338.428 152.199 338.381 152.352 338.346L152.369 341C152.111 341.082 151.771 341.158 151.35 341.229C150.939 341.311 150.441 341.352 149.855 341.352C149.059 341.352 148.326 341.193 147.658 340.877C146.99 340.561 146.457 340.033 146.059 339.295C145.672 338.545 145.478 337.537 145.478 336.271V317.357ZM167.732 336.605V321.98H171.002V341H167.891L167.732 336.605ZM168.348 332.598L169.701 332.562C169.701 333.828 169.566 335 169.297 336.078C169.039 337.145 168.617 338.07 168.031 338.855C167.445 339.641 166.678 340.256 165.728 340.701C164.779 341.135 163.625 341.352 162.266 341.352C161.34 341.352 160.49 341.217 159.717 340.947C158.955 340.678 158.299 340.262 157.748 339.699C157.197 339.137 156.769 338.404 156.465 337.502C156.172 336.6 156.025 335.516 156.025 334.25V321.98H159.277V334.285C159.277 335.141 159.371 335.85 159.559 336.412C159.758 336.963 160.021 337.402 160.35 337.73C160.689 338.047 161.064 338.27 161.475 338.398C161.896 338.527 162.33 338.592 162.775 338.592C164.158 338.592 165.254 338.328 166.062 337.801C166.871 337.262 167.451 336.541 167.803 335.639C168.166 334.725 168.348 333.711 168.348 332.598ZM179.211 324.969V341H175.959V321.98H179.123L179.211 324.969ZM185.152 321.875L185.135 324.898C184.865 324.84 184.607 324.805 184.361 324.793C184.127 324.77 183.857 324.758 183.553 324.758C182.803 324.758 182.141 324.875 181.566 325.109C180.992 325.344 180.506 325.672 180.107 326.094C179.709 326.516 179.393 327.02 179.158 327.605C178.935 328.18 178.789 328.812 178.719 329.504L177.805 330.031C177.805 328.883 177.916 327.805 178.139 326.797C178.373 325.789 178.73 324.898 179.211 324.125C179.691 323.34 180.301 322.73 181.039 322.297C181.789 321.852 182.68 321.629 183.711 321.629C183.945 321.629 184.215 321.658 184.519 321.717C184.824 321.764 185.035 321.816 185.152 321.875ZM195.699 341.352C194.375 341.352 193.174 341.129 192.096 340.684C191.029 340.227 190.109 339.588 189.336 338.768C188.574 337.947 187.988 336.975 187.578 335.85C187.168 334.725 186.963 333.494 186.963 332.158V331.42C186.963 329.873 187.191 328.496 187.648 327.289C188.105 326.07 188.727 325.039 189.512 324.195C190.297 323.352 191.187 322.713 192.184 322.279C193.18 321.846 194.211 321.629 195.277 321.629C196.637 321.629 197.809 321.863 198.793 322.332C199.789 322.801 200.603 323.457 201.236 324.301C201.869 325.133 202.338 326.117 202.643 327.254C202.947 328.379 203.1 329.609 203.1 330.945V332.404H188.896V329.75H199.848V329.504C199.801 328.66 199.625 327.84 199.32 327.043C199.027 326.246 198.559 325.59 197.914 325.074C197.269 324.559 196.391 324.301 195.277 324.301C194.539 324.301 193.859 324.459 193.238 324.775C192.617 325.08 192.084 325.537 191.639 326.146C191.193 326.756 190.848 327.5 190.602 328.379C190.355 329.258 190.232 330.271 190.232 331.42V332.158C190.232 333.061 190.355 333.91 190.602 334.707C190.859 335.492 191.228 336.184 191.709 336.781C192.201 337.379 192.793 337.848 193.484 338.188C194.187 338.527 194.984 338.697 195.875 338.697C197.023 338.697 197.996 338.463 198.793 337.994C199.59 337.525 200.287 336.898 200.885 336.113L202.853 337.678C202.443 338.299 201.922 338.891 201.289 339.453C200.656 340.016 199.877 340.473 198.951 340.824C198.037 341.176 196.953 341.352 195.699 341.352Z" fill="white"/>
<path d="M1146.87 231.406H1155.34C1157.27 231.406 1158.89 231.699 1160.21 232.285C1161.55 232.871 1162.56 233.738 1163.25 234.887C1163.96 236.024 1164.31 237.424 1164.31 239.088C1164.31 240.26 1164.07 241.332 1163.59 242.305C1163.12 243.266 1162.44 244.086 1161.55 244.766C1160.67 245.434 1159.61 245.932 1158.38 246.26L1157.44 246.629H1149.47L1149.44 243.869H1155.45C1156.67 243.869 1157.68 243.658 1158.49 243.236C1159.3 242.803 1159.91 242.223 1160.32 241.496C1160.73 240.77 1160.93 239.967 1160.93 239.088C1160.93 238.104 1160.74 237.242 1160.35 236.504C1159.97 235.766 1159.36 235.197 1158.53 234.799C1157.7 234.389 1156.64 234.184 1155.34 234.184H1150.26V257H1146.87V231.406ZM1161.83 257L1155.61 245.399L1159.14 245.381L1165.45 256.789V257H1161.83ZM1179.78 253.748V243.957C1179.78 243.207 1179.62 242.557 1179.32 242.006C1179.03 241.443 1178.58 241.01 1177.98 240.705C1177.39 240.401 1176.65 240.248 1175.77 240.248C1174.95 240.248 1174.23 240.389 1173.61 240.67C1173 240.951 1172.52 241.32 1172.17 241.777C1171.83 242.234 1171.66 242.727 1171.66 243.254H1168.4C1168.4 242.574 1168.58 241.901 1168.93 241.233C1169.28 240.565 1169.79 239.961 1170.44 239.422C1171.11 238.871 1171.91 238.438 1172.83 238.121C1173.77 237.793 1174.81 237.629 1175.96 237.629C1177.35 237.629 1178.56 237.863 1179.62 238.332C1180.69 238.801 1181.52 239.51 1182.11 240.459C1182.72 241.397 1183.03 242.574 1183.03 243.992V252.852C1183.03 253.484 1183.08 254.158 1183.19 254.873C1183.3 255.588 1183.47 256.203 1183.7 256.719V257H1180.3C1180.14 256.625 1180.01 256.127 1179.92 255.506C1179.82 254.873 1179.78 254.287 1179.78 253.748ZM1180.34 245.469L1180.37 247.754H1177.09C1176.16 247.754 1175.34 247.83 1174.61 247.983C1173.88 248.123 1173.27 248.34 1172.78 248.633C1172.29 248.926 1171.91 249.295 1171.66 249.74C1171.4 250.174 1171.27 250.684 1171.27 251.27C1171.27 251.867 1171.4 252.412 1171.67 252.904C1171.94 253.397 1172.35 253.789 1172.89 254.082C1173.44 254.363 1174.11 254.504 1174.91 254.504C1175.9 254.504 1176.78 254.293 1177.54 253.871C1178.31 253.449 1178.91 252.934 1179.36 252.324C1179.81 251.715 1180.06 251.123 1180.09 250.549L1181.48 252.113C1181.4 252.606 1181.18 253.151 1180.81 253.748C1180.45 254.346 1179.96 254.92 1179.36 255.471C1178.76 256.01 1178.04 256.461 1177.21 256.824C1176.39 257.176 1175.46 257.352 1174.43 257.352C1173.14 257.352 1172.01 257.1 1171.04 256.596C1170.08 256.092 1169.33 255.418 1168.79 254.574C1168.26 253.719 1168 252.764 1168 251.709C1168 250.69 1168.2 249.793 1168.6 249.02C1169 248.234 1169.57 247.584 1170.32 247.068C1171.07 246.541 1171.97 246.143 1173.03 245.873C1174.08 245.604 1175.26 245.469 1176.56 245.469H1180.34ZM1191.68 237.981V257H1188.41V237.981H1191.68ZM1188.16 232.936C1188.16 232.408 1188.32 231.963 1188.64 231.6C1188.96 231.236 1189.44 231.055 1190.08 231.055C1190.7 231.055 1191.17 231.236 1191.5 231.6C1191.84 231.963 1192.01 232.408 1192.01 232.936C1192.01 233.44 1191.84 233.873 1191.5 234.236C1191.17 234.588 1190.7 234.764 1190.08 234.764C1189.44 234.764 1188.96 234.588 1188.64 234.236C1188.32 233.873 1188.16 233.44 1188.16 232.936ZM1200.43 230V257H1197.16V230H1200.43ZM1216.73 251.955C1216.73 251.486 1216.62 251.053 1216.41 250.654C1216.21 250.244 1215.79 249.875 1215.16 249.547C1214.54 249.207 1213.6 248.914 1212.35 248.668C1211.29 248.445 1210.34 248.182 1209.48 247.877C1208.64 247.572 1207.92 247.203 1207.32 246.77C1206.74 246.336 1206.28 245.826 1205.97 245.24C1205.65 244.654 1205.49 243.969 1205.49 243.184C1205.49 242.434 1205.66 241.725 1205.99 241.057C1206.33 240.389 1206.8 239.797 1207.41 239.281C1208.03 238.766 1208.78 238.361 1209.64 238.068C1210.51 237.776 1211.48 237.629 1212.54 237.629C1214.07 237.629 1215.37 237.899 1216.44 238.438C1217.52 238.977 1218.35 239.697 1218.92 240.6C1219.5 241.49 1219.78 242.481 1219.78 243.57H1216.53C1216.53 243.043 1216.37 242.533 1216.06 242.041C1215.75 241.537 1215.3 241.121 1214.7 240.793C1214.12 240.465 1213.4 240.301 1212.54 240.301C1211.64 240.301 1210.91 240.442 1210.35 240.723C1209.79 240.992 1209.39 241.338 1209.13 241.76C1208.89 242.182 1208.76 242.627 1208.76 243.096C1208.76 243.447 1208.82 243.764 1208.94 244.045C1209.07 244.315 1209.29 244.567 1209.61 244.801C1209.92 245.024 1210.37 245.234 1210.94 245.434C1211.52 245.633 1212.25 245.832 1213.14 246.031C1214.7 246.383 1215.98 246.805 1216.99 247.297C1218 247.789 1218.75 248.393 1219.24 249.108C1219.73 249.822 1219.98 250.69 1219.98 251.709C1219.98 252.541 1219.8 253.303 1219.45 253.994C1219.11 254.686 1218.61 255.283 1217.96 255.787C1217.31 256.279 1216.54 256.666 1215.64 256.947C1214.75 257.217 1213.74 257.352 1212.63 257.352C1210.95 257.352 1209.54 257.053 1208.38 256.455C1207.22 255.858 1206.34 255.084 1205.74 254.135C1205.14 253.186 1204.84 252.184 1204.84 251.129H1208.11C1208.16 252.02 1208.42 252.729 1208.89 253.256C1209.36 253.772 1209.93 254.141 1210.61 254.363C1211.29 254.574 1211.96 254.68 1212.63 254.68C1213.52 254.68 1214.27 254.563 1214.86 254.328C1215.47 254.094 1215.94 253.772 1216.25 253.361C1216.57 252.951 1216.73 252.483 1216.73 251.955ZM1130.44 299.352C1129.11 299.352 1127.91 299.129 1126.83 298.684C1125.77 298.227 1124.85 297.588 1124.07 296.768C1123.31 295.947 1122.72 294.975 1122.31 293.85C1121.9 292.725 1121.7 291.494 1121.7 290.158V289.42C1121.7 287.873 1121.93 286.496 1122.38 285.289C1122.84 284.07 1123.46 283.039 1124.25 282.195C1125.03 281.352 1125.92 280.713 1126.92 280.279C1127.92 279.846 1128.95 279.629 1130.01 279.629C1131.37 279.629 1132.54 279.863 1133.53 280.332C1134.53 280.801 1135.34 281.457 1135.97 282.301C1136.61 283.133 1137.07 284.117 1137.38 285.254C1137.68 286.379 1137.84 287.609 1137.84 288.945V290.404H1123.63V287.75H1134.58V287.504C1134.54 286.66 1134.36 285.84 1134.06 285.043C1133.76 284.246 1133.29 283.59 1132.65 283.074C1132.01 282.559 1131.13 282.301 1130.01 282.301C1129.28 282.301 1128.6 282.459 1127.97 282.776C1127.35 283.08 1126.82 283.537 1126.37 284.147C1125.93 284.756 1125.58 285.5 1125.34 286.379C1125.09 287.258 1124.97 288.272 1124.97 289.42V290.158C1124.97 291.061 1125.09 291.91 1125.34 292.707C1125.6 293.492 1125.96 294.184 1126.44 294.781C1126.94 295.379 1127.53 295.848 1128.22 296.188C1128.92 296.527 1129.72 296.697 1130.61 296.697C1131.76 296.697 1132.73 296.463 1133.53 295.994C1134.33 295.526 1135.02 294.899 1135.62 294.113L1137.59 295.678C1137.18 296.299 1136.66 296.891 1136.03 297.453C1135.39 298.016 1134.61 298.473 1133.69 298.824C1132.77 299.176 1131.69 299.352 1130.44 299.352ZM1144.88 284.041V299H1141.63V279.981H1144.71L1144.88 284.041ZM1144.11 288.77L1142.76 288.717C1142.77 287.416 1142.96 286.215 1143.34 285.113C1143.71 284 1144.24 283.033 1144.92 282.213C1145.6 281.393 1146.41 280.76 1147.35 280.315C1148.29 279.858 1149.34 279.629 1150.49 279.629C1151.43 279.629 1152.27 279.758 1153.02 280.016C1153.77 280.262 1154.41 280.66 1154.94 281.211C1155.48 281.762 1155.89 282.477 1156.17 283.356C1156.45 284.223 1156.59 285.283 1156.59 286.537V299H1153.32V286.502C1153.32 285.506 1153.18 284.709 1152.88 284.111C1152.59 283.502 1152.16 283.063 1151.6 282.793C1151.04 282.512 1150.35 282.371 1149.53 282.371C1148.72 282.371 1147.98 282.541 1147.31 282.881C1146.65 283.221 1146.09 283.69 1145.61 284.287C1145.14 284.885 1144.77 285.57 1144.5 286.344C1144.24 287.106 1144.11 287.914 1144.11 288.77ZM1173.85 279.981H1176.81V298.596C1176.81 300.272 1176.47 301.701 1175.79 302.885C1175.11 304.068 1174.16 304.965 1172.94 305.574C1171.73 306.195 1170.34 306.506 1168.76 306.506C1168.1 306.506 1167.33 306.401 1166.44 306.19C1165.56 305.99 1164.69 305.645 1163.83 305.152C1162.99 304.672 1162.28 304.022 1161.71 303.201L1163.41 301.268C1164.21 302.229 1165.04 302.897 1165.91 303.272C1166.79 303.647 1167.65 303.834 1168.51 303.834C1169.54 303.834 1170.43 303.641 1171.18 303.254C1171.93 302.867 1172.51 302.293 1172.92 301.531C1173.34 300.781 1173.55 299.856 1173.55 298.754V284.164L1173.85 279.981ZM1160.76 289.701V289.332C1160.76 287.879 1160.93 286.561 1161.27 285.377C1161.62 284.182 1162.12 283.156 1162.76 282.301C1163.42 281.445 1164.21 280.789 1165.13 280.332C1166.06 279.863 1167.1 279.629 1168.26 279.629C1169.46 279.629 1170.5 279.84 1171.39 280.262C1172.29 280.672 1173.06 281.276 1173.68 282.072C1174.31 282.858 1174.81 283.807 1175.17 284.92C1175.53 286.033 1175.79 287.293 1175.93 288.699V290.317C1175.8 291.711 1175.55 292.965 1175.17 294.078C1174.81 295.192 1174.31 296.141 1173.68 296.926C1173.06 297.711 1172.29 298.315 1171.39 298.736C1170.49 299.147 1169.44 299.352 1168.23 299.352C1167.09 299.352 1166.06 299.111 1165.13 298.631C1164.22 298.151 1163.44 297.477 1162.78 296.609C1162.12 295.742 1161.62 294.723 1161.27 293.551C1160.93 292.367 1160.76 291.084 1160.76 289.701ZM1164.01 289.332V289.701C1164.01 290.651 1164.1 291.541 1164.29 292.373C1164.49 293.205 1164.79 293.938 1165.19 294.57C1165.6 295.203 1166.12 295.701 1166.75 296.065C1167.38 296.416 1168.14 296.592 1169.02 296.592C1170.1 296.592 1170.99 296.363 1171.69 295.906C1172.39 295.449 1172.95 294.846 1173.36 294.096C1173.78 293.346 1174.11 292.531 1174.35 291.652V287.416C1174.22 286.772 1174.02 286.151 1173.75 285.553C1173.49 284.943 1173.15 284.404 1172.73 283.936C1172.32 283.455 1171.81 283.074 1171.2 282.793C1170.59 282.512 1169.87 282.371 1169.05 282.371C1168.16 282.371 1167.4 282.559 1166.75 282.934C1166.12 283.297 1165.6 283.801 1165.19 284.445C1164.79 285.078 1164.49 285.817 1164.29 286.66C1164.1 287.492 1164.01 288.383 1164.01 289.332ZM1185.28 279.981V299H1182.01V279.981H1185.28ZM1181.76 274.936C1181.76 274.408 1181.92 273.963 1182.24 273.6C1182.57 273.236 1183.05 273.055 1183.68 273.055C1184.3 273.055 1184.78 273.236 1185.1 273.6C1185.44 273.963 1185.61 274.408 1185.61 274.936C1185.61 275.44 1185.44 275.873 1185.1 276.236C1184.78 276.588 1184.3 276.764 1183.68 276.764C1183.05 276.764 1182.57 276.588 1182.24 276.236C1181.92 275.873 1181.76 275.44 1181.76 274.936ZM1193.75 284.041V299H1190.5V279.981H1193.58L1193.75 284.041ZM1192.98 288.77L1191.62 288.717C1191.64 287.416 1191.83 286.215 1192.2 285.113C1192.58 284 1193.11 283.033 1193.79 282.213C1194.47 281.393 1195.28 280.76 1196.21 280.315C1197.16 279.858 1198.21 279.629 1199.36 279.629C1200.3 279.629 1201.14 279.758 1201.89 280.016C1202.64 280.262 1203.28 280.66 1203.81 281.211C1204.35 281.762 1204.76 282.477 1205.04 283.356C1205.32 284.223 1205.46 285.283 1205.46 286.537V299H1202.19V286.502C1202.19 285.506 1202.04 284.709 1201.75 284.111C1201.46 283.502 1201.03 283.063 1200.47 282.793C1199.9 282.512 1199.21 282.371 1198.39 282.371C1197.58 282.371 1196.85 282.541 1196.18 282.881C1195.52 283.221 1194.95 283.69 1194.47 284.287C1194 284.885 1193.63 285.57 1193.36 286.344C1193.11 287.106 1192.98 287.914 1192.98 288.77ZM1218.29 299.352C1216.97 299.352 1215.77 299.129 1214.69 298.684C1213.62 298.227 1212.7 297.588 1211.93 296.768C1211.17 295.947 1210.58 294.975 1210.17 293.85C1209.76 292.725 1209.55 291.494 1209.55 290.158V289.42C1209.55 287.873 1209.78 286.496 1210.24 285.289C1210.7 284.07 1211.32 283.039 1212.1 282.195C1212.89 281.352 1213.78 280.713 1214.78 280.279C1215.77 279.846 1216.8 279.629 1217.87 279.629C1219.23 279.629 1220.4 279.863 1221.38 280.332C1222.38 280.801 1223.19 281.457 1223.83 282.301C1224.46 283.133 1224.93 284.117 1225.23 285.254C1225.54 286.379 1225.69 287.609 1225.69 288.945V290.404H1211.49V287.75H1222.44V287.504C1222.39 286.66 1222.22 285.84 1221.91 285.043C1221.62 284.246 1221.15 283.59 1220.51 283.074C1219.86 282.559 1218.98 282.301 1217.87 282.301C1217.13 282.301 1216.45 282.459 1215.83 282.776C1215.21 283.08 1214.68 283.537 1214.23 284.147C1213.78 284.756 1213.44 285.5 1213.19 286.379C1212.95 287.258 1212.82 288.272 1212.82 289.42V290.158C1212.82 291.061 1212.95 291.91 1213.19 292.707C1213.45 293.492 1213.82 294.184 1214.3 294.781C1214.79 295.379 1215.38 295.848 1216.08 296.188C1216.78 296.527 1217.58 296.697 1218.47 296.697C1219.61 296.697 1220.59 296.463 1221.38 295.994C1222.18 295.526 1222.88 294.899 1223.48 294.113L1225.44 295.678C1225.03 296.299 1224.51 296.891 1223.88 297.453C1223.25 298.016 1222.47 298.473 1221.54 298.824C1220.63 299.176 1219.54 299.352 1218.29 299.352ZM1240.56 293.955C1240.56 293.486 1240.46 293.053 1240.25 292.654C1240.05 292.244 1239.63 291.875 1239 291.547C1238.38 291.207 1237.44 290.914 1236.19 290.668C1235.13 290.445 1234.18 290.182 1233.32 289.877C1232.48 289.572 1231.76 289.203 1231.16 288.77C1230.57 288.336 1230.12 287.826 1229.8 287.24C1229.49 286.654 1229.33 285.969 1229.33 285.184C1229.33 284.434 1229.49 283.725 1229.82 283.057C1230.16 282.389 1230.64 281.797 1231.25 281.281C1231.87 280.766 1232.61 280.361 1233.48 280.068C1234.35 279.776 1235.31 279.629 1236.38 279.629C1237.9 279.629 1239.2 279.899 1240.28 280.438C1241.36 280.977 1242.19 281.697 1242.76 282.6C1243.33 283.49 1243.62 284.481 1243.62 285.57H1240.37C1240.37 285.043 1240.21 284.533 1239.89 284.041C1239.59 283.537 1239.14 283.121 1238.54 282.793C1237.95 282.465 1237.23 282.301 1236.38 282.301C1235.48 282.301 1234.74 282.442 1234.18 282.723C1233.63 282.992 1233.23 283.338 1232.97 283.76C1232.72 284.182 1232.6 284.627 1232.6 285.096C1232.6 285.447 1232.66 285.764 1232.78 286.045C1232.9 286.315 1233.13 286.567 1233.44 286.801C1233.76 287.024 1234.2 287.234 1234.78 287.434C1235.35 287.633 1236.09 287.832 1236.98 288.031C1238.53 288.383 1239.82 288.805 1240.83 289.297C1241.83 289.789 1242.58 290.393 1243.08 291.108C1243.57 291.822 1243.81 292.69 1243.81 293.709C1243.81 294.541 1243.64 295.303 1243.29 295.994C1242.95 296.686 1242.45 297.283 1241.79 297.787C1241.15 298.279 1240.37 298.666 1239.47 298.947C1238.58 299.217 1237.58 299.352 1236.47 299.352C1234.79 299.352 1233.37 299.053 1232.21 298.455C1231.05 297.858 1230.17 297.084 1229.58 296.135C1228.98 295.186 1228.68 294.184 1228.68 293.129H1231.95C1232 294.02 1232.25 294.729 1232.72 295.256C1233.19 295.772 1233.77 296.141 1234.44 296.363C1235.12 296.574 1235.8 296.68 1236.47 296.68C1237.36 296.68 1238.1 296.563 1238.7 296.328C1239.31 296.094 1239.77 295.772 1240.09 295.361C1240.4 294.951 1240.56 294.483 1240.56 293.955ZM1119.96 330.77V330.594C1119.96 328.039 1120.25 325.731 1120.82 323.668C1121.39 321.594 1122.13 319.777 1123.02 318.219C1123.91 316.66 1124.85 315.371 1125.83 314.352C1126.81 313.32 1127.72 312.576 1128.55 312.119L1129.24 314.264C1128.55 314.791 1127.85 315.518 1127.13 316.443C1126.43 317.369 1125.78 318.506 1125.18 319.854C1124.59 321.201 1124.12 322.766 1123.76 324.547C1123.39 326.328 1123.21 328.332 1123.21 330.559V330.805C1123.21 333.031 1123.39 335.041 1123.76 336.834C1124.12 338.615 1124.59 340.186 1125.18 341.545C1125.78 342.904 1126.43 344.059 1127.13 345.008C1127.85 345.969 1128.55 346.731 1129.24 347.293L1128.55 349.262C1127.72 348.805 1126.81 348.061 1125.83 347.029C1124.85 346.01 1123.91 344.721 1123.02 343.162C1122.13 341.615 1121.39 339.805 1120.82 337.731C1120.25 335.656 1119.96 333.336 1119.96 330.77ZM1135.95 314V341H1132.69V314H1135.95ZM1140.31 331.701V331.297C1140.31 329.926 1140.51 328.654 1140.91 327.483C1141.31 326.299 1141.88 325.274 1142.63 324.406C1143.38 323.527 1144.29 322.848 1145.36 322.367C1146.43 321.875 1147.62 321.629 1148.94 321.629C1150.28 321.629 1151.48 321.875 1152.55 322.367C1153.63 322.848 1154.54 323.527 1155.29 324.406C1156.05 325.274 1156.63 326.299 1157.03 327.483C1157.43 328.654 1157.63 329.926 1157.63 331.297V331.701C1157.63 333.072 1157.43 334.344 1157.03 335.516C1156.63 336.688 1156.05 337.713 1155.29 338.592C1154.54 339.459 1153.63 340.139 1152.57 340.631C1151.51 341.111 1150.32 341.352 1148.98 341.352C1147.64 341.352 1146.44 341.111 1145.38 340.631C1144.31 340.139 1143.4 339.459 1142.63 338.592C1141.88 337.713 1141.31 336.688 1140.91 335.516C1140.51 334.344 1140.31 333.072 1140.31 331.701ZM1143.57 331.297V331.701C1143.57 332.651 1143.68 333.547 1143.9 334.391C1144.12 335.223 1144.46 335.961 1144.9 336.606C1145.36 337.25 1145.93 337.76 1146.61 338.135C1147.29 338.498 1148.08 338.68 1148.98 338.68C1149.87 338.68 1150.65 338.498 1151.32 338.135C1152 337.76 1152.56 337.25 1153.01 336.606C1153.45 335.961 1153.78 335.223 1154.01 334.391C1154.24 333.547 1154.36 332.651 1154.36 331.701V331.297C1154.36 330.359 1154.24 329.475 1154.01 328.643C1153.78 327.799 1153.44 327.055 1152.99 326.41C1152.54 325.754 1151.98 325.238 1151.3 324.863C1150.63 324.488 1149.85 324.301 1148.94 324.301C1148.05 324.301 1147.27 324.488 1146.59 324.863C1145.92 325.238 1145.36 325.754 1144.9 326.41C1144.46 327.055 1144.12 327.799 1143.9 328.643C1143.68 329.475 1143.57 330.359 1143.57 331.297ZM1169.32 338.68C1170.09 338.68 1170.81 338.522 1171.46 338.205C1172.12 337.889 1172.66 337.455 1173.08 336.904C1173.5 336.342 1173.74 335.703 1173.8 334.988H1176.89C1176.84 336.113 1176.45 337.162 1175.75 338.135C1175.06 339.096 1174.15 339.875 1173.03 340.473C1171.9 341.059 1170.67 341.352 1169.32 341.352C1167.89 341.352 1166.64 341.1 1165.57 340.596C1164.52 340.092 1163.64 339.401 1162.94 338.522C1162.25 337.643 1161.72 336.635 1161.37 335.498C1161.03 334.35 1160.86 333.137 1160.86 331.859V331.121C1160.86 329.844 1161.03 328.637 1161.37 327.5C1161.72 326.352 1162.25 325.338 1162.94 324.459C1163.64 323.58 1164.52 322.889 1165.57 322.385C1166.64 321.881 1167.89 321.629 1169.32 321.629C1170.81 321.629 1172.11 321.934 1173.22 322.543C1174.33 323.141 1175.21 323.961 1175.84 325.004C1176.48 326.035 1176.84 327.207 1176.89 328.52H1173.8C1173.74 327.734 1173.52 327.026 1173.13 326.393C1172.76 325.76 1172.24 325.256 1171.59 324.881C1170.94 324.494 1170.19 324.301 1169.32 324.301C1168.32 324.301 1167.48 324.5 1166.8 324.899C1166.14 325.285 1165.6 325.813 1165.2 326.481C1164.82 327.137 1164.54 327.869 1164.36 328.678C1164.2 329.475 1164.11 330.289 1164.11 331.121V331.859C1164.11 332.692 1164.2 333.512 1164.36 334.32C1164.53 335.129 1164.8 335.861 1165.19 336.518C1165.59 337.174 1166.12 337.701 1166.79 338.1C1167.47 338.486 1168.31 338.68 1169.32 338.68ZM1191.77 337.748V327.957C1191.77 327.207 1191.61 326.557 1191.31 326.006C1191.02 325.443 1190.57 325.01 1189.97 324.705C1189.37 324.401 1188.64 324.248 1187.76 324.248C1186.94 324.248 1186.22 324.389 1185.6 324.67C1184.99 324.951 1184.51 325.32 1184.15 325.777C1183.81 326.234 1183.64 326.727 1183.64 327.254H1180.39C1180.39 326.574 1180.57 325.901 1180.92 325.233C1181.27 324.565 1181.78 323.961 1182.43 323.422C1183.1 322.871 1183.9 322.438 1184.82 322.121C1185.76 321.793 1186.8 321.629 1187.95 321.629C1189.33 321.629 1190.55 321.863 1191.61 322.332C1192.67 322.801 1193.51 323.51 1194.1 324.459C1194.71 325.397 1195.02 326.574 1195.02 327.992V336.852C1195.02 337.484 1195.07 338.158 1195.18 338.873C1195.29 339.588 1195.46 340.203 1195.69 340.719V341H1192.29C1192.13 340.625 1192 340.127 1191.91 339.506C1191.81 338.873 1191.77 338.287 1191.77 337.748ZM1192.33 329.469L1192.36 331.754H1189.08C1188.15 331.754 1187.32 331.83 1186.6 331.983C1185.87 332.123 1185.26 332.34 1184.77 332.633C1184.28 332.926 1183.9 333.295 1183.64 333.74C1183.39 334.174 1183.26 334.684 1183.26 335.27C1183.26 335.867 1183.39 336.412 1183.66 336.904C1183.93 337.397 1184.34 337.789 1184.87 338.082C1185.43 338.363 1186.1 338.504 1186.9 338.504C1187.89 338.504 1188.77 338.293 1189.53 337.871C1190.29 337.449 1190.9 336.934 1191.34 336.324C1191.8 335.715 1192.05 335.123 1192.08 334.549L1193.47 336.113C1193.39 336.606 1193.17 337.151 1192.8 337.748C1192.44 338.346 1191.95 338.92 1191.34 339.471C1190.75 340.01 1190.03 340.461 1189.2 340.824C1188.38 341.176 1187.45 341.352 1186.42 341.352C1185.13 341.352 1184 341.1 1183.03 340.596C1182.07 340.092 1181.32 339.418 1180.78 338.574C1180.25 337.719 1179.99 336.764 1179.99 335.709C1179.99 334.69 1180.19 333.793 1180.59 333.02C1180.98 332.234 1181.56 331.584 1182.31 331.068C1183.06 330.541 1183.96 330.143 1185.02 329.873C1186.07 329.604 1187.25 329.469 1188.55 329.469H1192.33ZM1203.67 314V341H1200.4V314H1203.67ZM1216.95 331.701V331.297C1216.95 329.926 1217.15 328.654 1217.55 327.483C1217.95 326.299 1218.53 325.274 1219.28 324.406C1220.03 323.527 1220.93 322.848 1222 322.367C1223.07 321.875 1224.26 321.629 1225.59 321.629C1226.92 321.629 1228.12 321.875 1229.19 322.367C1230.27 322.848 1231.18 323.527 1231.93 324.406C1232.69 325.274 1233.27 326.299 1233.67 327.483C1234.07 328.654 1234.27 329.926 1234.27 331.297V331.701C1234.27 333.072 1234.07 334.344 1233.67 335.516C1233.27 336.688 1232.69 337.713 1231.93 338.592C1231.18 339.459 1230.27 340.139 1229.21 340.631C1228.15 341.111 1226.96 341.352 1225.62 341.352C1224.28 341.352 1223.08 341.111 1222.02 340.631C1220.95 340.139 1220.04 339.459 1219.28 338.592C1218.53 337.713 1217.95 336.688 1217.55 335.516C1217.15 334.344 1216.95 333.072 1216.95 331.701ZM1220.21 331.297V331.701C1220.21 332.651 1220.32 333.547 1220.54 334.391C1220.76 335.223 1221.1 335.961 1221.54 336.606C1222 337.25 1222.57 337.76 1223.25 338.135C1223.93 338.498 1224.72 338.68 1225.62 338.68C1226.51 338.68 1227.29 338.498 1227.96 338.135C1228.64 337.76 1229.2 337.25 1229.65 336.606C1230.09 335.961 1230.43 335.223 1230.65 334.391C1230.88 333.547 1231 332.651 1231 331.701V331.297C1231 330.359 1230.88 329.475 1230.65 328.643C1230.43 327.799 1230.09 327.055 1229.63 326.41C1229.18 325.754 1228.62 325.238 1227.94 324.863C1227.27 324.488 1226.49 324.301 1225.59 324.301C1224.69 324.301 1223.91 324.488 1223.23 324.863C1222.56 325.238 1222 325.754 1221.54 326.41C1221.1 327.055 1220.76 327.799 1220.54 328.643C1220.32 329.475 1220.21 330.359 1220.21 331.297ZM1241.6 324.969V341H1238.35V321.981H1241.51L1241.6 324.969ZM1247.54 321.875L1247.52 324.899C1247.25 324.84 1247 324.805 1246.75 324.793C1246.52 324.77 1246.25 324.758 1245.94 324.758C1245.19 324.758 1244.53 324.875 1243.95 325.109C1243.38 325.344 1242.89 325.672 1242.5 326.094C1242.1 326.516 1241.78 327.02 1241.55 327.606C1241.32 328.18 1241.18 328.813 1241.11 329.504L1240.19 330.031C1240.19 328.883 1240.3 327.805 1240.53 326.797C1240.76 325.789 1241.12 324.899 1241.6 324.125C1242.08 323.34 1242.69 322.731 1243.43 322.297C1244.18 321.852 1245.07 321.629 1246.1 321.629C1246.33 321.629 1246.6 321.658 1246.91 321.717C1247.21 321.764 1247.42 321.817 1247.54 321.875ZM1104.47 367.637V390.313H1101.2V363.981H1104.19L1104.47 367.637ZM1117.29 373.332V373.701C1117.29 375.084 1117.12 376.367 1116.79 377.551C1116.47 378.723 1115.99 379.742 1115.35 380.609C1114.73 381.477 1113.96 382.151 1113.05 382.631C1112.14 383.111 1111.09 383.352 1109.9 383.352C1108.7 383.352 1107.63 383.152 1106.7 382.754C1105.78 382.356 1104.99 381.776 1104.35 381.014C1103.7 380.252 1103.19 379.338 1102.8 378.272C1102.43 377.205 1102.17 376.004 1102.03 374.668V372.699C1102.17 371.293 1102.43 370.033 1102.82 368.92C1103.21 367.807 1103.72 366.858 1104.35 366.072C1104.99 365.276 1105.77 364.672 1106.69 364.262C1107.6 363.84 1108.66 363.629 1109.85 363.629C1111.05 363.629 1112.11 363.863 1113.03 364.332C1113.96 364.789 1114.74 365.445 1115.37 366.301C1116 367.156 1116.48 368.182 1116.79 369.377C1117.12 370.561 1117.29 371.879 1117.29 373.332ZM1114.02 373.701V373.332C1114.02 372.383 1113.92 371.492 1113.72 370.66C1113.52 369.817 1113.21 369.078 1112.79 368.445C1112.38 367.801 1111.85 367.297 1111.2 366.934C1110.56 366.559 1109.79 366.371 1108.9 366.371C1108.08 366.371 1107.37 366.512 1106.76 366.793C1106.16 367.074 1105.65 367.455 1105.23 367.936C1104.81 368.404 1104.46 368.943 1104.19 369.553C1103.93 370.151 1103.74 370.772 1103.61 371.416V375.969C1103.85 376.789 1104.17 377.563 1104.6 378.289C1105.02 379.004 1105.58 379.584 1106.28 380.029C1106.99 380.463 1107.87 380.68 1108.94 380.68C1109.82 380.68 1110.57 380.498 1111.2 380.135C1111.85 379.76 1112.38 379.25 1112.79 378.606C1113.21 377.961 1113.52 377.223 1113.72 376.391C1113.92 375.547 1114.02 374.651 1114.02 373.701ZM1133.07 378.606V363.981H1136.34V383H1133.23L1133.07 378.606ZM1133.69 374.598L1135.04 374.563C1135.04 375.828 1134.91 377 1134.64 378.078C1134.38 379.145 1133.96 380.07 1133.37 380.856C1132.78 381.641 1132.02 382.256 1131.07 382.701C1130.12 383.135 1128.96 383.352 1127.61 383.352C1126.68 383.352 1125.83 383.217 1125.06 382.947C1124.29 382.678 1123.64 382.262 1123.09 381.699C1122.54 381.137 1122.11 380.404 1121.8 379.502C1121.51 378.6 1121.36 377.516 1121.36 376.25V363.981H1124.62V376.285C1124.62 377.141 1124.71 377.85 1124.9 378.412C1125.1 378.963 1125.36 379.402 1125.69 379.731C1126.03 380.047 1126.4 380.27 1126.81 380.399C1127.24 380.527 1127.67 380.592 1128.11 380.592C1129.5 380.592 1130.59 380.328 1131.4 379.801C1132.21 379.262 1132.79 378.541 1133.14 377.639C1133.51 376.725 1133.69 375.711 1133.69 374.598ZM1141.28 356H1144.55V379.309L1144.27 383H1141.28V356ZM1157.4 373.332V373.701C1157.4 375.084 1157.24 376.367 1156.91 377.551C1156.58 378.723 1156.1 379.742 1155.47 380.609C1154.83 381.477 1154.06 382.151 1153.15 382.631C1152.23 383.111 1151.18 383.352 1150 383.352C1148.79 383.352 1147.73 383.147 1146.82 382.736C1145.92 382.315 1145.15 381.711 1144.53 380.926C1143.91 380.141 1143.41 379.192 1143.04 378.078C1142.68 376.965 1142.42 375.711 1142.28 374.317V372.699C1142.42 371.293 1142.68 370.033 1143.04 368.92C1143.41 367.807 1143.91 366.858 1144.53 366.072C1145.15 365.276 1145.92 364.672 1146.82 364.262C1147.72 363.84 1148.77 363.629 1149.96 363.629C1151.16 363.629 1152.22 363.863 1153.15 364.332C1154.07 364.789 1154.85 365.445 1155.47 366.301C1156.1 367.156 1156.58 368.182 1156.91 369.377C1157.24 370.561 1157.4 371.879 1157.4 373.332ZM1154.13 373.701V373.332C1154.13 372.383 1154.04 371.492 1153.87 370.66C1153.69 369.817 1153.41 369.078 1153.02 368.445C1152.64 367.801 1152.13 367.297 1151.49 366.934C1150.86 366.559 1150.08 366.371 1149.16 366.371C1148.34 366.371 1147.62 366.512 1147.01 366.793C1146.41 367.074 1145.9 367.455 1145.48 367.936C1145.06 368.404 1144.71 368.943 1144.44 369.553C1144.19 370.151 1143.99 370.772 1143.86 371.416V375.652C1144.05 376.473 1144.36 377.264 1144.78 378.026C1145.21 378.776 1145.79 379.391 1146.5 379.871C1147.23 380.352 1148.12 380.592 1149.19 380.592C1150.07 380.592 1150.82 380.416 1151.44 380.065C1152.07 379.701 1152.58 379.203 1152.97 378.57C1153.37 377.938 1153.66 377.205 1153.85 376.373C1154.04 375.541 1154.13 374.651 1154.13 373.701ZM1165.05 356V383H1161.78V356H1165.05ZM1173.8 363.981V383H1170.53V363.981H1173.8ZM1170.28 358.936C1170.28 358.408 1170.44 357.963 1170.76 357.6C1171.09 357.236 1171.57 357.055 1172.2 357.055C1172.82 357.055 1173.3 357.236 1173.62 357.6C1173.96 357.963 1174.13 358.408 1174.13 358.936C1174.13 359.44 1173.96 359.873 1173.62 360.236C1173.3 360.588 1172.82 360.764 1172.2 360.764C1171.57 360.764 1171.09 360.588 1170.76 360.236C1170.44 359.873 1170.28 359.44 1170.28 358.936ZM1190.1 377.955C1190.1 377.486 1189.99 377.053 1189.78 376.654C1189.58 376.244 1189.16 375.875 1188.53 375.547C1187.91 375.207 1186.97 374.914 1185.72 374.668C1184.66 374.445 1183.71 374.182 1182.85 373.877C1182.01 373.572 1181.29 373.203 1180.69 372.77C1180.11 372.336 1179.65 371.826 1179.34 371.24C1179.02 370.654 1178.86 369.969 1178.86 369.184C1178.86 368.434 1179.03 367.725 1179.36 367.057C1179.69 366.389 1180.17 365.797 1180.78 365.281C1181.4 364.766 1182.14 364.361 1183.01 364.068C1183.88 363.776 1184.85 363.629 1185.91 363.629C1187.44 363.629 1188.74 363.899 1189.81 364.438C1190.89 364.977 1191.72 365.697 1192.29 366.6C1192.87 367.49 1193.15 368.481 1193.15 369.57H1189.9C1189.9 369.043 1189.74 368.533 1189.43 368.041C1189.12 367.537 1188.67 367.121 1188.07 366.793C1187.49 366.465 1186.77 366.301 1185.91 366.301C1185.01 366.301 1184.28 366.442 1183.71 366.723C1183.16 366.992 1182.76 367.338 1182.5 367.76C1182.26 368.182 1182.13 368.627 1182.13 369.096C1182.13 369.447 1182.19 369.764 1182.31 370.045C1182.44 370.315 1182.66 370.567 1182.98 370.801C1183.29 371.024 1183.74 371.234 1184.31 371.434C1184.89 371.633 1185.62 371.832 1186.51 372.031C1188.07 372.383 1189.35 372.805 1190.36 373.297C1191.37 373.789 1192.12 374.393 1192.61 375.108C1193.1 375.822 1193.35 376.69 1193.35 377.709C1193.35 378.541 1193.17 379.303 1192.82 379.994C1192.48 380.686 1191.98 381.283 1191.33 381.787C1190.68 382.279 1189.91 382.666 1189.01 382.947C1188.11 383.217 1187.11 383.352 1186 383.352C1184.32 383.352 1182.91 383.053 1181.75 382.455C1180.59 381.858 1179.71 381.084 1179.11 380.135C1178.51 379.186 1178.21 378.184 1178.21 377.129H1181.48C1181.53 378.02 1181.79 378.729 1182.26 379.256C1182.72 379.772 1183.3 380.141 1183.98 380.363C1184.66 380.574 1185.33 380.68 1186 380.68C1186.89 380.68 1187.63 380.563 1188.23 380.328C1188.84 380.094 1189.3 379.772 1189.62 379.361C1189.94 378.951 1190.1 378.483 1190.1 377.955ZM1200.87 356V383H1197.62V356H1200.87ZM1200.1 372.77L1198.74 372.717C1198.76 371.416 1198.95 370.215 1199.32 369.113C1199.7 368 1200.23 367.033 1200.91 366.213C1201.59 365.393 1202.39 364.76 1203.33 364.315C1204.28 363.858 1205.33 363.629 1206.48 363.629C1207.42 363.629 1208.26 363.758 1209.01 364.016C1209.76 364.262 1210.4 364.66 1210.93 365.211C1211.46 365.762 1211.87 366.477 1212.16 367.356C1212.44 368.223 1212.58 369.283 1212.58 370.537V383H1209.31V370.502C1209.31 369.506 1209.16 368.709 1208.87 368.111C1208.58 367.502 1208.15 367.063 1207.59 366.793C1207.02 366.512 1206.33 366.371 1205.51 366.371C1204.7 366.371 1203.96 366.541 1203.3 366.881C1202.64 367.221 1202.07 367.69 1201.59 368.287C1201.12 368.885 1200.75 369.57 1200.48 370.344C1200.23 371.106 1200.1 371.914 1200.1 372.77ZM1225.34 383.352C1224.02 383.352 1222.81 383.129 1221.74 382.684C1220.67 382.227 1219.75 381.588 1218.98 380.768C1218.21 379.947 1217.63 378.975 1217.22 377.85C1216.81 376.725 1216.6 375.494 1216.6 374.158V373.42C1216.6 371.873 1216.83 370.496 1217.29 369.289C1217.75 368.07 1218.37 367.039 1219.15 366.195C1219.94 365.352 1220.83 364.713 1221.82 364.279C1222.82 363.846 1223.85 363.629 1224.92 363.629C1226.28 363.629 1227.45 363.863 1228.43 364.332C1229.43 364.801 1230.24 365.457 1230.88 366.301C1231.51 367.133 1231.98 368.117 1232.28 369.254C1232.59 370.379 1232.74 371.609 1232.74 372.945V374.404H1218.54V371.75H1229.49V371.504C1229.44 370.66 1229.27 369.84 1228.96 369.043C1228.67 368.246 1228.2 367.59 1227.55 367.074C1226.91 366.559 1226.03 366.301 1224.92 366.301C1224.18 366.301 1223.5 366.459 1222.88 366.776C1222.26 367.08 1221.72 367.537 1221.28 368.147C1220.83 368.756 1220.49 369.5 1220.24 370.379C1220 371.258 1219.87 372.272 1219.87 373.42V374.158C1219.87 375.061 1220 375.91 1220.24 376.707C1220.5 377.492 1220.87 378.184 1221.35 378.781C1221.84 379.379 1222.43 379.848 1223.12 380.188C1223.83 380.527 1224.62 380.697 1225.52 380.697C1226.66 380.697 1227.64 380.463 1228.43 379.994C1229.23 379.526 1229.93 378.899 1230.53 378.113L1232.49 379.678C1232.08 380.299 1231.56 380.891 1230.93 381.453C1230.3 382.016 1229.52 382.473 1228.59 382.824C1227.68 383.176 1226.59 383.352 1225.34 383.352ZM1248.53 379.309V356H1251.79V383H1248.81L1248.53 379.309ZM1235.73 373.701V373.332C1235.73 371.879 1235.9 370.561 1236.26 369.377C1236.62 368.182 1237.13 367.156 1237.78 366.301C1238.45 365.445 1239.24 364.789 1240.16 364.332C1241.08 363.863 1242.11 363.629 1243.25 363.629C1244.45 363.629 1245.49 363.84 1246.38 364.262C1247.28 364.672 1248.04 365.276 1248.67 366.072C1249.3 366.858 1249.8 367.807 1250.16 368.92C1250.52 370.033 1250.78 371.293 1250.92 372.699V374.317C1250.79 375.711 1250.53 376.965 1250.16 378.078C1249.8 379.192 1249.3 380.141 1248.67 380.926C1248.04 381.711 1247.28 382.315 1246.38 382.736C1245.48 383.147 1244.42 383.352 1243.22 383.352C1242.1 383.352 1241.08 383.111 1240.16 382.631C1239.24 382.151 1238.45 381.477 1237.78 380.609C1237.13 379.742 1236.62 378.723 1236.26 377.551C1235.9 376.367 1235.73 375.084 1235.73 373.701ZM1239 373.332V373.701C1239 374.651 1239.09 375.541 1239.28 376.373C1239.48 377.205 1239.78 377.938 1240.19 378.57C1240.6 379.203 1241.12 379.701 1241.76 380.065C1242.39 380.416 1243.15 380.592 1244.03 380.592C1245.1 380.592 1245.99 380.363 1246.68 379.906C1247.38 379.449 1247.94 378.846 1248.37 378.096C1248.79 377.346 1249.12 376.531 1249.35 375.652V371.416C1249.21 370.772 1249.01 370.151 1248.74 369.553C1248.48 368.943 1248.14 368.404 1247.72 367.936C1247.31 367.455 1246.8 367.074 1246.19 366.793C1245.59 366.512 1244.88 366.371 1244.06 366.371C1243.17 366.371 1242.4 366.559 1241.76 366.934C1241.12 367.297 1240.6 367.801 1240.19 368.445C1239.78 369.078 1239.48 369.817 1239.28 370.66C1239.09 371.492 1239 372.383 1239 373.332ZM1264.35 372.594V372.77C1264.35 375.336 1264.06 377.656 1263.48 379.731C1262.91 381.805 1262.18 383.615 1261.29 385.162C1260.4 386.721 1259.46 388.01 1258.47 389.029C1257.49 390.061 1256.58 390.805 1255.75 391.262L1255.06 389.293C1255.76 388.766 1256.45 388.027 1257.16 387.078C1257.86 386.141 1258.51 384.981 1259.11 383.598C1259.7 382.227 1260.19 380.645 1260.55 378.852C1260.91 377.047 1261.09 375.031 1261.09 372.805V372.559C1261.09 370.332 1260.9 368.322 1260.51 366.529C1260.13 364.725 1259.62 363.137 1259 361.766C1258.39 360.395 1257.74 359.24 1257.03 358.303C1256.34 357.354 1255.69 356.621 1255.06 356.106L1255.75 354.119C1256.58 354.576 1257.49 355.32 1258.47 356.352C1259.46 357.371 1260.4 358.66 1261.29 360.219C1262.18 361.777 1262.91 363.594 1263.48 365.668C1264.06 367.731 1264.35 370.039 1264.35 372.594Z" fill="white"/>
<path d="M1460.93 231.406H1464.21L1472.6 252.271L1480.97 231.406H1484.27L1473.86 257H1471.3L1460.93 231.406ZM1459.86 231.406H1462.76L1463.23 247.016V257H1459.86V231.406ZM1482.43 231.406H1485.33V257H1481.95V247.016L1482.43 231.406ZM1494.33 237.98V257H1491.06V237.98H1494.33ZM1490.81 232.936C1490.81 232.408 1490.97 231.963 1491.28 231.6C1491.61 231.236 1492.09 231.055 1492.73 231.055C1493.35 231.055 1493.82 231.236 1494.15 231.6C1494.49 231.963 1494.66 232.408 1494.66 232.936C1494.66 233.439 1494.49 233.873 1494.15 234.236C1493.82 234.588 1493.35 234.764 1492.73 234.764C1492.09 234.764 1491.61 234.588 1491.28 234.236C1490.97 233.873 1490.81 233.439 1490.81 232.936ZM1507.16 254.68C1507.93 254.68 1508.65 254.521 1509.3 254.205C1509.96 253.889 1510.5 253.455 1510.92 252.904C1511.34 252.342 1511.58 251.703 1511.64 250.988H1514.73C1514.68 252.113 1514.29 253.162 1513.59 254.135C1512.9 255.096 1511.99 255.875 1510.87 256.473C1509.74 257.059 1508.51 257.352 1507.16 257.352C1505.73 257.352 1504.48 257.1 1503.41 256.596C1502.36 256.092 1501.48 255.4 1500.78 254.521C1500.09 253.643 1499.56 252.635 1499.21 251.498C1498.87 250.35 1498.7 249.137 1498.7 247.859V247.121C1498.7 245.844 1498.87 244.637 1499.21 243.5C1499.56 242.352 1500.09 241.338 1500.78 240.459C1501.48 239.58 1502.36 238.889 1503.41 238.385C1504.48 237.881 1505.73 237.629 1507.16 237.629C1508.65 237.629 1509.95 237.934 1511.06 238.543C1512.17 239.141 1513.05 239.961 1513.68 241.004C1514.32 242.035 1514.68 243.207 1514.73 244.52H1511.64C1511.58 243.734 1511.36 243.025 1510.97 242.393C1510.6 241.76 1510.08 241.256 1509.43 240.881C1508.78 240.494 1508.02 240.301 1507.16 240.301C1506.16 240.301 1505.32 240.5 1504.64 240.898C1503.98 241.285 1503.44 241.812 1503.04 242.48C1502.66 243.137 1502.38 243.869 1502.2 244.678C1502.04 245.475 1501.95 246.289 1501.95 247.121V247.859C1501.95 248.691 1502.04 249.512 1502.2 250.32C1502.36 251.129 1502.64 251.861 1503.03 252.518C1503.43 253.174 1503.96 253.701 1504.63 254.1C1505.31 254.486 1506.15 254.68 1507.16 254.68ZM1521.64 240.969V257H1518.39V237.98H1521.55L1521.64 240.969ZM1527.58 237.875L1527.57 240.898C1527.3 240.84 1527.04 240.805 1526.79 240.793C1526.56 240.77 1526.29 240.758 1525.98 240.758C1525.23 240.758 1524.57 240.875 1524 241.109C1523.42 241.344 1522.94 241.672 1522.54 242.094C1522.14 242.516 1521.82 243.02 1521.59 243.605C1521.37 244.18 1521.22 244.812 1521.15 245.504L1520.24 246.031C1520.24 244.883 1520.35 243.805 1520.57 242.797C1520.8 241.789 1521.16 240.898 1521.64 240.125C1522.12 239.34 1522.73 238.73 1523.47 238.297C1524.22 237.852 1525.11 237.629 1526.14 237.629C1526.38 237.629 1526.65 237.658 1526.95 237.717C1527.26 237.764 1527.47 237.816 1527.58 237.875ZM1529.38 247.701V247.297C1529.38 245.926 1529.58 244.654 1529.97 243.482C1530.37 242.299 1530.95 241.273 1531.7 240.406C1532.45 239.527 1533.36 238.848 1534.42 238.367C1535.49 237.875 1536.68 237.629 1538.01 237.629C1539.34 237.629 1540.54 237.875 1541.61 238.367C1542.69 238.848 1543.6 239.527 1544.35 240.406C1545.11 241.273 1545.69 242.299 1546.09 243.482C1546.49 244.654 1546.69 245.926 1546.69 247.297V247.701C1546.69 249.072 1546.49 250.344 1546.09 251.516C1545.69 252.688 1545.11 253.713 1544.35 254.592C1543.6 255.459 1542.69 256.139 1541.63 256.631C1540.57 257.111 1539.38 257.352 1538.04 257.352C1536.71 257.352 1535.51 257.111 1534.44 256.631C1533.37 256.139 1532.46 255.459 1531.7 254.592C1530.95 253.713 1530.37 252.688 1529.97 251.516C1529.58 250.344 1529.38 249.072 1529.38 247.701ZM1532.63 247.297V247.701C1532.63 248.65 1532.74 249.547 1532.96 250.391C1533.19 251.223 1533.52 251.961 1533.96 252.605C1534.42 253.25 1534.99 253.76 1535.67 254.135C1536.35 254.498 1537.14 254.68 1538.04 254.68C1538.93 254.68 1539.71 254.498 1540.38 254.135C1541.06 253.76 1541.62 253.25 1542.07 252.605C1542.51 251.961 1542.85 251.223 1543.07 250.391C1543.3 249.547 1543.42 248.65 1543.42 247.701V247.297C1543.42 246.359 1543.3 245.475 1543.07 244.643C1542.85 243.799 1542.51 243.055 1542.05 242.41C1541.61 241.754 1541.04 241.238 1540.36 240.863C1539.69 240.488 1538.91 240.301 1538.01 240.301C1537.12 240.301 1536.33 240.488 1535.65 240.863C1534.98 241.238 1534.42 241.754 1533.96 242.41C1533.52 243.055 1533.19 243.799 1532.96 244.643C1532.74 245.475 1532.63 246.359 1532.63 247.297ZM1561.84 251.955C1561.84 251.486 1561.74 251.053 1561.53 250.654C1561.33 250.244 1560.91 249.875 1560.28 249.547C1559.66 249.207 1558.72 248.914 1557.47 248.668C1556.41 248.445 1555.46 248.182 1554.6 247.877C1553.76 247.572 1553.04 247.203 1552.44 246.77C1551.85 246.336 1551.4 245.826 1551.09 245.24C1550.77 244.654 1550.61 243.969 1550.61 243.184C1550.61 242.434 1550.77 241.725 1551.1 241.057C1551.44 240.389 1551.92 239.797 1552.53 239.281C1553.15 238.766 1553.89 238.361 1554.76 238.068C1555.63 237.775 1556.59 237.629 1557.66 237.629C1559.18 237.629 1560.48 237.898 1561.56 238.438C1562.64 238.977 1563.47 239.697 1564.04 240.6C1564.61 241.49 1564.9 242.48 1564.9 243.57H1561.65C1561.65 243.043 1561.49 242.533 1561.18 242.041C1560.87 241.537 1560.42 241.121 1559.82 240.793C1559.24 240.465 1558.52 240.301 1557.66 240.301C1556.76 240.301 1556.02 240.441 1555.46 240.723C1554.91 240.992 1554.51 241.338 1554.25 241.76C1554 242.182 1553.88 242.627 1553.88 243.096C1553.88 243.447 1553.94 243.764 1554.06 244.045C1554.19 244.314 1554.41 244.566 1554.72 244.801C1555.04 245.023 1555.49 245.234 1556.06 245.434C1556.63 245.633 1557.37 245.832 1558.26 246.031C1559.82 246.383 1561.1 246.805 1562.11 247.297C1563.11 247.789 1563.86 248.393 1564.36 249.107C1564.85 249.822 1565.1 250.689 1565.1 251.709C1565.1 252.541 1564.92 253.303 1564.57 253.994C1564.23 254.686 1563.73 255.283 1563.07 255.787C1562.43 256.279 1561.66 256.666 1560.75 256.947C1559.86 257.217 1558.86 257.352 1557.75 257.352C1556.07 257.352 1554.65 257.053 1553.49 256.455C1552.33 255.857 1551.45 255.084 1550.86 254.135C1550.26 253.186 1549.96 252.184 1549.96 251.129H1553.23C1553.28 252.02 1553.53 252.729 1554 253.256C1554.47 253.771 1555.05 254.141 1555.73 254.363C1556.41 254.574 1557.08 254.68 1557.75 254.68C1558.64 254.68 1559.38 254.562 1559.98 254.328C1560.59 254.094 1561.05 253.771 1561.37 253.361C1561.69 252.951 1561.84 252.482 1561.84 251.955ZM1577.26 257.352C1575.94 257.352 1574.73 257.129 1573.66 256.684C1572.59 256.227 1571.67 255.588 1570.9 254.768C1570.13 253.947 1569.55 252.975 1569.14 251.85C1568.73 250.725 1568.52 249.494 1568.52 248.158V247.42C1568.52 245.873 1568.75 244.496 1569.21 243.289C1569.67 242.07 1570.29 241.039 1571.07 240.195C1571.86 239.352 1572.75 238.713 1573.74 238.279C1574.74 237.846 1575.77 237.629 1576.84 237.629C1578.2 237.629 1579.37 237.863 1580.35 238.332C1581.35 238.801 1582.16 239.457 1582.8 240.301C1583.43 241.133 1583.9 242.117 1584.2 243.254C1584.51 244.379 1584.66 245.609 1584.66 246.945V248.404H1570.46V245.75H1581.41V245.504C1581.36 244.66 1581.19 243.84 1580.88 243.043C1580.59 242.246 1580.12 241.59 1579.47 241.074C1578.83 240.559 1577.95 240.301 1576.84 240.301C1576.1 240.301 1575.42 240.459 1574.8 240.775C1574.18 241.08 1573.64 241.537 1573.2 242.146C1572.75 242.756 1572.41 243.5 1572.16 244.379C1571.92 245.258 1571.79 246.271 1571.79 247.42V248.158C1571.79 249.061 1571.92 249.91 1572.16 250.707C1572.42 251.492 1572.79 252.184 1573.27 252.781C1573.76 253.379 1574.35 253.848 1575.04 254.188C1575.75 254.527 1576.54 254.697 1577.44 254.697C1578.58 254.697 1579.56 254.463 1580.35 253.994C1581.15 253.525 1581.85 252.898 1582.44 252.113L1584.41 253.678C1584 254.299 1583.48 254.891 1582.85 255.453C1582.22 256.016 1581.44 256.473 1580.51 256.824C1579.6 257.176 1578.51 257.352 1577.26 257.352ZM1591.71 240.969V257H1588.46V237.98H1591.62L1591.71 240.969ZM1597.65 237.875L1597.63 240.898C1597.36 240.84 1597.11 240.805 1596.86 240.793C1596.62 240.77 1596.36 240.758 1596.05 240.758C1595.3 240.758 1594.64 240.875 1594.06 241.109C1593.49 241.344 1593 241.672 1592.61 242.094C1592.21 242.516 1591.89 243.02 1591.66 243.605C1591.43 244.18 1591.29 244.812 1591.22 245.504L1590.3 246.031C1590.3 244.883 1590.41 243.805 1590.64 242.797C1590.87 241.789 1591.23 240.898 1591.71 240.125C1592.19 239.34 1592.8 238.73 1593.54 238.297C1594.29 237.852 1595.18 237.629 1596.21 237.629C1596.44 237.629 1596.71 237.658 1597.02 237.717C1597.32 237.764 1597.53 237.816 1597.65 237.875ZM1606.76 254.064L1611.96 237.98H1615.28L1608.44 257H1606.26L1606.76 254.064ZM1602.41 237.98L1607.77 254.152L1608.14 257H1605.96L1599.07 237.98H1602.41ZM1621.94 237.98V257H1618.67V237.98H1621.94ZM1618.43 232.936C1618.43 232.408 1618.59 231.963 1618.9 231.6C1619.23 231.236 1619.71 231.055 1620.34 231.055C1620.96 231.055 1621.44 231.236 1621.77 231.6C1622.11 231.963 1622.28 232.408 1622.28 232.936C1622.28 233.439 1622.11 233.873 1621.77 234.236C1621.44 234.588 1620.96 234.764 1620.34 234.764C1619.71 234.764 1619.23 234.588 1618.9 234.236C1618.59 233.873 1618.43 233.439 1618.43 232.936ZM1634.77 254.68C1635.55 254.68 1636.26 254.521 1636.92 254.205C1637.58 253.889 1638.11 253.455 1638.54 252.904C1638.96 252.342 1639.2 251.703 1639.26 250.988H1642.35C1642.29 252.113 1641.91 253.162 1641.21 254.135C1640.52 255.096 1639.61 255.875 1638.48 256.473C1637.36 257.059 1636.12 257.352 1634.77 257.352C1633.35 257.352 1632.1 257.1 1631.03 256.596C1629.98 256.092 1629.1 255.4 1628.39 254.521C1627.7 253.643 1627.18 252.635 1626.83 251.498C1626.49 250.35 1626.32 249.137 1626.32 247.859V247.121C1626.32 245.844 1626.49 244.637 1626.83 243.5C1627.18 242.352 1627.7 241.338 1628.39 240.459C1629.1 239.58 1629.98 238.889 1631.03 238.385C1632.1 237.881 1633.35 237.629 1634.77 237.629C1636.26 237.629 1637.56 237.934 1638.68 238.543C1639.79 239.141 1640.66 239.961 1641.3 241.004C1641.94 242.035 1642.29 243.207 1642.35 244.52H1639.26C1639.2 243.734 1638.98 243.025 1638.59 242.393C1638.21 241.76 1637.7 241.256 1637.04 240.881C1636.4 240.494 1635.64 240.301 1634.77 240.301C1633.78 240.301 1632.94 240.5 1632.26 240.898C1631.59 241.285 1631.06 241.812 1630.66 242.48C1630.27 243.137 1629.99 243.869 1629.82 244.678C1629.65 245.475 1629.57 246.289 1629.57 247.121V247.859C1629.57 248.691 1629.65 249.512 1629.82 250.32C1629.98 251.129 1630.26 251.861 1630.64 252.518C1631.04 253.174 1631.58 253.701 1632.24 254.1C1632.92 254.486 1633.77 254.68 1634.77 254.68ZM1653.9 257.352C1652.58 257.352 1651.37 257.129 1650.3 256.684C1649.23 256.227 1648.31 255.588 1647.54 254.768C1646.77 253.947 1646.19 252.975 1645.78 251.85C1645.37 250.725 1645.16 249.494 1645.16 248.158V247.42C1645.16 245.873 1645.39 244.496 1645.85 243.289C1646.31 242.07 1646.93 241.039 1647.71 240.195C1648.5 239.352 1649.39 238.713 1650.38 238.279C1651.38 237.846 1652.41 237.629 1653.48 237.629C1654.84 237.629 1656.01 237.863 1656.99 238.332C1657.99 238.801 1658.8 239.457 1659.44 240.301C1660.07 241.133 1660.54 242.117 1660.84 243.254C1661.15 244.379 1661.3 245.609 1661.3 246.945V248.404H1647.1V245.75H1658.05V245.504C1658 244.66 1657.83 243.84 1657.52 243.043C1657.23 242.246 1656.76 241.59 1656.11 241.074C1655.47 240.559 1654.59 240.301 1653.48 240.301C1652.74 240.301 1652.06 240.459 1651.44 240.775C1650.82 241.08 1650.28 241.537 1649.84 242.146C1649.39 242.756 1649.05 243.5 1648.8 244.379C1648.56 245.258 1648.43 246.271 1648.43 247.42V248.158C1648.43 249.061 1648.56 249.91 1648.8 250.707C1649.06 251.492 1649.43 252.184 1649.91 252.781C1650.4 253.379 1650.99 253.848 1651.69 254.188C1652.39 254.527 1653.19 254.697 1654.08 254.697C1655.22 254.697 1656.2 254.463 1656.99 253.994C1657.79 253.525 1658.49 252.898 1659.09 252.113L1661.05 253.678C1660.64 254.299 1660.12 254.891 1659.49 255.453C1658.86 256.016 1658.08 256.473 1657.15 256.824C1656.24 257.176 1655.15 257.352 1653.9 257.352ZM1676.17 251.955C1676.17 251.486 1676.07 251.053 1675.86 250.654C1675.66 250.244 1675.24 249.875 1674.61 249.547C1673.99 249.207 1673.05 248.914 1671.79 248.668C1670.74 248.445 1669.78 248.182 1668.93 247.877C1668.09 247.572 1667.36 247.203 1666.77 246.77C1666.18 246.336 1665.73 245.826 1665.41 245.24C1665.1 244.654 1664.94 243.969 1664.94 243.184C1664.94 242.434 1665.1 241.725 1665.43 241.057C1665.77 240.389 1666.25 239.797 1666.86 239.281C1667.48 238.766 1668.22 238.361 1669.09 238.068C1669.95 237.775 1670.92 237.629 1671.99 237.629C1673.51 237.629 1674.81 237.898 1675.89 238.438C1676.97 238.977 1677.79 239.697 1678.37 240.6C1678.94 241.49 1679.23 242.48 1679.23 243.57H1675.98C1675.98 243.043 1675.82 242.533 1675.5 242.041C1675.2 241.537 1674.75 241.121 1674.15 240.793C1673.56 240.465 1672.84 240.301 1671.99 240.301C1671.09 240.301 1670.35 240.441 1669.79 240.723C1669.24 240.992 1668.84 241.338 1668.58 241.76C1668.33 242.182 1668.21 242.627 1668.21 243.096C1668.21 243.447 1668.27 243.764 1668.38 244.045C1668.51 244.314 1668.74 244.566 1669.05 244.801C1669.37 245.023 1669.81 245.234 1670.39 245.434C1670.96 245.633 1671.69 245.832 1672.59 246.031C1674.14 246.383 1675.43 246.805 1676.44 247.297C1677.44 247.789 1678.19 248.393 1678.69 249.107C1679.18 249.822 1679.42 250.689 1679.42 251.709C1679.42 252.541 1679.25 253.303 1678.9 253.994C1678.56 254.686 1678.06 255.283 1677.4 255.787C1676.76 256.279 1675.98 256.666 1675.08 256.947C1674.19 257.217 1673.19 257.352 1672.08 257.352C1670.4 257.352 1668.98 257.053 1667.82 256.455C1666.66 255.857 1665.78 255.084 1665.19 254.135C1664.59 253.186 1664.29 252.184 1664.29 251.129H1667.56C1667.61 252.02 1667.86 252.729 1668.33 253.256C1668.8 253.771 1669.37 254.141 1670.05 254.363C1670.73 254.574 1671.41 254.68 1672.08 254.68C1672.97 254.68 1673.71 254.562 1674.31 254.328C1674.92 254.094 1675.38 253.771 1675.7 253.361C1676.01 252.951 1676.17 252.482 1676.17 251.955Z" fill="white"/>
<defs>
<linearGradient id="paint0_linear_104_3" x1="9.24931e-07" y1="83.6845" x2="1680.69" y2="94.1129" gradientUnits="userSpaceOnUse">
<stop stop-color="#1BE2EF"/>
<stop offset="1" stop-color="#C900FB"/>
</linearGradient>
</defs>
</svg>
