<svg width="1690" height="419" viewBox="0 0 1690 419" fill="none" xmlns="http://www.w3.org/2000/svg">
<rect y="27.4497" width="1680.7" height="166.47" fill="url(#paint0_linear_104_4)"/>
<path d="M56.6738 284H51.33L51.3652 281.24H56.6738C58.5019 281.24 60.0253 280.859 61.2441 280.098C62.4628 279.324 63.3769 278.246 63.9863 276.863C64.6074 275.469 64.9179 273.84 64.9179 271.977V270.412C64.9179 268.947 64.7421 267.646 64.3906 266.51C64.039 265.361 63.5234 264.395 62.8437 263.609C62.164 262.812 61.332 262.209 60.3476 261.799C59.3749 261.389 58.2558 261.184 56.9902 261.184H51.2245V258.406H56.9902C58.6659 258.406 60.1952 258.688 61.5781 259.25C62.9609 259.801 64.1503 260.604 65.1464 261.658C66.1542 262.701 66.9277 263.967 67.4667 265.455C68.0058 266.932 68.2753 268.596 68.2753 270.447V271.977C68.2753 273.828 68.0058 275.498 67.4667 276.986C66.9277 278.463 66.1484 279.723 65.1288 280.766C64.121 281.809 62.9023 282.611 61.4726 283.174C60.0546 283.725 58.455 284 56.6738 284ZM53.1406 258.406V284H49.748V258.406H53.1406ZM80.7734 284.352C79.4492 284.352 78.248 284.129 77.1699 283.684C76.1034 283.227 75.1835 282.588 74.4101 281.768C73.6484 280.947 73.0624 279.975 72.6523 278.85C72.2421 277.725 72.037 276.494 72.037 275.158V274.42C72.037 272.873 72.2656 271.496 72.7226 270.289C73.1796 269.07 73.8007 268.039 74.5859 267.195C75.371 266.352 76.2617 265.713 77.2577 265.279C78.2538 264.846 79.2851 264.629 80.3515 264.629C81.7109 264.629 82.8827 264.863 83.8671 265.332C84.8632 265.801 85.6777 266.457 86.3105 267.301C86.9433 268.133 87.412 269.117 87.7167 270.254C88.0214 271.379 88.1738 272.609 88.1738 273.945V275.404H73.9706V272.75H84.9218V272.504C84.8749 271.66 84.6992 270.84 84.3945 270.043C84.1015 269.246 83.6327 268.59 82.9882 268.074C82.3437 267.559 81.4648 267.301 80.3515 267.301C79.6132 267.301 78.9335 267.459 78.3124 267.775C77.6913 268.08 77.1581 268.537 76.7128 269.146C76.2675 269.756 75.9218 270.5 75.6757 271.379C75.4296 272.258 75.3066 273.271 75.3066 274.42V275.158C75.3066 276.061 75.4296 276.91 75.6757 277.707C75.9335 278.492 76.3027 279.184 76.7831 279.781C77.2753 280.379 77.8671 280.848 78.5585 281.188C79.2617 281.527 80.0585 281.697 80.9492 281.697C82.0976 281.697 83.0702 281.463 83.8671 280.994C84.664 280.525 85.3613 279.898 85.9589 279.113L87.9277 280.678C87.5175 281.299 86.996 281.891 86.3632 282.453C85.7304 283.016 84.9511 283.473 84.0253 283.824C83.1113 284.176 82.0273 284.352 80.7734 284.352ZM96.8222 284H93.5702V262.977C93.5702 261.605 93.8163 260.451 94.3085 259.514C94.8124 258.564 95.5331 257.85 96.4706 257.369C97.4081 256.877 98.5214 256.631 99.8105 256.631C100.185 256.631 100.56 256.654 100.935 256.701C101.322 256.748 101.697 256.818 102.06 256.912L101.885 259.566C101.639 259.508 101.357 259.467 101.041 259.443C100.736 259.42 100.432 259.408 100.127 259.408C99.4355 259.408 98.8378 259.549 98.3339 259.83C97.8417 260.1 97.4667 260.498 97.2089 261.025C96.9511 261.553 96.8222 262.203 96.8222 262.977V284ZM100.865 264.98V267.477H90.5644V264.98H100.865ZM115.701 280.748V270.957C115.701 270.207 115.549 269.557 115.244 269.006C114.951 268.443 114.506 268.01 113.908 267.705C113.31 267.4 112.572 267.248 111.693 267.248C110.873 267.248 110.152 267.389 109.531 267.67C108.922 267.951 108.441 268.32 108.09 268.777C107.75 269.234 107.58 269.727 107.58 270.254H104.328C104.328 269.574 104.504 268.9 104.855 268.232C105.207 267.564 105.711 266.961 106.367 266.422C107.035 265.871 107.832 265.438 108.758 265.121C109.695 264.793 110.738 264.629 111.887 264.629C113.269 264.629 114.488 264.863 115.543 265.332C116.609 265.801 117.441 266.51 118.039 267.459C118.648 268.396 118.953 269.574 118.953 270.992V279.852C118.953 280.484 119.006 281.158 119.111 281.873C119.228 282.588 119.398 283.203 119.621 283.719V284H116.228C116.064 283.625 115.935 283.127 115.842 282.506C115.748 281.873 115.701 281.287 115.701 280.748ZM116.264 272.469L116.299 274.754H113.012C112.086 274.754 111.26 274.83 110.533 274.982C109.807 275.123 109.197 275.34 108.705 275.633C108.213 275.926 107.838 276.295 107.58 276.74C107.322 277.174 107.193 277.684 107.193 278.27C107.193 278.867 107.328 279.412 107.598 279.904C107.867 280.396 108.271 280.789 108.81 281.082C109.361 281.363 110.035 281.504 110.832 281.504C111.828 281.504 112.707 281.293 113.469 280.871C114.23 280.449 114.834 279.934 115.279 279.324C115.736 278.715 115.982 278.123 116.018 277.549L117.406 279.113C117.324 279.605 117.101 280.15 116.738 280.748C116.375 281.346 115.889 281.92 115.279 282.471C114.682 283.01 113.967 283.461 113.135 283.824C112.314 284.176 111.389 284.352 110.357 284.352C109.068 284.352 107.937 284.1 106.965 283.596C106.004 283.092 105.254 282.418 104.715 281.574C104.187 280.719 103.924 279.764 103.924 278.709C103.924 277.689 104.123 276.793 104.521 276.02C104.92 275.234 105.494 274.584 106.244 274.068C106.994 273.541 107.896 273.143 108.951 272.873C110.006 272.604 111.184 272.469 112.484 272.469H116.264ZM135.705 279.605V264.98H138.975V284H135.863L135.705 279.605ZM136.32 275.598L137.674 275.562C137.674 276.828 137.539 278 137.269 279.078C137.012 280.145 136.59 281.07 136.004 281.855C135.418 282.641 134.65 283.256 133.701 283.701C132.752 284.135 131.598 284.352 130.238 284.352C129.312 284.352 128.463 284.217 127.689 283.947C126.928 283.678 126.271 283.262 125.721 282.699C125.17 282.137 124.742 281.404 124.437 280.502C124.144 279.6 123.998 278.516 123.998 277.25V264.98H127.25V277.285C127.25 278.141 127.344 278.85 127.531 279.412C127.73 279.963 127.994 280.402 128.322 280.73C128.662 281.047 129.037 281.27 129.447 281.398C129.869 281.527 130.303 281.592 130.748 281.592C132.131 281.592 133.226 281.328 134.035 280.801C134.844 280.262 135.424 279.541 135.775 278.639C136.139 277.725 136.32 276.711 136.32 275.598ZM147.465 257V284H144.195V257H147.465ZM160.648 264.98V267.477H150.365V264.98H160.648ZM153.846 260.357H157.098V279.289C157.098 279.934 157.197 280.42 157.396 280.748C157.596 281.076 157.853 281.293 158.17 281.398C158.486 281.504 158.826 281.557 159.189 281.557C159.459 281.557 159.74 281.533 160.033 281.486C160.338 281.428 160.566 281.381 160.719 281.346L160.736 284C160.478 284.082 160.139 284.158 159.717 284.229C159.307 284.311 158.809 284.352 158.223 284.352C157.426 284.352 156.693 284.193 156.025 283.877C155.357 283.561 154.824 283.033 154.426 282.295C154.039 281.545 153.846 280.537 153.846 279.271V260.357ZM72.8808 300.406H81.3534C83.2753 300.406 84.8984 300.699 86.2226 301.285C87.5585 301.871 88.5722 302.738 89.2636 303.887C89.9667 305.023 90.3183 306.424 90.3183 308.088C90.3183 309.26 90.0781 310.332 89.5976 311.305C89.1288 312.266 88.4492 313.086 87.5585 313.766C86.6796 314.434 85.6249 314.932 84.3945 315.26L83.4452 315.629H75.4824L75.4472 312.869H81.4589C82.6777 312.869 83.6913 312.658 84.4999 312.236C85.3085 311.803 85.9179 311.223 86.3281 310.496C86.7382 309.77 86.9433 308.967 86.9433 308.088C86.9433 307.104 86.7499 306.242 86.3632 305.504C85.9765 304.766 85.3671 304.197 84.5351 303.799C83.7148 303.389 82.6542 303.184 81.3534 303.184H76.2734V326H72.8808V300.406ZM87.8398 326L81.6171 314.398L85.1503 314.381L91.4609 325.789V326H87.8398ZM105.787 322.748V312.957C105.787 312.207 105.635 311.557 105.33 311.006C105.037 310.443 104.592 310.01 103.994 309.705C103.396 309.4 102.658 309.248 101.779 309.248C100.959 309.248 100.238 309.389 99.6171 309.67C99.0077 309.951 98.5273 310.32 98.1757 310.777C97.8359 311.234 97.6659 311.727 97.6659 312.254H94.414C94.414 311.574 94.5898 310.9 94.9413 310.232C95.2929 309.564 95.7968 308.961 96.4531 308.422C97.121 307.871 97.9179 307.438 98.8437 307.121C99.7812 306.793 100.824 306.629 101.973 306.629C103.355 306.629 104.574 306.863 105.629 307.332C106.695 307.801 107.527 308.51 108.125 309.459C108.734 310.396 109.039 311.574 109.039 312.992V321.852C109.039 322.484 109.092 323.158 109.197 323.873C109.314 324.588 109.484 325.203 109.707 325.719V326H106.314C106.15 325.625 106.021 325.127 105.928 324.506C105.834 323.873 105.787 323.287 105.787 322.748ZM106.35 314.469L106.385 316.754H103.098C102.172 316.754 101.346 316.83 100.619 316.982C99.8925 317.123 99.2831 317.34 98.7909 317.633C98.2988 317.926 97.9238 318.295 97.6659 318.74C97.4081 319.174 97.2792 319.684 97.2792 320.27C97.2792 320.867 97.414 321.412 97.6835 321.904C97.9531 322.396 98.3574 322.789 98.8964 323.082C99.4472 323.363 100.121 323.504 100.918 323.504C101.914 323.504 102.793 323.293 103.555 322.871C104.316 322.449 104.92 321.934 105.365 321.324C105.822 320.715 106.068 320.123 106.103 319.549L107.492 321.113C107.41 321.605 107.187 322.15 106.824 322.748C106.461 323.346 105.975 323.92 105.365 324.471C104.768 325.01 104.053 325.461 103.221 325.824C102.4 326.176 101.475 326.352 100.443 326.352C99.1542 326.352 98.0234 326.1 97.0507 325.596C96.0898 325.092 95.3398 324.418 94.8007 323.574C94.2734 322.719 94.0097 321.764 94.0097 320.709C94.0097 319.689 94.2089 318.793 94.6074 318.02C95.0058 317.234 95.58 316.584 96.33 316.068C97.08 315.541 97.9824 315.143 99.037 314.873C100.092 314.604 101.269 314.469 102.57 314.469H106.35ZM117.687 306.98V326H114.418V306.98H117.687ZM114.172 301.936C114.172 301.408 114.33 300.963 114.646 300.6C114.975 300.236 115.455 300.055 116.088 300.055C116.709 300.055 117.184 300.236 117.512 300.6C117.851 300.963 118.021 301.408 118.021 301.936C118.021 302.439 117.851 302.873 117.512 303.236C117.184 303.588 116.709 303.764 116.088 303.764C115.455 303.764 114.975 303.588 114.646 303.236C114.33 302.873 114.172 302.439 114.172 301.936ZM126.441 299V326H123.172V299H126.441ZM142.736 320.955C142.736 320.486 142.631 320.053 142.42 319.654C142.221 319.244 141.805 318.875 141.172 318.547C140.551 318.207 139.613 317.914 138.359 317.668C137.305 317.445 136.35 317.182 135.494 316.877C134.65 316.572 133.93 316.203 133.332 315.77C132.746 315.336 132.295 314.826 131.978 314.24C131.662 313.654 131.504 312.969 131.504 312.184C131.504 311.434 131.668 310.725 131.996 310.057C132.336 309.389 132.81 308.797 133.42 308.281C134.041 307.766 134.785 307.361 135.652 307.068C136.519 306.775 137.486 306.629 138.553 306.629C140.076 306.629 141.377 306.898 142.455 307.438C143.533 307.977 144.359 308.697 144.934 309.6C145.508 310.49 145.795 311.48 145.795 312.57H142.543C142.543 312.043 142.385 311.533 142.068 311.041C141.764 310.537 141.312 310.121 140.715 309.793C140.129 309.465 139.408 309.301 138.553 309.301C137.65 309.301 136.918 309.441 136.355 309.723C135.805 309.992 135.4 310.338 135.143 310.76C134.896 311.182 134.773 311.627 134.773 312.096C134.773 312.447 134.832 312.764 134.949 313.045C135.078 313.314 135.301 313.566 135.617 313.801C135.934 314.023 136.379 314.234 136.953 314.434C137.527 314.633 138.26 314.832 139.15 315.031C140.709 315.383 141.992 315.805 143 316.297C144.008 316.789 144.758 317.393 145.25 318.107C145.742 318.822 145.988 319.689 145.988 320.709C145.988 321.541 145.812 322.303 145.461 322.994C145.121 323.686 144.623 324.283 143.967 324.787C143.322 325.279 142.549 325.666 141.646 325.947C140.756 326.217 139.754 326.352 138.641 326.352C136.965 326.352 135.547 326.053 134.387 325.455C133.227 324.857 132.348 324.084 131.75 323.135C131.152 322.186 130.853 321.184 130.853 320.129H134.123C134.17 321.02 134.428 321.729 134.896 322.256C135.365 322.771 135.939 323.141 136.619 323.363C137.299 323.574 137.973 323.68 138.641 323.68C139.531 323.68 140.275 323.562 140.873 323.328C141.482 323.094 141.945 322.771 142.262 322.361C142.578 321.951 142.736 321.482 142.736 320.955ZM26.9667 364.748V354.957C26.9667 354.207 26.8144 353.557 26.5097 353.006C26.2167 352.443 25.7714 352.01 25.1738 351.705C24.5761 351.4 23.8378 351.248 22.9589 351.248C22.1386 351.248 21.4179 351.389 20.7968 351.67C20.1874 351.951 19.707 352.32 19.3554 352.777C19.0156 353.234 18.8456 353.727 18.8456 354.254H15.5937C15.5937 353.574 15.7695 352.9 16.121 352.232C16.4726 351.564 16.9765 350.961 17.6327 350.422C18.3007 349.871 19.0976 349.438 20.0234 349.121C20.9609 348.793 22.0038 348.629 23.1523 348.629C24.5351 348.629 25.7538 348.863 26.8085 349.332C27.8749 349.801 28.707 350.51 29.3046 351.459C29.914 352.396 30.2187 353.574 30.2187 354.992V363.852C30.2187 364.484 30.2714 365.158 30.3769 365.873C30.4941 366.588 30.664 367.203 30.8867 367.719V368H27.4941C27.33 367.625 27.2011 367.127 27.1074 366.506C27.0136 365.873 26.9667 365.287 26.9667 364.748ZM27.5292 356.469L27.5644 358.754H24.2773C23.3515 358.754 22.5253 358.83 21.7988 358.982C21.0722 359.123 20.4628 359.34 19.9706 359.633C19.4784 359.926 19.1034 360.295 18.8456 360.74C18.5878 361.174 18.4589 361.684 18.4589 362.27C18.4589 362.867 18.5937 363.412 18.8632 363.904C19.1327 364.396 19.537 364.789 20.0761 365.082C20.6269 365.363 21.3007 365.504 22.0976 365.504C23.0937 365.504 23.9726 365.293 24.7343 364.871C25.496 364.449 26.0995 363.934 26.5449 363.324C27.0019 362.715 27.248 362.123 27.2831 361.549L28.6718 363.113C28.5898 363.605 28.3671 364.15 28.0038 364.748C27.6406 365.346 27.1542 365.92 26.5449 366.471C25.9472 367.01 25.2324 367.461 24.4003 367.824C23.58 368.176 22.6542 368.352 21.623 368.352C20.3339 368.352 19.2031 368.1 18.2304 367.596C17.2695 367.092 16.5195 366.418 15.9804 365.574C15.4531 364.719 15.1894 363.764 15.1894 362.709C15.1894 361.689 15.3886 360.793 15.787 360.02C16.1855 359.234 16.7597 358.584 17.5097 358.068C18.2597 357.541 19.162 357.143 20.2167 356.873C21.2714 356.604 22.4492 356.469 23.7499 356.469H27.5292ZM38.5859 351.969V368H35.3339V348.98H38.498L38.5859 351.969ZM44.5273 348.875L44.5097 351.898C44.2402 351.84 43.9824 351.805 43.7363 351.793C43.5019 351.77 43.2324 351.758 42.9277 351.758C42.1777 351.758 41.5156 351.875 40.9413 352.109C40.3671 352.344 39.8808 352.672 39.4824 353.094C39.0839 353.516 38.7675 354.02 38.5331 354.605C38.3105 355.18 38.164 355.812 38.0937 356.504L37.1796 357.031C37.1796 355.883 37.2909 354.805 37.5136 353.797C37.748 352.789 38.1054 351.898 38.5859 351.125C39.0663 350.34 39.6757 349.73 40.414 349.297C41.164 348.852 42.0546 348.629 43.0859 348.629C43.3202 348.629 43.5898 348.658 43.8945 348.717C44.1992 348.764 44.4101 348.816 44.5273 348.875ZM54.7929 365.68C55.5663 365.68 56.2812 365.521 56.9374 365.205C57.5937 364.889 58.1327 364.455 58.5546 363.904C58.9765 363.342 59.2167 362.703 59.2753 361.988H62.3691C62.3105 363.113 61.9296 364.162 61.2265 365.135C60.5351 366.096 59.6269 366.875 58.5019 367.473C57.3769 368.059 56.1406 368.352 54.7929 368.352C53.3632 368.352 52.1152 368.1 51.0488 367.596C49.9941 367.092 49.1152 366.4 48.412 365.521C47.7206 364.643 47.1992 363.635 46.8476 362.498C46.5077 361.35 46.3378 360.137 46.3378 358.859V358.121C46.3378 356.844 46.5077 355.637 46.8476 354.5C47.1992 353.352 47.7206 352.338 48.412 351.459C49.1152 350.58 49.9941 349.889 51.0488 349.385C52.1152 348.881 53.3632 348.629 54.7929 348.629C56.2812 348.629 57.582 348.934 58.6952 349.543C59.8085 350.141 60.6816 350.961 61.3144 352.004C61.9589 353.035 62.3105 354.207 62.3691 355.52H59.2753C59.2167 354.734 58.9941 354.025 58.6074 353.393C58.2324 352.76 57.7167 352.256 57.0605 351.881C56.4159 351.494 55.6601 351.301 54.7929 351.301C53.7968 351.301 52.9589 351.5 52.2792 351.898C51.6113 352.285 51.0781 352.812 50.6796 353.48C50.2929 354.137 50.0117 354.869 49.8359 355.678C49.6718 356.475 49.5898 357.289 49.5898 358.121V358.859C49.5898 359.691 49.6718 360.512 49.8359 361.32C49.9999 362.129 50.2753 362.861 50.662 363.518C51.0605 364.174 51.5937 364.701 52.2617 365.1C52.9413 365.486 53.7851 365.68 54.7929 365.68ZM69.2773 341V368H66.0253V341H69.2773ZM68.5038 357.77L67.1503 357.717C67.162 356.416 67.3554 355.215 67.7304 354.113C68.1054 353 68.6327 352.033 69.3124 351.213C69.9921 350.393 70.8007 349.76 71.7382 349.314C72.6874 348.857 73.7363 348.629 74.8847 348.629C75.8222 348.629 76.6659 348.758 77.4159 349.016C78.1659 349.262 78.8046 349.66 79.332 350.211C79.871 350.762 80.2812 351.477 80.5624 352.355C80.8437 353.223 80.9843 354.283 80.9843 355.537V368H77.7148V355.502C77.7148 354.506 77.5683 353.709 77.2753 353.111C76.9824 352.502 76.5546 352.062 75.9921 351.793C75.4296 351.512 74.7382 351.371 73.9179 351.371C73.1093 351.371 72.371 351.541 71.7031 351.881C71.0468 352.221 70.4784 352.689 69.998 353.287C69.5292 353.885 69.1601 354.57 68.8906 355.344C68.6327 356.105 68.5038 356.914 68.5038 357.77ZM89.3867 348.98V368H86.1171V348.98H89.3867ZM85.871 343.936C85.871 343.408 86.0292 342.963 86.3456 342.6C86.6738 342.236 87.1542 342.055 87.787 342.055C88.4081 342.055 88.8827 342.236 89.2109 342.6C89.5507 342.963 89.7206 343.408 89.7206 343.936C89.7206 344.439 89.5507 344.873 89.2109 345.236C88.8827 345.588 88.4081 345.764 87.787 345.764C87.1542 345.764 86.6738 345.588 86.3456 345.236C86.0292 344.873 85.871 344.439 85.871 343.936ZM102.57 348.98V351.477H92.287V348.98H102.57ZM95.7675 344.357H99.0195V363.289C99.0195 363.934 99.1191 364.42 99.3183 364.748C99.5175 365.076 99.7753 365.293 100.092 365.398C100.408 365.504 100.748 365.557 101.111 365.557C101.381 365.557 101.662 365.533 101.955 365.486C102.26 365.428 102.488 365.381 102.641 365.346L102.658 368C102.4 368.082 102.06 368.158 101.639 368.229C101.228 368.311 100.73 368.352 100.144 368.352C99.3476 368.352 98.6152 368.193 97.9472 367.877C97.2792 367.561 96.746 367.033 96.3476 366.295C95.9609 365.545 95.7675 364.537 95.7675 363.271V344.357ZM114.277 368.352C112.953 368.352 111.752 368.129 110.674 367.684C109.607 367.227 108.687 366.588 107.914 365.768C107.152 364.947 106.566 363.975 106.156 362.85C105.746 361.725 105.541 360.494 105.541 359.158V358.42C105.541 356.873 105.769 355.496 106.226 354.289C106.684 353.07 107.305 352.039 108.09 351.195C108.875 350.352 109.766 349.713 110.762 349.279C111.758 348.846 112.789 348.629 113.855 348.629C115.215 348.629 116.387 348.863 117.371 349.332C118.367 349.801 119.182 350.457 119.814 351.301C120.447 352.133 120.916 353.117 121.221 354.254C121.525 355.379 121.678 356.609 121.678 357.945V359.404H107.475V356.75H118.426V356.504C118.379 355.66 118.203 354.84 117.898 354.043C117.605 353.246 117.137 352.59 116.492 352.074C115.848 351.559 114.969 351.301 113.855 351.301C113.117 351.301 112.437 351.459 111.816 351.775C111.195 352.08 110.662 352.537 110.217 353.146C109.771 353.756 109.426 354.5 109.18 355.379C108.934 356.258 108.81 357.271 108.81 358.42V359.158C108.81 360.061 108.934 360.91 109.18 361.707C109.437 362.492 109.807 363.184 110.287 363.781C110.779 364.379 111.371 364.848 112.062 365.188C112.766 365.527 113.562 365.697 114.453 365.697C115.601 365.697 116.574 365.463 117.371 364.994C118.168 364.525 118.865 363.898 119.463 363.113L121.432 364.678C121.021 365.299 120.5 365.891 119.867 366.453C119.234 367.016 118.455 367.473 117.529 367.824C116.615 368.176 115.531 368.352 114.277 368.352ZM133.086 365.68C133.859 365.68 134.574 365.521 135.23 365.205C135.887 364.889 136.426 364.455 136.848 363.904C137.269 363.342 137.51 362.703 137.568 361.988H140.662C140.603 363.113 140.223 364.162 139.519 365.135C138.828 366.096 137.92 366.875 136.795 367.473C135.67 368.059 134.434 368.352 133.086 368.352C131.656 368.352 130.408 368.1 129.342 367.596C128.287 367.092 127.408 366.4 126.705 365.521C126.014 364.643 125.492 363.635 125.141 362.498C124.801 361.35 124.631 360.137 124.631 358.859V358.121C124.631 356.844 124.801 355.637 125.141 354.5C125.492 353.352 126.014 352.338 126.705 351.459C127.408 350.58 128.287 349.889 129.342 349.385C130.408 348.881 131.656 348.629 133.086 348.629C134.574 348.629 135.875 348.934 136.988 349.543C138.101 350.141 138.975 350.961 139.607 352.004C140.252 353.035 140.603 354.207 140.662 355.52H137.568C137.51 354.734 137.287 354.025 136.9 353.393C136.525 352.76 136.01 352.256 135.353 351.881C134.709 351.494 133.953 351.301 133.086 351.301C132.09 351.301 131.252 351.5 130.572 351.898C129.904 352.285 129.371 352.812 128.973 353.48C128.586 354.137 128.305 354.869 128.129 355.678C127.965 356.475 127.883 357.289 127.883 358.121V358.859C127.883 359.691 127.965 360.512 128.129 361.32C128.293 362.129 128.568 362.861 128.955 363.518C129.353 364.174 129.887 364.701 130.555 365.1C131.234 365.486 132.078 365.68 133.086 365.68ZM152.281 348.98V351.477H141.998V348.98H152.281ZM145.478 344.357H148.73V363.289C148.73 363.934 148.83 364.42 149.029 364.748C149.228 365.076 149.486 365.293 149.803 365.398C150.119 365.504 150.459 365.557 150.822 365.557C151.092 365.557 151.373 365.533 151.666 365.486C151.971 365.428 152.199 365.381 152.352 365.346L152.369 368C152.111 368.082 151.771 368.158 151.35 368.229C150.939 368.311 150.441 368.352 149.855 368.352C149.059 368.352 148.326 368.193 147.658 367.877C146.99 367.561 146.457 367.033 146.059 366.295C145.672 365.545 145.478 364.537 145.478 363.271V344.357ZM167.732 363.605V348.98H171.002V368H167.891L167.732 363.605ZM168.348 359.598L169.701 359.562C169.701 360.828 169.566 362 169.297 363.078C169.039 364.145 168.617 365.07 168.031 365.855C167.445 366.641 166.678 367.256 165.728 367.701C164.779 368.135 163.625 368.352 162.266 368.352C161.34 368.352 160.49 368.217 159.717 367.947C158.955 367.678 158.299 367.262 157.748 366.699C157.197 366.137 156.769 365.404 156.465 364.502C156.172 363.6 156.025 362.516 156.025 361.25V348.98H159.277V361.285C159.277 362.141 159.371 362.85 159.559 363.412C159.758 363.963 160.021 364.402 160.35 364.73C160.689 365.047 161.064 365.27 161.475 365.398C161.896 365.527 162.33 365.592 162.775 365.592C164.158 365.592 165.254 365.328 166.062 364.801C166.871 364.262 167.451 363.541 167.803 362.639C168.166 361.725 168.348 360.711 168.348 359.598ZM179.211 351.969V368H175.959V348.98H179.123L179.211 351.969ZM185.152 348.875L185.135 351.898C184.865 351.84 184.607 351.805 184.361 351.793C184.127 351.77 183.857 351.758 183.553 351.758C182.803 351.758 182.141 351.875 181.566 352.109C180.992 352.344 180.506 352.672 180.107 353.094C179.709 353.516 179.393 354.02 179.158 354.605C178.935 355.18 178.789 355.812 178.719 356.504L177.805 357.031C177.805 355.883 177.916 354.805 178.139 353.797C178.373 352.789 178.73 351.898 179.211 351.125C179.691 350.34 180.301 349.73 181.039 349.297C181.789 348.852 182.68 348.629 183.711 348.629C183.945 348.629 184.215 348.658 184.519 348.717C184.824 348.764 185.035 348.816 185.152 348.875ZM195.699 368.352C194.375 368.352 193.174 368.129 192.096 367.684C191.029 367.227 190.109 366.588 189.336 365.768C188.574 364.947 187.988 363.975 187.578 362.85C187.168 361.725 186.963 360.494 186.963 359.158V358.42C186.963 356.873 187.191 355.496 187.648 354.289C188.105 353.07 188.727 352.039 189.512 351.195C190.297 350.352 191.187 349.713 192.184 349.279C193.18 348.846 194.211 348.629 195.277 348.629C196.637 348.629 197.809 348.863 198.793 349.332C199.789 349.801 200.603 350.457 201.236 351.301C201.869 352.133 202.338 353.117 202.643 354.254C202.947 355.379 203.1 356.609 203.1 357.945V359.404H188.896V356.75H199.848V356.504C199.801 355.66 199.625 354.84 199.32 354.043C199.027 353.246 198.559 352.59 197.914 352.074C197.269 351.559 196.391 351.301 195.277 351.301C194.539 351.301 193.859 351.459 193.238 351.775C192.617 352.08 192.084 352.537 191.639 353.146C191.193 353.756 190.848 354.5 190.602 355.379C190.355 356.258 190.232 357.271 190.232 358.42V359.158C190.232 360.061 190.355 360.91 190.602 361.707C190.859 362.492 191.228 363.184 191.709 363.781C192.201 364.379 192.793 364.848 193.484 365.188C194.187 365.527 194.984 365.697 195.875 365.697C197.023 365.697 197.996 365.463 198.793 364.994C199.59 364.525 200.287 363.898 200.885 363.113L202.853 364.678C202.443 365.299 201.922 365.891 201.289 366.453C200.656 367.016 199.877 367.473 198.951 367.824C198.037 368.176 196.953 368.352 195.699 368.352Z" fill="white"/>
<path d="M1146.87 258.406H1155.34C1157.27 258.406 1158.89 258.699 1160.21 259.285C1161.55 259.871 1162.56 260.738 1163.25 261.887C1163.96 263.024 1164.31 264.424 1164.31 266.088C1164.31 267.26 1164.07 268.332 1163.59 269.305C1163.12 270.266 1162.44 271.086 1161.55 271.766C1160.67 272.434 1159.61 272.932 1158.38 273.26L1157.44 273.629H1149.47L1149.44 270.869H1155.45C1156.67 270.869 1157.68 270.658 1158.49 270.236C1159.3 269.803 1159.91 269.223 1160.32 268.496C1160.73 267.77 1160.93 266.967 1160.93 266.088C1160.93 265.104 1160.74 264.242 1160.35 263.504C1159.97 262.766 1159.36 262.197 1158.53 261.799C1157.7 261.389 1156.64 261.184 1155.34 261.184H1150.26V284H1146.87V258.406ZM1161.83 284L1155.61 272.399L1159.14 272.381L1165.45 283.789V284H1161.83ZM1179.78 280.748V270.957C1179.78 270.207 1179.62 269.557 1179.32 269.006C1179.03 268.443 1178.58 268.01 1177.98 267.705C1177.39 267.401 1176.65 267.248 1175.77 267.248C1174.95 267.248 1174.23 267.389 1173.61 267.67C1173 267.951 1172.52 268.32 1172.17 268.777C1171.83 269.234 1171.66 269.727 1171.66 270.254H1168.4C1168.4 269.574 1168.58 268.901 1168.93 268.233C1169.28 267.565 1169.79 266.961 1170.44 266.422C1171.11 265.871 1171.91 265.438 1172.83 265.121C1173.77 264.793 1174.81 264.629 1175.96 264.629C1177.35 264.629 1178.56 264.863 1179.62 265.332C1180.69 265.801 1181.52 266.51 1182.11 267.459C1182.72 268.397 1183.03 269.574 1183.03 270.992V279.852C1183.03 280.484 1183.08 281.158 1183.19 281.873C1183.3 282.588 1183.47 283.203 1183.7 283.719V284H1180.3C1180.14 283.625 1180.01 283.127 1179.92 282.506C1179.82 281.873 1179.78 281.287 1179.78 280.748ZM1180.34 272.469L1180.37 274.754H1177.09C1176.16 274.754 1175.34 274.83 1174.61 274.983C1173.88 275.123 1173.27 275.34 1172.78 275.633C1172.29 275.926 1171.91 276.295 1171.66 276.74C1171.4 277.174 1171.27 277.684 1171.27 278.27C1171.27 278.867 1171.4 279.412 1171.67 279.904C1171.94 280.397 1172.35 280.789 1172.89 281.082C1173.44 281.363 1174.11 281.504 1174.91 281.504C1175.9 281.504 1176.78 281.293 1177.54 280.871C1178.31 280.449 1178.91 279.934 1179.36 279.324C1179.81 278.715 1180.06 278.123 1180.09 277.549L1181.48 279.113C1181.4 279.606 1181.18 280.151 1180.81 280.748C1180.45 281.346 1179.96 281.92 1179.36 282.471C1178.76 283.01 1178.04 283.461 1177.21 283.824C1176.39 284.176 1175.46 284.352 1174.43 284.352C1173.14 284.352 1172.01 284.1 1171.04 283.596C1170.08 283.092 1169.33 282.418 1168.79 281.574C1168.26 280.719 1168 279.764 1168 278.709C1168 277.69 1168.2 276.793 1168.6 276.02C1169 275.234 1169.57 274.584 1170.32 274.068C1171.07 273.541 1171.97 273.143 1173.03 272.873C1174.08 272.604 1175.26 272.469 1176.56 272.469H1180.34ZM1191.68 264.981V284H1188.41V264.981H1191.68ZM1188.16 259.936C1188.16 259.408 1188.32 258.963 1188.64 258.6C1188.96 258.236 1189.44 258.055 1190.08 258.055C1190.7 258.055 1191.17 258.236 1191.5 258.6C1191.84 258.963 1192.01 259.408 1192.01 259.936C1192.01 260.44 1191.84 260.873 1191.5 261.236C1191.17 261.588 1190.7 261.764 1190.08 261.764C1189.44 261.764 1188.96 261.588 1188.64 261.236C1188.32 260.873 1188.16 260.44 1188.16 259.936ZM1200.43 257V284H1197.16V257H1200.43ZM1216.73 278.955C1216.73 278.486 1216.62 278.053 1216.41 277.654C1216.21 277.244 1215.79 276.875 1215.16 276.547C1214.54 276.207 1213.6 275.914 1212.35 275.668C1211.29 275.445 1210.34 275.182 1209.48 274.877C1208.64 274.572 1207.92 274.203 1207.32 273.77C1206.74 273.336 1206.28 272.826 1205.97 272.24C1205.65 271.654 1205.49 270.969 1205.49 270.184C1205.49 269.434 1205.66 268.725 1205.99 268.057C1206.33 267.389 1206.8 266.797 1207.41 266.281C1208.03 265.766 1208.78 265.361 1209.64 265.068C1210.51 264.776 1211.48 264.629 1212.54 264.629C1214.07 264.629 1215.37 264.899 1216.44 265.438C1217.52 265.977 1218.35 266.697 1218.92 267.6C1219.5 268.49 1219.78 269.481 1219.78 270.57H1216.53C1216.53 270.043 1216.37 269.533 1216.06 269.041C1215.75 268.537 1215.3 268.121 1214.7 267.793C1214.12 267.465 1213.4 267.301 1212.54 267.301C1211.64 267.301 1210.91 267.442 1210.35 267.723C1209.79 267.992 1209.39 268.338 1209.13 268.76C1208.89 269.182 1208.76 269.627 1208.76 270.096C1208.76 270.447 1208.82 270.764 1208.94 271.045C1209.07 271.315 1209.29 271.567 1209.61 271.801C1209.92 272.024 1210.37 272.234 1210.94 272.434C1211.52 272.633 1212.25 272.832 1213.14 273.031C1214.7 273.383 1215.98 273.805 1216.99 274.297C1218 274.789 1218.75 275.393 1219.24 276.108C1219.73 276.822 1219.98 277.69 1219.98 278.709C1219.98 279.541 1219.8 280.303 1219.45 280.994C1219.11 281.686 1218.61 282.283 1217.96 282.787C1217.31 283.279 1216.54 283.666 1215.64 283.947C1214.75 284.217 1213.74 284.352 1212.63 284.352C1210.95 284.352 1209.54 284.053 1208.38 283.455C1207.22 282.858 1206.34 282.084 1205.74 281.135C1205.14 280.186 1204.84 279.184 1204.84 278.129H1208.11C1208.16 279.02 1208.42 279.729 1208.89 280.256C1209.36 280.772 1209.93 281.141 1210.61 281.363C1211.29 281.574 1211.96 281.68 1212.63 281.68C1213.52 281.68 1214.27 281.563 1214.86 281.328C1215.47 281.094 1215.94 280.772 1216.25 280.361C1216.57 279.951 1216.73 279.483 1216.73 278.955ZM1130.44 326.352C1129.11 326.352 1127.91 326.129 1126.83 325.684C1125.77 325.227 1124.85 324.588 1124.07 323.768C1123.31 322.947 1122.72 321.975 1122.31 320.85C1121.9 319.725 1121.7 318.494 1121.7 317.158V316.42C1121.7 314.873 1121.93 313.496 1122.38 312.289C1122.84 311.07 1123.46 310.039 1124.25 309.195C1125.03 308.352 1125.92 307.713 1126.92 307.279C1127.92 306.846 1128.95 306.629 1130.01 306.629C1131.37 306.629 1132.54 306.863 1133.53 307.332C1134.53 307.801 1135.34 308.457 1135.97 309.301C1136.61 310.133 1137.07 311.117 1137.38 312.254C1137.68 313.379 1137.84 314.609 1137.84 315.945V317.404H1123.63V314.75H1134.58V314.504C1134.54 313.66 1134.36 312.84 1134.06 312.043C1133.76 311.246 1133.29 310.59 1132.65 310.074C1132.01 309.559 1131.13 309.301 1130.01 309.301C1129.28 309.301 1128.6 309.459 1127.97 309.776C1127.35 310.08 1126.82 310.537 1126.37 311.147C1125.93 311.756 1125.58 312.5 1125.34 313.379C1125.09 314.258 1124.97 315.272 1124.97 316.42V317.158C1124.97 318.061 1125.09 318.91 1125.34 319.707C1125.6 320.492 1125.96 321.184 1126.44 321.781C1126.94 322.379 1127.53 322.848 1128.22 323.188C1128.92 323.527 1129.72 323.697 1130.61 323.697C1131.76 323.697 1132.73 323.463 1133.53 322.994C1134.33 322.526 1135.02 321.899 1135.62 321.113L1137.59 322.678C1137.18 323.299 1136.66 323.891 1136.03 324.453C1135.39 325.016 1134.61 325.473 1133.69 325.824C1132.77 326.176 1131.69 326.352 1130.44 326.352ZM1144.88 311.041V326H1141.63V306.981H1144.71L1144.88 311.041ZM1144.11 315.77L1142.76 315.717C1142.77 314.416 1142.96 313.215 1143.34 312.113C1143.71 311 1144.24 310.033 1144.92 309.213C1145.6 308.393 1146.41 307.76 1147.35 307.315C1148.29 306.858 1149.34 306.629 1150.49 306.629C1151.43 306.629 1152.27 306.758 1153.02 307.016C1153.77 307.262 1154.41 307.66 1154.94 308.211C1155.48 308.762 1155.89 309.477 1156.17 310.356C1156.45 311.223 1156.59 312.283 1156.59 313.537V326H1153.32V313.502C1153.32 312.506 1153.18 311.709 1152.88 311.111C1152.59 310.502 1152.16 310.063 1151.6 309.793C1151.04 309.512 1150.35 309.371 1149.53 309.371C1148.72 309.371 1147.98 309.541 1147.31 309.881C1146.65 310.221 1146.09 310.69 1145.61 311.287C1145.14 311.885 1144.77 312.57 1144.5 313.344C1144.24 314.106 1144.11 314.914 1144.11 315.77ZM1173.85 306.981H1176.81V325.596C1176.81 327.272 1176.47 328.701 1175.79 329.885C1175.11 331.068 1174.16 331.965 1172.94 332.574C1171.73 333.195 1170.34 333.506 1168.76 333.506C1168.1 333.506 1167.33 333.401 1166.44 333.19C1165.56 332.99 1164.69 332.645 1163.83 332.152C1162.99 331.672 1162.28 331.022 1161.71 330.201L1163.41 328.268C1164.21 329.229 1165.04 329.897 1165.91 330.272C1166.79 330.647 1167.65 330.834 1168.51 330.834C1169.54 330.834 1170.43 330.641 1171.18 330.254C1171.93 329.867 1172.51 329.293 1172.92 328.531C1173.34 327.781 1173.55 326.856 1173.55 325.754V311.164L1173.85 306.981ZM1160.76 316.701V316.332C1160.76 314.879 1160.93 313.561 1161.27 312.377C1161.62 311.182 1162.12 310.156 1162.76 309.301C1163.42 308.445 1164.21 307.789 1165.13 307.332C1166.06 306.863 1167.1 306.629 1168.26 306.629C1169.46 306.629 1170.5 306.84 1171.39 307.262C1172.29 307.672 1173.06 308.276 1173.68 309.072C1174.31 309.858 1174.81 310.807 1175.17 311.92C1175.53 313.033 1175.79 314.293 1175.93 315.699V317.317C1175.8 318.711 1175.55 319.965 1175.17 321.078C1174.81 322.192 1174.31 323.141 1173.68 323.926C1173.06 324.711 1172.29 325.315 1171.39 325.736C1170.49 326.147 1169.44 326.352 1168.23 326.352C1167.09 326.352 1166.06 326.111 1165.13 325.631C1164.22 325.151 1163.44 324.477 1162.78 323.609C1162.12 322.742 1161.62 321.723 1161.27 320.551C1160.93 319.367 1160.76 318.084 1160.76 316.701ZM1164.01 316.332V316.701C1164.01 317.651 1164.1 318.541 1164.29 319.373C1164.49 320.205 1164.79 320.938 1165.19 321.57C1165.6 322.203 1166.12 322.701 1166.75 323.065C1167.38 323.416 1168.14 323.592 1169.02 323.592C1170.1 323.592 1170.99 323.363 1171.69 322.906C1172.39 322.449 1172.95 321.846 1173.36 321.096C1173.78 320.346 1174.11 319.531 1174.35 318.652V314.416C1174.22 313.772 1174.02 313.151 1173.75 312.553C1173.49 311.943 1173.15 311.404 1172.73 310.936C1172.32 310.455 1171.81 310.074 1171.2 309.793C1170.59 309.512 1169.87 309.371 1169.05 309.371C1168.16 309.371 1167.4 309.559 1166.75 309.934C1166.12 310.297 1165.6 310.801 1165.19 311.445C1164.79 312.078 1164.49 312.817 1164.29 313.66C1164.1 314.492 1164.01 315.383 1164.01 316.332ZM1185.28 306.981V326H1182.01V306.981H1185.28ZM1181.76 301.936C1181.76 301.408 1181.92 300.963 1182.24 300.6C1182.57 300.236 1183.05 300.055 1183.68 300.055C1184.3 300.055 1184.78 300.236 1185.1 300.6C1185.44 300.963 1185.61 301.408 1185.61 301.936C1185.61 302.44 1185.44 302.873 1185.1 303.236C1184.78 303.588 1184.3 303.764 1183.68 303.764C1183.05 303.764 1182.57 303.588 1182.24 303.236C1181.92 302.873 1181.76 302.44 1181.76 301.936ZM1193.75 311.041V326H1190.5V306.981H1193.58L1193.75 311.041ZM1192.98 315.77L1191.62 315.717C1191.64 314.416 1191.83 313.215 1192.2 312.113C1192.58 311 1193.11 310.033 1193.79 309.213C1194.47 308.393 1195.28 307.76 1196.21 307.315C1197.16 306.858 1198.21 306.629 1199.36 306.629C1200.3 306.629 1201.14 306.758 1201.89 307.016C1202.64 307.262 1203.28 307.66 1203.81 308.211C1204.35 308.762 1204.76 309.477 1205.04 310.356C1205.32 311.223 1205.46 312.283 1205.46 313.537V326H1202.19V313.502C1202.19 312.506 1202.04 311.709 1201.75 311.111C1201.46 310.502 1201.03 310.063 1200.47 309.793C1199.9 309.512 1199.21 309.371 1198.39 309.371C1197.58 309.371 1196.85 309.541 1196.18 309.881C1195.52 310.221 1194.95 310.69 1194.47 311.287C1194 311.885 1193.63 312.57 1193.36 313.344C1193.11 314.106 1192.98 314.914 1192.98 315.77ZM1218.29 326.352C1216.97 326.352 1215.77 326.129 1214.69 325.684C1213.62 325.227 1212.7 324.588 1211.93 323.768C1211.17 322.947 1210.58 321.975 1210.17 320.85C1209.76 319.725 1209.55 318.494 1209.55 317.158V316.42C1209.55 314.873 1209.78 313.496 1210.24 312.289C1210.7 311.07 1211.32 310.039 1212.1 309.195C1212.89 308.352 1213.78 307.713 1214.78 307.279C1215.77 306.846 1216.8 306.629 1217.87 306.629C1219.23 306.629 1220.4 306.863 1221.38 307.332C1222.38 307.801 1223.19 308.457 1223.83 309.301C1224.46 310.133 1224.93 311.117 1225.23 312.254C1225.54 313.379 1225.69 314.609 1225.69 315.945V317.404H1211.49V314.75H1222.44V314.504C1222.39 313.66 1222.22 312.84 1221.91 312.043C1221.62 311.246 1221.15 310.59 1220.51 310.074C1219.86 309.559 1218.98 309.301 1217.87 309.301C1217.13 309.301 1216.45 309.459 1215.83 309.776C1215.21 310.08 1214.68 310.537 1214.23 311.147C1213.78 311.756 1213.44 312.5 1213.19 313.379C1212.95 314.258 1212.82 315.272 1212.82 316.42V317.158C1212.82 318.061 1212.95 318.91 1213.19 319.707C1213.45 320.492 1213.82 321.184 1214.3 321.781C1214.79 322.379 1215.38 322.848 1216.08 323.188C1216.78 323.527 1217.58 323.697 1218.47 323.697C1219.61 323.697 1220.59 323.463 1221.38 322.994C1222.18 322.526 1222.88 321.899 1223.48 321.113L1225.44 322.678C1225.03 323.299 1224.51 323.891 1223.88 324.453C1223.25 325.016 1222.47 325.473 1221.54 325.824C1220.63 326.176 1219.54 326.352 1218.29 326.352ZM1240.56 320.955C1240.56 320.486 1240.46 320.053 1240.25 319.654C1240.05 319.244 1239.63 318.875 1239 318.547C1238.38 318.207 1237.44 317.914 1236.19 317.668C1235.13 317.445 1234.18 317.182 1233.32 316.877C1232.48 316.572 1231.76 316.203 1231.16 315.77C1230.57 315.336 1230.12 314.826 1229.8 314.24C1229.49 313.654 1229.33 312.969 1229.33 312.184C1229.33 311.434 1229.49 310.725 1229.82 310.057C1230.16 309.389 1230.64 308.797 1231.25 308.281C1231.87 307.766 1232.61 307.361 1233.48 307.068C1234.35 306.776 1235.31 306.629 1236.38 306.629C1237.9 306.629 1239.2 306.899 1240.28 307.438C1241.36 307.977 1242.19 308.697 1242.76 309.6C1243.33 310.49 1243.62 311.481 1243.62 312.57H1240.37C1240.37 312.043 1240.21 311.533 1239.89 311.041C1239.59 310.537 1239.14 310.121 1238.54 309.793C1237.95 309.465 1237.23 309.301 1236.38 309.301C1235.48 309.301 1234.74 309.442 1234.18 309.723C1233.63 309.992 1233.23 310.338 1232.97 310.76C1232.72 311.182 1232.6 311.627 1232.6 312.096C1232.6 312.447 1232.66 312.764 1232.78 313.045C1232.9 313.315 1233.13 313.567 1233.44 313.801C1233.76 314.024 1234.2 314.234 1234.78 314.434C1235.35 314.633 1236.09 314.832 1236.98 315.031C1238.53 315.383 1239.82 315.805 1240.83 316.297C1241.83 316.789 1242.58 317.393 1243.08 318.108C1243.57 318.822 1243.81 319.69 1243.81 320.709C1243.81 321.541 1243.64 322.303 1243.29 322.994C1242.95 323.686 1242.45 324.283 1241.79 324.787C1241.15 325.279 1240.37 325.666 1239.47 325.947C1238.58 326.217 1237.58 326.352 1236.47 326.352C1234.79 326.352 1233.37 326.053 1232.21 325.455C1231.05 324.858 1230.17 324.084 1229.58 323.135C1228.98 322.186 1228.68 321.184 1228.68 320.129H1231.95C1232 321.02 1232.25 321.729 1232.72 322.256C1233.19 322.772 1233.77 323.141 1234.44 323.363C1235.12 323.574 1235.8 323.68 1236.47 323.68C1237.36 323.68 1238.1 323.563 1238.7 323.328C1239.31 323.094 1239.77 322.772 1240.09 322.361C1240.4 321.951 1240.56 321.483 1240.56 320.955ZM1119.96 357.77V357.594C1119.96 355.039 1120.25 352.731 1120.82 350.668C1121.39 348.594 1122.13 346.777 1123.02 345.219C1123.91 343.66 1124.85 342.371 1125.83 341.352C1126.81 340.32 1127.72 339.576 1128.55 339.119L1129.24 341.264C1128.55 341.791 1127.85 342.518 1127.13 343.443C1126.43 344.369 1125.78 345.506 1125.18 346.854C1124.59 348.201 1124.12 349.766 1123.76 351.547C1123.39 353.328 1123.21 355.332 1123.21 357.559V357.805C1123.21 360.031 1123.39 362.041 1123.76 363.834C1124.12 365.615 1124.59 367.186 1125.18 368.545C1125.78 369.904 1126.43 371.059 1127.13 372.008C1127.85 372.969 1128.55 373.731 1129.24 374.293L1128.55 376.262C1127.72 375.805 1126.81 375.061 1125.83 374.029C1124.85 373.01 1123.91 371.721 1123.02 370.162C1122.13 368.615 1121.39 366.805 1120.82 364.731C1120.25 362.656 1119.96 360.336 1119.96 357.77ZM1135.95 341V368H1132.69V341H1135.95ZM1140.31 358.701V358.297C1140.31 356.926 1140.51 355.654 1140.91 354.483C1141.31 353.299 1141.88 352.274 1142.63 351.406C1143.38 350.527 1144.29 349.848 1145.36 349.367C1146.43 348.875 1147.62 348.629 1148.94 348.629C1150.28 348.629 1151.48 348.875 1152.55 349.367C1153.63 349.848 1154.54 350.527 1155.29 351.406C1156.05 352.274 1156.63 353.299 1157.03 354.483C1157.43 355.654 1157.63 356.926 1157.63 358.297V358.701C1157.63 360.072 1157.43 361.344 1157.03 362.516C1156.63 363.688 1156.05 364.713 1155.29 365.592C1154.54 366.459 1153.63 367.139 1152.57 367.631C1151.51 368.111 1150.32 368.352 1148.98 368.352C1147.64 368.352 1146.44 368.111 1145.38 367.631C1144.31 367.139 1143.4 366.459 1142.63 365.592C1141.88 364.713 1141.31 363.688 1140.91 362.516C1140.51 361.344 1140.31 360.072 1140.31 358.701ZM1143.57 358.297V358.701C1143.57 359.651 1143.68 360.547 1143.9 361.391C1144.12 362.223 1144.46 362.961 1144.9 363.606C1145.36 364.25 1145.93 364.76 1146.61 365.135C1147.29 365.498 1148.08 365.68 1148.98 365.68C1149.87 365.68 1150.65 365.498 1151.32 365.135C1152 364.76 1152.56 364.25 1153.01 363.606C1153.45 362.961 1153.78 362.223 1154.01 361.391C1154.24 360.547 1154.36 359.651 1154.36 358.701V358.297C1154.36 357.359 1154.24 356.475 1154.01 355.643C1153.78 354.799 1153.44 354.055 1152.99 353.41C1152.54 352.754 1151.98 352.238 1151.3 351.863C1150.63 351.488 1149.85 351.301 1148.94 351.301C1148.05 351.301 1147.27 351.488 1146.59 351.863C1145.92 352.238 1145.36 352.754 1144.9 353.41C1144.46 354.055 1144.12 354.799 1143.9 355.643C1143.68 356.475 1143.57 357.359 1143.57 358.297ZM1169.32 365.68C1170.09 365.68 1170.81 365.522 1171.46 365.205C1172.12 364.889 1172.66 364.455 1173.08 363.904C1173.5 363.342 1173.74 362.703 1173.8 361.988H1176.89C1176.84 363.113 1176.45 364.162 1175.75 365.135C1175.06 366.096 1174.15 366.875 1173.03 367.473C1171.9 368.059 1170.67 368.352 1169.32 368.352C1167.89 368.352 1166.64 368.1 1165.57 367.596C1164.52 367.092 1163.64 366.401 1162.94 365.522C1162.25 364.643 1161.72 363.635 1161.37 362.498C1161.03 361.35 1160.86 360.137 1160.86 358.859V358.121C1160.86 356.844 1161.03 355.637 1161.37 354.5C1161.72 353.352 1162.25 352.338 1162.94 351.459C1163.64 350.58 1164.52 349.889 1165.57 349.385C1166.64 348.881 1167.89 348.629 1169.32 348.629C1170.81 348.629 1172.11 348.934 1173.22 349.543C1174.33 350.141 1175.21 350.961 1175.84 352.004C1176.48 353.035 1176.84 354.207 1176.89 355.52H1173.8C1173.74 354.734 1173.52 354.026 1173.13 353.393C1172.76 352.76 1172.24 352.256 1171.59 351.881C1170.94 351.494 1170.19 351.301 1169.32 351.301C1168.32 351.301 1167.48 351.5 1166.8 351.899C1166.14 352.285 1165.6 352.813 1165.2 353.481C1164.82 354.137 1164.54 354.869 1164.36 355.678C1164.2 356.475 1164.11 357.289 1164.11 358.121V358.859C1164.11 359.692 1164.2 360.512 1164.36 361.32C1164.53 362.129 1164.8 362.861 1165.19 363.518C1165.59 364.174 1166.12 364.701 1166.79 365.1C1167.47 365.486 1168.31 365.68 1169.32 365.68ZM1191.77 364.748V354.957C1191.77 354.207 1191.61 353.557 1191.31 353.006C1191.02 352.443 1190.57 352.01 1189.97 351.705C1189.37 351.401 1188.64 351.248 1187.76 351.248C1186.94 351.248 1186.22 351.389 1185.6 351.67C1184.99 351.951 1184.51 352.32 1184.15 352.777C1183.81 353.234 1183.64 353.727 1183.64 354.254H1180.39C1180.39 353.574 1180.57 352.901 1180.92 352.233C1181.27 351.565 1181.78 350.961 1182.43 350.422C1183.1 349.871 1183.9 349.438 1184.82 349.121C1185.76 348.793 1186.8 348.629 1187.95 348.629C1189.33 348.629 1190.55 348.863 1191.61 349.332C1192.67 349.801 1193.51 350.51 1194.1 351.459C1194.71 352.397 1195.02 353.574 1195.02 354.992V363.852C1195.02 364.484 1195.07 365.158 1195.18 365.873C1195.29 366.588 1195.46 367.203 1195.69 367.719V368H1192.29C1192.13 367.625 1192 367.127 1191.91 366.506C1191.81 365.873 1191.77 365.287 1191.77 364.748ZM1192.33 356.469L1192.36 358.754H1189.08C1188.15 358.754 1187.32 358.83 1186.6 358.983C1185.87 359.123 1185.26 359.34 1184.77 359.633C1184.28 359.926 1183.9 360.295 1183.64 360.74C1183.39 361.174 1183.26 361.684 1183.26 362.27C1183.26 362.867 1183.39 363.412 1183.66 363.904C1183.93 364.397 1184.34 364.789 1184.87 365.082C1185.43 365.363 1186.1 365.504 1186.9 365.504C1187.89 365.504 1188.77 365.293 1189.53 364.871C1190.29 364.449 1190.9 363.934 1191.34 363.324C1191.8 362.715 1192.05 362.123 1192.08 361.549L1193.47 363.113C1193.39 363.606 1193.17 364.151 1192.8 364.748C1192.44 365.346 1191.95 365.92 1191.34 366.471C1190.75 367.01 1190.03 367.461 1189.2 367.824C1188.38 368.176 1187.45 368.352 1186.42 368.352C1185.13 368.352 1184 368.1 1183.03 367.596C1182.07 367.092 1181.32 366.418 1180.78 365.574C1180.25 364.719 1179.99 363.764 1179.99 362.709C1179.99 361.69 1180.19 360.793 1180.59 360.02C1180.98 359.234 1181.56 358.584 1182.31 358.068C1183.06 357.541 1183.96 357.143 1185.02 356.873C1186.07 356.604 1187.25 356.469 1188.55 356.469H1192.33ZM1203.67 341V368H1200.4V341H1203.67ZM1216.95 358.701V358.297C1216.95 356.926 1217.15 355.654 1217.55 354.483C1217.95 353.299 1218.53 352.274 1219.28 351.406C1220.03 350.527 1220.93 349.848 1222 349.367C1223.07 348.875 1224.26 348.629 1225.59 348.629C1226.92 348.629 1228.12 348.875 1229.19 349.367C1230.27 349.848 1231.18 350.527 1231.93 351.406C1232.69 352.274 1233.27 353.299 1233.67 354.483C1234.07 355.654 1234.27 356.926 1234.27 358.297V358.701C1234.27 360.072 1234.07 361.344 1233.67 362.516C1233.27 363.688 1232.69 364.713 1231.93 365.592C1231.18 366.459 1230.27 367.139 1229.21 367.631C1228.15 368.111 1226.96 368.352 1225.62 368.352C1224.28 368.352 1223.08 368.111 1222.02 367.631C1220.95 367.139 1220.04 366.459 1219.28 365.592C1218.53 364.713 1217.95 363.688 1217.55 362.516C1217.15 361.344 1216.95 360.072 1216.95 358.701ZM1220.21 358.297V358.701C1220.21 359.651 1220.32 360.547 1220.54 361.391C1220.76 362.223 1221.1 362.961 1221.54 363.606C1222 364.25 1222.57 364.76 1223.25 365.135C1223.93 365.498 1224.72 365.68 1225.62 365.68C1226.51 365.68 1227.29 365.498 1227.96 365.135C1228.64 364.76 1229.2 364.25 1229.65 363.606C1230.09 362.961 1230.43 362.223 1230.65 361.391C1230.88 360.547 1231 359.651 1231 358.701V358.297C1231 357.359 1230.88 356.475 1230.65 355.643C1230.43 354.799 1230.09 354.055 1229.63 353.41C1229.18 352.754 1228.62 352.238 1227.94 351.863C1227.27 351.488 1226.49 351.301 1225.59 351.301C1224.69 351.301 1223.91 351.488 1223.23 351.863C1222.56 352.238 1222 352.754 1221.54 353.41C1221.1 354.055 1220.76 354.799 1220.54 355.643C1220.32 356.475 1220.21 357.359 1220.21 358.297ZM1241.6 351.969V368H1238.35V348.981H1241.51L1241.6 351.969ZM1247.54 348.875L1247.52 351.899C1247.25 351.84 1247 351.805 1246.75 351.793C1246.52 351.77 1246.25 351.758 1245.94 351.758C1245.19 351.758 1244.53 351.875 1243.95 352.109C1243.38 352.344 1242.89 352.672 1242.5 353.094C1242.1 353.516 1241.78 354.02 1241.55 354.606C1241.32 355.18 1241.18 355.813 1241.11 356.504L1240.19 357.031C1240.19 355.883 1240.3 354.805 1240.53 353.797C1240.76 352.789 1241.12 351.899 1241.6 351.125C1242.08 350.34 1242.69 349.731 1243.43 349.297C1244.18 348.852 1245.07 348.629 1246.1 348.629C1246.33 348.629 1246.6 348.658 1246.91 348.717C1247.21 348.764 1247.42 348.817 1247.54 348.875ZM1104.47 394.637V417.313H1101.2V390.981H1104.19L1104.47 394.637ZM1117.29 400.332V400.701C1117.29 402.084 1117.12 403.367 1116.79 404.551C1116.47 405.723 1115.99 406.742 1115.35 407.609C1114.73 408.477 1113.96 409.151 1113.05 409.631C1112.14 410.111 1111.09 410.352 1109.9 410.352C1108.7 410.352 1107.63 410.152 1106.7 409.754C1105.78 409.356 1104.99 408.776 1104.35 408.014C1103.7 407.252 1103.19 406.338 1102.8 405.272C1102.43 404.205 1102.17 403.004 1102.03 401.668V399.699C1102.17 398.293 1102.43 397.033 1102.82 395.92C1103.21 394.807 1103.72 393.858 1104.35 393.072C1104.99 392.276 1105.77 391.672 1106.69 391.262C1107.6 390.84 1108.66 390.629 1109.85 390.629C1111.05 390.629 1112.11 390.863 1113.03 391.332C1113.96 391.789 1114.74 392.445 1115.37 393.301C1116 394.156 1116.48 395.182 1116.79 396.377C1117.12 397.561 1117.29 398.879 1117.29 400.332ZM1114.02 400.701V400.332C1114.02 399.383 1113.92 398.492 1113.72 397.66C1113.52 396.817 1113.21 396.078 1112.79 395.445C1112.38 394.801 1111.85 394.297 1111.2 393.934C1110.56 393.559 1109.79 393.371 1108.9 393.371C1108.08 393.371 1107.37 393.512 1106.76 393.793C1106.16 394.074 1105.65 394.455 1105.23 394.936C1104.81 395.404 1104.46 395.943 1104.19 396.553C1103.93 397.151 1103.74 397.772 1103.61 398.416V402.969C1103.85 403.789 1104.17 404.563 1104.6 405.289C1105.02 406.004 1105.58 406.584 1106.28 407.029C1106.99 407.463 1107.87 407.68 1108.94 407.68C1109.82 407.68 1110.57 407.498 1111.2 407.135C1111.85 406.76 1112.38 406.25 1112.79 405.606C1113.21 404.961 1113.52 404.223 1113.72 403.391C1113.92 402.547 1114.02 401.651 1114.02 400.701ZM1133.07 405.606V390.981H1136.34V410H1133.23L1133.07 405.606ZM1133.69 401.598L1135.04 401.563C1135.04 402.828 1134.91 404 1134.64 405.078C1134.38 406.145 1133.96 407.07 1133.37 407.856C1132.78 408.641 1132.02 409.256 1131.07 409.701C1130.12 410.135 1128.96 410.352 1127.61 410.352C1126.68 410.352 1125.83 410.217 1125.06 409.947C1124.29 409.678 1123.64 409.262 1123.09 408.699C1122.54 408.137 1122.11 407.404 1121.8 406.502C1121.51 405.6 1121.36 404.516 1121.36 403.25V390.981H1124.62V403.285C1124.62 404.141 1124.71 404.85 1124.9 405.412C1125.1 405.963 1125.36 406.402 1125.69 406.731C1126.03 407.047 1126.4 407.27 1126.81 407.399C1127.24 407.527 1127.67 407.592 1128.11 407.592C1129.5 407.592 1130.59 407.328 1131.4 406.801C1132.21 406.262 1132.79 405.541 1133.14 404.639C1133.51 403.725 1133.69 402.711 1133.69 401.598ZM1141.28 383H1144.55V406.309L1144.27 410H1141.28V383ZM1157.4 400.332V400.701C1157.4 402.084 1157.24 403.367 1156.91 404.551C1156.58 405.723 1156.1 406.742 1155.47 407.609C1154.83 408.477 1154.06 409.151 1153.15 409.631C1152.23 410.111 1151.18 410.352 1150 410.352C1148.79 410.352 1147.73 410.147 1146.82 409.736C1145.92 409.315 1145.15 408.711 1144.53 407.926C1143.91 407.141 1143.41 406.192 1143.04 405.078C1142.68 403.965 1142.42 402.711 1142.28 401.317V399.699C1142.42 398.293 1142.68 397.033 1143.04 395.92C1143.41 394.807 1143.91 393.858 1144.53 393.072C1145.15 392.276 1145.92 391.672 1146.82 391.262C1147.72 390.84 1148.77 390.629 1149.96 390.629C1151.16 390.629 1152.22 390.863 1153.15 391.332C1154.07 391.789 1154.85 392.445 1155.47 393.301C1156.1 394.156 1156.58 395.182 1156.91 396.377C1157.24 397.561 1157.4 398.879 1157.4 400.332ZM1154.13 400.701V400.332C1154.13 399.383 1154.04 398.492 1153.87 397.66C1153.69 396.817 1153.41 396.078 1153.02 395.445C1152.64 394.801 1152.13 394.297 1151.49 393.934C1150.86 393.559 1150.08 393.371 1149.16 393.371C1148.34 393.371 1147.62 393.512 1147.01 393.793C1146.41 394.074 1145.9 394.455 1145.48 394.936C1145.06 395.404 1144.71 395.943 1144.44 396.553C1144.19 397.151 1143.99 397.772 1143.86 398.416V402.652C1144.05 403.473 1144.36 404.264 1144.78 405.026C1145.21 405.776 1145.79 406.391 1146.5 406.871C1147.23 407.352 1148.12 407.592 1149.19 407.592C1150.07 407.592 1150.82 407.416 1151.44 407.065C1152.07 406.701 1152.58 406.203 1152.97 405.57C1153.37 404.938 1153.66 404.205 1153.85 403.373C1154.04 402.541 1154.13 401.651 1154.13 400.701ZM1165.05 383V410H1161.78V383H1165.05ZM1173.8 390.981V410H1170.53V390.981H1173.8ZM1170.28 385.936C1170.28 385.408 1170.44 384.963 1170.76 384.6C1171.09 384.236 1171.57 384.055 1172.2 384.055C1172.82 384.055 1173.3 384.236 1173.62 384.6C1173.96 384.963 1174.13 385.408 1174.13 385.936C1174.13 386.44 1173.96 386.873 1173.62 387.236C1173.3 387.588 1172.82 387.764 1172.2 387.764C1171.57 387.764 1171.09 387.588 1170.76 387.236C1170.44 386.873 1170.28 386.44 1170.28 385.936ZM1190.1 404.955C1190.1 404.486 1189.99 404.053 1189.78 403.654C1189.58 403.244 1189.16 402.875 1188.53 402.547C1187.91 402.207 1186.97 401.914 1185.72 401.668C1184.66 401.445 1183.71 401.182 1182.85 400.877C1182.01 400.572 1181.29 400.203 1180.69 399.77C1180.11 399.336 1179.65 398.826 1179.34 398.24C1179.02 397.654 1178.86 396.969 1178.86 396.184C1178.86 395.434 1179.03 394.725 1179.36 394.057C1179.69 393.389 1180.17 392.797 1180.78 392.281C1181.4 391.766 1182.14 391.361 1183.01 391.068C1183.88 390.776 1184.85 390.629 1185.91 390.629C1187.44 390.629 1188.74 390.899 1189.81 391.438C1190.89 391.977 1191.72 392.697 1192.29 393.6C1192.87 394.49 1193.15 395.481 1193.15 396.57H1189.9C1189.9 396.043 1189.74 395.533 1189.43 395.041C1189.12 394.537 1188.67 394.121 1188.07 393.793C1187.49 393.465 1186.77 393.301 1185.91 393.301C1185.01 393.301 1184.28 393.442 1183.71 393.723C1183.16 393.992 1182.76 394.338 1182.5 394.76C1182.26 395.182 1182.13 395.627 1182.13 396.096C1182.13 396.447 1182.19 396.764 1182.31 397.045C1182.44 397.315 1182.66 397.567 1182.98 397.801C1183.29 398.024 1183.74 398.234 1184.31 398.434C1184.89 398.633 1185.62 398.832 1186.51 399.031C1188.07 399.383 1189.35 399.805 1190.36 400.297C1191.37 400.789 1192.12 401.393 1192.61 402.108C1193.1 402.822 1193.35 403.69 1193.35 404.709C1193.35 405.541 1193.17 406.303 1192.82 406.994C1192.48 407.686 1191.98 408.283 1191.33 408.787C1190.68 409.279 1189.91 409.666 1189.01 409.947C1188.11 410.217 1187.11 410.352 1186 410.352C1184.32 410.352 1182.91 410.053 1181.75 409.455C1180.59 408.858 1179.71 408.084 1179.11 407.135C1178.51 406.186 1178.21 405.184 1178.21 404.129H1181.48C1181.53 405.02 1181.79 405.729 1182.26 406.256C1182.72 406.772 1183.3 407.141 1183.98 407.363C1184.66 407.574 1185.33 407.68 1186 407.68C1186.89 407.68 1187.63 407.563 1188.23 407.328C1188.84 407.094 1189.3 406.772 1189.62 406.361C1189.94 405.951 1190.1 405.483 1190.1 404.955ZM1200.87 383V410H1197.62V383H1200.87ZM1200.1 399.77L1198.74 399.717C1198.76 398.416 1198.95 397.215 1199.32 396.113C1199.7 395 1200.23 394.033 1200.91 393.213C1201.59 392.393 1202.39 391.76 1203.33 391.315C1204.28 390.858 1205.33 390.629 1206.48 390.629C1207.42 390.629 1208.26 390.758 1209.01 391.016C1209.76 391.262 1210.4 391.66 1210.93 392.211C1211.46 392.762 1211.87 393.477 1212.16 394.356C1212.44 395.223 1212.58 396.283 1212.58 397.537V410H1209.31V397.502C1209.31 396.506 1209.16 395.709 1208.87 395.111C1208.58 394.502 1208.15 394.063 1207.59 393.793C1207.02 393.512 1206.33 393.371 1205.51 393.371C1204.7 393.371 1203.96 393.541 1203.3 393.881C1202.64 394.221 1202.07 394.69 1201.59 395.287C1201.12 395.885 1200.75 396.57 1200.48 397.344C1200.23 398.106 1200.1 398.914 1200.1 399.77ZM1225.34 410.352C1224.02 410.352 1222.81 410.129 1221.74 409.684C1220.67 409.227 1219.75 408.588 1218.98 407.768C1218.21 406.947 1217.63 405.975 1217.22 404.85C1216.81 403.725 1216.6 402.494 1216.6 401.158V400.42C1216.6 398.873 1216.83 397.496 1217.29 396.289C1217.75 395.07 1218.37 394.039 1219.15 393.195C1219.94 392.352 1220.83 391.713 1221.82 391.279C1222.82 390.846 1223.85 390.629 1224.92 390.629C1226.28 390.629 1227.45 390.863 1228.43 391.332C1229.43 391.801 1230.24 392.457 1230.88 393.301C1231.51 394.133 1231.98 395.117 1232.28 396.254C1232.59 397.379 1232.74 398.609 1232.74 399.945V401.404H1218.54V398.75H1229.49V398.504C1229.44 397.66 1229.27 396.84 1228.96 396.043C1228.67 395.246 1228.2 394.59 1227.55 394.074C1226.91 393.559 1226.03 393.301 1224.92 393.301C1224.18 393.301 1223.5 393.459 1222.88 393.776C1222.26 394.08 1221.72 394.537 1221.28 395.147C1220.83 395.756 1220.49 396.5 1220.24 397.379C1220 398.258 1219.87 399.272 1219.87 400.42V401.158C1219.87 402.061 1220 402.91 1220.24 403.707C1220.5 404.492 1220.87 405.184 1221.35 405.781C1221.84 406.379 1222.43 406.848 1223.12 407.188C1223.83 407.527 1224.62 407.697 1225.52 407.697C1226.66 407.697 1227.64 407.463 1228.43 406.994C1229.23 406.526 1229.93 405.899 1230.53 405.113L1232.49 406.678C1232.08 407.299 1231.56 407.891 1230.93 408.453C1230.3 409.016 1229.52 409.473 1228.59 409.824C1227.68 410.176 1226.59 410.352 1225.34 410.352ZM1248.53 406.309V383H1251.79V410H1248.81L1248.53 406.309ZM1235.73 400.701V400.332C1235.73 398.879 1235.9 397.561 1236.26 396.377C1236.62 395.182 1237.13 394.156 1237.78 393.301C1238.45 392.445 1239.24 391.789 1240.16 391.332C1241.08 390.863 1242.11 390.629 1243.25 390.629C1244.45 390.629 1245.49 390.84 1246.38 391.262C1247.28 391.672 1248.04 392.276 1248.67 393.072C1249.3 393.858 1249.8 394.807 1250.16 395.92C1250.52 397.033 1250.78 398.293 1250.92 399.699V401.317C1250.79 402.711 1250.53 403.965 1250.16 405.078C1249.8 406.192 1249.3 407.141 1248.67 407.926C1248.04 408.711 1247.28 409.315 1246.38 409.736C1245.48 410.147 1244.42 410.352 1243.22 410.352C1242.1 410.352 1241.08 410.111 1240.16 409.631C1239.24 409.151 1238.45 408.477 1237.78 407.609C1237.13 406.742 1236.62 405.723 1236.26 404.551C1235.9 403.367 1235.73 402.084 1235.73 400.701ZM1239 400.332V400.701C1239 401.651 1239.09 402.541 1239.28 403.373C1239.48 404.205 1239.78 404.938 1240.19 405.57C1240.6 406.203 1241.12 406.701 1241.76 407.065C1242.39 407.416 1243.15 407.592 1244.03 407.592C1245.1 407.592 1245.99 407.363 1246.68 406.906C1247.38 406.449 1247.94 405.846 1248.37 405.096C1248.79 404.346 1249.12 403.531 1249.35 402.652V398.416C1249.21 397.772 1249.01 397.151 1248.74 396.553C1248.48 395.943 1248.14 395.404 1247.72 394.936C1247.31 394.455 1246.8 394.074 1246.19 393.793C1245.59 393.512 1244.88 393.371 1244.06 393.371C1243.17 393.371 1242.4 393.559 1241.76 393.934C1241.12 394.297 1240.6 394.801 1240.19 395.445C1239.78 396.078 1239.48 396.817 1239.28 397.66C1239.09 398.492 1239 399.383 1239 400.332ZM1264.35 399.594V399.77C1264.35 402.336 1264.06 404.656 1263.48 406.731C1262.91 408.805 1262.18 410.615 1261.29 412.162C1260.4 413.721 1259.46 415.01 1258.47 416.029C1257.49 417.061 1256.58 417.805 1255.75 418.262L1255.06 416.293C1255.76 415.766 1256.45 415.027 1257.16 414.078C1257.86 413.141 1258.51 411.981 1259.11 410.598C1259.7 409.227 1260.19 407.645 1260.55 405.852C1260.91 404.047 1261.09 402.031 1261.09 399.805V399.559C1261.09 397.332 1260.9 395.322 1260.51 393.529C1260.13 391.725 1259.62 390.137 1259 388.766C1258.39 387.395 1257.74 386.24 1257.03 385.303C1256.34 384.354 1255.69 383.621 1255.06 383.106L1255.75 381.119C1256.58 381.576 1257.49 382.32 1258.47 383.352C1259.46 384.371 1260.4 385.66 1261.29 387.219C1262.18 388.777 1262.91 390.594 1263.48 392.668C1264.06 394.731 1264.35 397.039 1264.35 399.594Z" fill="white"/>
<path d="M1460.93 258.406H1464.21L1472.6 279.271L1480.97 258.406H1484.27L1473.86 284H1471.3L1460.93 258.406ZM1459.86 258.406H1462.76L1463.23 274.016V284H1459.86V258.406ZM1482.43 258.406H1485.33V284H1481.95V274.016L1482.43 258.406ZM1494.33 264.98V284H1491.06V264.98H1494.33ZM1490.81 259.936C1490.81 259.408 1490.97 258.963 1491.28 258.6C1491.61 258.236 1492.09 258.055 1492.73 258.055C1493.35 258.055 1493.82 258.236 1494.15 258.6C1494.49 258.963 1494.66 259.408 1494.66 259.936C1494.66 260.439 1494.49 260.873 1494.15 261.236C1493.82 261.588 1493.35 261.764 1492.73 261.764C1492.09 261.764 1491.61 261.588 1491.28 261.236C1490.97 260.873 1490.81 260.439 1490.81 259.936ZM1507.16 281.68C1507.93 281.68 1508.65 281.521 1509.3 281.205C1509.96 280.889 1510.5 280.455 1510.92 279.904C1511.34 279.342 1511.58 278.703 1511.64 277.988H1514.73C1514.68 279.113 1514.29 280.162 1513.59 281.135C1512.9 282.096 1511.99 282.875 1510.87 283.473C1509.74 284.059 1508.51 284.352 1507.16 284.352C1505.73 284.352 1504.48 284.1 1503.41 283.596C1502.36 283.092 1501.48 282.4 1500.78 281.521C1500.09 280.643 1499.56 279.635 1499.21 278.498C1498.87 277.35 1498.7 276.137 1498.7 274.859V274.121C1498.7 272.844 1498.87 271.637 1499.21 270.5C1499.56 269.352 1500.09 268.338 1500.78 267.459C1501.48 266.58 1502.36 265.889 1503.41 265.385C1504.48 264.881 1505.73 264.629 1507.16 264.629C1508.65 264.629 1509.95 264.934 1511.06 265.543C1512.17 266.141 1513.05 266.961 1513.68 268.004C1514.32 269.035 1514.68 270.207 1514.73 271.52H1511.64C1511.58 270.734 1511.36 270.025 1510.97 269.393C1510.6 268.76 1510.08 268.256 1509.43 267.881C1508.78 267.494 1508.02 267.301 1507.16 267.301C1506.16 267.301 1505.32 267.5 1504.64 267.898C1503.98 268.285 1503.44 268.812 1503.04 269.48C1502.66 270.137 1502.38 270.869 1502.2 271.678C1502.04 272.475 1501.95 273.289 1501.95 274.121V274.859C1501.95 275.691 1502.04 276.512 1502.2 277.32C1502.36 278.129 1502.64 278.861 1503.03 279.518C1503.43 280.174 1503.96 280.701 1504.63 281.1C1505.31 281.486 1506.15 281.68 1507.16 281.68ZM1521.64 267.969V284H1518.39V264.98H1521.55L1521.64 267.969ZM1527.58 264.875L1527.57 267.898C1527.3 267.84 1527.04 267.805 1526.79 267.793C1526.56 267.77 1526.29 267.758 1525.98 267.758C1525.23 267.758 1524.57 267.875 1524 268.109C1523.42 268.344 1522.94 268.672 1522.54 269.094C1522.14 269.516 1521.82 270.02 1521.59 270.605C1521.37 271.18 1521.22 271.812 1521.15 272.504L1520.24 273.031C1520.24 271.883 1520.35 270.805 1520.57 269.797C1520.8 268.789 1521.16 267.898 1521.64 267.125C1522.12 266.34 1522.73 265.73 1523.47 265.297C1524.22 264.852 1525.11 264.629 1526.14 264.629C1526.38 264.629 1526.65 264.658 1526.95 264.717C1527.26 264.764 1527.47 264.816 1527.58 264.875ZM1529.38 274.701V274.297C1529.38 272.926 1529.58 271.654 1529.97 270.482C1530.37 269.299 1530.95 268.273 1531.7 267.406C1532.45 266.527 1533.36 265.848 1534.42 265.367C1535.49 264.875 1536.68 264.629 1538.01 264.629C1539.34 264.629 1540.54 264.875 1541.61 265.367C1542.69 265.848 1543.6 266.527 1544.35 267.406C1545.11 268.273 1545.69 269.299 1546.09 270.482C1546.49 271.654 1546.69 272.926 1546.69 274.297V274.701C1546.69 276.072 1546.49 277.344 1546.09 278.516C1545.69 279.688 1545.11 280.713 1544.35 281.592C1543.6 282.459 1542.69 283.139 1541.63 283.631C1540.57 284.111 1539.38 284.352 1538.04 284.352C1536.71 284.352 1535.51 284.111 1534.44 283.631C1533.37 283.139 1532.46 282.459 1531.7 281.592C1530.95 280.713 1530.37 279.688 1529.97 278.516C1529.58 277.344 1529.38 276.072 1529.38 274.701ZM1532.63 274.297V274.701C1532.63 275.65 1532.74 276.547 1532.96 277.391C1533.19 278.223 1533.52 278.961 1533.96 279.605C1534.42 280.25 1534.99 280.76 1535.67 281.135C1536.35 281.498 1537.14 281.68 1538.04 281.68C1538.93 281.68 1539.71 281.498 1540.38 281.135C1541.06 280.76 1541.62 280.25 1542.07 279.605C1542.51 278.961 1542.85 278.223 1543.07 277.391C1543.3 276.547 1543.42 275.65 1543.42 274.701V274.297C1543.42 273.359 1543.3 272.475 1543.07 271.643C1542.85 270.799 1542.51 270.055 1542.05 269.41C1541.61 268.754 1541.04 268.238 1540.36 267.863C1539.69 267.488 1538.91 267.301 1538.01 267.301C1537.12 267.301 1536.33 267.488 1535.65 267.863C1534.98 268.238 1534.42 268.754 1533.96 269.41C1533.52 270.055 1533.19 270.799 1532.96 271.643C1532.74 272.475 1532.63 273.359 1532.63 274.297ZM1561.84 278.955C1561.84 278.486 1561.74 278.053 1561.53 277.654C1561.33 277.244 1560.91 276.875 1560.28 276.547C1559.66 276.207 1558.72 275.914 1557.47 275.668C1556.41 275.445 1555.46 275.182 1554.6 274.877C1553.76 274.572 1553.04 274.203 1552.44 273.77C1551.85 273.336 1551.4 272.826 1551.09 272.24C1550.77 271.654 1550.61 270.969 1550.61 270.184C1550.61 269.434 1550.77 268.725 1551.1 268.057C1551.44 267.389 1551.92 266.797 1552.53 266.281C1553.15 265.766 1553.89 265.361 1554.76 265.068C1555.63 264.775 1556.59 264.629 1557.66 264.629C1559.18 264.629 1560.48 264.898 1561.56 265.438C1562.64 265.977 1563.47 266.697 1564.04 267.6C1564.61 268.49 1564.9 269.48 1564.9 270.57H1561.65C1561.65 270.043 1561.49 269.533 1561.18 269.041C1560.87 268.537 1560.42 268.121 1559.82 267.793C1559.24 267.465 1558.52 267.301 1557.66 267.301C1556.76 267.301 1556.02 267.441 1555.46 267.723C1554.91 267.992 1554.51 268.338 1554.25 268.76C1554 269.182 1553.88 269.627 1553.88 270.096C1553.88 270.447 1553.94 270.764 1554.06 271.045C1554.19 271.314 1554.41 271.566 1554.72 271.801C1555.04 272.023 1555.49 272.234 1556.06 272.434C1556.63 272.633 1557.37 272.832 1558.26 273.031C1559.82 273.383 1561.1 273.805 1562.11 274.297C1563.11 274.789 1563.86 275.393 1564.36 276.107C1564.85 276.822 1565.1 277.689 1565.1 278.709C1565.1 279.541 1564.92 280.303 1564.57 280.994C1564.23 281.686 1563.73 282.283 1563.07 282.787C1562.43 283.279 1561.66 283.666 1560.75 283.947C1559.86 284.217 1558.86 284.352 1557.75 284.352C1556.07 284.352 1554.65 284.053 1553.49 283.455C1552.33 282.857 1551.45 282.084 1550.86 281.135C1550.26 280.186 1549.96 279.184 1549.96 278.129H1553.23C1553.28 279.02 1553.53 279.729 1554 280.256C1554.47 280.771 1555.05 281.141 1555.73 281.363C1556.41 281.574 1557.08 281.68 1557.75 281.68C1558.64 281.68 1559.38 281.562 1559.98 281.328C1560.59 281.094 1561.05 280.771 1561.37 280.361C1561.69 279.951 1561.84 279.482 1561.84 278.955ZM1577.26 284.352C1575.94 284.352 1574.73 284.129 1573.66 283.684C1572.59 283.227 1571.67 282.588 1570.9 281.768C1570.13 280.947 1569.55 279.975 1569.14 278.85C1568.73 277.725 1568.52 276.494 1568.52 275.158V274.42C1568.52 272.873 1568.75 271.496 1569.21 270.289C1569.67 269.07 1570.29 268.039 1571.07 267.195C1571.86 266.352 1572.75 265.713 1573.74 265.279C1574.74 264.846 1575.77 264.629 1576.84 264.629C1578.2 264.629 1579.37 264.863 1580.35 265.332C1581.35 265.801 1582.16 266.457 1582.8 267.301C1583.43 268.133 1583.9 269.117 1584.2 270.254C1584.51 271.379 1584.66 272.609 1584.66 273.945V275.404H1570.46V272.75H1581.41V272.504C1581.36 271.66 1581.19 270.84 1580.88 270.043C1580.59 269.246 1580.12 268.59 1579.47 268.074C1578.83 267.559 1577.95 267.301 1576.84 267.301C1576.1 267.301 1575.42 267.459 1574.8 267.775C1574.18 268.08 1573.64 268.537 1573.2 269.146C1572.75 269.756 1572.41 270.5 1572.16 271.379C1571.92 272.258 1571.79 273.271 1571.79 274.42V275.158C1571.79 276.061 1571.92 276.91 1572.16 277.707C1572.42 278.492 1572.79 279.184 1573.27 279.781C1573.76 280.379 1574.35 280.848 1575.04 281.188C1575.75 281.527 1576.54 281.697 1577.44 281.697C1578.58 281.697 1579.56 281.463 1580.35 280.994C1581.15 280.525 1581.85 279.898 1582.44 279.113L1584.41 280.678C1584 281.299 1583.48 281.891 1582.85 282.453C1582.22 283.016 1581.44 283.473 1580.51 283.824C1579.6 284.176 1578.51 284.352 1577.26 284.352ZM1591.71 267.969V284H1588.46V264.98H1591.62L1591.71 267.969ZM1597.65 264.875L1597.63 267.898C1597.36 267.84 1597.11 267.805 1596.86 267.793C1596.62 267.77 1596.36 267.758 1596.05 267.758C1595.3 267.758 1594.64 267.875 1594.06 268.109C1593.49 268.344 1593 268.672 1592.61 269.094C1592.21 269.516 1591.89 270.02 1591.66 270.605C1591.43 271.18 1591.29 271.812 1591.22 272.504L1590.3 273.031C1590.3 271.883 1590.41 270.805 1590.64 269.797C1590.87 268.789 1591.23 267.898 1591.71 267.125C1592.19 266.34 1592.8 265.73 1593.54 265.297C1594.29 264.852 1595.18 264.629 1596.21 264.629C1596.44 264.629 1596.71 264.658 1597.02 264.717C1597.32 264.764 1597.53 264.816 1597.65 264.875ZM1606.76 281.064L1611.96 264.98H1615.28L1608.44 284H1606.26L1606.76 281.064ZM1602.41 264.98L1607.77 281.152L1608.14 284H1605.96L1599.07 264.98H1602.41ZM1621.94 264.98V284H1618.67V264.98H1621.94ZM1618.43 259.936C1618.43 259.408 1618.59 258.963 1618.9 258.6C1619.23 258.236 1619.71 258.055 1620.34 258.055C1620.96 258.055 1621.44 258.236 1621.77 258.6C1622.11 258.963 1622.28 259.408 1622.28 259.936C1622.28 260.439 1622.11 260.873 1621.77 261.236C1621.44 261.588 1620.96 261.764 1620.34 261.764C1619.71 261.764 1619.23 261.588 1618.9 261.236C1618.59 260.873 1618.43 260.439 1618.43 259.936ZM1634.77 281.68C1635.55 281.68 1636.26 281.521 1636.92 281.205C1637.58 280.889 1638.11 280.455 1638.54 279.904C1638.96 279.342 1639.2 278.703 1639.26 277.988H1642.35C1642.29 279.113 1641.91 280.162 1641.21 281.135C1640.52 282.096 1639.61 282.875 1638.48 283.473C1637.36 284.059 1636.12 284.352 1634.77 284.352C1633.35 284.352 1632.1 284.1 1631.03 283.596C1629.98 283.092 1629.1 282.4 1628.39 281.521C1627.7 280.643 1627.18 279.635 1626.83 278.498C1626.49 277.35 1626.32 276.137 1626.32 274.859V274.121C1626.32 272.844 1626.49 271.637 1626.83 270.5C1627.18 269.352 1627.7 268.338 1628.39 267.459C1629.1 266.58 1629.98 265.889 1631.03 265.385C1632.1 264.881 1633.35 264.629 1634.77 264.629C1636.26 264.629 1637.56 264.934 1638.68 265.543C1639.79 266.141 1640.66 266.961 1641.3 268.004C1641.94 269.035 1642.29 270.207 1642.35 271.52H1639.26C1639.2 270.734 1638.98 270.025 1638.59 269.393C1638.21 268.76 1637.7 268.256 1637.04 267.881C1636.4 267.494 1635.64 267.301 1634.77 267.301C1633.78 267.301 1632.94 267.5 1632.26 267.898C1631.59 268.285 1631.06 268.812 1630.66 269.48C1630.27 270.137 1629.99 270.869 1629.82 271.678C1629.65 272.475 1629.57 273.289 1629.57 274.121V274.859C1629.57 275.691 1629.65 276.512 1629.82 277.32C1629.98 278.129 1630.26 278.861 1630.64 279.518C1631.04 280.174 1631.58 280.701 1632.24 281.1C1632.92 281.486 1633.77 281.68 1634.77 281.68ZM1653.9 284.352C1652.58 284.352 1651.37 284.129 1650.3 283.684C1649.23 283.227 1648.31 282.588 1647.54 281.768C1646.77 280.947 1646.19 279.975 1645.78 278.85C1645.37 277.725 1645.16 276.494 1645.16 275.158V274.42C1645.16 272.873 1645.39 271.496 1645.85 270.289C1646.31 269.07 1646.93 268.039 1647.71 267.195C1648.5 266.352 1649.39 265.713 1650.38 265.279C1651.38 264.846 1652.41 264.629 1653.48 264.629C1654.84 264.629 1656.01 264.863 1656.99 265.332C1657.99 265.801 1658.8 266.457 1659.44 267.301C1660.07 268.133 1660.54 269.117 1660.84 270.254C1661.15 271.379 1661.3 272.609 1661.3 273.945V275.404H1647.1V272.75H1658.05V272.504C1658 271.66 1657.83 270.84 1657.52 270.043C1657.23 269.246 1656.76 268.59 1656.11 268.074C1655.47 267.559 1654.59 267.301 1653.48 267.301C1652.74 267.301 1652.06 267.459 1651.44 267.775C1650.82 268.08 1650.28 268.537 1649.84 269.146C1649.39 269.756 1649.05 270.5 1648.8 271.379C1648.56 272.258 1648.43 273.271 1648.43 274.42V275.158C1648.43 276.061 1648.56 276.91 1648.8 277.707C1649.06 278.492 1649.43 279.184 1649.91 279.781C1650.4 280.379 1650.99 280.848 1651.69 281.188C1652.39 281.527 1653.19 281.697 1654.08 281.697C1655.22 281.697 1656.2 281.463 1656.99 280.994C1657.79 280.525 1658.49 279.898 1659.09 279.113L1661.05 280.678C1660.64 281.299 1660.12 281.891 1659.49 282.453C1658.86 283.016 1658.08 283.473 1657.15 283.824C1656.24 284.176 1655.15 284.352 1653.9 284.352ZM1676.17 278.955C1676.17 278.486 1676.07 278.053 1675.86 277.654C1675.66 277.244 1675.24 276.875 1674.61 276.547C1673.99 276.207 1673.05 275.914 1671.79 275.668C1670.74 275.445 1669.78 275.182 1668.93 274.877C1668.09 274.572 1667.36 274.203 1666.77 273.77C1666.18 273.336 1665.73 272.826 1665.41 272.24C1665.1 271.654 1664.94 270.969 1664.94 270.184C1664.94 269.434 1665.1 268.725 1665.43 268.057C1665.77 267.389 1666.25 266.797 1666.86 266.281C1667.48 265.766 1668.22 265.361 1669.09 265.068C1669.95 264.775 1670.92 264.629 1671.99 264.629C1673.51 264.629 1674.81 264.898 1675.89 265.438C1676.97 265.977 1677.79 266.697 1678.37 267.6C1678.94 268.49 1679.23 269.48 1679.23 270.57H1675.98C1675.98 270.043 1675.82 269.533 1675.5 269.041C1675.2 268.537 1674.75 268.121 1674.15 267.793C1673.56 267.465 1672.84 267.301 1671.99 267.301C1671.09 267.301 1670.35 267.441 1669.79 267.723C1669.24 267.992 1668.84 268.338 1668.58 268.76C1668.33 269.182 1668.21 269.627 1668.21 270.096C1668.21 270.447 1668.27 270.764 1668.38 271.045C1668.51 271.314 1668.74 271.566 1669.05 271.801C1669.37 272.023 1669.81 272.234 1670.39 272.434C1670.96 272.633 1671.69 272.832 1672.59 273.031C1674.14 273.383 1675.43 273.805 1676.44 274.297C1677.44 274.789 1678.19 275.393 1678.69 276.107C1679.18 276.822 1679.42 277.689 1679.42 278.709C1679.42 279.541 1679.25 280.303 1678.9 280.994C1678.56 281.686 1678.06 282.283 1677.4 282.787C1676.76 283.279 1675.98 283.666 1675.08 283.947C1674.19 284.217 1673.19 284.352 1672.08 284.352C1670.4 284.352 1668.98 284.053 1667.82 283.455C1666.66 282.857 1665.78 282.084 1665.19 281.135C1664.59 280.186 1664.29 279.184 1664.29 278.129H1667.56C1667.61 279.02 1667.86 279.729 1668.33 280.256C1668.8 280.771 1669.37 281.141 1670.05 281.363C1670.73 281.574 1671.41 281.68 1672.08 281.68C1672.97 281.68 1673.71 281.562 1674.31 281.328C1674.92 281.094 1675.38 280.771 1675.7 280.361C1676.01 279.951 1676.17 279.482 1676.17 278.955Z" fill="white"/>
<line x1="223.5" y1="2.40413e-07" x2="223.5" y2="218" stroke="#F2D2EF" stroke-width="11"/>
<line x1="1054.5" y1="2.16194e-07" x2="1054.5" y2="218" stroke="#F2D2EF" stroke-width="11"/>
<line x1="1049" y1="114.5" x2="218" y2="114.5" stroke="#F2D2EF" stroke-width="11"/>
<defs>
<linearGradient id="paint0_linear_104_4" x1="9.24931e-07" y1="110.684" x2="1680.69" y2="121.113" gradientUnits="userSpaceOnUse">
<stop stop-color="#1BE2EF"/>
<stop offset="1" stop-color="#C900FB"/>
</linearGradient>
</defs>
</svg>
