<svg width="1690" height="437" viewBox="0 0 1690 437" fill="none" xmlns="http://www.w3.org/2000/svg">
<rect y="45.4497" width="1680.7" height="166.47" fill="url(#paint0_linear_104_5)"/>
<path d="M56.6738 302H51.33L51.3652 299.24H56.6738C58.5019 299.24 60.0253 298.859 61.2441 298.098C62.4628 297.324 63.3769 296.246 63.9863 294.863C64.6074 293.469 64.9179 291.84 64.9179 289.977V288.412C64.9179 286.947 64.7421 285.646 64.3906 284.51C64.039 283.361 63.5234 282.395 62.8437 281.609C62.164 280.812 61.332 280.209 60.3476 279.799C59.3749 279.389 58.2558 279.184 56.9902 279.184H51.2245V276.406H56.9902C58.6659 276.406 60.1952 276.688 61.5781 277.25C62.9609 277.801 64.1503 278.604 65.1464 279.658C66.1542 280.701 66.9277 281.967 67.4667 283.455C68.0058 284.932 68.2753 286.596 68.2753 288.447V289.977C68.2753 291.828 68.0058 293.498 67.4667 294.986C66.9277 296.463 66.1484 297.723 65.1288 298.766C64.121 299.809 62.9023 300.611 61.4726 301.174C60.0546 301.725 58.455 302 56.6738 302ZM53.1406 276.406V302H49.748V276.406H53.1406ZM80.7734 302.352C79.4492 302.352 78.248 302.129 77.1699 301.684C76.1034 301.227 75.1835 300.588 74.4101 299.768C73.6484 298.947 73.0624 297.975 72.6523 296.85C72.2421 295.725 72.037 294.494 72.037 293.158V292.42C72.037 290.873 72.2656 289.496 72.7226 288.289C73.1796 287.07 73.8007 286.039 74.5859 285.195C75.371 284.352 76.2617 283.713 77.2577 283.279C78.2538 282.846 79.2851 282.629 80.3515 282.629C81.7109 282.629 82.8827 282.863 83.8671 283.332C84.8632 283.801 85.6777 284.457 86.3105 285.301C86.9433 286.133 87.412 287.117 87.7167 288.254C88.0214 289.379 88.1738 290.609 88.1738 291.945V293.404H73.9706V290.75H84.9218V290.504C84.8749 289.66 84.6992 288.84 84.3945 288.043C84.1015 287.246 83.6327 286.59 82.9882 286.074C82.3437 285.559 81.4648 285.301 80.3515 285.301C79.6132 285.301 78.9335 285.459 78.3124 285.775C77.6913 286.08 77.1581 286.537 76.7128 287.146C76.2675 287.756 75.9218 288.5 75.6757 289.379C75.4296 290.258 75.3066 291.271 75.3066 292.42V293.158C75.3066 294.061 75.4296 294.91 75.6757 295.707C75.9335 296.492 76.3027 297.184 76.7831 297.781C77.2753 298.379 77.8671 298.848 78.5585 299.188C79.2617 299.527 80.0585 299.697 80.9492 299.697C82.0976 299.697 83.0702 299.463 83.8671 298.994C84.664 298.525 85.3613 297.898 85.9589 297.113L87.9277 298.678C87.5175 299.299 86.996 299.891 86.3632 300.453C85.7304 301.016 84.9511 301.473 84.0253 301.824C83.1113 302.176 82.0273 302.352 80.7734 302.352ZM96.8222 302H93.5702V280.977C93.5702 279.605 93.8163 278.451 94.3085 277.514C94.8124 276.564 95.5331 275.85 96.4706 275.369C97.4081 274.877 98.5214 274.631 99.8105 274.631C100.185 274.631 100.56 274.654 100.935 274.701C101.322 274.748 101.697 274.818 102.06 274.912L101.885 277.566C101.639 277.508 101.357 277.467 101.041 277.443C100.736 277.42 100.432 277.408 100.127 277.408C99.4355 277.408 98.8378 277.549 98.3339 277.83C97.8417 278.1 97.4667 278.498 97.2089 279.025C96.9511 279.553 96.8222 280.203 96.8222 280.977V302ZM100.865 282.98V285.477H90.5644V282.98H100.865ZM115.701 298.748V288.957C115.701 288.207 115.549 287.557 115.244 287.006C114.951 286.443 114.506 286.01 113.908 285.705C113.31 285.4 112.572 285.248 111.693 285.248C110.873 285.248 110.152 285.389 109.531 285.67C108.922 285.951 108.441 286.32 108.09 286.777C107.75 287.234 107.58 287.727 107.58 288.254H104.328C104.328 287.574 104.504 286.9 104.855 286.232C105.207 285.564 105.711 284.961 106.367 284.422C107.035 283.871 107.832 283.438 108.758 283.121C109.695 282.793 110.738 282.629 111.887 282.629C113.269 282.629 114.488 282.863 115.543 283.332C116.609 283.801 117.441 284.51 118.039 285.459C118.648 286.396 118.953 287.574 118.953 288.992V297.852C118.953 298.484 119.006 299.158 119.111 299.873C119.228 300.588 119.398 301.203 119.621 301.719V302H116.228C116.064 301.625 115.935 301.127 115.842 300.506C115.748 299.873 115.701 299.287 115.701 298.748ZM116.264 290.469L116.299 292.754H113.012C112.086 292.754 111.26 292.83 110.533 292.982C109.807 293.123 109.197 293.34 108.705 293.633C108.213 293.926 107.838 294.295 107.58 294.74C107.322 295.174 107.193 295.684 107.193 296.27C107.193 296.867 107.328 297.412 107.598 297.904C107.867 298.396 108.271 298.789 108.81 299.082C109.361 299.363 110.035 299.504 110.832 299.504C111.828 299.504 112.707 299.293 113.469 298.871C114.23 298.449 114.834 297.934 115.279 297.324C115.736 296.715 115.982 296.123 116.018 295.549L117.406 297.113C117.324 297.605 117.101 298.15 116.738 298.748C116.375 299.346 115.889 299.92 115.279 300.471C114.682 301.01 113.967 301.461 113.135 301.824C112.314 302.176 111.389 302.352 110.357 302.352C109.068 302.352 107.937 302.1 106.965 301.596C106.004 301.092 105.254 300.418 104.715 299.574C104.187 298.719 103.924 297.764 103.924 296.709C103.924 295.689 104.123 294.793 104.521 294.02C104.92 293.234 105.494 292.584 106.244 292.068C106.994 291.541 107.896 291.143 108.951 290.873C110.006 290.604 111.184 290.469 112.484 290.469H116.264ZM135.705 297.605V282.98H138.975V302H135.863L135.705 297.605ZM136.32 293.598L137.674 293.562C137.674 294.828 137.539 296 137.269 297.078C137.012 298.145 136.59 299.07 136.004 299.855C135.418 300.641 134.65 301.256 133.701 301.701C132.752 302.135 131.598 302.352 130.238 302.352C129.312 302.352 128.463 302.217 127.689 301.947C126.928 301.678 126.271 301.262 125.721 300.699C125.17 300.137 124.742 299.404 124.437 298.502C124.144 297.6 123.998 296.516 123.998 295.25V282.98H127.25V295.285C127.25 296.141 127.344 296.85 127.531 297.412C127.73 297.963 127.994 298.402 128.322 298.73C128.662 299.047 129.037 299.27 129.447 299.398C129.869 299.527 130.303 299.592 130.748 299.592C132.131 299.592 133.226 299.328 134.035 298.801C134.844 298.262 135.424 297.541 135.775 296.639C136.139 295.725 136.32 294.711 136.32 293.598ZM147.465 275V302H144.195V275H147.465ZM160.648 282.98V285.477H150.365V282.98H160.648ZM153.846 278.357H157.098V297.289C157.098 297.934 157.197 298.42 157.396 298.748C157.596 299.076 157.853 299.293 158.17 299.398C158.486 299.504 158.826 299.557 159.189 299.557C159.459 299.557 159.74 299.533 160.033 299.486C160.338 299.428 160.566 299.381 160.719 299.346L160.736 302C160.478 302.082 160.139 302.158 159.717 302.229C159.307 302.311 158.809 302.352 158.223 302.352C157.426 302.352 156.693 302.193 156.025 301.877C155.357 301.561 154.824 301.033 154.426 300.295C154.039 299.545 153.846 298.537 153.846 297.271V278.357ZM72.8808 318.406H81.3534C83.2753 318.406 84.8984 318.699 86.2226 319.285C87.5585 319.871 88.5722 320.738 89.2636 321.887C89.9667 323.023 90.3183 324.424 90.3183 326.088C90.3183 327.26 90.0781 328.332 89.5976 329.305C89.1288 330.266 88.4492 331.086 87.5585 331.766C86.6796 332.434 85.6249 332.932 84.3945 333.26L83.4452 333.629H75.4824L75.4472 330.869H81.4589C82.6777 330.869 83.6913 330.658 84.4999 330.236C85.3085 329.803 85.9179 329.223 86.3281 328.496C86.7382 327.77 86.9433 326.967 86.9433 326.088C86.9433 325.104 86.7499 324.242 86.3632 323.504C85.9765 322.766 85.3671 322.197 84.5351 321.799C83.7148 321.389 82.6542 321.184 81.3534 321.184H76.2734V344H72.8808V318.406ZM87.8398 344L81.6171 332.398L85.1503 332.381L91.4609 343.789V344H87.8398ZM105.787 340.748V330.957C105.787 330.207 105.635 329.557 105.33 329.006C105.037 328.443 104.592 328.01 103.994 327.705C103.396 327.4 102.658 327.248 101.779 327.248C100.959 327.248 100.238 327.389 99.6171 327.67C99.0077 327.951 98.5273 328.32 98.1757 328.777C97.8359 329.234 97.6659 329.727 97.6659 330.254H94.414C94.414 329.574 94.5898 328.9 94.9413 328.232C95.2929 327.564 95.7968 326.961 96.4531 326.422C97.121 325.871 97.9179 325.438 98.8437 325.121C99.7812 324.793 100.824 324.629 101.973 324.629C103.355 324.629 104.574 324.863 105.629 325.332C106.695 325.801 107.527 326.51 108.125 327.459C108.734 328.396 109.039 329.574 109.039 330.992V339.852C109.039 340.484 109.092 341.158 109.197 341.873C109.314 342.588 109.484 343.203 109.707 343.719V344H106.314C106.15 343.625 106.021 343.127 105.928 342.506C105.834 341.873 105.787 341.287 105.787 340.748ZM106.35 332.469L106.385 334.754H103.098C102.172 334.754 101.346 334.83 100.619 334.982C99.8925 335.123 99.2831 335.34 98.7909 335.633C98.2988 335.926 97.9238 336.295 97.6659 336.74C97.4081 337.174 97.2792 337.684 97.2792 338.27C97.2792 338.867 97.414 339.412 97.6835 339.904C97.9531 340.396 98.3574 340.789 98.8964 341.082C99.4472 341.363 100.121 341.504 100.918 341.504C101.914 341.504 102.793 341.293 103.555 340.871C104.316 340.449 104.92 339.934 105.365 339.324C105.822 338.715 106.068 338.123 106.103 337.549L107.492 339.113C107.41 339.605 107.187 340.15 106.824 340.748C106.461 341.346 105.975 341.92 105.365 342.471C104.768 343.01 104.053 343.461 103.221 343.824C102.4 344.176 101.475 344.352 100.443 344.352C99.1542 344.352 98.0234 344.1 97.0507 343.596C96.0898 343.092 95.3398 342.418 94.8007 341.574C94.2734 340.719 94.0097 339.764 94.0097 338.709C94.0097 337.689 94.2089 336.793 94.6074 336.02C95.0058 335.234 95.58 334.584 96.33 334.068C97.08 333.541 97.9824 333.143 99.037 332.873C100.092 332.604 101.269 332.469 102.57 332.469H106.35ZM117.687 324.98V344H114.418V324.98H117.687ZM114.172 319.936C114.172 319.408 114.33 318.963 114.646 318.6C114.975 318.236 115.455 318.055 116.088 318.055C116.709 318.055 117.184 318.236 117.512 318.6C117.851 318.963 118.021 319.408 118.021 319.936C118.021 320.439 117.851 320.873 117.512 321.236C117.184 321.588 116.709 321.764 116.088 321.764C115.455 321.764 114.975 321.588 114.646 321.236C114.33 320.873 114.172 320.439 114.172 319.936ZM126.441 317V344H123.172V317H126.441ZM142.736 338.955C142.736 338.486 142.631 338.053 142.42 337.654C142.221 337.244 141.805 336.875 141.172 336.547C140.551 336.207 139.613 335.914 138.359 335.668C137.305 335.445 136.35 335.182 135.494 334.877C134.65 334.572 133.93 334.203 133.332 333.77C132.746 333.336 132.295 332.826 131.978 332.24C131.662 331.654 131.504 330.969 131.504 330.184C131.504 329.434 131.668 328.725 131.996 328.057C132.336 327.389 132.81 326.797 133.42 326.281C134.041 325.766 134.785 325.361 135.652 325.068C136.519 324.775 137.486 324.629 138.553 324.629C140.076 324.629 141.377 324.898 142.455 325.438C143.533 325.977 144.359 326.697 144.934 327.6C145.508 328.49 145.795 329.48 145.795 330.57H142.543C142.543 330.043 142.385 329.533 142.068 329.041C141.764 328.537 141.312 328.121 140.715 327.793C140.129 327.465 139.408 327.301 138.553 327.301C137.65 327.301 136.918 327.441 136.355 327.723C135.805 327.992 135.4 328.338 135.143 328.76C134.896 329.182 134.773 329.627 134.773 330.096C134.773 330.447 134.832 330.764 134.949 331.045C135.078 331.314 135.301 331.566 135.617 331.801C135.934 332.023 136.379 332.234 136.953 332.434C137.527 332.633 138.26 332.832 139.15 333.031C140.709 333.383 141.992 333.805 143 334.297C144.008 334.789 144.758 335.393 145.25 336.107C145.742 336.822 145.988 337.689 145.988 338.709C145.988 339.541 145.812 340.303 145.461 340.994C145.121 341.686 144.623 342.283 143.967 342.787C143.322 343.279 142.549 343.666 141.646 343.947C140.756 344.217 139.754 344.352 138.641 344.352C136.965 344.352 135.547 344.053 134.387 343.455C133.227 342.857 132.348 342.084 131.75 341.135C131.152 340.186 130.853 339.184 130.853 338.129H134.123C134.17 339.02 134.428 339.729 134.896 340.256C135.365 340.771 135.939 341.141 136.619 341.363C137.299 341.574 137.973 341.68 138.641 341.68C139.531 341.68 140.275 341.562 140.873 341.328C141.482 341.094 141.945 340.771 142.262 340.361C142.578 339.951 142.736 339.482 142.736 338.955ZM26.9667 382.748V372.957C26.9667 372.207 26.8144 371.557 26.5097 371.006C26.2167 370.443 25.7714 370.01 25.1738 369.705C24.5761 369.4 23.8378 369.248 22.9589 369.248C22.1386 369.248 21.4179 369.389 20.7968 369.67C20.1874 369.951 19.707 370.32 19.3554 370.777C19.0156 371.234 18.8456 371.727 18.8456 372.254H15.5937C15.5937 371.574 15.7695 370.9 16.121 370.232C16.4726 369.564 16.9765 368.961 17.6327 368.422C18.3007 367.871 19.0976 367.438 20.0234 367.121C20.9609 366.793 22.0038 366.629 23.1523 366.629C24.5351 366.629 25.7538 366.863 26.8085 367.332C27.8749 367.801 28.707 368.51 29.3046 369.459C29.914 370.396 30.2187 371.574 30.2187 372.992V381.852C30.2187 382.484 30.2714 383.158 30.3769 383.873C30.4941 384.588 30.664 385.203 30.8867 385.719V386H27.4941C27.33 385.625 27.2011 385.127 27.1074 384.506C27.0136 383.873 26.9667 383.287 26.9667 382.748ZM27.5292 374.469L27.5644 376.754H24.2773C23.3515 376.754 22.5253 376.83 21.7988 376.982C21.0722 377.123 20.4628 377.34 19.9706 377.633C19.4784 377.926 19.1034 378.295 18.8456 378.74C18.5878 379.174 18.4589 379.684 18.4589 380.27C18.4589 380.867 18.5937 381.412 18.8632 381.904C19.1327 382.396 19.537 382.789 20.0761 383.082C20.6269 383.363 21.3007 383.504 22.0976 383.504C23.0937 383.504 23.9726 383.293 24.7343 382.871C25.496 382.449 26.0995 381.934 26.5449 381.324C27.0019 380.715 27.248 380.123 27.2831 379.549L28.6718 381.113C28.5898 381.605 28.3671 382.15 28.0038 382.748C27.6406 383.346 27.1542 383.92 26.5449 384.471C25.9472 385.01 25.2324 385.461 24.4003 385.824C23.58 386.176 22.6542 386.352 21.623 386.352C20.3339 386.352 19.2031 386.1 18.2304 385.596C17.2695 385.092 16.5195 384.418 15.9804 383.574C15.4531 382.719 15.1894 381.764 15.1894 380.709C15.1894 379.689 15.3886 378.793 15.787 378.02C16.1855 377.234 16.7597 376.584 17.5097 376.068C18.2597 375.541 19.162 375.143 20.2167 374.873C21.2714 374.604 22.4492 374.469 23.7499 374.469H27.5292ZM38.5859 369.969V386H35.3339V366.98H38.498L38.5859 369.969ZM44.5273 366.875L44.5097 369.898C44.2402 369.84 43.9824 369.805 43.7363 369.793C43.5019 369.77 43.2324 369.758 42.9277 369.758C42.1777 369.758 41.5156 369.875 40.9413 370.109C40.3671 370.344 39.8808 370.672 39.4824 371.094C39.0839 371.516 38.7675 372.02 38.5331 372.605C38.3105 373.18 38.164 373.812 38.0937 374.504L37.1796 375.031C37.1796 373.883 37.2909 372.805 37.5136 371.797C37.748 370.789 38.1054 369.898 38.5859 369.125C39.0663 368.34 39.6757 367.73 40.414 367.297C41.164 366.852 42.0546 366.629 43.0859 366.629C43.3202 366.629 43.5898 366.658 43.8945 366.717C44.1992 366.764 44.4101 366.816 44.5273 366.875ZM54.7929 383.68C55.5663 383.68 56.2812 383.521 56.9374 383.205C57.5937 382.889 58.1327 382.455 58.5546 381.904C58.9765 381.342 59.2167 380.703 59.2753 379.988H62.3691C62.3105 381.113 61.9296 382.162 61.2265 383.135C60.5351 384.096 59.6269 384.875 58.5019 385.473C57.3769 386.059 56.1406 386.352 54.7929 386.352C53.3632 386.352 52.1152 386.1 51.0488 385.596C49.9941 385.092 49.1152 384.4 48.412 383.521C47.7206 382.643 47.1992 381.635 46.8476 380.498C46.5077 379.35 46.3378 378.137 46.3378 376.859V376.121C46.3378 374.844 46.5077 373.637 46.8476 372.5C47.1992 371.352 47.7206 370.338 48.412 369.459C49.1152 368.58 49.9941 367.889 51.0488 367.385C52.1152 366.881 53.3632 366.629 54.7929 366.629C56.2812 366.629 57.582 366.934 58.6952 367.543C59.8085 368.141 60.6816 368.961 61.3144 370.004C61.9589 371.035 62.3105 372.207 62.3691 373.52H59.2753C59.2167 372.734 58.9941 372.025 58.6074 371.393C58.2324 370.76 57.7167 370.256 57.0605 369.881C56.4159 369.494 55.6601 369.301 54.7929 369.301C53.7968 369.301 52.9589 369.5 52.2792 369.898C51.6113 370.285 51.0781 370.812 50.6796 371.48C50.2929 372.137 50.0117 372.869 49.8359 373.678C49.6718 374.475 49.5898 375.289 49.5898 376.121V376.859C49.5898 377.691 49.6718 378.512 49.8359 379.32C49.9999 380.129 50.2753 380.861 50.662 381.518C51.0605 382.174 51.5937 382.701 52.2617 383.1C52.9413 383.486 53.7851 383.68 54.7929 383.68ZM69.2773 359V386H66.0253V359H69.2773ZM68.5038 375.77L67.1503 375.717C67.162 374.416 67.3554 373.215 67.7304 372.113C68.1054 371 68.6327 370.033 69.3124 369.213C69.9921 368.393 70.8007 367.76 71.7382 367.314C72.6874 366.857 73.7363 366.629 74.8847 366.629C75.8222 366.629 76.6659 366.758 77.4159 367.016C78.1659 367.262 78.8046 367.66 79.332 368.211C79.871 368.762 80.2812 369.477 80.5624 370.355C80.8437 371.223 80.9843 372.283 80.9843 373.537V386H77.7148V373.502C77.7148 372.506 77.5683 371.709 77.2753 371.111C76.9824 370.502 76.5546 370.062 75.9921 369.793C75.4296 369.512 74.7382 369.371 73.9179 369.371C73.1093 369.371 72.371 369.541 71.7031 369.881C71.0468 370.221 70.4784 370.689 69.998 371.287C69.5292 371.885 69.1601 372.57 68.8906 373.344C68.6327 374.105 68.5038 374.914 68.5038 375.77ZM89.3867 366.98V386H86.1171V366.98H89.3867ZM85.871 361.936C85.871 361.408 86.0292 360.963 86.3456 360.6C86.6738 360.236 87.1542 360.055 87.787 360.055C88.4081 360.055 88.8827 360.236 89.2109 360.6C89.5507 360.963 89.7206 361.408 89.7206 361.936C89.7206 362.439 89.5507 362.873 89.2109 363.236C88.8827 363.588 88.4081 363.764 87.787 363.764C87.1542 363.764 86.6738 363.588 86.3456 363.236C86.0292 362.873 85.871 362.439 85.871 361.936ZM102.57 366.98V369.477H92.287V366.98H102.57ZM95.7675 362.357H99.0195V381.289C99.0195 381.934 99.1191 382.42 99.3183 382.748C99.5175 383.076 99.7753 383.293 100.092 383.398C100.408 383.504 100.748 383.557 101.111 383.557C101.381 383.557 101.662 383.533 101.955 383.486C102.26 383.428 102.488 383.381 102.641 383.346L102.658 386C102.4 386.082 102.06 386.158 101.639 386.229C101.228 386.311 100.73 386.352 100.144 386.352C99.3476 386.352 98.6152 386.193 97.9472 385.877C97.2792 385.561 96.746 385.033 96.3476 384.295C95.9609 383.545 95.7675 382.537 95.7675 381.271V362.357ZM114.277 386.352C112.953 386.352 111.752 386.129 110.674 385.684C109.607 385.227 108.687 384.588 107.914 383.768C107.152 382.947 106.566 381.975 106.156 380.85C105.746 379.725 105.541 378.494 105.541 377.158V376.42C105.541 374.873 105.769 373.496 106.226 372.289C106.684 371.07 107.305 370.039 108.09 369.195C108.875 368.352 109.766 367.713 110.762 367.279C111.758 366.846 112.789 366.629 113.855 366.629C115.215 366.629 116.387 366.863 117.371 367.332C118.367 367.801 119.182 368.457 119.814 369.301C120.447 370.133 120.916 371.117 121.221 372.254C121.525 373.379 121.678 374.609 121.678 375.945V377.404H107.475V374.75H118.426V374.504C118.379 373.66 118.203 372.84 117.898 372.043C117.605 371.246 117.137 370.59 116.492 370.074C115.848 369.559 114.969 369.301 113.855 369.301C113.117 369.301 112.437 369.459 111.816 369.775C111.195 370.08 110.662 370.537 110.217 371.146C109.771 371.756 109.426 372.5 109.18 373.379C108.934 374.258 108.81 375.271 108.81 376.42V377.158C108.81 378.061 108.934 378.91 109.18 379.707C109.437 380.492 109.807 381.184 110.287 381.781C110.779 382.379 111.371 382.848 112.062 383.188C112.766 383.527 113.562 383.697 114.453 383.697C115.601 383.697 116.574 383.463 117.371 382.994C118.168 382.525 118.865 381.898 119.463 381.113L121.432 382.678C121.021 383.299 120.5 383.891 119.867 384.453C119.234 385.016 118.455 385.473 117.529 385.824C116.615 386.176 115.531 386.352 114.277 386.352ZM133.086 383.68C133.859 383.68 134.574 383.521 135.23 383.205C135.887 382.889 136.426 382.455 136.848 381.904C137.269 381.342 137.51 380.703 137.568 379.988H140.662C140.603 381.113 140.223 382.162 139.519 383.135C138.828 384.096 137.92 384.875 136.795 385.473C135.67 386.059 134.434 386.352 133.086 386.352C131.656 386.352 130.408 386.1 129.342 385.596C128.287 385.092 127.408 384.4 126.705 383.521C126.014 382.643 125.492 381.635 125.141 380.498C124.801 379.35 124.631 378.137 124.631 376.859V376.121C124.631 374.844 124.801 373.637 125.141 372.5C125.492 371.352 126.014 370.338 126.705 369.459C127.408 368.58 128.287 367.889 129.342 367.385C130.408 366.881 131.656 366.629 133.086 366.629C134.574 366.629 135.875 366.934 136.988 367.543C138.101 368.141 138.975 368.961 139.607 370.004C140.252 371.035 140.603 372.207 140.662 373.52H137.568C137.51 372.734 137.287 372.025 136.9 371.393C136.525 370.76 136.01 370.256 135.353 369.881C134.709 369.494 133.953 369.301 133.086 369.301C132.09 369.301 131.252 369.5 130.572 369.898C129.904 370.285 129.371 370.812 128.973 371.48C128.586 372.137 128.305 372.869 128.129 373.678C127.965 374.475 127.883 375.289 127.883 376.121V376.859C127.883 377.691 127.965 378.512 128.129 379.32C128.293 380.129 128.568 380.861 128.955 381.518C129.353 382.174 129.887 382.701 130.555 383.1C131.234 383.486 132.078 383.68 133.086 383.68ZM152.281 366.98V369.477H141.998V366.98H152.281ZM145.478 362.357H148.73V381.289C148.73 381.934 148.83 382.42 149.029 382.748C149.228 383.076 149.486 383.293 149.803 383.398C150.119 383.504 150.459 383.557 150.822 383.557C151.092 383.557 151.373 383.533 151.666 383.486C151.971 383.428 152.199 383.381 152.352 383.346L152.369 386C152.111 386.082 151.771 386.158 151.35 386.229C150.939 386.311 150.441 386.352 149.855 386.352C149.059 386.352 148.326 386.193 147.658 385.877C146.99 385.561 146.457 385.033 146.059 384.295C145.672 383.545 145.478 382.537 145.478 381.271V362.357ZM167.732 381.605V366.98H171.002V386H167.891L167.732 381.605ZM168.348 377.598L169.701 377.562C169.701 378.828 169.566 380 169.297 381.078C169.039 382.145 168.617 383.07 168.031 383.855C167.445 384.641 166.678 385.256 165.728 385.701C164.779 386.135 163.625 386.352 162.266 386.352C161.34 386.352 160.49 386.217 159.717 385.947C158.955 385.678 158.299 385.262 157.748 384.699C157.197 384.137 156.769 383.404 156.465 382.502C156.172 381.6 156.025 380.516 156.025 379.25V366.98H159.277V379.285C159.277 380.141 159.371 380.85 159.559 381.412C159.758 381.963 160.021 382.402 160.35 382.73C160.689 383.047 161.064 383.27 161.475 383.398C161.896 383.527 162.33 383.592 162.775 383.592C164.158 383.592 165.254 383.328 166.062 382.801C166.871 382.262 167.451 381.541 167.803 380.639C168.166 379.725 168.348 378.711 168.348 377.598ZM179.211 369.969V386H175.959V366.98H179.123L179.211 369.969ZM185.152 366.875L185.135 369.898C184.865 369.84 184.607 369.805 184.361 369.793C184.127 369.77 183.857 369.758 183.553 369.758C182.803 369.758 182.141 369.875 181.566 370.109C180.992 370.344 180.506 370.672 180.107 371.094C179.709 371.516 179.393 372.02 179.158 372.605C178.935 373.18 178.789 373.812 178.719 374.504L177.805 375.031C177.805 373.883 177.916 372.805 178.139 371.797C178.373 370.789 178.73 369.898 179.211 369.125C179.691 368.34 180.301 367.73 181.039 367.297C181.789 366.852 182.68 366.629 183.711 366.629C183.945 366.629 184.215 366.658 184.519 366.717C184.824 366.764 185.035 366.816 185.152 366.875ZM195.699 386.352C194.375 386.352 193.174 386.129 192.096 385.684C191.029 385.227 190.109 384.588 189.336 383.768C188.574 382.947 187.988 381.975 187.578 380.85C187.168 379.725 186.963 378.494 186.963 377.158V376.42C186.963 374.873 187.191 373.496 187.648 372.289C188.105 371.07 188.727 370.039 189.512 369.195C190.297 368.352 191.187 367.713 192.184 367.279C193.18 366.846 194.211 366.629 195.277 366.629C196.637 366.629 197.809 366.863 198.793 367.332C199.789 367.801 200.603 368.457 201.236 369.301C201.869 370.133 202.338 371.117 202.643 372.254C202.947 373.379 203.1 374.609 203.1 375.945V377.404H188.896V374.75H199.848V374.504C199.801 373.66 199.625 372.84 199.32 372.043C199.027 371.246 198.559 370.59 197.914 370.074C197.269 369.559 196.391 369.301 195.277 369.301C194.539 369.301 193.859 369.459 193.238 369.775C192.617 370.08 192.084 370.537 191.639 371.146C191.193 371.756 190.848 372.5 190.602 373.379C190.355 374.258 190.232 375.271 190.232 376.42V377.158C190.232 378.061 190.355 378.91 190.602 379.707C190.859 380.492 191.228 381.184 191.709 381.781C192.201 382.379 192.793 382.848 193.484 383.188C194.187 383.527 194.984 383.697 195.875 383.697C197.023 383.697 197.996 383.463 198.793 382.994C199.59 382.525 200.287 381.898 200.885 381.113L202.853 382.678C202.443 383.299 201.922 383.891 201.289 384.453C200.656 385.016 199.877 385.473 198.951 385.824C198.037 386.176 196.953 386.352 195.699 386.352Z" fill="white"/>
<path d="M1146.87 276.406H1155.34C1157.27 276.406 1158.89 276.699 1160.21 277.285C1161.55 277.871 1162.56 278.738 1163.25 279.887C1163.96 281.024 1164.31 282.424 1164.31 284.088C1164.31 285.26 1164.07 286.332 1163.59 287.305C1163.12 288.266 1162.44 289.086 1161.55 289.766C1160.67 290.434 1159.61 290.932 1158.38 291.26L1157.44 291.629H1149.47L1149.44 288.869H1155.45C1156.67 288.869 1157.68 288.658 1158.49 288.236C1159.3 287.803 1159.91 287.223 1160.32 286.496C1160.73 285.77 1160.93 284.967 1160.93 284.088C1160.93 283.104 1160.74 282.242 1160.35 281.504C1159.97 280.766 1159.36 280.197 1158.53 279.799C1157.7 279.389 1156.64 279.184 1155.34 279.184H1150.26V302H1146.87V276.406ZM1161.83 302L1155.61 290.399L1159.14 290.381L1165.45 301.789V302H1161.83ZM1179.78 298.748V288.957C1179.78 288.207 1179.62 287.557 1179.32 287.006C1179.03 286.443 1178.58 286.01 1177.98 285.705C1177.39 285.401 1176.65 285.248 1175.77 285.248C1174.95 285.248 1174.23 285.389 1173.61 285.67C1173 285.951 1172.52 286.32 1172.17 286.777C1171.83 287.234 1171.66 287.727 1171.66 288.254H1168.4C1168.4 287.574 1168.58 286.901 1168.93 286.233C1169.28 285.565 1169.79 284.961 1170.44 284.422C1171.11 283.871 1171.91 283.438 1172.83 283.121C1173.77 282.793 1174.81 282.629 1175.96 282.629C1177.35 282.629 1178.56 282.863 1179.62 283.332C1180.69 283.801 1181.52 284.51 1182.11 285.459C1182.72 286.397 1183.03 287.574 1183.03 288.992V297.852C1183.03 298.484 1183.08 299.158 1183.19 299.873C1183.3 300.588 1183.47 301.203 1183.7 301.719V302H1180.3C1180.14 301.625 1180.01 301.127 1179.92 300.506C1179.82 299.873 1179.78 299.287 1179.78 298.748ZM1180.34 290.469L1180.37 292.754H1177.09C1176.16 292.754 1175.34 292.83 1174.61 292.983C1173.88 293.123 1173.27 293.34 1172.78 293.633C1172.29 293.926 1171.91 294.295 1171.66 294.74C1171.4 295.174 1171.27 295.684 1171.27 296.27C1171.27 296.867 1171.4 297.412 1171.67 297.904C1171.94 298.397 1172.35 298.789 1172.89 299.082C1173.44 299.363 1174.11 299.504 1174.91 299.504C1175.9 299.504 1176.78 299.293 1177.54 298.871C1178.31 298.449 1178.91 297.934 1179.36 297.324C1179.81 296.715 1180.06 296.123 1180.09 295.549L1181.48 297.113C1181.4 297.606 1181.18 298.151 1180.81 298.748C1180.45 299.346 1179.96 299.92 1179.36 300.471C1178.76 301.01 1178.04 301.461 1177.21 301.824C1176.39 302.176 1175.46 302.352 1174.43 302.352C1173.14 302.352 1172.01 302.1 1171.04 301.596C1170.08 301.092 1169.33 300.418 1168.79 299.574C1168.26 298.719 1168 297.764 1168 296.709C1168 295.69 1168.2 294.793 1168.6 294.02C1169 293.234 1169.57 292.584 1170.32 292.068C1171.07 291.541 1171.97 291.143 1173.03 290.873C1174.08 290.604 1175.26 290.469 1176.56 290.469H1180.34ZM1191.68 282.981V302H1188.41V282.981H1191.68ZM1188.16 277.936C1188.16 277.408 1188.32 276.963 1188.64 276.6C1188.96 276.236 1189.44 276.055 1190.08 276.055C1190.7 276.055 1191.17 276.236 1191.5 276.6C1191.84 276.963 1192.01 277.408 1192.01 277.936C1192.01 278.44 1191.84 278.873 1191.5 279.236C1191.17 279.588 1190.7 279.764 1190.08 279.764C1189.44 279.764 1188.96 279.588 1188.64 279.236C1188.32 278.873 1188.16 278.44 1188.16 277.936ZM1200.43 275V302H1197.16V275H1200.43ZM1216.73 296.955C1216.73 296.486 1216.62 296.053 1216.41 295.654C1216.21 295.244 1215.79 294.875 1215.16 294.547C1214.54 294.207 1213.6 293.914 1212.35 293.668C1211.29 293.445 1210.34 293.182 1209.48 292.877C1208.64 292.572 1207.92 292.203 1207.32 291.77C1206.74 291.336 1206.28 290.826 1205.97 290.24C1205.65 289.654 1205.49 288.969 1205.49 288.184C1205.49 287.434 1205.66 286.725 1205.99 286.057C1206.33 285.389 1206.8 284.797 1207.41 284.281C1208.03 283.766 1208.78 283.361 1209.64 283.068C1210.51 282.776 1211.48 282.629 1212.54 282.629C1214.07 282.629 1215.37 282.899 1216.44 283.438C1217.52 283.977 1218.35 284.697 1218.92 285.6C1219.5 286.49 1219.78 287.481 1219.78 288.57H1216.53C1216.53 288.043 1216.37 287.533 1216.06 287.041C1215.75 286.537 1215.3 286.121 1214.7 285.793C1214.12 285.465 1213.4 285.301 1212.54 285.301C1211.64 285.301 1210.91 285.442 1210.35 285.723C1209.79 285.992 1209.39 286.338 1209.13 286.76C1208.89 287.182 1208.76 287.627 1208.76 288.096C1208.76 288.447 1208.82 288.764 1208.94 289.045C1209.07 289.315 1209.29 289.567 1209.61 289.801C1209.92 290.024 1210.37 290.234 1210.94 290.434C1211.52 290.633 1212.25 290.832 1213.14 291.031C1214.7 291.383 1215.98 291.805 1216.99 292.297C1218 292.789 1218.75 293.393 1219.24 294.108C1219.73 294.822 1219.98 295.69 1219.98 296.709C1219.98 297.541 1219.8 298.303 1219.45 298.994C1219.11 299.686 1218.61 300.283 1217.96 300.787C1217.31 301.279 1216.54 301.666 1215.64 301.947C1214.75 302.217 1213.74 302.352 1212.63 302.352C1210.95 302.352 1209.54 302.053 1208.38 301.455C1207.22 300.858 1206.34 300.084 1205.74 299.135C1205.14 298.186 1204.84 297.184 1204.84 296.129H1208.11C1208.16 297.02 1208.42 297.729 1208.89 298.256C1209.36 298.772 1209.93 299.141 1210.61 299.363C1211.29 299.574 1211.96 299.68 1212.63 299.68C1213.52 299.68 1214.27 299.563 1214.86 299.328C1215.47 299.094 1215.94 298.772 1216.25 298.361C1216.57 297.951 1216.73 297.483 1216.73 296.955ZM1130.44 344.352C1129.11 344.352 1127.91 344.129 1126.83 343.684C1125.77 343.227 1124.85 342.588 1124.07 341.768C1123.31 340.947 1122.72 339.975 1122.31 338.85C1121.9 337.725 1121.7 336.494 1121.7 335.158V334.42C1121.7 332.873 1121.93 331.496 1122.38 330.289C1122.84 329.07 1123.46 328.039 1124.25 327.195C1125.03 326.352 1125.92 325.713 1126.92 325.279C1127.92 324.846 1128.95 324.629 1130.01 324.629C1131.37 324.629 1132.54 324.863 1133.53 325.332C1134.53 325.801 1135.34 326.457 1135.97 327.301C1136.61 328.133 1137.07 329.117 1137.38 330.254C1137.68 331.379 1137.84 332.609 1137.84 333.945V335.404H1123.63V332.75H1134.58V332.504C1134.54 331.66 1134.36 330.84 1134.06 330.043C1133.76 329.246 1133.29 328.59 1132.65 328.074C1132.01 327.559 1131.13 327.301 1130.01 327.301C1129.28 327.301 1128.6 327.459 1127.97 327.776C1127.35 328.08 1126.82 328.537 1126.37 329.147C1125.93 329.756 1125.58 330.5 1125.34 331.379C1125.09 332.258 1124.97 333.272 1124.97 334.42V335.158C1124.97 336.061 1125.09 336.91 1125.34 337.707C1125.6 338.492 1125.96 339.184 1126.44 339.781C1126.94 340.379 1127.53 340.848 1128.22 341.188C1128.92 341.527 1129.72 341.697 1130.61 341.697C1131.76 341.697 1132.73 341.463 1133.53 340.994C1134.33 340.526 1135.02 339.899 1135.62 339.113L1137.59 340.678C1137.18 341.299 1136.66 341.891 1136.03 342.453C1135.39 343.016 1134.61 343.473 1133.69 343.824C1132.77 344.176 1131.69 344.352 1130.44 344.352ZM1144.88 329.041V344H1141.63V324.981H1144.71L1144.88 329.041ZM1144.11 333.77L1142.76 333.717C1142.77 332.416 1142.96 331.215 1143.34 330.113C1143.71 329 1144.24 328.033 1144.92 327.213C1145.6 326.393 1146.41 325.76 1147.35 325.315C1148.29 324.858 1149.34 324.629 1150.49 324.629C1151.43 324.629 1152.27 324.758 1153.02 325.016C1153.77 325.262 1154.41 325.66 1154.94 326.211C1155.48 326.762 1155.89 327.477 1156.17 328.356C1156.45 329.223 1156.59 330.283 1156.59 331.537V344H1153.32V331.502C1153.32 330.506 1153.18 329.709 1152.88 329.111C1152.59 328.502 1152.16 328.063 1151.6 327.793C1151.04 327.512 1150.35 327.371 1149.53 327.371C1148.72 327.371 1147.98 327.541 1147.31 327.881C1146.65 328.221 1146.09 328.69 1145.61 329.287C1145.14 329.885 1144.77 330.57 1144.5 331.344C1144.24 332.106 1144.11 332.914 1144.11 333.77ZM1173.85 324.981H1176.81V343.596C1176.81 345.272 1176.47 346.701 1175.79 347.885C1175.11 349.068 1174.16 349.965 1172.94 350.574C1171.73 351.195 1170.34 351.506 1168.76 351.506C1168.1 351.506 1167.33 351.401 1166.44 351.19C1165.56 350.99 1164.69 350.645 1163.83 350.152C1162.99 349.672 1162.28 349.022 1161.71 348.201L1163.41 346.268C1164.21 347.229 1165.04 347.897 1165.91 348.272C1166.79 348.647 1167.65 348.834 1168.51 348.834C1169.54 348.834 1170.43 348.641 1171.18 348.254C1171.93 347.867 1172.51 347.293 1172.92 346.531C1173.34 345.781 1173.55 344.856 1173.55 343.754V329.164L1173.85 324.981ZM1160.76 334.701V334.332C1160.76 332.879 1160.93 331.561 1161.27 330.377C1161.62 329.182 1162.12 328.156 1162.76 327.301C1163.42 326.445 1164.21 325.789 1165.13 325.332C1166.06 324.863 1167.1 324.629 1168.26 324.629C1169.46 324.629 1170.5 324.84 1171.39 325.262C1172.29 325.672 1173.06 326.276 1173.68 327.072C1174.31 327.858 1174.81 328.807 1175.17 329.92C1175.53 331.033 1175.79 332.293 1175.93 333.699V335.317C1175.8 336.711 1175.55 337.965 1175.17 339.078C1174.81 340.192 1174.31 341.141 1173.68 341.926C1173.06 342.711 1172.29 343.315 1171.39 343.736C1170.49 344.147 1169.44 344.352 1168.23 344.352C1167.09 344.352 1166.06 344.111 1165.13 343.631C1164.22 343.151 1163.44 342.477 1162.78 341.609C1162.12 340.742 1161.62 339.723 1161.27 338.551C1160.93 337.367 1160.76 336.084 1160.76 334.701ZM1164.01 334.332V334.701C1164.01 335.651 1164.1 336.541 1164.29 337.373C1164.49 338.205 1164.79 338.938 1165.19 339.57C1165.6 340.203 1166.12 340.701 1166.75 341.065C1167.38 341.416 1168.14 341.592 1169.02 341.592C1170.1 341.592 1170.99 341.363 1171.69 340.906C1172.39 340.449 1172.95 339.846 1173.36 339.096C1173.78 338.346 1174.11 337.531 1174.35 336.652V332.416C1174.22 331.772 1174.02 331.151 1173.75 330.553C1173.49 329.943 1173.15 329.404 1172.73 328.936C1172.32 328.455 1171.81 328.074 1171.2 327.793C1170.59 327.512 1169.87 327.371 1169.05 327.371C1168.16 327.371 1167.4 327.559 1166.75 327.934C1166.12 328.297 1165.6 328.801 1165.19 329.445C1164.79 330.078 1164.49 330.817 1164.29 331.66C1164.1 332.492 1164.01 333.383 1164.01 334.332ZM1185.28 324.981V344H1182.01V324.981H1185.28ZM1181.76 319.936C1181.76 319.408 1181.92 318.963 1182.24 318.6C1182.57 318.236 1183.05 318.055 1183.68 318.055C1184.3 318.055 1184.78 318.236 1185.1 318.6C1185.44 318.963 1185.61 319.408 1185.61 319.936C1185.61 320.44 1185.44 320.873 1185.1 321.236C1184.78 321.588 1184.3 321.764 1183.68 321.764C1183.05 321.764 1182.57 321.588 1182.24 321.236C1181.92 320.873 1181.76 320.44 1181.76 319.936ZM1193.75 329.041V344H1190.5V324.981H1193.58L1193.75 329.041ZM1192.98 333.77L1191.62 333.717C1191.64 332.416 1191.83 331.215 1192.2 330.113C1192.58 329 1193.11 328.033 1193.79 327.213C1194.47 326.393 1195.28 325.76 1196.21 325.315C1197.16 324.858 1198.21 324.629 1199.36 324.629C1200.3 324.629 1201.14 324.758 1201.89 325.016C1202.64 325.262 1203.28 325.66 1203.81 326.211C1204.35 326.762 1204.76 327.477 1205.04 328.356C1205.32 329.223 1205.46 330.283 1205.46 331.537V344H1202.19V331.502C1202.19 330.506 1202.04 329.709 1201.75 329.111C1201.46 328.502 1201.03 328.063 1200.47 327.793C1199.9 327.512 1199.21 327.371 1198.39 327.371C1197.58 327.371 1196.85 327.541 1196.18 327.881C1195.52 328.221 1194.95 328.69 1194.47 329.287C1194 329.885 1193.63 330.57 1193.36 331.344C1193.11 332.106 1192.98 332.914 1192.98 333.77ZM1218.29 344.352C1216.97 344.352 1215.77 344.129 1214.69 343.684C1213.62 343.227 1212.7 342.588 1211.93 341.768C1211.17 340.947 1210.58 339.975 1210.17 338.85C1209.76 337.725 1209.55 336.494 1209.55 335.158V334.42C1209.55 332.873 1209.78 331.496 1210.24 330.289C1210.7 329.07 1211.32 328.039 1212.1 327.195C1212.89 326.352 1213.78 325.713 1214.78 325.279C1215.77 324.846 1216.8 324.629 1217.87 324.629C1219.23 324.629 1220.4 324.863 1221.38 325.332C1222.38 325.801 1223.19 326.457 1223.83 327.301C1224.46 328.133 1224.93 329.117 1225.23 330.254C1225.54 331.379 1225.69 332.609 1225.69 333.945V335.404H1211.49V332.75H1222.44V332.504C1222.39 331.66 1222.22 330.84 1221.91 330.043C1221.62 329.246 1221.15 328.59 1220.51 328.074C1219.86 327.559 1218.98 327.301 1217.87 327.301C1217.13 327.301 1216.45 327.459 1215.83 327.776C1215.21 328.08 1214.68 328.537 1214.23 329.147C1213.78 329.756 1213.44 330.5 1213.19 331.379C1212.95 332.258 1212.82 333.272 1212.82 334.42V335.158C1212.82 336.061 1212.95 336.91 1213.19 337.707C1213.45 338.492 1213.82 339.184 1214.3 339.781C1214.79 340.379 1215.38 340.848 1216.08 341.188C1216.78 341.527 1217.58 341.697 1218.47 341.697C1219.61 341.697 1220.59 341.463 1221.38 340.994C1222.18 340.526 1222.88 339.899 1223.48 339.113L1225.44 340.678C1225.03 341.299 1224.51 341.891 1223.88 342.453C1223.25 343.016 1222.47 343.473 1221.54 343.824C1220.63 344.176 1219.54 344.352 1218.29 344.352ZM1240.56 338.955C1240.56 338.486 1240.46 338.053 1240.25 337.654C1240.05 337.244 1239.63 336.875 1239 336.547C1238.38 336.207 1237.44 335.914 1236.19 335.668C1235.13 335.445 1234.18 335.182 1233.32 334.877C1232.48 334.572 1231.76 334.203 1231.16 333.77C1230.57 333.336 1230.12 332.826 1229.8 332.24C1229.49 331.654 1229.33 330.969 1229.33 330.184C1229.33 329.434 1229.49 328.725 1229.82 328.057C1230.16 327.389 1230.64 326.797 1231.25 326.281C1231.87 325.766 1232.61 325.361 1233.48 325.068C1234.35 324.776 1235.31 324.629 1236.38 324.629C1237.9 324.629 1239.2 324.899 1240.28 325.438C1241.36 325.977 1242.19 326.697 1242.76 327.6C1243.33 328.49 1243.62 329.481 1243.62 330.57H1240.37C1240.37 330.043 1240.21 329.533 1239.89 329.041C1239.59 328.537 1239.14 328.121 1238.54 327.793C1237.95 327.465 1237.23 327.301 1236.38 327.301C1235.48 327.301 1234.74 327.442 1234.18 327.723C1233.63 327.992 1233.23 328.338 1232.97 328.76C1232.72 329.182 1232.6 329.627 1232.6 330.096C1232.6 330.447 1232.66 330.764 1232.78 331.045C1232.9 331.315 1233.13 331.567 1233.44 331.801C1233.76 332.024 1234.2 332.234 1234.78 332.434C1235.35 332.633 1236.09 332.832 1236.98 333.031C1238.53 333.383 1239.82 333.805 1240.83 334.297C1241.83 334.789 1242.58 335.393 1243.08 336.108C1243.57 336.822 1243.81 337.69 1243.81 338.709C1243.81 339.541 1243.64 340.303 1243.29 340.994C1242.95 341.686 1242.45 342.283 1241.79 342.787C1241.15 343.279 1240.37 343.666 1239.47 343.947C1238.58 344.217 1237.58 344.352 1236.47 344.352C1234.79 344.352 1233.37 344.053 1232.21 343.455C1231.05 342.858 1230.17 342.084 1229.58 341.135C1228.98 340.186 1228.68 339.184 1228.68 338.129H1231.95C1232 339.02 1232.25 339.729 1232.72 340.256C1233.19 340.772 1233.77 341.141 1234.44 341.363C1235.12 341.574 1235.8 341.68 1236.47 341.68C1237.36 341.68 1238.1 341.563 1238.7 341.328C1239.31 341.094 1239.77 340.772 1240.09 340.361C1240.4 339.951 1240.56 339.483 1240.56 338.955ZM1119.96 375.77V375.594C1119.96 373.039 1120.25 370.731 1120.82 368.668C1121.39 366.594 1122.13 364.777 1123.02 363.219C1123.91 361.66 1124.85 360.371 1125.83 359.352C1126.81 358.32 1127.72 357.576 1128.55 357.119L1129.24 359.264C1128.55 359.791 1127.85 360.518 1127.13 361.443C1126.43 362.369 1125.78 363.506 1125.18 364.854C1124.59 366.201 1124.12 367.766 1123.76 369.547C1123.39 371.328 1123.21 373.332 1123.21 375.559V375.805C1123.21 378.031 1123.39 380.041 1123.76 381.834C1124.12 383.615 1124.59 385.186 1125.18 386.545C1125.78 387.904 1126.43 389.059 1127.13 390.008C1127.85 390.969 1128.55 391.731 1129.24 392.293L1128.55 394.262C1127.72 393.805 1126.81 393.061 1125.83 392.029C1124.85 391.01 1123.91 389.721 1123.02 388.162C1122.13 386.615 1121.39 384.805 1120.82 382.731C1120.25 380.656 1119.96 378.336 1119.96 375.77ZM1135.95 359V386H1132.69V359H1135.95ZM1140.31 376.701V376.297C1140.31 374.926 1140.51 373.654 1140.91 372.483C1141.31 371.299 1141.88 370.274 1142.63 369.406C1143.38 368.527 1144.29 367.848 1145.36 367.367C1146.43 366.875 1147.62 366.629 1148.94 366.629C1150.28 366.629 1151.48 366.875 1152.55 367.367C1153.63 367.848 1154.54 368.527 1155.29 369.406C1156.05 370.274 1156.63 371.299 1157.03 372.483C1157.43 373.654 1157.63 374.926 1157.63 376.297V376.701C1157.63 378.072 1157.43 379.344 1157.03 380.516C1156.63 381.688 1156.05 382.713 1155.29 383.592C1154.54 384.459 1153.63 385.139 1152.57 385.631C1151.51 386.111 1150.32 386.352 1148.98 386.352C1147.64 386.352 1146.44 386.111 1145.38 385.631C1144.31 385.139 1143.4 384.459 1142.63 383.592C1141.88 382.713 1141.31 381.688 1140.91 380.516C1140.51 379.344 1140.31 378.072 1140.31 376.701ZM1143.57 376.297V376.701C1143.57 377.651 1143.68 378.547 1143.9 379.391C1144.12 380.223 1144.46 380.961 1144.9 381.606C1145.36 382.25 1145.93 382.76 1146.61 383.135C1147.29 383.498 1148.08 383.68 1148.98 383.68C1149.87 383.68 1150.65 383.498 1151.32 383.135C1152 382.76 1152.56 382.25 1153.01 381.606C1153.45 380.961 1153.78 380.223 1154.01 379.391C1154.24 378.547 1154.36 377.651 1154.36 376.701V376.297C1154.36 375.359 1154.24 374.475 1154.01 373.643C1153.78 372.799 1153.44 372.055 1152.99 371.41C1152.54 370.754 1151.98 370.238 1151.3 369.863C1150.63 369.488 1149.85 369.301 1148.94 369.301C1148.05 369.301 1147.27 369.488 1146.59 369.863C1145.92 370.238 1145.36 370.754 1144.9 371.41C1144.46 372.055 1144.12 372.799 1143.9 373.643C1143.68 374.475 1143.57 375.359 1143.57 376.297ZM1169.32 383.68C1170.09 383.68 1170.81 383.522 1171.46 383.205C1172.12 382.889 1172.66 382.455 1173.08 381.904C1173.5 381.342 1173.74 380.703 1173.8 379.988H1176.89C1176.84 381.113 1176.45 382.162 1175.75 383.135C1175.06 384.096 1174.15 384.875 1173.03 385.473C1171.9 386.059 1170.67 386.352 1169.32 386.352C1167.89 386.352 1166.64 386.1 1165.57 385.596C1164.52 385.092 1163.64 384.401 1162.94 383.522C1162.25 382.643 1161.72 381.635 1161.37 380.498C1161.03 379.35 1160.86 378.137 1160.86 376.859V376.121C1160.86 374.844 1161.03 373.637 1161.37 372.5C1161.72 371.352 1162.25 370.338 1162.94 369.459C1163.64 368.58 1164.52 367.889 1165.57 367.385C1166.64 366.881 1167.89 366.629 1169.32 366.629C1170.81 366.629 1172.11 366.934 1173.22 367.543C1174.33 368.141 1175.21 368.961 1175.84 370.004C1176.48 371.035 1176.84 372.207 1176.89 373.52H1173.8C1173.74 372.734 1173.52 372.026 1173.13 371.393C1172.76 370.76 1172.24 370.256 1171.59 369.881C1170.94 369.494 1170.19 369.301 1169.32 369.301C1168.32 369.301 1167.48 369.5 1166.8 369.899C1166.14 370.285 1165.6 370.813 1165.2 371.481C1164.82 372.137 1164.54 372.869 1164.36 373.678C1164.2 374.475 1164.11 375.289 1164.11 376.121V376.859C1164.11 377.692 1164.2 378.512 1164.36 379.32C1164.53 380.129 1164.8 380.861 1165.19 381.518C1165.59 382.174 1166.12 382.701 1166.79 383.1C1167.47 383.486 1168.31 383.68 1169.32 383.68ZM1191.77 382.748V372.957C1191.77 372.207 1191.61 371.557 1191.31 371.006C1191.02 370.443 1190.57 370.01 1189.97 369.705C1189.37 369.401 1188.64 369.248 1187.76 369.248C1186.94 369.248 1186.22 369.389 1185.6 369.67C1184.99 369.951 1184.51 370.32 1184.15 370.777C1183.81 371.234 1183.64 371.727 1183.64 372.254H1180.39C1180.39 371.574 1180.57 370.901 1180.92 370.233C1181.27 369.565 1181.78 368.961 1182.43 368.422C1183.1 367.871 1183.9 367.438 1184.82 367.121C1185.76 366.793 1186.8 366.629 1187.95 366.629C1189.33 366.629 1190.55 366.863 1191.61 367.332C1192.67 367.801 1193.51 368.51 1194.1 369.459C1194.71 370.397 1195.02 371.574 1195.02 372.992V381.852C1195.02 382.484 1195.07 383.158 1195.18 383.873C1195.29 384.588 1195.46 385.203 1195.69 385.719V386H1192.29C1192.13 385.625 1192 385.127 1191.91 384.506C1191.81 383.873 1191.77 383.287 1191.77 382.748ZM1192.33 374.469L1192.36 376.754H1189.08C1188.15 376.754 1187.32 376.83 1186.6 376.983C1185.87 377.123 1185.26 377.34 1184.77 377.633C1184.28 377.926 1183.9 378.295 1183.64 378.74C1183.39 379.174 1183.26 379.684 1183.26 380.27C1183.26 380.867 1183.39 381.412 1183.66 381.904C1183.93 382.397 1184.34 382.789 1184.87 383.082C1185.43 383.363 1186.1 383.504 1186.9 383.504C1187.89 383.504 1188.77 383.293 1189.53 382.871C1190.29 382.449 1190.9 381.934 1191.34 381.324C1191.8 380.715 1192.05 380.123 1192.08 379.549L1193.47 381.113C1193.39 381.606 1193.17 382.151 1192.8 382.748C1192.44 383.346 1191.95 383.92 1191.34 384.471C1190.75 385.01 1190.03 385.461 1189.2 385.824C1188.38 386.176 1187.45 386.352 1186.42 386.352C1185.13 386.352 1184 386.1 1183.03 385.596C1182.07 385.092 1181.32 384.418 1180.78 383.574C1180.25 382.719 1179.99 381.764 1179.99 380.709C1179.99 379.69 1180.19 378.793 1180.59 378.02C1180.98 377.234 1181.56 376.584 1182.31 376.068C1183.06 375.541 1183.96 375.143 1185.02 374.873C1186.07 374.604 1187.25 374.469 1188.55 374.469H1192.33ZM1203.67 359V386H1200.4V359H1203.67ZM1216.95 376.701V376.297C1216.95 374.926 1217.15 373.654 1217.55 372.483C1217.95 371.299 1218.53 370.274 1219.28 369.406C1220.03 368.527 1220.93 367.848 1222 367.367C1223.07 366.875 1224.26 366.629 1225.59 366.629C1226.92 366.629 1228.12 366.875 1229.19 367.367C1230.27 367.848 1231.18 368.527 1231.93 369.406C1232.69 370.274 1233.27 371.299 1233.67 372.483C1234.07 373.654 1234.27 374.926 1234.27 376.297V376.701C1234.27 378.072 1234.07 379.344 1233.67 380.516C1233.27 381.688 1232.69 382.713 1231.93 383.592C1231.18 384.459 1230.27 385.139 1229.21 385.631C1228.15 386.111 1226.96 386.352 1225.62 386.352C1224.28 386.352 1223.08 386.111 1222.02 385.631C1220.95 385.139 1220.04 384.459 1219.28 383.592C1218.53 382.713 1217.95 381.688 1217.55 380.516C1217.15 379.344 1216.95 378.072 1216.95 376.701ZM1220.21 376.297V376.701C1220.21 377.651 1220.32 378.547 1220.54 379.391C1220.76 380.223 1221.1 380.961 1221.54 381.606C1222 382.25 1222.57 382.76 1223.25 383.135C1223.93 383.498 1224.72 383.68 1225.62 383.68C1226.51 383.68 1227.29 383.498 1227.96 383.135C1228.64 382.76 1229.2 382.25 1229.65 381.606C1230.09 380.961 1230.43 380.223 1230.65 379.391C1230.88 378.547 1231 377.651 1231 376.701V376.297C1231 375.359 1230.88 374.475 1230.65 373.643C1230.43 372.799 1230.09 372.055 1229.63 371.41C1229.18 370.754 1228.62 370.238 1227.94 369.863C1227.27 369.488 1226.49 369.301 1225.59 369.301C1224.69 369.301 1223.91 369.488 1223.23 369.863C1222.56 370.238 1222 370.754 1221.54 371.41C1221.1 372.055 1220.76 372.799 1220.54 373.643C1220.32 374.475 1220.21 375.359 1220.21 376.297ZM1241.6 369.969V386H1238.35V366.981H1241.51L1241.6 369.969ZM1247.54 366.875L1247.52 369.899C1247.25 369.84 1247 369.805 1246.75 369.793C1246.52 369.77 1246.25 369.758 1245.94 369.758C1245.19 369.758 1244.53 369.875 1243.95 370.109C1243.38 370.344 1242.89 370.672 1242.5 371.094C1242.1 371.516 1241.78 372.02 1241.55 372.606C1241.32 373.18 1241.18 373.813 1241.11 374.504L1240.19 375.031C1240.19 373.883 1240.3 372.805 1240.53 371.797C1240.76 370.789 1241.12 369.899 1241.6 369.125C1242.08 368.34 1242.69 367.731 1243.43 367.297C1244.18 366.852 1245.07 366.629 1246.1 366.629C1246.33 366.629 1246.6 366.658 1246.91 366.717C1247.21 366.764 1247.42 366.817 1247.54 366.875ZM1104.47 412.637V435.313H1101.2V408.981H1104.19L1104.47 412.637ZM1117.29 418.332V418.701C1117.29 420.084 1117.12 421.367 1116.79 422.551C1116.47 423.723 1115.99 424.742 1115.35 425.609C1114.73 426.477 1113.96 427.151 1113.05 427.631C1112.14 428.111 1111.09 428.352 1109.9 428.352C1108.7 428.352 1107.63 428.152 1106.7 427.754C1105.78 427.356 1104.99 426.776 1104.35 426.014C1103.7 425.252 1103.19 424.338 1102.8 423.272C1102.43 422.205 1102.17 421.004 1102.03 419.668V417.699C1102.17 416.293 1102.43 415.033 1102.82 413.92C1103.21 412.807 1103.72 411.858 1104.35 411.072C1104.99 410.276 1105.77 409.672 1106.69 409.262C1107.6 408.84 1108.66 408.629 1109.85 408.629C1111.05 408.629 1112.11 408.863 1113.03 409.332C1113.96 409.789 1114.74 410.445 1115.37 411.301C1116 412.156 1116.48 413.182 1116.79 414.377C1117.12 415.561 1117.29 416.879 1117.29 418.332ZM1114.02 418.701V418.332C1114.02 417.383 1113.92 416.492 1113.72 415.66C1113.52 414.817 1113.21 414.078 1112.79 413.445C1112.38 412.801 1111.85 412.297 1111.2 411.934C1110.56 411.559 1109.79 411.371 1108.9 411.371C1108.08 411.371 1107.37 411.512 1106.76 411.793C1106.16 412.074 1105.65 412.455 1105.23 412.936C1104.81 413.404 1104.46 413.943 1104.19 414.553C1103.93 415.151 1103.74 415.772 1103.61 416.416V420.969C1103.85 421.789 1104.17 422.563 1104.6 423.289C1105.02 424.004 1105.58 424.584 1106.28 425.029C1106.99 425.463 1107.87 425.68 1108.94 425.68C1109.82 425.68 1110.57 425.498 1111.2 425.135C1111.85 424.76 1112.38 424.25 1112.79 423.606C1113.21 422.961 1113.52 422.223 1113.72 421.391C1113.92 420.547 1114.02 419.651 1114.02 418.701ZM1133.07 423.606V408.981H1136.34V428H1133.23L1133.07 423.606ZM1133.69 419.598L1135.04 419.563C1135.04 420.828 1134.91 422 1134.64 423.078C1134.38 424.145 1133.96 425.07 1133.37 425.856C1132.78 426.641 1132.02 427.256 1131.07 427.701C1130.12 428.135 1128.96 428.352 1127.61 428.352C1126.68 428.352 1125.83 428.217 1125.06 427.947C1124.29 427.678 1123.64 427.262 1123.09 426.699C1122.54 426.137 1122.11 425.404 1121.8 424.502C1121.51 423.6 1121.36 422.516 1121.36 421.25V408.981H1124.62V421.285C1124.62 422.141 1124.71 422.85 1124.9 423.412C1125.1 423.963 1125.36 424.402 1125.69 424.731C1126.03 425.047 1126.4 425.27 1126.81 425.399C1127.24 425.527 1127.67 425.592 1128.11 425.592C1129.5 425.592 1130.59 425.328 1131.4 424.801C1132.21 424.262 1132.79 423.541 1133.14 422.639C1133.51 421.725 1133.69 420.711 1133.69 419.598ZM1141.28 401H1144.55V424.309L1144.27 428H1141.28V401ZM1157.4 418.332V418.701C1157.4 420.084 1157.24 421.367 1156.91 422.551C1156.58 423.723 1156.1 424.742 1155.47 425.609C1154.83 426.477 1154.06 427.151 1153.15 427.631C1152.23 428.111 1151.18 428.352 1150 428.352C1148.79 428.352 1147.73 428.147 1146.82 427.736C1145.92 427.315 1145.15 426.711 1144.53 425.926C1143.91 425.141 1143.41 424.192 1143.04 423.078C1142.68 421.965 1142.42 420.711 1142.28 419.317V417.699C1142.42 416.293 1142.68 415.033 1143.04 413.92C1143.41 412.807 1143.91 411.858 1144.53 411.072C1145.15 410.276 1145.92 409.672 1146.82 409.262C1147.72 408.84 1148.77 408.629 1149.96 408.629C1151.16 408.629 1152.22 408.863 1153.15 409.332C1154.07 409.789 1154.85 410.445 1155.47 411.301C1156.1 412.156 1156.58 413.182 1156.91 414.377C1157.24 415.561 1157.4 416.879 1157.4 418.332ZM1154.13 418.701V418.332C1154.13 417.383 1154.04 416.492 1153.87 415.66C1153.69 414.817 1153.41 414.078 1153.02 413.445C1152.64 412.801 1152.13 412.297 1151.49 411.934C1150.86 411.559 1150.08 411.371 1149.16 411.371C1148.34 411.371 1147.62 411.512 1147.01 411.793C1146.41 412.074 1145.9 412.455 1145.48 412.936C1145.06 413.404 1144.71 413.943 1144.44 414.553C1144.19 415.151 1143.99 415.772 1143.86 416.416V420.652C1144.05 421.473 1144.36 422.264 1144.78 423.026C1145.21 423.776 1145.79 424.391 1146.5 424.871C1147.23 425.352 1148.12 425.592 1149.19 425.592C1150.07 425.592 1150.82 425.416 1151.44 425.065C1152.07 424.701 1152.58 424.203 1152.97 423.57C1153.37 422.938 1153.66 422.205 1153.85 421.373C1154.04 420.541 1154.13 419.651 1154.13 418.701ZM1165.05 401V428H1161.78V401H1165.05ZM1173.8 408.981V428H1170.53V408.981H1173.8ZM1170.28 403.936C1170.28 403.408 1170.44 402.963 1170.76 402.6C1171.09 402.236 1171.57 402.055 1172.2 402.055C1172.82 402.055 1173.3 402.236 1173.62 402.6C1173.96 402.963 1174.13 403.408 1174.13 403.936C1174.13 404.44 1173.96 404.873 1173.62 405.236C1173.3 405.588 1172.82 405.764 1172.2 405.764C1171.57 405.764 1171.09 405.588 1170.76 405.236C1170.44 404.873 1170.28 404.44 1170.28 403.936ZM1190.1 422.955C1190.1 422.486 1189.99 422.053 1189.78 421.654C1189.58 421.244 1189.16 420.875 1188.53 420.547C1187.91 420.207 1186.97 419.914 1185.72 419.668C1184.66 419.445 1183.71 419.182 1182.85 418.877C1182.01 418.572 1181.29 418.203 1180.69 417.77C1180.11 417.336 1179.65 416.826 1179.34 416.24C1179.02 415.654 1178.86 414.969 1178.86 414.184C1178.86 413.434 1179.03 412.725 1179.36 412.057C1179.69 411.389 1180.17 410.797 1180.78 410.281C1181.4 409.766 1182.14 409.361 1183.01 409.068C1183.88 408.776 1184.85 408.629 1185.91 408.629C1187.44 408.629 1188.74 408.899 1189.81 409.438C1190.89 409.977 1191.72 410.697 1192.29 411.6C1192.87 412.49 1193.15 413.481 1193.15 414.57H1189.9C1189.9 414.043 1189.74 413.533 1189.43 413.041C1189.12 412.537 1188.67 412.121 1188.07 411.793C1187.49 411.465 1186.77 411.301 1185.91 411.301C1185.01 411.301 1184.28 411.442 1183.71 411.723C1183.16 411.992 1182.76 412.338 1182.5 412.76C1182.26 413.182 1182.13 413.627 1182.13 414.096C1182.13 414.447 1182.19 414.764 1182.31 415.045C1182.44 415.315 1182.66 415.567 1182.98 415.801C1183.29 416.024 1183.74 416.234 1184.31 416.434C1184.89 416.633 1185.62 416.832 1186.51 417.031C1188.07 417.383 1189.35 417.805 1190.36 418.297C1191.37 418.789 1192.12 419.393 1192.61 420.108C1193.1 420.822 1193.35 421.69 1193.35 422.709C1193.35 423.541 1193.17 424.303 1192.82 424.994C1192.48 425.686 1191.98 426.283 1191.33 426.787C1190.68 427.279 1189.91 427.666 1189.01 427.947C1188.11 428.217 1187.11 428.352 1186 428.352C1184.32 428.352 1182.91 428.053 1181.75 427.455C1180.59 426.858 1179.71 426.084 1179.11 425.135C1178.51 424.186 1178.21 423.184 1178.21 422.129H1181.48C1181.53 423.02 1181.79 423.729 1182.26 424.256C1182.72 424.772 1183.3 425.141 1183.98 425.363C1184.66 425.574 1185.33 425.68 1186 425.68C1186.89 425.68 1187.63 425.563 1188.23 425.328C1188.84 425.094 1189.3 424.772 1189.62 424.361C1189.94 423.951 1190.1 423.483 1190.1 422.955ZM1200.87 401V428H1197.62V401H1200.87ZM1200.1 417.77L1198.74 417.717C1198.76 416.416 1198.95 415.215 1199.32 414.113C1199.7 413 1200.23 412.033 1200.91 411.213C1201.59 410.393 1202.39 409.76 1203.33 409.315C1204.28 408.858 1205.33 408.629 1206.48 408.629C1207.42 408.629 1208.26 408.758 1209.01 409.016C1209.76 409.262 1210.4 409.66 1210.93 410.211C1211.46 410.762 1211.87 411.477 1212.16 412.356C1212.44 413.223 1212.58 414.283 1212.58 415.537V428H1209.31V415.502C1209.31 414.506 1209.16 413.709 1208.87 413.111C1208.58 412.502 1208.15 412.063 1207.59 411.793C1207.02 411.512 1206.33 411.371 1205.51 411.371C1204.7 411.371 1203.96 411.541 1203.3 411.881C1202.64 412.221 1202.07 412.69 1201.59 413.287C1201.12 413.885 1200.75 414.57 1200.48 415.344C1200.23 416.106 1200.1 416.914 1200.1 417.77ZM1225.34 428.352C1224.02 428.352 1222.81 428.129 1221.74 427.684C1220.67 427.227 1219.75 426.588 1218.98 425.768C1218.21 424.947 1217.63 423.975 1217.22 422.85C1216.81 421.725 1216.6 420.494 1216.6 419.158V418.42C1216.6 416.873 1216.83 415.496 1217.29 414.289C1217.75 413.07 1218.37 412.039 1219.15 411.195C1219.94 410.352 1220.83 409.713 1221.82 409.279C1222.82 408.846 1223.85 408.629 1224.92 408.629C1226.28 408.629 1227.45 408.863 1228.43 409.332C1229.43 409.801 1230.24 410.457 1230.88 411.301C1231.51 412.133 1231.98 413.117 1232.28 414.254C1232.59 415.379 1232.74 416.609 1232.74 417.945V419.404H1218.54V416.75H1229.49V416.504C1229.44 415.66 1229.27 414.84 1228.96 414.043C1228.67 413.246 1228.2 412.59 1227.55 412.074C1226.91 411.559 1226.03 411.301 1224.92 411.301C1224.18 411.301 1223.5 411.459 1222.88 411.776C1222.26 412.08 1221.72 412.537 1221.28 413.147C1220.83 413.756 1220.49 414.5 1220.24 415.379C1220 416.258 1219.87 417.272 1219.87 418.42V419.158C1219.87 420.061 1220 420.91 1220.24 421.707C1220.5 422.492 1220.87 423.184 1221.35 423.781C1221.84 424.379 1222.43 424.848 1223.12 425.188C1223.83 425.527 1224.62 425.697 1225.52 425.697C1226.66 425.697 1227.64 425.463 1228.43 424.994C1229.23 424.526 1229.93 423.899 1230.53 423.113L1232.49 424.678C1232.08 425.299 1231.56 425.891 1230.93 426.453C1230.3 427.016 1229.52 427.473 1228.59 427.824C1227.68 428.176 1226.59 428.352 1225.34 428.352ZM1248.53 424.309V401H1251.79V428H1248.81L1248.53 424.309ZM1235.73 418.701V418.332C1235.73 416.879 1235.9 415.561 1236.26 414.377C1236.62 413.182 1237.13 412.156 1237.78 411.301C1238.45 410.445 1239.24 409.789 1240.16 409.332C1241.08 408.863 1242.11 408.629 1243.25 408.629C1244.45 408.629 1245.49 408.84 1246.38 409.262C1247.28 409.672 1248.04 410.276 1248.67 411.072C1249.3 411.858 1249.8 412.807 1250.16 413.92C1250.52 415.033 1250.78 416.293 1250.92 417.699V419.317C1250.79 420.711 1250.53 421.965 1250.16 423.078C1249.8 424.192 1249.3 425.141 1248.67 425.926C1248.04 426.711 1247.28 427.315 1246.38 427.736C1245.48 428.147 1244.42 428.352 1243.22 428.352C1242.1 428.352 1241.08 428.111 1240.16 427.631C1239.24 427.151 1238.45 426.477 1237.78 425.609C1237.13 424.742 1236.62 423.723 1236.26 422.551C1235.9 421.367 1235.73 420.084 1235.73 418.701ZM1239 418.332V418.701C1239 419.651 1239.09 420.541 1239.28 421.373C1239.48 422.205 1239.78 422.938 1240.19 423.57C1240.6 424.203 1241.12 424.701 1241.76 425.065C1242.39 425.416 1243.15 425.592 1244.03 425.592C1245.1 425.592 1245.99 425.363 1246.68 424.906C1247.38 424.449 1247.94 423.846 1248.37 423.096C1248.79 422.346 1249.12 421.531 1249.35 420.652V416.416C1249.21 415.772 1249.01 415.151 1248.74 414.553C1248.48 413.943 1248.14 413.404 1247.72 412.936C1247.31 412.455 1246.8 412.074 1246.19 411.793C1245.59 411.512 1244.88 411.371 1244.06 411.371C1243.17 411.371 1242.4 411.559 1241.76 411.934C1241.12 412.297 1240.6 412.801 1240.19 413.445C1239.78 414.078 1239.48 414.817 1239.28 415.66C1239.09 416.492 1239 417.383 1239 418.332ZM1264.35 417.594V417.77C1264.35 420.336 1264.06 422.656 1263.48 424.731C1262.91 426.805 1262.18 428.615 1261.29 430.162C1260.4 431.721 1259.46 433.01 1258.47 434.029C1257.49 435.061 1256.58 435.805 1255.75 436.262L1255.06 434.293C1255.76 433.766 1256.45 433.027 1257.16 432.078C1257.86 431.141 1258.51 429.981 1259.11 428.598C1259.7 427.227 1260.19 425.645 1260.55 423.852C1260.91 422.047 1261.09 420.031 1261.09 417.805V417.559C1261.09 415.332 1260.9 413.322 1260.51 411.529C1260.13 409.725 1259.62 408.137 1259 406.766C1258.39 405.395 1257.74 404.24 1257.03 403.303C1256.34 402.354 1255.69 401.621 1255.06 401.106L1255.75 399.119C1256.58 399.576 1257.49 400.32 1258.47 401.352C1259.46 402.371 1260.4 403.66 1261.29 405.219C1262.18 406.777 1262.91 408.594 1263.48 410.668C1264.06 412.731 1264.35 415.039 1264.35 417.594Z" fill="white"/>
<path d="M447.333 299.24V302H434.536V299.24H447.333ZM435.204 276.406V302H431.811V276.406H435.204ZM458.618 302.352C457.294 302.352 456.093 302.129 455.014 301.684C453.948 301.227 453.028 300.588 452.255 299.768C451.493 298.947 450.907 297.975 450.497 296.85C450.087 295.725 449.882 294.494 449.882 293.158V292.42C449.882 290.873 450.11 289.496 450.567 288.289C451.024 287.07 451.645 286.039 452.43 285.195C453.216 284.352 454.106 283.713 455.102 283.279C456.098 282.846 457.13 282.629 458.196 282.629C459.555 282.629 460.727 282.863 461.712 283.332C462.708 283.801 463.522 284.457 464.155 285.301C464.788 286.133 465.257 287.117 465.561 288.254C465.866 289.379 466.018 290.609 466.018 291.945V293.404H451.815V290.75H462.766V290.504C462.719 289.66 462.544 288.84 462.239 288.043C461.946 287.246 461.477 286.59 460.833 286.074C460.188 285.559 459.309 285.301 458.196 285.301C457.458 285.301 456.778 285.459 456.157 285.776C455.536 286.08 455.003 286.537 454.557 287.147C454.112 287.756 453.766 288.5 453.52 289.379C453.274 290.258 453.151 291.272 453.151 292.42V293.158C453.151 294.061 453.274 294.91 453.52 295.707C453.778 296.492 454.147 297.184 454.628 297.781C455.12 298.379 455.712 298.848 456.403 299.188C457.106 299.527 457.903 299.697 458.794 299.697C459.942 299.697 460.915 299.463 461.712 298.994C462.509 298.526 463.206 297.899 463.803 297.113L465.772 298.678C465.362 299.299 464.841 299.891 464.208 300.453C463.575 301.016 462.796 301.473 461.87 301.824C460.956 302.176 459.872 302.352 458.618 302.352ZM481.03 298.748V288.957C481.03 288.207 480.878 287.557 480.573 287.006C480.28 286.443 479.835 286.01 479.237 285.705C478.639 285.401 477.901 285.248 477.022 285.248C476.202 285.248 475.481 285.389 474.86 285.67C474.251 285.951 473.77 286.32 473.419 286.777C473.079 287.234 472.909 287.727 472.909 288.254H469.657C469.657 287.574 469.833 286.901 470.184 286.233C470.536 285.565 471.04 284.961 471.696 284.422C472.364 283.871 473.161 283.438 474.087 283.121C475.024 282.793 476.067 282.629 477.216 282.629C478.598 282.629 479.817 282.863 480.872 283.332C481.938 283.801 482.77 284.51 483.368 285.459C483.977 286.397 484.282 287.574 484.282 288.992V297.852C484.282 298.484 484.335 299.158 484.44 299.873C484.557 300.588 484.727 301.203 484.95 301.719V302H481.557C481.393 301.625 481.264 301.127 481.171 300.506C481.077 299.873 481.03 299.287 481.03 298.748ZM481.593 290.469L481.628 292.754H478.341C477.415 292.754 476.589 292.83 475.862 292.983C475.135 293.123 474.526 293.34 474.034 293.633C473.542 293.926 473.167 294.295 472.909 294.74C472.651 295.174 472.522 295.684 472.522 296.27C472.522 296.867 472.657 297.412 472.927 297.904C473.196 298.397 473.6 298.789 474.139 299.082C474.69 299.363 475.364 299.504 476.161 299.504C477.157 299.504 478.036 299.293 478.798 298.871C479.559 298.449 480.163 297.934 480.608 297.324C481.065 296.715 481.311 296.123 481.346 295.549L482.735 297.113C482.653 297.606 482.43 298.151 482.067 298.748C481.704 299.346 481.218 299.92 480.608 300.471C480.01 301.01 479.296 301.461 478.464 301.824C477.643 302.176 476.718 302.352 475.686 302.352C474.397 302.352 473.266 302.1 472.294 301.596C471.333 301.092 470.583 300.418 470.044 299.574C469.516 298.719 469.253 297.764 469.253 296.709C469.253 295.69 469.452 294.793 469.85 294.02C470.249 293.234 470.823 292.584 471.573 292.068C472.323 291.541 473.225 291.143 474.28 290.873C475.335 290.604 476.512 290.469 477.813 290.469H481.593ZM492.649 287.041V302H489.397V282.981H492.473L492.649 287.041ZM491.876 291.77L490.522 291.717C490.534 290.416 490.727 289.215 491.102 288.113C491.477 287 492.005 286.033 492.684 285.213C493.364 284.393 494.173 283.76 495.11 283.315C496.059 282.858 497.108 282.629 498.257 282.629C499.194 282.629 500.038 282.758 500.788 283.016C501.538 283.262 502.177 283.66 502.704 284.211C503.243 284.762 503.653 285.477 503.934 286.356C504.216 287.223 504.356 288.283 504.356 289.537V302H501.087V289.502C501.087 288.506 500.94 287.709 500.647 287.111C500.354 286.502 499.927 286.063 499.364 285.793C498.802 285.512 498.11 285.371 497.29 285.371C496.481 285.371 495.743 285.541 495.075 285.881C494.419 286.221 493.85 286.69 493.37 287.287C492.901 287.885 492.532 288.57 492.262 289.344C492.005 290.106 491.876 290.914 491.876 291.77ZM423.602 341.24V344H410.05V341.24H423.602ZM410.735 318.406V344H407.343V318.406H410.735ZM421.809 329.41V332.17H410.05V329.41H421.809ZM423.427 318.406V321.184H410.05V318.406H423.427ZM430.563 329.041V344H427.311V324.981H430.387L430.563 329.041ZM429.79 333.77L428.436 333.717C428.448 332.416 428.641 331.215 429.016 330.113C429.391 329 429.919 328.033 430.598 327.213C431.278 326.393 432.087 325.76 433.024 325.315C433.973 324.858 435.022 324.629 436.171 324.629C437.108 324.629 437.952 324.758 438.702 325.016C439.452 325.262 440.091 325.66 440.618 326.211C441.157 326.762 441.567 327.477 441.848 328.356C442.13 329.223 442.27 330.283 442.27 331.537V344H439.001V331.502C439.001 330.506 438.854 329.709 438.561 329.111C438.268 328.502 437.841 328.063 437.278 327.793C436.716 327.512 436.024 327.371 435.204 327.371C434.395 327.371 433.657 327.541 432.989 327.881C432.333 328.221 431.764 328.69 431.284 329.287C430.815 329.885 430.446 330.57 430.177 331.344C429.919 332.106 429.79 332.914 429.79 333.77ZM459.532 324.981H462.485V343.596C462.485 345.272 462.145 346.701 461.466 347.885C460.786 349.068 459.837 349.965 458.618 350.574C457.411 351.195 456.016 351.506 454.434 351.506C453.778 351.506 453.005 351.401 452.114 351.19C451.235 350.99 450.368 350.645 449.512 350.152C448.669 349.672 447.96 349.022 447.385 348.201L449.091 346.268C449.887 347.229 450.719 347.897 451.587 348.272C452.466 348.647 453.333 348.834 454.188 348.834C455.219 348.834 456.11 348.641 456.86 348.254C457.61 347.867 458.19 347.293 458.6 346.531C459.022 345.781 459.233 344.856 459.233 343.754V329.164L459.532 324.981ZM446.436 334.701V334.332C446.436 332.879 446.606 331.561 446.946 330.377C447.298 329.182 447.796 328.156 448.44 327.301C449.096 326.445 449.887 325.789 450.813 325.332C451.739 324.863 452.782 324.629 453.942 324.629C455.137 324.629 456.18 324.84 457.071 325.262C457.973 325.672 458.735 326.276 459.356 327.072C459.989 327.858 460.487 328.807 460.85 329.92C461.214 331.033 461.466 332.293 461.606 333.699V335.317C461.477 336.711 461.225 337.965 460.85 339.078C460.487 340.192 459.989 341.141 459.356 341.926C458.735 342.711 457.973 343.315 457.071 343.736C456.169 344.147 455.114 344.352 453.907 344.352C452.77 344.352 451.739 344.111 450.813 343.631C449.899 343.151 449.114 342.477 448.458 341.609C447.802 340.742 447.298 339.723 446.946 338.551C446.606 337.367 446.436 336.084 446.436 334.701ZM449.688 334.332V334.701C449.688 335.651 449.782 336.541 449.969 337.373C450.169 338.205 450.468 338.938 450.866 339.57C451.276 340.203 451.798 340.701 452.43 341.065C453.063 341.416 453.819 341.592 454.698 341.592C455.776 341.592 456.667 341.363 457.37 340.906C458.073 340.449 458.63 339.846 459.04 339.096C459.462 338.346 459.79 337.531 460.024 336.652V332.416C459.895 331.772 459.696 331.151 459.427 330.553C459.169 329.943 458.829 329.404 458.407 328.936C457.997 328.455 457.487 328.074 456.878 327.793C456.268 327.512 455.553 327.371 454.733 327.371C453.843 327.371 453.075 327.559 452.43 327.934C451.798 328.297 451.276 328.801 450.866 329.445C450.468 330.078 450.169 330.817 449.969 331.66C449.782 332.492 449.688 333.383 449.688 334.332ZM470.958 324.981V344H467.688V324.981H470.958ZM467.442 319.936C467.442 319.408 467.6 318.963 467.917 318.6C468.245 318.236 468.725 318.055 469.358 318.055C469.979 318.055 470.454 318.236 470.782 318.6C471.122 318.963 471.292 319.408 471.292 319.936C471.292 320.44 471.122 320.873 470.782 321.236C470.454 321.588 469.979 321.764 469.358 321.764C468.725 321.764 468.245 321.588 467.917 321.236C467.6 320.873 467.442 320.44 467.442 319.936ZM479.43 329.041V344H476.178V324.981H479.255L479.43 329.041ZM478.657 333.77L477.303 333.717C477.315 332.416 477.509 331.215 477.884 330.113C478.259 329 478.786 328.033 479.466 327.213C480.145 326.393 480.954 325.76 481.891 325.315C482.841 324.858 483.889 324.629 485.038 324.629C485.975 324.629 486.819 324.758 487.569 325.016C488.319 325.262 488.958 325.66 489.485 326.211C490.024 326.762 490.434 327.477 490.716 328.356C490.997 329.223 491.137 330.283 491.137 331.537V344H487.868V331.502C487.868 330.506 487.721 329.709 487.428 329.111C487.135 328.502 486.708 328.063 486.145 327.793C485.583 327.512 484.891 327.371 484.071 327.371C483.262 327.371 482.524 327.541 481.856 327.881C481.2 328.221 480.632 328.69 480.151 329.287C479.682 329.885 479.313 330.57 479.044 331.344C478.786 332.106 478.657 332.914 478.657 333.77ZM503.969 344.352C502.645 344.352 501.444 344.129 500.366 343.684C499.3 343.227 498.38 342.588 497.606 341.768C496.844 340.947 496.259 339.975 495.848 338.85C495.438 337.725 495.233 336.494 495.233 335.158V334.42C495.233 332.873 495.462 331.496 495.919 330.289C496.376 329.07 496.997 328.039 497.782 327.195C498.567 326.352 499.458 325.713 500.454 325.279C501.45 324.846 502.481 324.629 503.548 324.629C504.907 324.629 506.079 324.863 507.063 325.332C508.059 325.801 508.874 326.457 509.507 327.301C510.139 328.133 510.608 329.117 510.913 330.254C511.218 331.379 511.37 332.609 511.37 333.945V335.404H497.167V332.75H508.118V332.504C508.071 331.66 507.895 330.84 507.591 330.043C507.298 329.246 506.829 328.59 506.184 328.074C505.54 327.559 504.661 327.301 503.548 327.301C502.809 327.301 502.13 327.459 501.509 327.776C500.887 328.08 500.354 328.537 499.909 329.147C499.464 329.756 499.118 330.5 498.872 331.379C498.626 332.258 498.503 333.272 498.503 334.42V335.158C498.503 336.061 498.626 336.91 498.872 337.707C499.13 338.492 499.499 339.184 499.979 339.781C500.471 340.379 501.063 340.848 501.755 341.188C502.458 341.527 503.255 341.697 504.145 341.697C505.294 341.697 506.266 341.463 507.063 340.994C507.86 340.526 508.557 339.899 509.155 339.113L511.124 340.678C510.714 341.299 510.192 341.891 509.559 342.453C508.927 343.016 508.147 343.473 507.221 343.824C506.307 344.176 505.223 344.352 503.969 344.352ZM526.241 338.955C526.241 338.486 526.135 338.053 525.925 337.654C525.725 337.244 525.309 336.875 524.677 336.547C524.055 336.207 523.118 335.914 521.864 335.668C520.809 335.445 519.854 335.182 518.999 334.877C518.155 334.572 517.434 334.203 516.837 333.77C516.251 333.336 515.8 332.826 515.483 332.24C515.167 331.654 515.009 330.969 515.009 330.184C515.009 329.434 515.173 328.725 515.501 328.057C515.841 327.389 516.315 326.797 516.925 326.281C517.546 325.766 518.29 325.361 519.157 325.068C520.024 324.776 520.991 324.629 522.057 324.629C523.581 324.629 524.882 324.899 525.96 325.438C527.038 325.977 527.864 326.697 528.438 327.6C529.012 328.49 529.3 329.481 529.3 330.57H526.048C526.048 330.043 525.889 329.533 525.573 329.041C525.268 328.537 524.817 328.121 524.219 327.793C523.634 327.465 522.913 327.301 522.057 327.301C521.155 327.301 520.423 327.442 519.86 327.723C519.309 327.992 518.905 328.338 518.647 328.76C518.401 329.182 518.278 329.627 518.278 330.096C518.278 330.447 518.337 330.764 518.454 331.045C518.583 331.315 518.805 331.567 519.122 331.801C519.438 332.024 519.884 332.234 520.458 332.434C521.032 332.633 521.764 332.832 522.655 333.031C524.214 333.383 525.497 333.805 526.505 334.297C527.512 334.789 528.262 335.393 528.755 336.108C529.247 336.822 529.493 337.69 529.493 338.709C529.493 339.541 529.317 340.303 528.966 340.994C528.626 341.686 528.128 342.283 527.471 342.787C526.827 343.279 526.053 343.666 525.151 343.947C524.26 344.217 523.259 344.352 522.145 344.352C520.469 344.352 519.052 344.053 517.891 343.455C516.731 342.858 515.852 342.084 515.255 341.135C514.657 340.186 514.358 339.184 514.358 338.129H517.628C517.675 339.02 517.932 339.729 518.401 340.256C518.87 340.772 519.444 341.141 520.124 341.363C520.803 341.574 521.477 341.68 522.145 341.68C523.036 341.68 523.78 341.563 524.378 341.328C524.987 341.094 525.45 340.772 525.766 340.361C526.083 339.951 526.241 339.483 526.241 338.955Z" fill="white"/>
<path d="M1460.93 276.406H1464.21L1472.6 297.271L1480.97 276.406H1484.27L1473.86 302H1471.3L1460.93 276.406ZM1459.86 276.406H1462.76L1463.23 292.016V302H1459.86V276.406ZM1482.43 276.406H1485.33V302H1481.95V292.016L1482.43 276.406ZM1494.33 282.98V302H1491.06V282.98H1494.33ZM1490.81 277.936C1490.81 277.408 1490.97 276.963 1491.28 276.6C1491.61 276.236 1492.09 276.055 1492.73 276.055C1493.35 276.055 1493.82 276.236 1494.15 276.6C1494.49 276.963 1494.66 277.408 1494.66 277.936C1494.66 278.439 1494.49 278.873 1494.15 279.236C1493.82 279.588 1493.35 279.764 1492.73 279.764C1492.09 279.764 1491.61 279.588 1491.28 279.236C1490.97 278.873 1490.81 278.439 1490.81 277.936ZM1507.16 299.68C1507.93 299.68 1508.65 299.521 1509.3 299.205C1509.96 298.889 1510.5 298.455 1510.92 297.904C1511.34 297.342 1511.58 296.703 1511.64 295.988H1514.73C1514.68 297.113 1514.29 298.162 1513.59 299.135C1512.9 300.096 1511.99 300.875 1510.87 301.473C1509.74 302.059 1508.51 302.352 1507.16 302.352C1505.73 302.352 1504.48 302.1 1503.41 301.596C1502.36 301.092 1501.48 300.4 1500.78 299.521C1500.09 298.643 1499.56 297.635 1499.21 296.498C1498.87 295.35 1498.7 294.137 1498.7 292.859V292.121C1498.7 290.844 1498.87 289.637 1499.21 288.5C1499.56 287.352 1500.09 286.338 1500.78 285.459C1501.48 284.58 1502.36 283.889 1503.41 283.385C1504.48 282.881 1505.73 282.629 1507.16 282.629C1508.65 282.629 1509.95 282.934 1511.06 283.543C1512.17 284.141 1513.05 284.961 1513.68 286.004C1514.32 287.035 1514.68 288.207 1514.73 289.52H1511.64C1511.58 288.734 1511.36 288.025 1510.97 287.393C1510.6 286.76 1510.08 286.256 1509.43 285.881C1508.78 285.494 1508.02 285.301 1507.16 285.301C1506.16 285.301 1505.32 285.5 1504.64 285.898C1503.98 286.285 1503.44 286.812 1503.04 287.48C1502.66 288.137 1502.38 288.869 1502.2 289.678C1502.04 290.475 1501.95 291.289 1501.95 292.121V292.859C1501.95 293.691 1502.04 294.512 1502.2 295.32C1502.36 296.129 1502.64 296.861 1503.03 297.518C1503.43 298.174 1503.96 298.701 1504.63 299.1C1505.31 299.486 1506.15 299.68 1507.16 299.68ZM1521.64 285.969V302H1518.39V282.98H1521.55L1521.64 285.969ZM1527.58 282.875L1527.57 285.898C1527.3 285.84 1527.04 285.805 1526.79 285.793C1526.56 285.77 1526.29 285.758 1525.98 285.758C1525.23 285.758 1524.57 285.875 1524 286.109C1523.42 286.344 1522.94 286.672 1522.54 287.094C1522.14 287.516 1521.82 288.02 1521.59 288.605C1521.37 289.18 1521.22 289.812 1521.15 290.504L1520.24 291.031C1520.24 289.883 1520.35 288.805 1520.57 287.797C1520.8 286.789 1521.16 285.898 1521.64 285.125C1522.12 284.34 1522.73 283.73 1523.47 283.297C1524.22 282.852 1525.11 282.629 1526.14 282.629C1526.38 282.629 1526.65 282.658 1526.95 282.717C1527.26 282.764 1527.47 282.816 1527.58 282.875ZM1529.38 292.701V292.297C1529.38 290.926 1529.58 289.654 1529.97 288.482C1530.37 287.299 1530.95 286.273 1531.7 285.406C1532.45 284.527 1533.36 283.848 1534.42 283.367C1535.49 282.875 1536.68 282.629 1538.01 282.629C1539.34 282.629 1540.54 282.875 1541.61 283.367C1542.69 283.848 1543.6 284.527 1544.35 285.406C1545.11 286.273 1545.69 287.299 1546.09 288.482C1546.49 289.654 1546.69 290.926 1546.69 292.297V292.701C1546.69 294.072 1546.49 295.344 1546.09 296.516C1545.69 297.688 1545.11 298.713 1544.35 299.592C1543.6 300.459 1542.69 301.139 1541.63 301.631C1540.57 302.111 1539.38 302.352 1538.04 302.352C1536.71 302.352 1535.51 302.111 1534.44 301.631C1533.37 301.139 1532.46 300.459 1531.7 299.592C1530.95 298.713 1530.37 297.688 1529.97 296.516C1529.58 295.344 1529.38 294.072 1529.38 292.701ZM1532.63 292.297V292.701C1532.63 293.65 1532.74 294.547 1532.96 295.391C1533.19 296.223 1533.52 296.961 1533.96 297.605C1534.42 298.25 1534.99 298.76 1535.67 299.135C1536.35 299.498 1537.14 299.68 1538.04 299.68C1538.93 299.68 1539.71 299.498 1540.38 299.135C1541.06 298.76 1541.62 298.25 1542.07 297.605C1542.51 296.961 1542.85 296.223 1543.07 295.391C1543.3 294.547 1543.42 293.65 1543.42 292.701V292.297C1543.42 291.359 1543.3 290.475 1543.07 289.643C1542.85 288.799 1542.51 288.055 1542.05 287.41C1541.61 286.754 1541.04 286.238 1540.36 285.863C1539.69 285.488 1538.91 285.301 1538.01 285.301C1537.12 285.301 1536.33 285.488 1535.65 285.863C1534.98 286.238 1534.42 286.754 1533.96 287.41C1533.52 288.055 1533.19 288.799 1532.96 289.643C1532.74 290.475 1532.63 291.359 1532.63 292.297ZM1561.84 296.955C1561.84 296.486 1561.74 296.053 1561.53 295.654C1561.33 295.244 1560.91 294.875 1560.28 294.547C1559.66 294.207 1558.72 293.914 1557.47 293.668C1556.41 293.445 1555.46 293.182 1554.6 292.877C1553.76 292.572 1553.04 292.203 1552.44 291.77C1551.85 291.336 1551.4 290.826 1551.09 290.24C1550.77 289.654 1550.61 288.969 1550.61 288.184C1550.61 287.434 1550.77 286.725 1551.1 286.057C1551.44 285.389 1551.92 284.797 1552.53 284.281C1553.15 283.766 1553.89 283.361 1554.76 283.068C1555.63 282.775 1556.59 282.629 1557.66 282.629C1559.18 282.629 1560.48 282.898 1561.56 283.438C1562.64 283.977 1563.47 284.697 1564.04 285.6C1564.61 286.49 1564.9 287.48 1564.9 288.57H1561.65C1561.65 288.043 1561.49 287.533 1561.18 287.041C1560.87 286.537 1560.42 286.121 1559.82 285.793C1559.24 285.465 1558.52 285.301 1557.66 285.301C1556.76 285.301 1556.02 285.441 1555.46 285.723C1554.91 285.992 1554.51 286.338 1554.25 286.76C1554 287.182 1553.88 287.627 1553.88 288.096C1553.88 288.447 1553.94 288.764 1554.06 289.045C1554.19 289.314 1554.41 289.566 1554.72 289.801C1555.04 290.023 1555.49 290.234 1556.06 290.434C1556.63 290.633 1557.37 290.832 1558.26 291.031C1559.82 291.383 1561.1 291.805 1562.11 292.297C1563.11 292.789 1563.86 293.393 1564.36 294.107C1564.85 294.822 1565.1 295.689 1565.1 296.709C1565.1 297.541 1564.92 298.303 1564.57 298.994C1564.23 299.686 1563.73 300.283 1563.07 300.787C1562.43 301.279 1561.66 301.666 1560.75 301.947C1559.86 302.217 1558.86 302.352 1557.75 302.352C1556.07 302.352 1554.65 302.053 1553.49 301.455C1552.33 300.857 1551.45 300.084 1550.86 299.135C1550.26 298.186 1549.96 297.184 1549.96 296.129H1553.23C1553.28 297.02 1553.53 297.729 1554 298.256C1554.47 298.771 1555.05 299.141 1555.73 299.363C1556.41 299.574 1557.08 299.68 1557.75 299.68C1558.64 299.68 1559.38 299.562 1559.98 299.328C1560.59 299.094 1561.05 298.771 1561.37 298.361C1561.69 297.951 1561.84 297.482 1561.84 296.955ZM1577.26 302.352C1575.94 302.352 1574.73 302.129 1573.66 301.684C1572.59 301.227 1571.67 300.588 1570.9 299.768C1570.13 298.947 1569.55 297.975 1569.14 296.85C1568.73 295.725 1568.52 294.494 1568.52 293.158V292.42C1568.52 290.873 1568.75 289.496 1569.21 288.289C1569.67 287.07 1570.29 286.039 1571.07 285.195C1571.86 284.352 1572.75 283.713 1573.74 283.279C1574.74 282.846 1575.77 282.629 1576.84 282.629C1578.2 282.629 1579.37 282.863 1580.35 283.332C1581.35 283.801 1582.16 284.457 1582.8 285.301C1583.43 286.133 1583.9 287.117 1584.2 288.254C1584.51 289.379 1584.66 290.609 1584.66 291.945V293.404H1570.46V290.75H1581.41V290.504C1581.36 289.66 1581.19 288.84 1580.88 288.043C1580.59 287.246 1580.12 286.59 1579.47 286.074C1578.83 285.559 1577.95 285.301 1576.84 285.301C1576.1 285.301 1575.42 285.459 1574.8 285.775C1574.18 286.08 1573.64 286.537 1573.2 287.146C1572.75 287.756 1572.41 288.5 1572.16 289.379C1571.92 290.258 1571.79 291.271 1571.79 292.42V293.158C1571.79 294.061 1571.92 294.91 1572.16 295.707C1572.42 296.492 1572.79 297.184 1573.27 297.781C1573.76 298.379 1574.35 298.848 1575.04 299.188C1575.75 299.527 1576.54 299.697 1577.44 299.697C1578.58 299.697 1579.56 299.463 1580.35 298.994C1581.15 298.525 1581.85 297.898 1582.44 297.113L1584.41 298.678C1584 299.299 1583.48 299.891 1582.85 300.453C1582.22 301.016 1581.44 301.473 1580.51 301.824C1579.6 302.176 1578.51 302.352 1577.26 302.352ZM1591.71 285.969V302H1588.46V282.98H1591.62L1591.71 285.969ZM1597.65 282.875L1597.63 285.898C1597.36 285.84 1597.11 285.805 1596.86 285.793C1596.62 285.77 1596.36 285.758 1596.05 285.758C1595.3 285.758 1594.64 285.875 1594.06 286.109C1593.49 286.344 1593 286.672 1592.61 287.094C1592.21 287.516 1591.89 288.02 1591.66 288.605C1591.43 289.18 1591.29 289.812 1591.22 290.504L1590.3 291.031C1590.3 289.883 1590.41 288.805 1590.64 287.797C1590.87 286.789 1591.23 285.898 1591.71 285.125C1592.19 284.34 1592.8 283.73 1593.54 283.297C1594.29 282.852 1595.18 282.629 1596.21 282.629C1596.44 282.629 1596.71 282.658 1597.02 282.717C1597.32 282.764 1597.53 282.816 1597.65 282.875ZM1606.76 299.064L1611.96 282.98H1615.28L1608.44 302H1606.26L1606.76 299.064ZM1602.41 282.98L1607.77 299.152L1608.14 302H1605.96L1599.07 282.98H1602.41ZM1621.94 282.98V302H1618.67V282.98H1621.94ZM1618.43 277.936C1618.43 277.408 1618.59 276.963 1618.9 276.6C1619.23 276.236 1619.71 276.055 1620.34 276.055C1620.96 276.055 1621.44 276.236 1621.77 276.6C1622.11 276.963 1622.28 277.408 1622.28 277.936C1622.28 278.439 1622.11 278.873 1621.77 279.236C1621.44 279.588 1620.96 279.764 1620.34 279.764C1619.71 279.764 1619.23 279.588 1618.9 279.236C1618.59 278.873 1618.43 278.439 1618.43 277.936ZM1634.77 299.68C1635.55 299.68 1636.26 299.521 1636.92 299.205C1637.58 298.889 1638.11 298.455 1638.54 297.904C1638.96 297.342 1639.2 296.703 1639.26 295.988H1642.35C1642.29 297.113 1641.91 298.162 1641.21 299.135C1640.52 300.096 1639.61 300.875 1638.48 301.473C1637.36 302.059 1636.12 302.352 1634.77 302.352C1633.35 302.352 1632.1 302.1 1631.03 301.596C1629.98 301.092 1629.1 300.4 1628.39 299.521C1627.7 298.643 1627.18 297.635 1626.83 296.498C1626.49 295.35 1626.32 294.137 1626.32 292.859V292.121C1626.32 290.844 1626.49 289.637 1626.83 288.5C1627.18 287.352 1627.7 286.338 1628.39 285.459C1629.1 284.58 1629.98 283.889 1631.03 283.385C1632.1 282.881 1633.35 282.629 1634.77 282.629C1636.26 282.629 1637.56 282.934 1638.68 283.543C1639.79 284.141 1640.66 284.961 1641.3 286.004C1641.94 287.035 1642.29 288.207 1642.35 289.52H1639.26C1639.2 288.734 1638.98 288.025 1638.59 287.393C1638.21 286.76 1637.7 286.256 1637.04 285.881C1636.4 285.494 1635.64 285.301 1634.77 285.301C1633.78 285.301 1632.94 285.5 1632.26 285.898C1631.59 286.285 1631.06 286.812 1630.66 287.48C1630.27 288.137 1629.99 288.869 1629.82 289.678C1629.65 290.475 1629.57 291.289 1629.57 292.121V292.859C1629.57 293.691 1629.65 294.512 1629.82 295.32C1629.98 296.129 1630.26 296.861 1630.64 297.518C1631.04 298.174 1631.58 298.701 1632.24 299.1C1632.92 299.486 1633.77 299.68 1634.77 299.68ZM1653.9 302.352C1652.58 302.352 1651.37 302.129 1650.3 301.684C1649.23 301.227 1648.31 300.588 1647.54 299.768C1646.77 298.947 1646.19 297.975 1645.78 296.85C1645.37 295.725 1645.16 294.494 1645.16 293.158V292.42C1645.16 290.873 1645.39 289.496 1645.85 288.289C1646.31 287.07 1646.93 286.039 1647.71 285.195C1648.5 284.352 1649.39 283.713 1650.38 283.279C1651.38 282.846 1652.41 282.629 1653.48 282.629C1654.84 282.629 1656.01 282.863 1656.99 283.332C1657.99 283.801 1658.8 284.457 1659.44 285.301C1660.07 286.133 1660.54 287.117 1660.84 288.254C1661.15 289.379 1661.3 290.609 1661.3 291.945V293.404H1647.1V290.75H1658.05V290.504C1658 289.66 1657.83 288.84 1657.52 288.043C1657.23 287.246 1656.76 286.59 1656.11 286.074C1655.47 285.559 1654.59 285.301 1653.48 285.301C1652.74 285.301 1652.06 285.459 1651.44 285.775C1650.82 286.08 1650.28 286.537 1649.84 287.146C1649.39 287.756 1649.05 288.5 1648.8 289.379C1648.56 290.258 1648.43 291.271 1648.43 292.42V293.158C1648.43 294.061 1648.56 294.91 1648.8 295.707C1649.06 296.492 1649.43 297.184 1649.91 297.781C1650.4 298.379 1650.99 298.848 1651.69 299.188C1652.39 299.527 1653.19 299.697 1654.08 299.697C1655.22 299.697 1656.2 299.463 1656.99 298.994C1657.79 298.525 1658.49 297.898 1659.09 297.113L1661.05 298.678C1660.64 299.299 1660.12 299.891 1659.49 300.453C1658.86 301.016 1658.08 301.473 1657.15 301.824C1656.24 302.176 1655.15 302.352 1653.9 302.352ZM1676.17 296.955C1676.17 296.486 1676.07 296.053 1675.86 295.654C1675.66 295.244 1675.24 294.875 1674.61 294.547C1673.99 294.207 1673.05 293.914 1671.79 293.668C1670.74 293.445 1669.78 293.182 1668.93 292.877C1668.09 292.572 1667.36 292.203 1666.77 291.77C1666.18 291.336 1665.73 290.826 1665.41 290.24C1665.1 289.654 1664.94 288.969 1664.94 288.184C1664.94 287.434 1665.1 286.725 1665.43 286.057C1665.77 285.389 1666.25 284.797 1666.86 284.281C1667.48 283.766 1668.22 283.361 1669.09 283.068C1669.95 282.775 1670.92 282.629 1671.99 282.629C1673.51 282.629 1674.81 282.898 1675.89 283.438C1676.97 283.977 1677.79 284.697 1678.37 285.6C1678.94 286.49 1679.23 287.48 1679.23 288.57H1675.98C1675.98 288.043 1675.82 287.533 1675.5 287.041C1675.2 286.537 1674.75 286.121 1674.15 285.793C1673.56 285.465 1672.84 285.301 1671.99 285.301C1671.09 285.301 1670.35 285.441 1669.79 285.723C1669.24 285.992 1668.84 286.338 1668.58 286.76C1668.33 287.182 1668.21 287.627 1668.21 288.096C1668.21 288.447 1668.27 288.764 1668.38 289.045C1668.51 289.314 1668.74 289.566 1669.05 289.801C1669.37 290.023 1669.81 290.234 1670.39 290.434C1670.96 290.633 1671.69 290.832 1672.59 291.031C1674.14 291.383 1675.43 291.805 1676.44 292.297C1677.44 292.789 1678.19 293.393 1678.69 294.107C1679.18 294.822 1679.42 295.689 1679.42 296.709C1679.42 297.541 1679.25 298.303 1678.9 298.994C1678.56 299.686 1678.06 300.283 1677.4 300.787C1676.76 301.279 1675.98 301.666 1675.08 301.947C1674.19 302.217 1673.19 302.352 1672.08 302.352C1670.4 302.352 1668.98 302.053 1667.82 301.455C1666.66 300.857 1665.78 300.084 1665.19 299.135C1664.59 298.186 1664.29 297.184 1664.29 296.129H1667.56C1667.61 297.02 1667.86 297.729 1668.33 298.256C1668.8 298.771 1669.37 299.141 1670.05 299.363C1670.73 299.574 1671.41 299.68 1672.08 299.68C1672.97 299.68 1673.71 299.562 1674.31 299.328C1674.92 299.094 1675.38 298.771 1675.7 298.361C1676.01 297.951 1676.17 297.482 1676.17 296.955Z" fill="white"/>
<line x1="591.5" y1="2.40413e-07" x2="591.5" y2="230" stroke="#F2D2EF" stroke-width="11"/>
<line x1="1103.5" y1="3.70209e-07" x2="1103.5" y2="230" stroke="#F2D2EF" stroke-width="11"/>
<line x1="1098" y1="120.5" x2="586" y2="120.5" stroke="#F2D2EF" stroke-width="11"/>
<defs>
<linearGradient id="paint0_linear_104_5" x1="9.24931e-07" y1="128.684" x2="1680.69" y2="139.113" gradientUnits="userSpaceOnUse">
<stop stop-color="#1BE2EF"/>
<stop offset="1" stop-color="#C900FB"/>
</linearGradient>
</defs>
</svg>
